<?xml version="1.0" encoding="UTF-8" standalone="no"?>
<svg width="116px" height="116px" viewBox="0 0 116 116" version="1.1" xmlns="http://www.w3.org/2000/svg" xmlns:xlink="http://www.w3.org/1999/xlink" xmlns:sketch="http://www.bohemiancoding.com/sketch/ns">
    <!-- Generator: Sketch 3.0.4 (8054) - http://www.bohemiancoding.com/sketch -->
    <title>bridge</title>
    <desc>Created with Sketch.</desc>
    <defs></defs>
    <g id="Page-1" stroke="none" stroke-width="1" fill="none" fill-rule="evenodd" sketch:type="MSPage">
        <g id="bridge" sketch:type="MSArtboardGroup" fill="#000000">
            <path d="M106.906018,103.986723 C101.926378,100.371404 92.2325405,96.692766 92.2325405,96.692766 C92.2325405,96.692766 85.1628108,84.8868085 79.9846126,72.050383 C74.2985225,57.9598298 70.5489009,40.5460426 70.5489009,40.5460426 L70.552036,20.9681702 L67.7314595,21.0948085 L67.6865225,23.858383 C67.6865225,23.858383 51.7297297,23.8052766 49.9531532,23.7991489 L49.9531532,20.0194043 C49.2728288,20.0194043 47.1179459,20 47.1179459,20 L47.1137658,45.3940426 C47.1137658,45.3940426 44.6223784,58.2406809 41.202991,67.0073191 C39.5350991,71.2874894 37.0792432,74.624 35.2065225,76.7605106 C32.4319279,74.9569362 29.464,72.6968511 27.3833153,70.2110638 C24.0663423,66.2474894 22.5374414,61.771234 21.9104144,59.4049362 L21.9135495,56.1113191 L20.7389189,56.114383 L20.7117477,57.1366809 L13.8646126,57.1366809 L13.8625225,56.1113191 L12.3545225,56.114383 L12.3545225,70.5899574 C12.3545225,70.5899574 11.4986306,79.4229787 8.74389189,85.6405106 C5.91704505,92.0265532 0.47027027,96.0187234 0.47027027,96.0187234 L0.491171171,97.5108085 L5.14266667,93.7719149 L4.96814414,99.8076596 L0,99.7811064 L0.00627027027,115.411745 C0.00627027027,115.411745 49.8601441,115.396426 115.460757,115.381106 C115.146198,114.821447 112.416541,107.985021 106.906018,103.986723 L106.906018,103.986723 Z M10.6166126,83.108766 C12.3681081,78.4170213 12.9198919,72.0166809 12.9198919,72.0166809 L13.0055856,84.5661277 L6.56915315,90.992 C6.56915315,90.992 8.93722523,87.6003404 10.6166126,83.108766 L10.6166126,83.108766 Z M10.624973,99.6534468 L10.624973,93.6585532 C5.17610811,93.6585532 5.36212613,93.2837447 5.36212613,93.2837447 L13.1884685,87.9914894 L13.2344505,99.7606809 C13.2344505,99.7606809 11.0105946,99.7841702 10.624973,99.6534468 L10.624973,99.6534468 Z M35.6600721,78.1545532 C37.6414775,79.3862128 39.1296216,80.1051915 40.1537658,80.624 C36.8942703,80.7128511 33.7936216,80.1460426 33.7936216,80.1460426 C33.7936216,80.1460426 34.7947748,79.2125957 35.6600721,78.1545532 L35.6600721,78.1545532 Z M40.9260541,81.5554043 C44.1552432,81.1938723 47.0207568,79.268766 47.0207568,79.268766 L47.0332973,84.512 C47.0332973,84.512 44.078955,84.098383 40.8163243,83.3201702 C36.9925045,82.4071489 32.0546667,81.1080851 32.0546667,81.1080851 C32.0546667,81.1080851 37.005045,82.0006809 40.9260541,81.5554043 L40.9260541,81.5554043 Z M21.8989189,61.9775319 C22.8248288,64.5062128 24.4310631,68.0459574 26.9245405,71.0311489 C28.9874595,73.4975319 31.9031351,75.7198298 34.5763604,77.4641702 C33.3735135,78.7642553 32.5343423,79.4587234 32.5343423,79.4587234 C32.5343423,79.4587234 29.7670631,78.5273191 27.4669189,77.0025532 C24.8563964,75.2714894 21.8947387,72.2199149 21.8947387,72.2199149 L21.8989189,61.9775319 L21.8989189,61.9775319 Z M21.8874234,73.3596596 C21.8874234,73.3596596 23.8416577,75.7668085 26.4971171,77.7511489 C27.8912072,78.7918298 30.7222342,80.0653617 30.7222342,80.0653617 C30.7222342,80.0653617 26.9297658,81.044766 23.2888288,80.0857872 C22.7621261,79.9468936 22.4151712,79.7681702 21.9062342,79.5373617 C21.8821982,78.5365106 21.8874234,73.3596596 21.8874234,73.3596596 L21.8874234,73.3596596 Z M14.153045,58.9382128 L20.231027,58.9351489 L20.208036,70.0251915 C20.208036,70.0251915 18.3363604,67.819234 17.0624505,65.8624681 C15.5251892,63.5074043 14.150955,60.6764255 14.150955,60.6764255 L14.153045,58.9382128 L14.153045,58.9382128 Z M17.9183423,76.0701277 L14.336973,71.8267234 L19.6928288,71.6970213 L17.9183423,76.0701277 L17.9183423,76.0701277 Z M18.1921441,77.4641702 L20.6971171,79.9693617 L20.788036,81.2275745 C20.788036,81.2275745 19.6123604,81.4522553 18.4116036,81.8842553 C17.1470991,82.3417872 15.8491532,83.0107234 15.8491532,83.0107234 L18.1921441,77.4641702 L18.1921441,77.4641702 Z M14.150955,62.4217872 C14.150955,62.4217872 15.1416577,64.6553191 16.4051171,66.5916596 C17.8044324,68.7414468 19.4911351,70.6144681 19.4911351,70.6144681 C19.4347027,70.7911489 19.3761802,70.9586383 19.3155676,71.1108085 C18.5390991,71.1291915 14.1488649,71.1741277 14.1488649,71.1741277 L14.150955,62.4217872 L14.150955,62.4217872 Z M14.199027,72.4854468 C14.2324685,72.5211915 17.5839279,77.012766 17.5839279,77.012766 L15.9818739,80.4013617 L14.2951712,83.7235745 C14.2951712,83.7235745 14.1833514,75.0917447 14.199027,72.4854468 L14.199027,72.4854468 Z M19.0407207,94.2733617 C19.0543063,95.696 19.3312432,97.7375319 18.9362162,98.8854468 L16.1323604,98.8854468 L16.1323604,99.6534468 C16.1323604,99.6534468 15.4384505,100.056851 14.243964,99.6534468 L14.243964,87.4338723 C14.243964,87.4338723 16.1407207,86.4554894 17.8963964,85.7998298 C19.4127568,85.2350638 20.8225225,84.9725957 20.8225225,84.9725957 L20.8538739,94.1691915 C20.8538739,94.1691915 19.4263423,94.1446809 19.0407207,94.2733617 L19.0407207,94.2733617 Z M20.7107027,78.6815319 L18.7658739,76.7237447 L20.8601441,72.050383 L20.7107027,78.6815319 L20.7107027,78.6815319 Z M46.9914955,93.5860426 C46.9820901,93.6085106 46.9737297,93.6330213 46.9653694,93.6585532 C45.3225586,93.6718298 41.8561441,93.6452766 41.8561441,93.6452766 C41.8561441,93.6452766 42.0400721,97.6558298 41.6168288,98.8854468 C40.8403604,98.9048511 39.44,99.0498723 38.9415135,98.7322553 C38.7763964,98.498383 38.7763964,98.1011064 38.7868468,97.6558298 C38.513045,97.5547234 38.6300901,97.627234 38.4691532,97.501617 L33.2794595,97.501617 C32.9293694,97.6742128 32.9690811,98.2011915 32.9659459,98.7322553 L32.8060541,98.7322553 L32.8060541,98.8854468 C31.3910631,98.8354043 30.5895135,98.3268085 30.1328288,98.8854468 C29.5507387,98.9017872 28.7387387,98.9518298 28.4011892,98.7322553 C28.1524685,98.3564255 28.2203964,97.1605106 28.0876757,96.7346383 C26.7928649,96.482383 24.9128288,96.5651064 23.3682523,96.5794043 C23.4372252,95.227234 23.6984865,94.1293617 21.8989189,94.100766 C21.9030991,90.5201702 21.7515676,84.6417021 21.7515676,84.6417021 C21.7515676,84.6417021 28.6917117,83.8440851 32.7475315,85.1390638 C39.5664505,87.3225532 46.9653694,91.3198298 46.9653694,91.3198298 C46.9653694,91.3198298 47.329045,92.5290213 46.9914955,93.5860426 L46.9914955,93.5860426 Z M47.0249369,77.9788936 C47.0249369,77.9788936 44.7592793,80.1429787 42.0651532,80.653617 C40.9668108,80.114383 38.7460901,78.9746383 36.2484324,77.4243404 C38.0584505,75.1203404 40.6909189,71.3344681 42.4434595,66.8878298 C45.1981982,59.9033191 47.1440721,50.4871489 47.1440721,50.4871489 L47.0249369,77.9788936 L47.0249369,77.9788936 Z M52.7852252,98.8854468 C52.0066667,98.9171064 51.2521441,98.9742979 50.8989189,98.576 C50.8989189,98.576 50.7515676,93.2674043 50.7411171,93.1979574 C51.2291532,93.0314894 52.0683243,93.0243404 52.7852252,93.0427234 C52.7904505,93.4665532 52.7925405,93.7494468 52.9440721,93.9649362 C52.9566126,95.474383 53.2095135,97.6558298 52.7852252,98.8854468 L52.7852252,98.8854468 Z M52.8562883,85.3708936 C52.3525766,86.3574468 50.8174054,85.2718298 50.8174054,85.2718298 L50.7965045,77.84 C50.7965045,77.84 51.690018,77.2364255 52.4518559,76.5909787 C53.2241441,75.9332766 53.8647568,75.2326809 53.8647568,75.2326809 C53.8647568,75.2326809 54.752,76.9239149 55.7134414,78.6335319 C56.5766486,80.1613617 57.1681441,81.5554043 57.1681441,81.5554043 L53.0558919,81.7106383 C53.0558919,81.7106383 53.3631351,84.386383 52.8562883,85.3708936 L52.8562883,85.3708936 Z M50.8006847,67.0175319 L50.806955,61.8345532 L59.8058378,61.7937021 C59.8058378,61.7937021 58.836036,64.418383 57.3896937,67.1319149 C55.8398919,70.0415319 53.8072793,73.0522553 53.8072793,73.0522553 L50.8006847,67.0175319 L50.8006847,67.0175319 Z M53.1948829,73.7988085 C53.1948829,73.7988085 52.8332973,74.3686809 52.3316757,74.8323404 C51.6398559,75.4675745 50.8174054,76.0445957 50.8174054,76.0445957 L50.8268108,68.9273191 L53.1948829,73.7988085 L53.1948829,73.7988085 Z M62.6964324,98.7322553 L62.6964324,98.8854468 C61.1967928,98.8987234 59.0366847,99.1305532 57.8202523,98.7322553 L57.8202523,96.2709787 C59.3940901,97.0410213 60.9658378,97.8100426 62.5396757,98.576 C62.8103423,98.6781277 62.6932973,98.6086809 62.8542342,98.7322553 L62.6964324,98.7322553 L62.6964324,98.7322553 Z M57.536,82.0997447 C57.536,82.0997447 58.6656937,84.1208511 59.2321081,85.2064681 C59.7953874,86.2910638 60.527964,87.6442553 60.527964,87.6442553 L57.908036,87.1744681 L57.536,82.0997447 L57.536,82.0997447 Z M67.5747027,89.6388085 C66.7574775,89.5121702 62.3714234,88.3428085 62.3714234,88.3428085 L54.4196757,73.9622128 C54.4196757,73.9622128 55.8701982,71.7092766 57.142018,69.4634894 C58.9833874,66.2107234 60.8090811,61.7937021 60.8090811,61.7937021 L67.6635315,61.8478298 C67.6635315,61.8478298 67.5747027,80.8251915 67.5747027,89.6388085 L67.5747027,89.6388085 Z M62.3045405,57.0897021 C62.3045405,57.0897021 64.1824865,51.3501277 65.6580901,46.3938723 C66.7762883,42.6365957 67.5882883,39.3317447 67.5882883,39.3317447 L67.5882883,57.1530213 L62.3045405,57.0897021 L62.3045405,57.0897021 Z M64.566018,46.0537872 C62.8636396,51.632 60.9637477,57.1305532 60.9637477,57.1305532 L50.922955,57.0897021 L50.5937658,26.8251915 L67.6321802,26.6638298 L67.6708468,35.1526809 C67.6708468,35.1526809 66.2171892,40.6461277 64.566018,46.0537872 L64.566018,46.0537872 Z M70.7192432,90.2760851 L70.5645766,44.9620426 C70.5645766,44.9620426 72.8521802,56.9579574 77.3876757,68.731234 C82.776973,82.7165957 90.5615135,96.8643404 90.5615135,96.8643404 L70.7192432,90.2760851 L70.7192432,90.2760851 Z" id="Imported-Layers" sketch:type="MSShapeGroup"></path>
        </g>
    </g>
</svg>