<?xml version="1.0" encoding="UTF-8" standalone="no"?>
<svg width="60px" height="60px" viewBox="0 0 60 60" version="1.1" xmlns="http://www.w3.org/2000/svg" xmlns:xlink="http://www.w3.org/1999/xlink" xmlns:sketch="http://www.bohemiancoding.com/sketch/ns">
    <!-- Generator: Sketch 3.0.4 (8054) - http://www.bohemiancoding.com/sketch -->
    <title>character3</title>
    <desc>Created with Sketch.</desc>
    <defs></defs>
    <g id="Page-1" stroke="none" stroke-width="1" fill="none" fill-rule="evenodd" sketch:type="MSPage">
        <g id="character3" sketch:type="MSArtboardGroup" fill="#000000">
            <path d="M26.559,5 C26.865,5.11666667 27.171,5.23030303 27.474,5.34848485 C27.618,5.31969697 27.765,5.29090909 27.9075,5.26212121 C28.4445,5.16969697 28.953,5.44393939 29.256,5.65454545 C29.3775,5.74090909 30.2415,7.72878788 30.171,8.02727273 C30.09,8.35151515 29.727,8.36818182 29.6055,8.64242424 C29.2995,9.32424242 29.5035,9.90454545 29.346,10.6621212 C29.2095,11.3045455 28.8255,11.9484848 28.473,12.4166667 C28.212,12.7606061 27.423,12.7 27.1275,13.030303 C27.1575,13.0772727 27.1845,13.119697 27.2145,13.1636364 C27.231,13.169697 28.8225,14.4787879 28.8225,14.4787879 C28.998,15.0954545 29.172,15.7090909 29.346,16.3242424 C29.7945,17.6272727 30.339,18.8136364 30.909,20.0121212 C30.882,20.0409091 30.852,20.0712121 30.822,20.1 C30.3915,19.8 29.877,19.2166667 29.517,20.0560606 C29.034,21.85 29.7825,23.8227273 30.0405,25.1939394 C30.156,26.6409091 30.2715,28.0893939 30.3855,29.5393939 C30.213,29.980303 30.0405,30.4166667 29.8665,30.8575758 C29.907,30.9 29.9535,30.9454545 29.997,30.9878788 C30.213,31.0318182 30.4305,31.0757576 30.648,31.1212121 C31.5675,30.4272727 31.812,29.4954545 32.3835,28.4393939 C32.817,27.6560606 34.788,26.6045455 35.7345,26.3348485 L35.7345,26.0257576 C35.6295,25.8590909 35.4885,25.4666667 35.3415,25.3242424 C35.019,25.0075758 34.3305,24.8166667 34.1685,24.3590909 C33.513,22.5166667 35.0025,20.7469697 36.21,20.4954545 C37.545,20.2181818 38.9625,21.0530303 39.2535,21.8560606 C39.4965,22.5212121 39.1455,23.2515152 39.2535,23.9212121 C39.3645,24.6045455 39.4005,25.269697 39.036,25.7651515 C38.7915,26.0924242 38.3445,26.1060606 37.9515,26.2893939 L37.9515,26.9484848 C38.454,27.5954545 39.7575,27.7484848 40.077,28.530303 C40.254,28.9545455 40.053,29.4984848 40.1235,29.980303 C40.194,30.3 40.266,30.6212121 40.338,30.9454545 C40.284,31.1106061 40.053,31.1030303 40.1235,31.4712121 C40.395,32.1424242 40.6725,32.8181818 40.947,33.4909091 C41.5725,34.4166667 42.2685,35.3924242 42.9465,36.3 C43.461,36.9909091 44.151,37.269697 44.295,38.3636364 C44.0775,38.7257576 43.9185,39.0590909 43.338,38.9333333 C43.3245,38.8636364 43.3095,38.7848485 43.2975,38.7151515 C43.383,38.5863636 43.4715,38.4515152 43.5585,38.3181818 C42.6045,37.069697 41.2605,36.1818182 40.1655,35.069697 C39.825,34.7242424 39.612,33.919697 39.1635,33.7090909 C39.0045,34.1045455 38.847,34.5 38.688,34.8954545 C38.5575,36.0363636 38.4255,37.1772727 38.2965,38.3181818 C38.166,38.6257576 38.0355,38.9333333 37.9065,39.2409091 C37.962,39.7833333 38.0235,40.3242424 38.079,40.8651515 C37.9935,41.069697 37.9065,41.2742424 37.8195,41.4818182 C37.7355,42.1545455 38.7885,44.0015152 38.382,44.5984848 C38.268,44.7272727 38.1525,44.8636364 38.0355,44.9909091 C38.5275,46.9712121 38.178,49.1787879 39.1635,50.5681818 C39.819,50.5939394 39.849,51.0227273 40.296,51.1378788 C40.902,51.2984848 41.7435,51.2666667 42.297,51.580303 C42.3435,51.7333333 42.3975,51.8136364 42.339,51.9727273 C42.0675,52.4727273 38.2215,53.2742424 37.5135,52.8954545 C37.575,52.1636364 37.9095,51.369697 37.7745,50.7015152 C37.3395,49.6757576 36.9045,48.6515152 36.471,47.6242424 C36.366,47.2833333 36.213,45.5287879 36.0375,45.3878788 C35.8275,45.2681818 35.457,45.2833333 35.2545,45.3878788 C35.049,45.9606061 34.4145,46.0060606 34.0365,46.3969697 C33.471,46.9848485 32.907,47.5666667 32.3415,48.1530303 C31.6545,48.7075758 30.828,49.2454545 30.3015,49.9530303 C30.3465,50.1257576 30.3795,50.1757576 30.3435,50.35 C29.883,50.4560606 29.5485,50.6045455 29.301,50.9181818 C29.475,51.2 29.3685,51.9545455 29.517,52.1939394 C29.85,52.7636364 30.5265,53.2681818 30.9945,53.7272727 C30.966,53.7863636 30.936,53.8469697 30.909,53.9060606 C30.666,53.9939394 30.4215,54.2287879 30.0825,54.169697 C29.0745,53.9909091 26.8695,52.5121212 26.343,51.7969697 C26.4135,51.2439394 27.0075,51.7590909 27.2145,51.8863636 C27.2565,51.8712121 27.3015,51.8545455 27.342,51.8424242 C27.4245,51.4181818 26.9355,50.9651515 26.6925,50.7015152 C27.1785,49.6378788 26.9895,47.2727273 26.559,46.4848485 C26.262,46.4515152 25.9695,46.4469697 25.6905,46.530303 C25.9485,45.7818182 26.1855,44.6787879 25.4325,44.2469697 C25.062,44.0606061 24.4365,43.8393939 24.042,43.8939394 L24.042,45.7833333 C23.277,45.8954545 22.65,46.0227273 22.302,46.5727273 C21.0435,46.5606061 20.562,46.7727273 19.566,46.969697 C19.059,48.3848485 18.279,49.1075758 19.4775,50.5681818 C19.6215,50.7878788 19.767,51.0075758 19.911,51.2287879 C20.2965,51.5 21.0555,51.5227273 21.3015,51.930303 C21.342,52.0666667 21.3165,52.069697 21.2595,52.1939394 C18.711,52.8409091 17.7285,50.6333333 16.6515,50.8742424 C16.6245,51.1818182 16.5945,51.4909091 16.566,51.7969697 L16.4355,51.7969697 C15.9555,51.6636364 15.48,51.5333333 15,51.4030303 L15,51.2287879 C15.1005,50.8166667 15.201,50.4060606 15.3045,49.9984848 C15.681,50.0984848 16.059,50.2030303 16.4355,50.3045455 L16.4355,50.2621212 C16.203,50.0409091 15.9705,49.8227273 15.741,49.6015152 C15.75,48.6590909 16.419,48.430303 16.785,47.8469697 C17.5185,46.6727273 19.5915,43.1075758 19.2615,41.2606061 C18.24,40.9015152 16.731,41.0378788 15.87,40.5166667 C15.459,39.1151515 15.9735,36.9257576 16.6095,36.0818182 C16.5945,36.0363636 16.5795,35.9939394 16.566,35.9484848 C16.4205,35.8757576 16.275,35.8030303 16.1295,35.730303 C16.182,34.9090909 16.8375,34.2015152 16.6965,33.4469697 C16.572,32.7909091 15.9615,31.1636364 16.4355,30.2863636 C16.809,29.5939394 17.8905,29.5121212 18.3465,28.9257576 C18.798,28.2257576 18.7335,26.3242424 18.912,25.3242424 C19.2075,23.6742424 19.494,22.2439394 19.782,20.4530303 C19.8945,18.8136364 20.0115,17.1727273 20.13,15.5348485 C20.5485,14.169697 21.474,13.6136364 22.389,12.7681818 C22.491,12.6227273 22.593,12.4742424 22.692,12.3287879 C23.085,12.0848485 23.694,12.1484848 24.042,11.8893939 C23.898,11.2742424 23.7525,10.6621212 23.6055,10.0469697 C23.3505,8.42121212 24.1305,6.92272727 24.7365,6.05151515 C25.2075,5.36818182 26.0655,5.48484848 26.559,5 L26.559,5 Z M28.344,30.55 C28.7625,30.5060606 29.127,29.9893939 29.172,29.5818182 C28.9155,29.5212121 28.9275,29.4348485 28.605,29.4075758 C28.47,29.7651515 28.3455,30.019697 28.344,30.55 L28.344,30.55 Z M32.646,31.3833333 C32.331,31.8787879 31.6905,32.5757576 31.0815,32.7424242 C29.9985,33.0469697 29.2815,31.6848485 28.083,32.3484848 C27.966,32.7424242 27.8505,33.1393939 27.735,33.5363636 C27.879,35.1015152 28.026,36.6681818 28.17,38.2318182 C28.128,39.519697 28.083,40.8060606 28.041,42.0954545 C28.155,43.0757576 28.272,44.0575758 28.3875,45.0348485 C28.1985,45.1969697 28.0095,45.3590909 27.8205,45.5212121 C27.801,46.9727273 28.599,47.6090909 29.214,48.4151515 C30.0045,47.9439394 30.558,46.8075758 31.1265,46.0924242 C31.5945,45.4984848 32.4225,45.3015152 32.949,44.7742424 C32.922,44.7272727 32.8935,44.6863636 32.8635,44.6424242 C32.2065,44.4045455 29.91,43.65 29.6925,43.1075758 C30.1845,41.75 30.936,40.2181818 31.473,38.9333333 C31.5465,38.5090909 31.6185,38.0848485 31.692,37.6636364 C31.995,36.9151515 32.2995,36.169697 32.601,35.4212121 C32.7615,34.8060606 32.922,34.1909091 33.0825,33.580303 C33.225,33.3878788 33.3705,33.1954545 33.5175,33.0090909 C33.6,32.7545455 33.4995,32.4878788 33.603,32.2606061 C33.498,31.9530303 33.3735,31.7515152 33.21,31.5151515 C33.024,31.4712121 32.8365,31.4272727 32.646,31.3833333 L32.646,31.3833333 Z" id="Imported-Layers" sketch:type="MSShapeGroup"></path>
        </g>
    </g>
</svg>