<?xml version="1.0" encoding="UTF-8" standalone="no"?>
<svg width="60px" height="60px" viewBox="0 0 60 60" version="1.1" xmlns="http://www.w3.org/2000/svg" xmlns:xlink="http://www.w3.org/1999/xlink" xmlns:sketch="http://www.bohemiancoding.com/sketch/ns">
    <!-- Generator: Sketch 3.0.4 (8054) - http://www.bohemiancoding.com/sketch -->
    <title>character2</title>
    <desc>Created with Sketch.</desc>
    <defs></defs>
    <g id="Page-1" stroke="none" stroke-width="1" fill="none" fill-rule="evenodd" sketch:type="MSPage">
        <g id="character2" sketch:type="MSArtboardGroup" fill="#000000">
            <path d="M28.3085076,26.4037214 C28.2989466,26.5358642 28.2869954,26.6668166 28.2738491,26.7965785 C28.2057271,26.6894357 28.2164832,26.7084833 28.0455808,26.6989595 C28.0360198,26.7858642 28.0228735,26.8739595 28.0109222,26.9596737 C27.89141,27.1799118 27.6344588,27.3263404 27.518532,27.5834833 C27.5292881,27.8120547 27.5388491,28.0430071 27.5519954,28.2715785 C27.5842637,28.5441976 27.6153369,28.8168166 27.6499954,29.0918166 C27.9547515,29.8525309 28.8833613,30.3370547 29.0626295,31.1870547 C29.2418978,32.0144357 28.4543125,32.2346737 28.4065076,32.9251499 C28.8200198,33.8049118 29.5191661,34.697769 30.8063125,34.6918166 C30.7907759,34.4156261 30.8063125,34.172769 30.9736295,34.0715785 L31.1373613,34.0715785 C31.1983125,34.2537214 31.2951174,34.422769 31.4325564,34.5311023 C31.4755808,34.5168166 31.5198003,34.5072928 31.5652149,34.4965785 C31.5341417,34.2906261 31.5508735,34.145388 31.6632149,34.0061023 C31.8568247,34.0858642 32.9216783,34.8418166 33.0113125,34.9882452 C33.0961661,35.0989595 33.0674832,35.1846737 33.0113125,35.3144357 C33.4833856,35.1549118 33.82041,34.7620547 34.1968735,34.4965785 C35.2808491,33.7775309 36.3672149,33.0561023 37.4523856,32.3346737 C37.9495564,32.0251499 38.8160198,31.2430071 39.7541905,31.4834833 C40.5728491,31.6918166 41.1273856,32.5549118 41.7273369,33.0215785 C43.2618735,34.2346737 44.7976052,35.447769 46.3333369,36.6596737 C46.5938735,36.8549118 48.6196052,38.2132452 48.7008735,38.1989595 C48.6913125,38.1132452 48.6805564,38.0251499 48.6686052,37.9382452 C48.6913125,37.8930071 48.7140198,37.8501499 48.735532,37.8061023 C49.2506295,37.8322928 49.1896783,37.997769 49.754971,37.9382452 C50.3453613,38.7084833 50.7003125,38.3525309 51.5309222,38.7906261 C51.7795076,38.9191976 51.9480198,39.2668166 52.3197027,39.3132452 C53.2363613,39.4287214 53.7837271,38.7691976 54.2593856,39.7406261 C53.6869222,40.8430071 51.9038003,41.4215785 50.6082881,41.7049118 C50.303532,41.6941976 49.9963856,41.6834833 49.6868491,41.6715785 C49.3701417,41.770388 49.2721417,42.1787214 48.9004588,42.295388 C48.0770198,42.5501499 46.9966295,42.5049118 46.7922637,41.770388 C46.5353125,41.7418166 46.4074344,41.6799118 46.2699954,41.5430071 C46.3285564,41.1965785 46.6835076,40.4120547 46.4648003,39.9346737 C46.02141,38.9668166 44.2956539,38.9263404 43.2415564,38.5596737 C41.5576295,37.9751499 40.3816295,37.1382452 39.4936539,35.7751499 C38.8889222,35.8001499 37.3053856,37.2989595 36.8930686,37.7084833 C35.3334344,39.2584833 33.7116539,41.0334833 31.5962881,42.0001499 C31.1600686,42.2001499 30.3868247,41.9989595 29.7211417,42.0001499 C28.4543125,42.0001499 27.5962149,41.9513404 26.7608247,41.5096737 C26.6257759,41.4358642 26.6150198,41.2489595 26.5313613,41.1156261 C25.9003369,40.1370547 24.9693369,39.3787214 24.9848735,37.7406261 C24.85341,37.7287214 24.7219466,37.7180071 24.5916783,37.7084833 C24.382532,37.5013404 24.1745808,37.2941976 23.9666295,37.0870547 L23.931971,37.0870547 L23.931971,37.347769 C24.0825564,37.7144357 24.0132393,38.0918166 24.1303613,38.5918166 C24.3944832,39.7251499 24.9753125,40.3680071 24.1303613,41.4763404 C23.4670686,42.3441976 17.9599466,42.7572928 16.5007027,42.3930071 C15.9306295,42.1870547 15.3581661,41.9799118 14.788093,41.770388 C14.4809466,41.4001499 14.1738003,41.0275309 13.8654588,40.6572928 C12.8268978,39.6156261 11.47641,38.5668166 10.8728735,37.1180071 C10.7485808,37.1620547 10.8047515,37.1180071 10.7438003,37.2168166 C10.6338491,37.3846737 10.4593613,37.8501499 10.54541,38.070388 C10.9158978,38.8239595 11.6975076,39.2858642 12.0596295,40.1322928 C11.6210198,41.095388 10.44741,41.1037214 9.42677589,41.5096737 C8.86626369,41.7299118 8.39777589,42.2037214 7.78109296,42.4263404 C7.17994662,42.645388 6.56326369,42.5930071 6.23938565,42.1322928 C5.49841004,41.0894357 6.68277589,40.8811023 7.02577589,40.3311023 C7.20504418,40.0406261 7.33531248,39.747769 7.48589784,39.4775309 C7.06880028,39.0180071 6.90626369,38.6775309 7.28989784,38.070388 C7.62094662,38.0584833 7.60062955,37.722769 7.97948321,37.6430071 C8.18145882,37.6001499 8.17548321,37.8513404 8.40733687,37.872769 C8.42048321,37.8501499 8.42884906,37.8299118 8.43841004,37.8061023 C8.7085076,36.4894357 8.61170272,34.9751499 8.86745882,33.5465785 C8.96545882,32.9906261 9.06465394,32.4322928 9.16265394,31.8751499 C8.8447515,31.1632452 7.48948321,29.9394357 7.41897101,29.1894357 C7.36638565,28.6061023 8.95111735,27.3263404 9.36104418,27.0263404 C10.6266783,26.1001499 12.1958735,24.7882452 13.7041174,24.1763404 C14.6721661,23.7811023 16.1421661,23.8739595 17.0253613,23.3894357 C17.01341,23.0501499 17.0038491,22.7120547 16.9918978,22.3751499 C16.8377271,21.9025309 15.9521417,21.5834833 16.630971,20.6382452 C16.6955076,20.6263404 16.7612393,20.6144357 16.8281661,20.6061023 C16.8484832,19.9691976 17.0540442,19.2037214 17.3528247,18.8013404 C18.0663125,17.8525309 20.2318735,17.6441976 20.9381905,18.7358642 C21.599093,19.7525309 21.3505076,20.3596737 21.1712393,21.4894357 C21.1246295,21.7751499 21.2572881,21.9489595 21.1353856,22.2441976 C20.98241,22.6180071 20.374093,23.4191976 20.5139222,23.8799118 C20.5784588,24.0144357 22.5265076,25.5918166 22.7810686,25.7811023 C22.8479954,25.7596737 22.9137271,25.7382452 22.9782637,25.7168166 C22.9746783,24.8811023 23.5375808,24.0013404 23.735971,23.2918166 C24.3120198,21.2191976 24.0407271,19.7620547 26.3652393,19.3596737 C28.3730442,19.0096737 29.0124344,21.2715785 29.55741,22.5049118 C29.6769222,22.6894357 29.7964344,22.8751499 29.9183369,23.0632452 C29.8526052,23.4656261 29.7904588,23.8691976 29.7211417,24.2751499 L29.6900686,24.2751499 C29.6996295,24.1644357 29.7091905,24.0572928 29.7211417,23.9465785 C29.5968491,23.9894357 29.6542149,23.9465785 29.5920686,24.045388 C29.5801174,24.1215785 29.5681661,24.197769 29.55741,24.2751499 C29.6004344,24.2846737 29.6446539,24.2965785 29.6900686,24.3061023 C29.4462637,24.6346737 29.0351417,24.9096737 28.7351661,25.1918166 C28.7865564,25.3930071 28.8104588,25.3037214 28.8355564,25.4882452 C28.6574832,25.4430071 28.6252149,25.4156261 28.4734344,25.4882452 C28.4387759,25.7834833 28.6431417,26.0072928 28.635971,26.3049118 C28.6037027,26.3156261 28.5714344,26.3287214 28.537971,26.3394357 C28.5176539,26.220388 28.5236295,26.2394357 28.4734344,26.1739595 C28.3276295,26.2275309 28.3754344,26.1751499 28.3407759,26.3394357 L28.5057027,26.3394357 C28.4949466,26.3608642 28.4818003,26.3822928 28.4734344,26.4037214 L28.3085076,26.4037214 L28.3085076,26.4037214 Z M29.6231417,23.0632452 C29.65541,23.170388 29.6900686,23.2799118 29.7211417,23.3894357 C29.733093,23.4108642 29.7438491,23.4334833 29.75341,23.4561023 C29.7773125,23.4441976 29.7964344,23.4334833 29.8203369,23.422769 C29.8107759,23.3144357 29.7964344,23.2037214 29.7904588,23.095388 C29.733093,23.0811023 29.6769222,23.0739595 29.6231417,23.0632452 L29.6231417,23.0632452 Z M13.2762637,28.0739595 C13.0826539,28.2537214 12.7265076,28.2358642 12.5854832,28.4691976 C12.5723369,28.5001499 12.5627759,28.5334833 12.5520198,28.5668166 C13.3647027,29.0441976 13.6563125,31.222769 14.4247759,31.4501499 C14.6602149,30.4811023 14.2467027,28.1001499 13.2762637,28.0739595 L13.2762637,28.0739595 Z M7.32216613,38.1346737 C7.23492223,38.4108642 7.09389784,38.6572928 7.12258077,38.920388 C7.16680028,38.9418166 7.20982467,38.9644357 7.25404418,38.9870547 C7.27914174,38.9537214 7.29945882,38.920388 7.32216613,38.8870547 C7.42972711,38.7025309 7.5217515,38.2168166 7.32216613,38.1346737 L7.32216613,38.1346737 Z M7.45362955,39.0513404 L7.45362955,39.2811023 L7.58389784,39.2811023 L7.58389784,39.1168166 L7.58389784,39.0846737 C7.54087345,39.072769 7.49545882,39.0632452 7.45362955,39.0513404 L7.45362955,39.0513404 Z" id="Imported-Layers" sketch:type="MSShapeGroup"></path>
        </g>
    </g>
</svg>