<?xml version="1.0" encoding="UTF-8" standalone="no"?>
<svg width="60px" height="60px" viewBox="0 0 60 60" version="1.1" xmlns="http://www.w3.org/2000/svg" xmlns:xlink="http://www.w3.org/1999/xlink" xmlns:sketch="http://www.bohemiancoding.com/sketch/ns">
    <!-- Generator: Sketch 3.0.4 (8054) - http://www.bohemiancoding.com/sketch -->
    <title>character4</title>
    <desc>Created with Sketch.</desc>
    <defs></defs>
    <g id="Page-1" stroke="none" stroke-width="1" fill="none" fill-rule="evenodd" sketch:type="MSPage">
        <g id="character4" sketch:type="MSArtboardGroup" fill="#000000">
            <path d="M25.446819,9.22077737 C25.3404554,9.32912023 25.4645463,9.82146308 25.4645463,9.82146308 C25.4645463,9.82146308 25.5954554,10.1643202 25.6254554,10.2095774 C25.6527281,10.2562059 25.8109099,10.6676345 25.8300009,10.7197488 C25.8681827,10.8363202 25.9295463,10.8692345 26.1409099,10.9432917 C26.256819,10.9844345 26.1872736,10.8514059 26.3359099,11.3780345 C26.4613645,11.8251202 26.5281827,11.9773488 26.8813645,12.1912917 C26.9386372,12.2242059 26.9440918,12.2639774 26.9945463,12.4079774 C27.0450009,12.5506059 27.0231827,12.5108345 26.9945463,12.5506059 C26.9509099,12.6109488 26.9945463,12.7330059 27.0109099,12.8948345 C27.0450009,13.1924345 27.0231827,13.1101488 26.9386372,13.2130059 C26.9086372,13.2514059 26.6072736,13.4488917 26.5390918,13.4886631 C26.4709099,13.5284345 26.0631827,13.8260345 26.0045463,13.8795202 C25.9472736,13.9288917 25.4413645,14.1922059 25.3800009,14.2374631 C25.3172736,14.2840917 25.0322736,14.5350631 24.9545463,14.5885488 C24.6859099,14.7613488 24.3163645,15.1768917 24.2413645,15.5938059 C24.2004554,15.8187202 23.9795463,16.2959774 23.9290918,16.4111774 C23.8431827,16.6018059 23.6495463,17.0831774 23.6495463,17.2820345 C23.6495463,17.3259202 23.5527281,17.9115202 23.5472736,17.9746059 C23.541819,18.0349488 23.4231827,18.8879774 23.4054554,18.9702631 C23.3877281,19.0511774 23.2636372,20.1579202 23.2581827,20.2621488 C23.2527281,20.3663774 23.1613645,21.4868345 23.1613645,21.5197488 C23.1613645,21.5540345 23.121819,22.1451202 23.0931827,22.2123202 C23.0631827,22.2822631 23.0086372,23.4027202 23.0004554,23.5796345 C22.9909099,23.9444345 23.1327281,24.1240917 23.3031827,24.4079774 C23.3877281,24.5533488 23.3836372,24.6150631 23.4177281,24.7864917 C23.4531827,24.9702631 23.4013645,24.8962059 23.2581827,24.9647774 C22.9813645,25.0950631 23.091819,25.2980345 23.1504554,25.5188345 C23.1736372,25.6052345 23.4177281,26.3444345 23.4177281,26.3938059 C23.4177281,26.4459202 23.5200009,26.7380345 23.541819,26.7654631 C23.5650009,26.7956345 23.571819,26.8861488 23.541819,26.9382631 C23.5131827,26.9890059 23.5881827,27.1206631 23.616819,27.1727774 C23.6454554,27.2248917 23.6850009,27.4978059 23.6727281,27.5211202 C23.661819,27.5444345 23.7477281,27.9256917 23.7354554,27.9572345 C23.7245463,27.9846631 23.7695463,27.9791774 23.751819,28.0984917 C23.7354554,28.2191774 23.7913645,28.4770059 23.8104554,28.5442059 C23.8431827,28.6703774 23.9959099,29.8690059 23.9863645,29.9814631 C23.9754554,30.1021488 24.0259099,30.3490059 24.0545463,30.4326631 C24.081819,30.5204345 24.2590918,31.8191774 24.276819,31.9206631 C24.2931827,32.0248917 24.456819,33.2317488 24.4759099,33.3743774 C24.4922736,33.5170059 24.7759099,35.3588345 24.8045463,35.4397488 C24.8345463,35.5192917 25.0609099,36.8879774 25.0840918,36.9675202 C25.1072736,37.0456917 25.3854554,38.7736917 25.4004554,38.8998631 C25.491819,39.5746059 25.791819,40.5976917 26.0904554,41.1490059 C26.1654554,41.2875202 26.1490918,41.3506059 26.1409099,41.3958631 C26.136819,41.4274059 26.2159099,43.5572345 26.2050009,43.5846631 C26.1927281,43.6134631 26.2281827,43.9576917 26.2390918,44.0536917 C26.2513645,44.1510631 26.2663645,45.0959774 26.2786372,45.1645488 C26.2909099,45.2331202 26.2595463,46.1272917 26.2595463,46.2095774 C26.2595463,46.2959774 26.6359099,47.2189488 26.6604554,47.2573488 C26.6822736,47.2971202 26.8650009,47.7908345 26.8650009,47.8635202 C26.8650009,47.9403202 27.1595463,48.6466059 27.2454554,48.8468345 C27.3300009,49.0498059 27.3531827,48.9551774 27.4445463,48.9236345 C27.5345463,48.8907202 27.5127281,48.9510631 27.5127281,48.9510631 C27.5127281,48.9510631 27.0736372,49.2898059 27.0000009,49.3556345 C26.9263645,49.4269488 26.9945463,49.3679774 26.9440918,49.3803202 C26.8909099,49.3912917 26.8650009,49.4379202 26.811819,49.4502631 C26.7627281,49.4626059 26.646819,49.4955202 26.601819,49.5229488 C26.556819,49.5544917 26.4436372,49.6491202 26.3127281,49.6779202 C26.181819,49.7067202 26.1013645,49.7684345 26.0454554,49.8205488 C25.9050009,49.9467202 25.821819,50.1167774 25.8681827,50.3170059 C25.8927281,50.4171202 25.8627281,50.4171202 25.7945463,50.4335774 C25.7250009,50.4664917 25.7127281,50.4623774 25.7031827,50.5762059 C25.6854554,50.7928917 25.7345463,50.7887774 25.9090918,50.8683202 C26.0222736,50.9204345 26.6113645,50.9944917 26.7627281,51.0095774 C27.2427281,51.0644345 27.7200009,51.0534631 28.1850009,50.9766631 C28.6022736,50.9067202 29.0345463,50.8011202 29.0945463,50.6228345 C29.1381827,50.4884345 29.2077281,50.3663774 29.3727281,50.2607774 C29.481819,50.1935774 29.6536372,50.2868345 29.7204554,50.3074059 C30.0531827,50.4184917 30.1895463,50.3540345 30.2263645,50.3485488 C30.3872736,50.3087774 31.0909099,50.1894631 31.1590918,50.0317488 C31.2040918,49.9261488 31.1413645,49.4283202 31.0840918,49.1005488 C31.0759099,49.0402059 30.9763645,49.0594059 31.0104554,49.0374631 C31.071819,48.9963202 31.0540918,48.8152917 31.0281827,48.6589488 C31.0050009,48.5231774 30.9709099,48.5272917 31.0281827,48.4779202 C31.0936372,48.4175774 31.0840918,48.3654631 31.2777281,48.7234059 C31.3131827,48.7851202 31.551819,49.3227202 31.6036372,49.4146059 C31.6431827,49.4859202 31.656819,49.6422631 31.7100009,49.7231774 C31.7454554,49.7684345 31.7222736,49.7931202 31.7222736,49.7931202 C31.7222736,49.7931202 31.6772736,49.9000917 31.6431827,49.9631774 C31.6077281,50.0276345 31.5177281,50.2264917 31.4945463,50.2525488 C31.4713645,50.2717488 31.4836372,50.3238631 31.4877281,50.3800917 C31.4945463,50.4363202 31.4427281,50.5076345 31.4386372,50.5885488 C31.431819,50.6680917 31.4140918,50.7476345 31.3990918,50.7805488 C31.3800009,50.8162059 31.3131827,51.0054631 31.3227281,51.0520917 C31.3350009,51.0973488 31.3131827,51.1192917 31.2777281,51.1604345 C31.2450009,51.1988345 31.1836372,51.2783774 31.1754554,51.3442059 C31.1331827,51.6678631 31.2545463,51.8063774 31.5054554,51.8584917 C31.7986372,51.9188345 32.5036372,51.9750631 32.8827281,51.9421488 C33.3709099,51.9051202 33.7690918,51.8516345 34.0772736,51.5430631 C34.2163645,51.4045488 34.3663645,51.1974631 34.2245463,50.7599774 C34.2027281,50.6927774 34.2586372,50.5912917 34.2913645,50.5364345 C34.356819,50.4294631 34.3445463,50.3334631 34.326819,49.6367774 C34.326819,49.6107202 34.3213645,49.4955202 34.2763645,49.4955202 C34.2313645,49.4955202 34.2586372,49.3556345 34.281819,49.3227202 C34.3036372,49.2898059 34.4304554,48.5341488 34.446819,48.4600917 C34.4850009,48.2927774 34.5286372,47.9252345 34.4522736,47.7496917 C34.4304554,47.6975774 34.3445463,47.2642059 34.3377281,47.1668345 C34.3309099,47.0159774 34.2600009,46.7869488 34.2136372,46.6525488 C34.1727281,46.5373488 34.1563645,46.5126631 34.1386372,46.3371202 C34.1222736,46.1602059 34.2177281,45.7432917 34.2177281,45.7076345 C34.2177281,45.6733488 34.2409099,44.8614631 34.2409099,44.8614631 C34.2422736,44.8614631 34.1850009,44.6447774 34.2081827,44.5172345 C34.2313645,44.3924345 34.2013645,43.3213488 34.1904554,43.2472917 C34.1795463,43.1746059 34.1277281,41.9499202 34.1277281,41.8936917 C34.1277281,41.8347202 34.0254554,40.4427202 34.0090918,40.3138059 C33.9913645,40.1807774 34.0145463,40.0381488 33.9627281,40.0038631 C33.9122736,39.9695774 33.9627281,39.7240917 33.9859099,39.6486631 C34.1372736,39.1522059 34.0663645,38.8258059 34.0663645,38.8258059 L34.0036372,38.4692345 C34.0036372,38.4692345 33.996819,38.1222631 33.9627281,38.0934631 C33.9286372,38.0632917 33.9450009,37.5668345 33.9681827,37.4927774 C33.9913645,37.4200917 34.0036372,37.1087774 34.0036372,37.0580345 C34.0036372,37.0072917 34.0036372,36.7151774 34.0145463,36.6754059 C34.0254554,36.6342631 34.0145463,36.2351774 34.0090918,36.1076345 C34.0036372,35.9992917 33.996819,35.1531202 33.996819,35.0420345 C33.996819,34.6072917 33.9736372,34.1259202 33.8604554,33.2879774 C33.8440918,33.1631774 33.711819,31.6162059 33.6790918,31.4392917 C33.6013645,31.0388345 33.6327281,30.3202059 33.6613645,30.1762059 C33.6736372,30.1199774 33.6450009,29.4959774 33.6845463,29.4274059 C33.7254554,29.3574631 33.7813645,29.0612345 33.7977281,28.8898059 C33.8154554,28.7170059 33.8263645,28.6210059 33.8427281,28.5976917 C33.8604554,28.5757488 33.9572736,28.4207774 33.9859099,28.3686631 C34.0677281,28.2219202 34.0704554,28.2520917 34.0990918,28.3110631 C34.1631827,28.4372345 34.2136372,28.3357488 34.2709099,28.2822631 C34.3963645,28.1670631 34.3663645,28.0436345 34.3445463,27.8365488 C34.3322736,27.7336917 34.3663645,27.6939202 34.4236372,27.6061488 C34.4809099,27.5211202 34.4645463,27.4868345 34.4863645,27.4470631 C34.5095463,27.4059202 34.7140918,27.1384917 34.7536372,27.0973488 C34.9881827,26.8504917 35.3140918,26.8916345 35.2990918,26.8916345 C35.4981827,26.8916345 35.5472736,26.7202059 35.5609099,26.5597488 C35.5677281,26.4925488 35.6659099,26.2840917 35.7163645,26.2347202 C35.7477281,26.2004345 35.7940918,26.1154059 35.8295463,26.0687774 C35.8622736,26.0248917 35.8690918,25.9426059 35.9140918,25.9138059 C36.036819,25.8370059 36.0190918,25.6477488 36.0163645,25.6093488 C36.0109099,25.5490059 36.1131827,25.2047774 36.1363645,25.1416917 C36.1595463,25.0772345 36.3804554,24.4614631 36.4145463,24.3695774 C36.456819,24.2557488 36.6995463,23.9170059 36.726819,23.8607774 C36.7990918,23.7167774 36.7854554,23.6495774 36.681819,23.6605488 C36.6245463,23.6646631 36.6422736,23.6605488 36.6422736,23.6262631 C36.6422736,23.5906059 36.6886372,23.5055774 36.7036372,23.4315202 C36.7431827,23.2642059 36.711819,23.2875202 36.5904554,23.2367774 C36.5045463,23.2011202 36.5222736,23.2669488 36.4990918,22.6758631 C36.4745463,22.0285488 36.441819,21.3976917 36.3409099,20.8093488 C36.3150009,20.6598631 36.3231827,19.9508345 36.3231827,19.8452345 C36.3231827,19.3885488 36.2045463,18.6836345 36.1131827,18.2996345 C36.126819,18.3640917 35.9754554,17.8018059 35.9536372,17.6701488 C35.9045463,17.3862631 35.8527281,17.2861488 35.7831827,17.1092345 C35.7300009,16.9775774 35.6072736,16.5675202 35.5895463,16.4619202 C35.5731827,16.3672917 35.5104554,16.1204345 35.4531827,15.9778059 C35.3959099,15.8338059 35.3850009,15.7378059 35.3740918,15.5992917 C35.3631827,15.4731202 35.2909099,15.2056917 35.2036372,15.1028345 C35.1463645,15.0328917 35.1177281,14.8902631 35.106819,14.8271774 C35.076819,14.6639774 34.971819,14.4692345 34.7986372,14.2840917 C34.7672736,14.2484345 34.4863645,13.9288917 34.446819,13.8891202 C34.2900009,13.7327774 34.2163645,13.7135774 34.0663645,13.5928917 C33.9995463,13.5407774 33.5713645,13.3090059 33.4922736,13.2843202 C33.4240918,13.2610059 33.0654554,13.0731202 32.9959099,13.0306059 C32.8459099,12.9359774 32.4695463,12.7864917 32.3140918,12.7330059 C32.2786372,12.7220345 31.9104554,12.6699202 31.851819,12.6479774 C31.7972736,12.6246631 31.2845463,12.4244345 31.2600009,12.4189488 C31.236819,12.4120917 30.6981827,12.1912917 30.6531827,12.1666059 C30.606819,12.1446631 30.4922736,12.0692345 30.4022736,12.0418059 C30.3109099,12.0116345 30.276819,11.9170059 30.2536372,11.8758631 C30.231819,11.8347202 30.1131827,11.7099202 30.0886372,11.6920917 C30.066819,11.6756345 30.0040918,11.5151774 29.9577281,11.4178059 C29.9127281,11.3204345 29.8786372,11.2971202 29.8213645,11.2738059 C29.7654554,11.2518631 29.7695463,11.0872917 29.7531827,11.0269488 C29.736819,10.9707202 29.7436372,10.6210059 29.7300009,10.5661488 C29.7204554,10.5099202 29.781819,10.5661488 29.8036372,10.5771202 C29.8295463,10.5867202 29.9086372,10.5195202 29.9413645,10.5016917 C30.1077281,10.4194059 30.1063645,10.2671774 30.1063645,10.2671774 C30.1063645,10.2671774 30.1281827,10.1711774 30.1404554,10.1245488 C30.1513645,10.0792917 30.1800009,10.0271774 30.1922736,9.97506308 C30.2004554,9.94077737 30.2263645,9.6445488 30.2372736,9.59929166 C30.2509099,9.54443451 30.276819,9.19060594 30.2822736,9.12477737 C30.3136372,8.82443451 30.1772736,8.70100594 30.066819,8.74763451 C30.0381827,8.75723451 30.0150009,8.74077737 30.0204554,8.70100594 C30.0272736,8.66123451 30.0272736,8.12912023 29.9536372,8.0413488 C29.9086372,7.93163451 29.9304554,7.87129166 29.9195463,7.8205488 C29.9086372,7.76843451 29.8677281,7.57232023 29.8159099,7.5229488 C29.7654554,7.47083451 29.8090918,7.41872023 29.7477281,7.28157737 C29.736819,7.25277737 29.6427281,6.94009166 29.5254554,6.8701488 C29.4627281,6.81940594 29.2922736,6.63563451 29.2077281,6.59723451 C29.1231827,6.55472023 29.151819,6.48752023 28.9063645,6.43403451 C28.7972736,6.41209166 28.6322736,6.32569166 28.5695463,6.27632023 C28.5081827,6.22420594 28.3827281,6.12546308 28.1727281,6.1309488 C28.0650009,6.15289166 28.086819,6.01163451 27.7963645,6.04043451 C27.7172736,6.04592023 27.6777281,5.94306308 27.3300009,6.04592023 C27.2345463,6.08706308 27.0340918,6.1597488 26.9495463,6.18443451 C26.8650009,6.20637737 26.811819,6.19952023 26.5500009,6.42443451 C26.4259099,6.52592023 26.3577281,6.41209166 26.0277281,6.74397737 C25.9772736,6.81940594 25.9036372,6.85369166 25.686819,7.17460594 C25.6350009,7.24729166 25.5654554,7.46397737 25.5790918,7.5229488 C25.5654554,7.60249166 25.4877281,7.67517737 25.521819,7.88226308 C25.5272736,7.95083451 25.4645463,8.08249166 25.4754554,8.1757488 C25.4877281,8.26489166 25.4359099,8.41986308 25.5109099,8.5981488 C25.5381827,8.71746308 25.4877281,8.74763451 25.5559099,8.87243451 C25.5790918,8.92317737 25.5790918,9.09597737 25.6131827,9.15906308 C25.6063645,9.24957737 25.521819,9.14672023 25.446819,9.22077737" id="Imported-Layers" sketch:type="MSShapeGroup"></path>
        </g>
    </g>
</svg>