<?xml version="1.0" encoding="UTF-8" standalone="no"?>
<svg width="60px" height="60px" viewBox="0 0 60 60" version="1.1" xmlns="http://www.w3.org/2000/svg" xmlns:xlink="http://www.w3.org/1999/xlink" xmlns:sketch="http://www.bohemiancoding.com/sketch/ns">
    <!-- Generator: Sketch 3.0.4 (8054) - http://www.bohemiancoding.com/sketch -->
    <title>character1</title>
    <desc>Created with Sketch.</desc>
    <defs></defs>
    <g id="Page-1" stroke="none" stroke-width="1" fill="none" fill-rule="evenodd" sketch:type="MSPage">
        <g id="character1" sketch:type="MSArtboardGroup" fill="#000000">
            <path d="M36.2340206,10.1536778 C36.1300206,10.2597636 36.2513539,10.7418493 36.2513539,10.7418493 C36.2513539,10.7418493 36.3793539,11.0775636 36.4086872,11.1218778 C36.4353539,11.167535 36.5900206,11.5703921 36.6086872,11.6214207 C36.6460206,11.7355636 36.7060206,11.7677921 36.9126872,11.8403064 C37.0260206,11.8805921 36.9580206,11.750335 37.1033539,12.2659921 C37.2260206,12.7037636 37.2913539,12.8528207 37.6366872,13.0623064 C37.6926872,13.094535 37.6980206,13.1334778 37.7473539,13.2744778 C37.7966872,13.414135 37.7753539,13.3751921 37.7473539,13.414135 C37.7046872,13.4732207 37.7473539,13.592735 37.7633539,13.7511921 C37.7966872,14.0425921 37.7753539,13.9620207 37.6926872,14.062735 C37.6633539,14.100335 37.3686872,14.2937064 37.3020206,14.3326493 C37.2353539,14.3715921 36.8366872,14.6629921 36.7793539,14.7153636 C36.7233539,14.7637064 36.2286872,15.021535 36.1686872,15.0658493 C36.1073539,15.1115064 35.8286872,15.3572493 35.7526872,15.4096207 C35.4900206,15.5788207 35.1286872,15.9857064 35.0553539,16.393935 C35.0153539,16.6141636 34.7993539,17.0814778 34.7500206,17.1942778 C34.6660206,17.380935 34.4766872,17.8522778 34.4766872,18.0469921 C34.4766872,18.0899636 34.3820206,18.6633636 34.3766872,18.725135 C34.3713539,18.7842207 34.2553539,19.6194778 34.2380206,19.7000493 C34.2206872,19.7792778 34.0993539,20.8629636 34.0940206,20.9650207 C34.0873539,21.0670778 33.9993539,22.1641921 33.9993539,22.1964207 C33.9993539,22.2299921 33.9606872,22.8087636 33.9326872,22.8745636 C33.9033539,22.9430493 33.8500206,24.0401636 33.8420206,24.2133921 C33.8326872,24.5705921 33.9713539,24.7465064 34.1380206,25.0244778 C34.2206872,25.1668207 34.2166872,25.2272493 34.2500206,25.3951064 C34.2846872,25.5750493 34.2340206,25.502535 34.0940206,25.5696778 C33.8233539,25.6972493 33.9313539,25.8959921 33.9886872,26.1121921 C34.0113539,26.1967921 34.2500206,26.9205921 34.2500206,26.968935 C34.2500206,27.0199636 34.3500206,27.3059921 34.3713539,27.3328493 C34.3940206,27.3623921 34.4006872,27.4510207 34.3713539,27.5020493 C34.3433539,27.551735 34.4166872,27.6806493 34.4446872,27.7316778 C34.4726872,27.7827064 34.5113539,28.049935 34.4993539,28.0727636 C34.4886872,28.0955921 34.5726872,28.4689064 34.5606872,28.4997921 C34.5500206,28.5266493 34.5940206,28.5212778 34.5766872,28.6381064 C34.5606872,28.7562778 34.6153539,29.008735 34.6340206,29.074535 C34.6660206,29.1980778 34.8153539,30.371735 34.8046872,30.4818493 C34.7953539,30.6000207 34.8446872,30.841735 34.8726872,30.9236493 C34.8993539,31.0095921 35.0726872,32.2812778 35.0900206,32.3806493 C35.1060206,32.4827064 35.2660206,33.6644207 35.2846872,33.8040778 C35.3006872,33.943735 35.5780206,35.7471921 35.6060206,35.8264207 C35.6353539,35.9043064 35.8566872,37.2444778 35.8793539,37.3223636 C35.9020206,37.3989064 36.1740206,39.0909064 36.1886872,39.2144493 C36.2780206,39.875135 36.5713539,40.8769064 36.8633539,41.416735 C36.9366872,41.5523636 36.9206872,41.614135 36.9126872,41.6584493 C36.9086872,41.689335 36.9860206,43.7747921 36.9753539,43.8016493 C36.9633539,43.8298493 36.9980206,44.1669064 37.0086872,44.2609064 C37.0206872,44.3562493 37.0353539,45.2814778 37.0473539,45.3486207 C37.0593539,45.4157636 37.0286872,46.2913064 37.0286872,46.3718778 C37.0286872,46.4564778 37.3966872,47.3602207 37.4193539,47.3978207 C37.4420206,47.4367636 37.6206872,47.9201921 37.6206872,47.9913636 C37.6206872,48.0665636 37.9086872,48.758135 37.9926872,48.9541921 C38.0753539,49.152935 38.0980206,49.0602778 38.1873539,49.0293921 C38.2753539,48.9971636 38.2540206,49.0562493 38.2540206,49.0562493 C38.2540206,49.0562493 37.8246872,49.387935 37.7526872,49.4523921 C37.6806872,49.5222207 37.7473539,49.4644778 37.6980206,49.4765636 C37.6460206,49.4873064 37.6206872,49.5329636 37.5686872,49.5450493 C37.5206872,49.557135 37.4073539,49.5893636 37.3633539,49.6162207 C37.3193539,49.6471064 37.2086872,49.7397636 37.0806872,49.7679636 C36.9526872,49.7961636 36.8740206,49.8565921 36.8193539,49.9076207 C36.6820206,50.0311636 36.6006872,50.1976778 36.6460206,50.393735 C36.6700206,50.4917636 36.6406872,50.4917636 36.5740206,50.5078778 C36.5060206,50.5401064 36.4940206,50.5360778 36.4846872,50.647535 C36.4673539,50.8597064 36.5153539,50.8556778 36.6860206,50.9335636 C36.7966872,50.9845921 37.3726872,51.0571064 37.5206872,51.0718778 C37.9900206,51.1255921 38.4566872,51.1148493 38.9113539,51.0396493 C39.3193539,50.9711636 39.7420206,50.8677636 39.8006872,50.6931921 C39.8433539,50.5615921 39.9113539,50.4420778 40.0726872,50.3386778 C40.1793539,50.2728778 40.3473539,50.3641921 40.4126872,50.384335 C40.7380206,50.4931064 40.8713539,50.4299921 40.9073539,50.4246207 C41.0646872,50.3856778 41.7526872,50.2688493 41.8193539,50.1144207 C41.8633539,50.0110207 41.8020206,49.5235636 41.7460206,49.2026207 C41.7380206,49.143535 41.6406872,49.162335 41.6740206,49.1408493 C41.7340206,49.1005636 41.7166872,48.9233064 41.6913539,48.7702207 C41.6686872,48.6372778 41.6353539,48.6413064 41.6913539,48.5929636 C41.7553539,48.5338778 41.7460206,48.4828493 41.9353539,48.833335 C41.9700206,48.8937636 42.2033539,49.4201636 42.2540206,49.510135 C42.2926872,49.5799636 42.3060206,49.7330493 42.3580206,49.8122778 C42.3926872,49.8565921 42.3700206,49.8807636 42.3700206,49.8807636 C42.3700206,49.8807636 42.3260206,49.9855064 42.2926872,50.0472778 C42.2580206,50.1103921 42.1700206,50.3051064 42.1473539,50.3306207 C42.1246872,50.3494207 42.1366872,50.4004493 42.1406872,50.4555064 C42.1473539,50.5105636 42.0966872,50.5803921 42.0926872,50.6596207 C42.0860206,50.7375064 42.0686872,50.8153921 42.0540206,50.8476207 C42.0353539,50.882535 41.9700206,51.0678493 41.9793539,51.1135064 C41.9913539,51.1578207 41.9700206,51.1793064 41.9353539,51.2195921 C41.9033539,51.2571921 41.8433539,51.3350778 41.8353539,51.399535 C41.7940206,51.7164493 41.9126872,51.8520778 42.1580206,51.9031064 C42.4446872,51.9621921 43.1340206,52.0172493 43.5046872,51.9850207 C43.9820206,51.9487636 44.3713539,51.8963921 44.6726872,51.5942493 C44.8086872,51.4586207 44.9553539,51.2558493 44.8166872,50.8274778 C44.7953539,50.7616778 44.8500206,50.6623064 44.8820206,50.6085921 C44.9460206,50.5038493 44.9340206,50.4098493 44.9166872,49.7276778 C44.9166872,49.7021636 44.9113539,49.5893636 44.8673539,49.5893636 C44.8233539,49.5893636 44.8500206,49.4523921 44.8726872,49.4201636 C44.8940206,49.387935 45.0180206,48.6480207 45.0340206,48.5755064 C45.0713539,48.4116778 45.1140206,48.0517921 45.0393539,47.8799064 C45.0180206,47.8288778 44.9340206,47.404535 44.9273539,47.3091921 C44.9193539,47.1614778 44.8513539,46.9372207 44.8046872,46.8056207 C44.7660206,46.6928207 44.7500206,46.6686493 44.7326872,46.4967636 C44.7166872,46.323535 44.8100206,45.9153064 44.8100206,45.8803921 C44.8100206,45.8468207 44.8326872,45.0518493 44.8326872,45.0518493 C44.8326872,45.0518493 44.7780206,44.8396778 44.8006872,44.7147921 C44.8233539,44.5925921 44.7940206,43.5438207 44.7833539,43.4713064 C44.7726872,43.400135 44.7220206,42.2009636 44.7220206,42.1459064 C44.7220206,42.0881636 44.6220206,40.7251636 44.6060206,40.598935 C44.5886872,40.4686778 44.6113539,40.3290207 44.5606872,40.2954493 C44.5113539,40.2618778 44.5606872,40.0215064 44.5833539,39.9476493 C44.7313539,39.461535 44.6620206,39.141935 44.6620206,39.141935 L44.6006872,38.7927921 C44.6006872,38.7927921 44.5940206,38.4530493 44.5606872,38.4248493 C44.5273539,38.3953064 44.5433539,37.9091921 44.5660206,37.8366778 C44.5886872,37.7655064 44.6006872,37.4606778 44.6006872,37.4109921 C44.6006872,37.3613064 44.6006872,37.0752778 44.6113539,37.036335 C44.6220206,36.9960493 44.6113539,36.6052778 44.6060206,36.4803921 C44.6006872,36.3743064 44.5940206,35.5457636 44.5940206,35.4369921 C44.5940206,35.0113064 44.5713539,34.5399636 44.4606872,33.7194778 C44.4446872,33.5972778 44.3153539,32.082535 44.2820206,31.9093064 C44.2073539,31.5171921 44.2380206,30.813535 44.2660206,30.672535 C44.2780206,30.6174778 44.2500206,30.0064778 44.2886872,29.939335 C44.3286872,29.8708493 44.3833539,29.5807921 44.3993539,29.412935 C44.4166872,29.243735 44.4273539,29.149735 44.4433539,29.1269064 C44.4606872,29.1054207 44.5553539,28.9536778 44.5833539,28.9026493 C44.6633539,28.7589636 44.6660206,28.7885064 44.6940206,28.8462493 C44.7566872,28.9697921 44.8046872,28.8704207 44.8620206,28.8180493 C44.9846872,28.7052493 44.9553539,28.5843921 44.9340206,28.3816207 C44.9220206,28.2809064 44.9553539,28.2419636 45.0113539,28.1560207 C45.0673539,28.0727636 45.0513539,28.0391921 45.0726872,28.0002493 C45.0953539,27.9599636 45.2953539,27.6981064 45.3340206,27.6578207 C45.5633539,27.4161064 45.8820206,27.4563921 45.8673539,27.4563921 C46.0620206,27.4563921 46.1100206,27.288535 46.1233539,27.1314207 C46.1300206,27.0656207 46.2246872,26.8615064 46.2753539,26.8131636 C46.3060206,26.7795921 46.3513539,26.696335 46.3860206,26.6506778 C46.4180206,26.6077064 46.4246872,26.527135 46.4686872,26.498935 C46.5886872,26.423735 46.5713539,26.2384207 46.5686872,26.2008207 C46.5633539,26.141735 46.6633539,25.8046778 46.6860206,25.7429064 C46.7086872,25.6797921 46.9246872,25.0768493 46.9580206,24.9868778 C46.9993539,24.8754207 47.2366872,24.543735 47.2633539,24.4886778 C47.3340206,24.3476778 47.3206872,24.2818778 47.2193539,24.2926207 C47.1633539,24.2966493 47.1806872,24.2926207 47.1806872,24.2590493 C47.1806872,24.224135 47.2246872,24.1408778 47.2406872,24.0683636 C47.2793539,23.904535 47.2486872,23.9273636 47.1300206,23.8776778 C47.0460206,23.8427636 47.0633539,23.9072207 47.0406872,23.3284493 C47.0166872,22.6946207 46.9846872,22.0769064 46.8860206,21.5008207 C46.8606872,21.3544493 46.8686872,20.6601921 46.8686872,20.5567921 C46.8686872,20.1096207 46.7526872,19.4193921 46.6633539,19.0433921 C46.6766872,19.1065064 46.5286872,18.555935 46.5073539,18.4270207 C46.4593539,18.1490493 46.4086872,18.0510207 46.3406872,17.8777921 C46.2886872,17.7488778 46.1686872,17.3473636 46.1513539,17.2439636 C46.1353539,17.1513064 46.0740206,16.9095921 46.0180206,16.769935 C45.9620206,16.628935 45.9513539,16.534935 45.9406872,16.3993064 C45.9300206,16.2757636 45.8593539,16.0139064 45.7740206,15.9131921 C45.7180206,15.8447064 45.6900206,15.7050493 45.6793539,15.6432778 C45.6500206,15.4834778 45.5473539,15.2927921 45.3780206,15.1115064 C45.3473539,15.0765921 45.0726872,14.7637064 45.0340206,14.7247636 C44.8806872,14.5716778 44.8086872,14.5528778 44.6620206,14.4347064 C44.5966872,14.3836778 44.1780206,14.156735 44.1006872,14.1325636 C44.0340206,14.109735 43.6833539,13.9257636 43.6153539,13.884135 C43.4686872,13.7914778 43.1006872,13.6451064 42.9486872,13.592735 C42.9140206,13.5819921 42.5540206,13.5309636 42.4966872,13.5094778 C42.4433539,13.4866493 41.9420206,13.2905921 41.9180206,13.2852207 C41.8953539,13.2785064 41.3686872,13.0623064 41.3246872,13.038135 C41.2793539,13.0166493 41.1673539,12.9427921 41.0793539,12.915935 C40.9900206,12.8863921 40.9566872,12.793735 40.9340206,12.7534493 C40.9126872,12.7131636 40.7966872,12.5909636 40.7726872,12.5735064 C40.7513539,12.5573921 40.6900206,12.4002778 40.6446872,12.304935 C40.6006872,12.2095921 40.5673539,12.1867636 40.5113539,12.163935 C40.4566872,12.1424493 40.4606872,11.9813064 40.4446872,11.9222207 C40.4286872,11.8671636 40.4353539,11.524735 40.4220206,11.4710207 C40.4126872,11.4159636 40.4726872,11.4710207 40.4940206,11.4817636 C40.5193539,11.4911636 40.5966872,11.4253636 40.6286872,11.4079064 C40.7913539,11.327335 40.7900206,11.1782778 40.7900206,11.1782778 C40.7900206,11.1782778 40.8113539,11.0842778 40.8233539,11.0386207 C40.8340206,10.9943064 40.8620206,10.9432778 40.8740206,10.8922493 C40.8820206,10.8586778 40.9073539,10.5686207 40.9180206,10.5243064 C40.9313539,10.4705921 40.9566872,10.124135 40.9620206,10.0596778 C40.9926872,9.76559213 40.8593539,9.64473498 40.7513539,9.69039213 C40.7233539,9.69979213 40.7006872,9.68367784 40.7060206,9.64473498 C40.7126872,9.60579213 40.7126872,9.08476356 40.6406872,8.9988207 C40.5966872,8.89139213 40.6180206,8.83230641 40.6073539,8.7826207 C40.5966872,8.73159213 40.5566872,8.53956356 40.5060206,8.4912207 C40.4566872,8.44019213 40.4993539,8.38916356 40.4393539,8.25487784 C40.4286872,8.22667784 40.3366872,7.92050641 40.2220206,7.8520207 C40.1606872,7.80233498 39.9940206,7.62239213 39.9113539,7.58479213 C39.8286872,7.54316356 39.8566872,7.47736356 39.6166872,7.42499213 C39.5100206,7.40350641 39.3486872,7.31890641 39.2873539,7.27056356 C39.2273539,7.21953498 39.1046872,7.12284927 38.8993539,7.1282207 C38.7940206,7.14970641 38.8153539,7.01139213 38.5313539,7.03959213 C38.4540206,7.04496356 38.4153539,6.94424927 38.0753539,7.04496356 C37.9820206,7.08524927 37.7860206,7.1564207 37.7033539,7.18059213 C37.6206872,7.20207784 37.5686872,7.19536356 37.3126872,7.41559213 C37.1913539,7.51496356 37.1246872,7.40350641 36.8020206,7.72847784 C36.7526872,7.80233498 36.6806872,7.83590641 36.4686872,8.15013498 C36.4180206,8.22130641 36.3500206,8.43347784 36.3633539,8.4912207 C36.3500206,8.56910641 36.2740206,8.64027784 36.3073539,8.84304927 C36.3126872,8.91019213 36.2513539,9.03910641 36.2620206,9.1304207 C36.2740206,9.21770641 36.2233539,9.36944927 36.2966872,9.5440207 C36.3233539,9.66084927 36.2740206,9.69039213 36.3406872,9.81259213 C36.3633539,9.86227784 36.3633539,10.0314778 36.3966872,10.0932493 C36.3900206,10.1818778 36.3073539,10.0811636 36.2340206,10.1536778 L36.2340206,10.1536778 Z M22.0593539,10.5175921 C21.9646872,10.4370207 21.9446872,10.509535 21.8980206,10.5457921 C21.8726872,10.5619064 21.8393539,10.7767636 21.8140206,10.7995921 C21.7860206,10.8210778 21.8513539,11.4428207 21.8513539,11.4428207 C21.8513539,11.4428207 21.8900206,11.6670778 21.9126872,11.7113921 C21.9806872,11.8483636 21.9926872,11.9275921 22.1366872,11.9517636 C22.2246872,11.9678778 22.2193539,12.0014493 22.2193539,12.0014493 C22.2193539,12.0014493 22.2300206,12.1035064 22.2300206,12.1370778 C22.2300206,12.1706493 22.2153539,12.8138778 22.2193539,12.9199636 C22.2233539,13.0273921 22.1313539,13.1281064 22.0913539,13.150935 C22.0526872,13.1724207 21.7233539,13.7109064 21.6566872,13.8102778 C21.5900206,13.912335 21.4073539,13.8895064 21.3353539,13.8895064 C21.1286872,13.8895064 20.8620206,14.0076778 20.7780206,14.090935 C20.7406872,14.1325636 20.7180206,14.1325636 20.6620206,14.1325636 C20.6060206,14.1325636 20.5833539,14.1701636 20.5340206,14.1929921 C20.4846872,14.2144778 20.4113539,14.2493921 20.3433539,14.2655064 C20.1793539,14.307135 20.0126872,14.3460778 19.8713539,14.4897636 C19.8006872,14.5636207 19.5820206,14.5743636 19.5166872,14.5783921 C19.2393539,14.6025636 18.6993539,14.7838493 18.4766872,14.9758778 C18.3593539,15.0765921 18.3366872,15.0376493 18.2646872,15.0430207 C18.1913539,15.049735 18.1526872,15.0725636 18.1526872,15.0725636 C18.1526872,15.0725636 17.7926872,15.1611921 17.6660206,15.200135 C17.5353539,15.2390778 17.4873539,15.2444493 17.4420206,15.2296778 C17.3513539,15.1947636 17.1033539,15.3532207 17.1180206,15.3465064 C17.0900206,15.3572493 17.0180206,15.4472207 16.9526872,15.4700493 C16.7966872,15.5224207 16.5660206,15.6755064 16.4633539,15.8057636 C16.4180206,15.8608207 16.3526872,15.923935 16.2780206,15.9575064 C16.2060206,15.9910778 15.9113539,16.1643064 15.8620206,16.2207064 C15.7433539,16.3523064 15.6233539,16.346935 15.4166872,16.4342207 C15.1926872,16.525535 14.3793539,17.0250778 14.3206872,17.1217636 C14.3046872,17.1513064 13.9713539,17.380935 13.8980206,17.4306207 C13.5353539,17.6844207 13.1406872,17.991935 12.8246872,18.3155636 C12.8033539,18.3383921 12.4086872,18.8030207 12.3806872,18.8151064 C12.3526872,18.8258493 12.2140206,19.1159064 12.1740206,19.1723064 C11.8660206,19.6167921 11.9913539,19.9323636 12.3580206,20.7125636 C12.5220206,21.0576778 12.8660206,21.5746778 13.1326872,21.7156778 C13.2366872,21.7720778 13.3433539,21.9050207 13.3700206,21.9506778 C13.3980206,21.996335 13.9873539,22.6852207 14.0166872,22.7187921 C14.1086872,22.8302493 14.4513539,23.2733921 14.7046872,23.349935 C14.8500206,23.3955921 14.8553539,23.4506493 14.9206872,23.519135 C15.0953539,23.6937064 14.9966872,23.6963921 15.2900206,23.7272778 C15.4006872,23.7366778 15.4166872,23.7487636 15.4220206,23.772935 C15.4286872,23.7930778 15.5326872,23.8736493 15.5940206,23.9099064 C15.6566872,23.951535 15.9113539,24.1798207 15.9846872,24.2308493 C16.0553539,24.2818778 16.1513539,24.421535 16.1913539,24.4752493 C16.3020206,24.6363921 16.5446872,24.590735 16.6846872,24.5840207 C16.8140206,24.5773064 16.7966872,24.5947636 16.7966872,24.5947636 C16.7966872,24.5947636 16.9180206,24.6672778 16.9806872,24.7183064 C17.0406872,24.7679921 17.0740206,24.7465064 17.1300206,24.7236778 C17.1860206,24.7008493 17.1686872,24.7854493 17.1686872,24.7854493 C17.1686872,24.7854493 17.2193539,24.8566207 17.2526872,24.8969064 C17.3553539,25.0204493 17.8126872,25.4031636 17.9153539,25.4850778 C17.9686872,25.5293921 18.5700206,25.8946493 18.6473539,25.9389636 C18.8246872,26.0410207 18.7366872,26.0235636 18.6926872,26.1739636 C18.6700206,26.2531921 18.6206872,26.3471921 18.5926872,26.376735 C18.5633539,26.4022493 18.5300206,26.4774493 18.5153539,26.527135 C18.4980206,26.5781636 18.4593539,26.6103921 18.5153539,26.7607921 C18.5700206,26.912535 18.4860206,26.912535 18.4593539,26.9246207 C18.4313539,26.9353636 18.4433539,26.9850493 18.4700206,27.0145921 C18.4980206,27.0414493 18.4700206,27.081735 18.4273539,27.0709921 C18.3806872,27.0602493 18.4433539,27.2495921 18.4273539,27.4456493 C18.4100206,27.6417064 18.2980206,28.1855636 18.3086872,28.3144778 C18.3206872,28.4433921 18.2620206,28.5132207 18.2206872,28.6058778 C18.1646872,28.7280778 18.1420206,28.8637064 18.1380206,28.9362207 C18.1206872,29.149735 18.1206872,29.4478493 18.2033539,29.5082778 C18.2593539,29.5472207 18.2300206,30.2079064 18.2033539,30.2629636 C18.1753539,30.3180207 18.2033539,31.4970493 18.1980206,31.5521064 C18.1766872,31.762935 18.2300206,32.4934493 18.3366872,32.655935 C18.3700206,32.7056207 18.3700206,32.9352493 18.3593539,32.9916493 C18.3486872,33.0467064 18.3753539,33.6201064 18.3980206,33.6644207 C18.4980206,33.8631636 18.4420206,35.4651921 18.4380206,35.5068207 C18.4313539,35.5739636 18.3646872,37.8084778 18.3646872,37.8595064 C18.3646872,37.9091921 18.3433539,39.3755921 18.3540206,39.4736207 C18.3646872,39.5676207 18.2420206,41.125335 18.2273539,41.1965064 C18.1860206,41.3710778 18.1433539,41.990135 18.1646872,42.1714207 C18.1793539,42.290935 18.0873539,43.8150778 18.0873539,43.8647636 C18.0873539,43.9305636 17.9433539,45.5943636 17.9260206,45.6628493 C17.8420206,45.9985636 17.9446872,47.1574493 18.1420206,47.4663064 C18.2593539,47.6462493 18.2700206,48.2612778 18.2700206,48.3458778 C18.2700206,48.419735 18.2766872,48.419735 18.2700206,48.4680778 C18.2646872,48.5191064 18.4313539,49.0669921 18.4593539,49.1462207 C18.4860206,49.2227636 18.5046872,49.2429064 18.4473539,49.2697636 C18.3313539,49.3288493 18.3286872,49.5450493 18.3313539,49.5893636 C18.3433539,49.745135 18.1940206,50.0486207 18.1033539,50.1976778 C18.0366872,50.3118207 17.8366872,50.4837064 17.7806872,50.5293636 C17.7246872,50.5750207 17.6073539,50.7254207 17.5473539,50.7469064 C17.4873539,50.7710778 17.4966872,50.882535 17.4473539,50.910735 C17.2633539,51.014135 17.2366872,51.1725921 17.2420206,51.286735 C17.2473539,51.4143064 17.2126872,51.4035636 17.1646872,51.437135 C17.1126872,51.4720493 16.9860206,51.643935 16.9566872,51.7339064 C16.8873539,51.963535 16.9006872,52.0172493 17.0300206,52.1099064 C17.1113539,52.1689921 17.9260206,52.1837636 17.9260206,52.1837636 C17.9260206,52.1837636 19.0886872,52.142135 19.1660206,52.142135 C19.4140206,52.142135 19.7780206,52.076335 19.9393539,51.9689064 C20.1353539,51.8386493 20.2833539,51.7271921 20.1433539,51.3377636 C20.0660206,51.117535 20.1726872,51.1913921 20.2126872,51.1940778 C20.2913539,51.2061636 20.3073539,51.2007921 20.3833539,51.1752778 C20.5366872,51.1242493 20.7193539,51.0168207 20.8513539,50.8704493 C21.0593539,50.6421636 20.9286872,50.7375064 20.9353539,49.980135 C20.9353539,49.8619636 20.9353539,49.8445064 20.7673539,49.782735 C20.6900206,49.7572207 20.6660206,49.5275921 20.6446872,49.359735 C20.6233539,49.1918778 20.6166872,49.3154207 20.6273539,49.246935 C20.6446872,49.2227636 20.6900206,49.2147064 20.6900206,49.2147064 C20.8606872,49.077735 20.8260206,48.9447921 20.8113539,48.9716493 C20.8233539,48.9515064 20.9233539,48.6305636 20.9673539,48.5486493 C21.0126872,48.4627064 20.9953539,48.4559921 20.9500206,48.4439064 C20.9073539,48.4358493 20.9233539,48.4358493 20.9500206,48.3901921 C20.9780206,48.3458778 21.0846872,47.9645064 21.1020206,47.9148207 C21.1300206,47.8248493 21.2860206,47.0110778 21.3060206,46.9170778 C21.3753539,46.6189636 21.4406872,45.8199636 21.5073539,45.5554207 C21.5246872,45.486935 21.5740206,44.6140778 21.5900206,44.4959064 C21.6366872,44.1857064 21.6473539,42.7824207 21.6686872,42.5031064 C21.6740206,42.4252207 21.6526872,41.5886207 21.6366872,41.0796778 C21.6180206,40.5693921 21.6526872,40.4968778 21.6686872,40.4404778 C21.6860206,40.382735 21.8353539,39.5797064 21.8353539,39.5797064 C21.8353539,39.5797064 21.9246872,39.0976207 21.9126872,39.0425636 C21.9020206,38.9861636 22.0246872,38.6665636 22.0686872,38.5980778 C22.1126872,38.530935 22.1860206,38.1509064 22.1860206,38.0716778 C22.1860206,37.9924493 22.3313539,37.7305921 22.3580206,37.6298778 C22.4033539,37.4620207 22.5020206,37.1531636 22.5020206,37.6446493 C22.5020206,37.6862778 22.5806872,38.1844778 22.6086872,38.230135 C22.6366872,38.2731064 22.6193539,38.3684493 22.5860206,38.408735 C22.4526872,38.5658493 22.4380206,38.8639636 22.4020206,39.0465921 C22.3313539,39.4091636 22.2593539,40.2967921 22.2860206,40.5626778 C22.2913539,40.6204207 22.3353539,40.8393064 22.3086872,40.8782493 C22.2793539,40.9171921 22.2633539,41.275735 22.2966872,41.388535 C22.3313539,41.4999921 22.2966872,41.6168207 22.2793539,41.6785921 C22.2100206,41.9377636 22.2153539,42.4440207 22.2406872,42.7112493 C22.2473539,42.7663064 22.2966872,42.8213636 22.2353539,42.9005921 C22.1753539,42.9784778 21.9860206,43.8204493 21.9633539,43.8526778 C21.8580206,44.0124778 21.7193539,45.2922207 21.7286872,45.4829064 C21.7366872,45.5782493 21.7366872,45.8521921 21.7073539,45.9032207 C21.6180206,46.0657064 21.5620206,46.5289921 21.5300206,46.6753636 C21.5180206,46.7263921 21.5300206,46.7438493 21.4966872,46.7545921 C21.4620206,46.765335 21.4740206,47.2192207 21.4620206,47.329335 C21.4513539,47.4434778 21.4406872,47.4716778 21.4686872,47.5347921 C21.4966872,47.5938778 21.4793539,47.5670207 21.4793539,47.6167064 C21.4793539,47.6663921 21.3180206,48.0746207 21.3180206,48.109535 C21.3180206,48.1444493 21.2193539,48.2559064 21.2073539,48.4962778 C21.1953539,48.7366493 21.1246872,48.6533921 21.0780206,48.6695064 C20.9073539,48.7353064 20.9460206,48.8910778 20.9353539,49.1287636 C20.9153539,49.4698493 20.8526872,49.6242778 21.1113539,49.7397636 C21.4126872,49.8740493 21.9953539,49.914335 22.3633539,49.9599921 C22.7100206,50.0002778 22.7220206,49.8928493 22.7140206,49.8122778 C22.6926872,49.5396778 22.8086872,49.6551636 23.0486872,49.6833636 C23.3046872,49.7142493 24.0660206,50.205735 24.1100206,50.224535 C24.4700206,50.3574778 25.0860206,50.4246207 25.5233539,50.4246207 C25.9380206,50.4246207 26.3433539,50.403135 26.7073539,50.3118207 C27.0273539,50.2299064 27.1860206,50.1291921 27.3633539,50.008335 C27.5246872,49.8995636 27.5513539,49.9009064 27.4980206,49.7397636 C27.4620206,49.632335 27.4713539,49.566535 27.2860206,49.5705636 C27.2086872,49.5732493 27.1860206,49.4698493 27.1460206,49.4201636 C27.0206872,49.2549921 26.7166872,49.1838207 26.3966872,49.1408493 C26.1686872,49.1099636 26.1500206,49.0186493 26.0900206,48.9394207 C25.9406872,48.7366493 25.7780206,48.6413064 25.4233539,48.6413064 C25.2726872,48.6413064 25.2886872,48.6305636 25.2326872,48.5593921 C25.0993539,48.382135 25.0300206,48.3015636 24.8673539,48.2102493 C24.6953539,48.1149064 24.9073539,48.1149064 24.9073539,48.1149064 C24.9073539,48.1149064 24.9953539,48.1149064 25.0100206,48.0934207 C25.0273539,48.0705921 25.0886872,48.0262778 25.0886872,48.0262778 C25.0886872,48.0262778 25.2553539,47.8973636 25.3100206,47.8637921 C25.5753539,47.705335 25.4233539,47.7308493 25.4846872,46.9788493 C25.4873539,46.9318493 25.4620206,46.9399064 25.4446872,46.9103636 C25.4286872,46.8835064 25.4793539,45.9770778 25.4726872,45.8871064 C25.4700206,45.8333921 25.4846872,44.6207921 25.4620206,44.2985064 C25.4393539,43.9802493 25.4793539,44.0433636 25.4793539,44.0433636 C25.4793539,44.0433636 25.6286872,43.6619921 25.6673539,43.6123064 C25.7060206,43.5626207 26.1566872,42.441335 26.2566872,42.1942493 C26.3540206,41.952535 26.3966872,41.5845921 26.4180206,41.5161064 C26.4580206,41.397935 26.6420206,39.9207921 26.6620206,39.8026207 C26.6860206,39.6750493 26.8500206,37.995135 26.8686872,37.8527921 C26.8753539,37.8138493 26.9233539,36.5985636 26.9193539,36.5435064 C26.9126872,36.4884493 27.0300206,35.1925921 27.0353539,35.0865064 C27.0406872,34.9844493 27.0740206,34.6044207 27.0913539,34.5386207 C27.1073539,34.470135 27.1793539,33.351535 27.1793539,33.2884207 C27.1793539,33.2266493 27.3246872,32.195335 27.3526872,32.0892493 C27.3806872,31.9845064 27.4246872,31.2781636 27.4180206,31.2499636 C27.4140206,31.2204207 27.4433539,30.446935 27.4366872,30.3865064 C27.4313539,30.324735 27.4580206,29.7016493 27.4753539,29.6465921 C27.4926872,29.5928778 27.5193539,29.3229636 27.5140206,29.2826778 C27.5086872,29.243735 27.4926872,29.1416778 27.4926872,29.065135 C27.4926872,28.811335 27.4366872,28.397735 27.3406872,28.1855636 C27.2913539,28.0727636 27.2686872,27.7934493 27.2686872,27.6913921 C27.2686872,27.589335 27.1633539,26.8776207 27.1526872,26.733935 C27.1406872,26.5956207 27.1246872,26.6077064 27.1460206,26.5956207 C27.1700206,26.5848778 27.5140206,26.2585636 27.5420206,26.2008207 C27.5686872,26.1457636 27.6646872,26.0450493 27.7153539,26.0410207 C27.7646872,26.0343064 27.8993539,25.9027064 27.9313539,25.878535 C28.2926872,25.605935 28.3326872,25.2836493 28.3086872,25.3561636 C28.3273539,25.3064778 28.3593539,25.3118493 28.3873539,25.2890207 C28.4153539,25.2661921 28.4433539,25.1869636 28.4486872,25.1493636 C28.4540206,25.1104207 28.5153539,25.0311921 28.5646872,25.0150778 C28.6153539,24.9976207 28.6553539,24.863335 28.7380206,24.7679921 C28.8206872,24.6739921 28.7993539,24.7236778 28.7993539,24.7236778 C28.7993539,24.7236778 28.9380206,24.7183064 29.0660206,24.778735 C29.1926872,24.8418493 29.1206872,24.656535 29.1486872,24.5611921 C29.1780206,24.4645064 29.3273539,24.1408778 29.3433539,24.0441921 C29.3606872,23.951535 29.7393539,23.519135 29.8046872,23.4358778 C29.8713539,23.349935 29.8886872,22.9296207 29.9006872,22.8691921 C29.9126872,22.8087636 29.9793539,22.5670493 30.0513539,22.4609636 C30.1220206,22.353535 30.0940206,22.353535 30.1060206,22.2810207 C30.1166872,22.2085064 30.2513539,21.7385064 30.2833539,21.6982207 C30.3166872,21.6592778 30.3833539,21.1664493 30.3940206,21.1006493 C30.4260206,20.9086207 30.4646872,20.7783636 30.3726872,20.6172207 C30.3340206,20.5500778 30.3726872,20.5447064 30.4006872,20.4936778 C30.5233539,20.2721064 30.4420206,20.116335 30.3393539,19.9296778 C30.3060206,19.8665636 30.3006872,19.8893921 30.3006872,19.8168778 C30.3006872,19.7443636 30.2726872,19.6167921 30.2286872,19.552335 C30.1846872,19.4919064 30.1340206,19.4475921 30.1113539,19.3240493 C30.0900206,19.2005064 29.9726872,18.9990778 29.9393539,18.9091064 C29.9060206,18.8177921 29.8833539,18.8419636 29.8940206,18.7519921 C29.9060206,18.6633636 29.8673539,18.5613064 29.8220206,18.4780493 C29.7713539,18.3827064 29.7273539,18.3706207 29.6766872,18.3612207 C29.6286872,18.3504778 29.5500206,18.2524493 29.4886872,18.1973921 C29.4273539,18.142335 29.1713539,17.9341921 29.1086872,17.8845064 C29.0140206,17.8052778 28.9313539,17.6575636 28.9100206,17.5931064 C28.8606872,17.4427064 28.4393539,16.7578493 28.3326872,16.6625064 C28.2873539,16.6249064 28.1313539,16.4261636 28.0940206,16.3536493 C28.0046872,16.1898207 27.9793539,16.1092493 27.7753539,16.0353921 C27.6300206,15.9830207 27.6233539,15.8594778 27.6140206,15.8447064 C27.5433539,15.7507064 27.2966872,15.6271636 27.1180206,15.6432778 C26.9420206,15.6567064 26.8953539,15.6244778 26.7420206,15.576135 C26.6513539,15.547935 26.6033539,15.482135 26.5726872,15.4136493 C26.5313539,15.3102493 26.3340206,15.2619064 26.1220206,15.2350493 C25.9566872,15.2122207 26.0193539,15.1732778 25.9900206,15.0994207 C25.9020206,14.871135 25.8233539,14.871135 25.6620206,14.8590493 C25.4953539,14.8456207 25.2873539,14.6804493 25.2500206,14.645535 C25.1886872,14.5904778 25.1726872,14.5851064 25.0380206,14.5783921 C24.9220206,14.5743636 24.9953539,14.5743636 24.9780206,14.3219064 C24.9846872,14.2104493 24.9833539,14.231935 25.0060206,14.1701636 C25.0500206,14.043935 25.2113539,13.6786778 25.2553539,13.4651636 C25.2833539,13.3308778 25.3286872,13.3080493 25.3566872,13.2852207 C25.4700206,13.1939064 25.6020206,12.953535 25.6620206,12.7306207 C25.6953539,12.605735 25.7113539,12.6285636 25.7460206,12.6178207 C25.7780206,12.605735 25.7833539,12.568135 25.8180206,12.5345636 C25.8660206,12.4862207 25.8846872,12.4486207 25.8846872,12.4002778 C25.8846872,12.3358207 25.9566872,12.2445064 25.9953539,12.2042207 C26.0566872,12.1424493 26.1033539,12.1196207 26.0900206,11.9745921 C26.0846872,11.9128207 26.1180206,11.8134493 26.1446872,11.778535 C26.1726872,11.7436207 26.2353539,11.5771064 26.2353539,11.5368207 C26.2353539,11.4978778 26.2406872,11.4361064 26.2620206,11.4079064 C26.2686872,11.3985064 26.3126872,11.1970778 26.0726872,11.2642207 C26.0113539,11.280335 25.9953539,11.280335 26.0406872,11.2118493 C26.0846872,11.1447064 26.1446872,11.0386207 26.1513539,10.988935 C26.1566872,10.9379064 26.2513539,10.6867921 26.2460206,10.5739921 C26.2406872,10.462535 26.3233539,10.3107921 26.2966872,10.199335 C26.2686872,10.086535 26.3060206,9.91733498 26.2620206,9.81259213 C26.2180206,9.70516356 26.2060206,9.51447784 26.1220206,9.40973498 C26.0406872,9.30230641 25.9953539,9.11833498 25.9793539,9.06059213 C25.9606872,9.00553498 25.8953539,8.84304927 25.7460206,8.71950641 C25.6166872,8.6134207 25.5953539,8.56910641 25.5566872,8.53016356 C25.5180206,8.4912207 25.5180206,8.4724207 25.4286872,8.44556356 C25.3673539,8.42810641 25.3180206,8.2938207 24.9446872,8.15953498 C24.8446872,8.13133498 24.7166872,8.00913498 24.5220206,8.02524927 C24.4260206,8.0306207 24.4380206,7.95810641 24.2326872,7.99704927 C24.1833539,8.02524927 23.8380206,8.01450641 23.7713539,8.04136356 C23.7046872,8.07090641 23.5713539,8.09239213 23.4713539,8.1434207 C23.3713539,8.19310641 23.3206872,8.22130641 23.1966872,8.26696356 C23.0740206,8.30993498 22.8540206,8.41736356 22.7700206,8.50733498 C22.6860206,8.59730641 22.6593539,8.65370641 22.5700206,8.70204927 C22.4353539,8.8484207 22.4860206,8.84304927 22.4580206,8.92227784 C22.4300206,8.9988207 22.4086872,9.08879213 22.3473539,9.14519213 C22.2860206,9.20159213 22.2913539,9.37616356 22.2300206,9.47553498 C22.1700206,9.57624927 22.1313539,9.88510641 22.1366872,9.94150641 C22.1406872,9.99656356 22.1020206,10.2208207 22.1126872,10.2893064 C22.1246872,10.3564493 22.1020206,10.406135 22.1406872,10.4450778 C22.1806872,10.4826778 22.1753539,10.6183064 22.0593539,10.5175921 L22.0593539,10.5175921 Z M17.4033539,20.2022778 C17.3580206,20.1687064 17.2073539,20.0357636 17.1460206,20.012935 C17.1460206,19.9511636 16.5406872,20.0357636 16.4913539,20.041135 C16.3126872,20.0800778 16.2900206,20.2935921 15.5940206,20.4050493 C15.5220206,20.4211636 15.5446872,20.5003921 15.5513539,20.5259064 C15.5726872,20.6118493 15.7513539,20.6011064 15.7606872,21.0106778 C15.7833539,21.0549921 15.7566872,21.1825636 16.0060206,21.1664493 C16.0833539,21.1664493 16.2340206,21.2510493 16.1233539,21.4806778 C16.1073539,21.5209636 16.0446872,21.5585636 16.0326872,21.6042207 C16.0673539,21.6592778 16.2726872,21.9291921 16.5460206,21.9171064 C16.6126872,21.9345636 16.7686872,21.8889064 16.7566872,22.1856778 C16.7740206,22.2756493 16.8393539,22.353535 16.8313539,22.4206778 C16.9126872,22.4878207 17.3540206,22.8356207 17.6140206,23.0921064 C17.7686872,23.2666778 17.8473539,23.4466207 18.0646872,23.547335 C18.1140206,23.613135 18.1873539,23.5916493 18.1140206,23.697735 C18.0980206,23.772935 18.2206872,23.754135 18.2593539,23.8441064 C18.3646872,23.9058778 18.4980206,24.007935 18.7593539,23.9716778 C18.7433539,23.9058778 18.7593539,23.8602207 18.6980206,23.7595064 C18.6886872,23.7098207 18.1420206,22.4770778 18.1193539,22.3924778 C18.0980206,22.3092207 17.5593539,20.8146207 17.5420206,20.7582207 C17.5246872,20.7018207 17.4366872,20.276135 17.4033539,20.2022778 L17.4033539,20.2022778 Z M27.6753539,20.4278778 C27.6300206,20.4278778 27.6193539,20.4211636 27.5860206,20.4157921 C27.5540206,20.4104207 27.2086872,20.5057636 27.1460206,20.4936778 C27.0846872,20.482935 26.9753539,20.4896493 26.9126872,20.6118493 C26.8526872,20.7340493 26.7966872,20.7864207 26.8020206,20.8629636 C26.8073539,20.9421921 26.8846872,21.8942778 26.7846872,22.4609636 C26.7580206,22.532135 26.7300206,22.7751921 26.7526872,22.8289064 C26.7740206,22.8853064 26.8193539,23.2666778 26.5286872,23.7595064 C26.4460206,23.8776778 26.5006872,24.0347921 26.4233539,24.1341636 C26.4020206,24.1798207 26.4073539,24.1744493 26.4353539,24.1798207 C26.5340206,24.1919064 26.7740206,24.1005921 26.9580206,24.195935 C26.9806872,24.224135 27.1033539,24.2751636 27.1633539,24.195935 C27.2206872,24.186535 27.1526872,24.1247636 27.4086872,23.772935 C27.4433539,23.7313064 27.5260206,23.5527064 27.5260206,23.4963064 C27.5260206,23.4412493 27.6086872,23.1981921 27.6566872,23.1485064 C27.7073539,23.0988207 27.5313539,22.9699064 27.4860206,22.7067064 C27.4700206,22.4837921 27.3753539,22.4260493 27.4140206,22.3750207 C27.4526872,22.3266778 27.5420206,22.2810207 27.5646872,22.2353636 C27.5860206,22.1923921 27.8033539,21.9291921 27.9033539,21.8660778 C27.9593539,21.8163921 27.8473539,21.7317921 27.8033539,21.6069064 C27.7860206,21.5585636 27.7153539,21.441735 27.7540206,21.3275921 C27.7246872,21.2215064 27.5753539,21.300735 27.5260206,21.2940207 C27.4633539,21.2899921 27.4246872,21.1436207 27.5926872,20.9932207 C27.6420206,20.9650207 27.7700206,20.8696778 27.8033539,20.8361064 C27.8380206,20.802535 27.7806872,20.7340493 27.7473539,20.7192778 C27.7193539,20.6575064 27.7193539,20.4278778 27.6753539,20.4278778 L27.6753539,20.4278778 Z M26.3006872,24.9976207 C26.2913539,25.041935 26.2353539,25.1560778 26.2620206,25.182935 C26.2913539,25.2124778 26.3846872,25.220535 26.4180206,25.2500778 C26.4513539,25.276935 26.4900206,25.2890207 26.5286872,25.2003921 C26.5193539,25.1144493 26.4513539,25.0540207 26.4233539,25.0311921 C26.3966872,25.0083636 26.3126872,24.9533064 26.3006872,24.9976207 L26.3006872,24.9976207 Z M27.1860206,25.8207921 C27.1406872,25.878535 27.1353539,25.9282207 26.9580206,26.066535 C26.9420206,26.0893636 27.0073539,26.1565064 27.0300206,26.1847064 C27.0593539,26.2303636 27.1700206,26.066535 27.2353539,26.0047636 C27.2633539,25.972535 27.3246872,25.8718207 27.1860206,25.8207921 L27.1860206,25.8207921 Z M40.2566872,34.8447921 C40.1713539,34.8783636 40.2500206,35.9043064 40.2566872,35.9821921 C40.2606872,36.0614207 40.3580206,37.008135 40.3113539,37.3720493 C40.3060206,37.4512778 40.4353539,39.1593921 40.4220206,39.3823064 C40.4006872,39.4776493 40.6726872,39.8241064 40.6620206,40.2336778 C40.6500206,40.3290207 40.7286872,40.7667921 40.7620206,40.8782493 C40.7966872,40.9910493 40.8686872,41.4435921 40.8620206,41.5886207 C40.8620206,41.6530778 41.0126872,42.3352493 41.0353539,42.3956778 C41.0566872,42.4574493 41.1740206,43.0671064 41.1740206,43.1530493 C41.1740206,43.2363064 41.3313539,44.4797921 41.3313539,44.5523064 C41.3313539,44.6261636 41.4353539,45.599735 41.4353539,45.7850493 C41.4180206,45.909935 41.4566872,46.445735 41.4566872,46.5263064 C41.4566872,46.6041921 41.4753539,47.0500207 41.4300206,47.2689064 C41.4180206,47.3038207 41.5846872,47.6569921 41.5966872,47.7295064 C41.6073539,47.8020207 41.6233539,47.4542207 41.6353539,47.4099064 C41.6460206,47.3642493 41.6526872,46.8767921 41.6633539,46.8271064 C41.6740206,46.7774207 41.6353539,46.267135 41.6580206,46.1476207 C41.6806872,46.032135 41.4566872,45.0182778 41.4566872,44.9403921 C41.4566872,44.8611636 41.2980206,43.400135 41.3180206,43.3423921 C41.3406872,43.287335 41.2180206,42.356735 41.2233539,42.2895921 C41.2300206,42.2237921 41.2740206,41.8813636 41.2566872,41.8142207 C41.2406872,41.745735 41.0740206,41.275735 41.0793539,41.1965064 C41.0833539,41.1186207 41.0460206,40.5009064 41.0833539,40.3505064 C41.1233539,40.2001064 40.9300206,40.1329636 40.9460206,39.555535 C40.9460206,39.4225921 40.9340206,38.7444493 40.9300206,38.6759636 C40.9220206,38.6088207 40.7833539,38.1844778 40.8300206,37.9038207 C40.8740206,37.6231636 40.6406872,37.5278207 40.6673539,36.9342778 C40.6446872,36.8281921 40.4180206,35.8371636 40.4446872,35.6572207 C40.4006872,35.4826493 40.2726872,34.7843636 40.2566872,34.8447921 L40.2566872,34.8447921 Z" id="Imported-Layers" sketch:type="MSShapeGroup"></path>
        </g>
    </g>
</svg>