<?xml version="1.0" encoding="UTF-8" standalone="no"?>
<svg width="116px" height="116px" viewBox="0 0 116 116" version="1.1" xmlns="http://www.w3.org/2000/svg" xmlns:xlink="http://www.w3.org/1999/xlink" xmlns:sketch="http://www.bohemiancoding.com/sketch/ns">
    <!-- Generator: Sketch 3.0.4 (8054) - http://www.bohemiancoding.com/sketch -->
    <title>eiffeltower</title>
    <desc>Created with Sketch.</desc>
    <defs></defs>
    <g id="Page-1" stroke="none" stroke-width="1" fill="none" fill-rule="evenodd" sketch:type="MSPage">
        <g id="eiffeltower" sketch:type="MSArtboardGroup" fill="#000000">
            <path d="M72.068,92.8650004 L72.068,90.2387522 L72.3688,89.7867522 L71.9936,89.3355536 L70.572,89.3355536 C71.6936,88.5076884 72.2184,87.0843692 72.2184,87.0843692 L70.6488,87.0843692 C67.8008,83.7071919 64.8056,72.9778019 64.8056,72.9778019 L65.328,72.9778019 L65.028,71.5528799 C65.028,71.5528799 64.8056,72.0048799 64.5776,71.4807522 C64.3552,70.9534189 64.4288,70.5799579 64.4288,70.5799579 L64.88,70.352355 L65.0968,69.5108657 L65.6296,67.4303834 L65.4024,66.8269153 L64.7032,66.5335962 L63.9784,66.2290572 L63.9064,65.6279933 L63.3064,65.6279933 L62.8592,63.5266742 C62.6064,62.2652416 61.8672,53.285348 61.1456,43.9127593 C61.0056,41.7232841 60.8912,39.8944472 60.8912,39.8944472 C60.8864,39.8439579 60.8616,39.8062912 60.8288,39.7678231 C60.7112,38.2058586 60.5952,36.6615253 60.4856,35.1724898 C60.5016,35.1468444 60.512,35.1252061 60.512,35.1252061 C60.5312,35.0915465 60.544,35.0514756 60.544,35.0138089 C60.544,34.973738 60.5328,34.9312628 60.5136,34.8976033 C60.5016,34.8767664 60.4792,34.8639437 60.4608,34.8471139 C60.3512,33.3877309 60.2488,31.9804401 60.1504,30.6637097 C60.1672,30.6492841 60.184,30.6460784 60.1976,30.6284472 C60.236,30.5859721 60.2568,30.5338799 60.2568,30.4769792 L60.2568,30.4577451 L59.9448,26.5404118 C60.0216,26.3977593 60.0648,26.3216245 60.0648,26.3216245 C60.0856,26.2911706 60.0944,26.253504 60.0944,26.2134331 C60.0944,26.1709579 60.0832,26.1372983 60.0648,26.0988302 C60.0296,26.0427309 59.968,26.0082699 59.9008,25.9946458 L59.6232,22.4788231 C59.6216,22.4643976 59.6128,22.4587877 59.6104,22.4467664 C59.6024,22.421121 59.5992,22.3970784 59.5848,22.3698302 C59.5848,22.3698302 59.572,22.3481919 59.5528,22.323348 C59.5248,21.8977948 59.4992,21.5676104 59.488,21.3576387 C59.4496,20.7573763 59.4328,20.1691352 59.4256,19.6025323 C59.4904,19.4959437 59.5248,19.4318302 59.5248,19.4318302 C59.548,19.3973692 59.556,19.3597026 59.556,19.3196316 C59.556,19.2811636 59.548,19.2426955 59.5288,19.2082345 C59.504,19.1657593 59.4664,19.1393125 59.4256,19.1232841 C59.4344,17.2351423 59.588,15.6860004 59.668,15.0304401 C59.6936,14.806043 59.7112,14.6826245 59.7112,14.6826245 L60.3104,13.7818302 C60.3104,13.7818302 60.324,13.5325891 60.3472,13.1975962 C60.3744,12.7431919 60.4184,12.1341139 60.4608,11.8327806 C60.5384,11.3054472 59.936,11.3791777 59.936,11.3791777 L59.5608,10.9327877 L58.8888,10.8550501 L58.8888,10.5545182 L59.86,10.0303905 C59.86,10.0303905 60.1624,9.95505717 59.4112,9.8043905 C58.6616,9.65933377 58.212,9.1303976 57.9144,8.22960327 C57.6152,7.32961036 57.84,4.55670256 57.764,3.20631249 C57.7384,2.75591533 57.6808,2.47301462 57.6152,2.29189405 L57.6152,2.00498625 C57.6152,2.00498625 57.5464,1.97853944 57.4656,2.04746143 C57.3832,1.97853944 57.3152,2.00498625 57.3152,2.00498625 L57.3152,2.29189405 C57.248,2.47301462 57.1904,2.75591533 57.1648,3.20631249 C57.0896,4.55670256 57.3152,7.32961036 57.0176,8.22960327 C56.7144,9.1303976 56.2656,9.65933377 55.516,9.8043905 C54.7688,9.95505717 55.068,10.0303905 55.068,10.0303905 L56.0432,10.5545182 L56.0432,10.8550501 L55.3656,10.9327877 L54.9936,11.3791777 C54.9936,11.3791777 54.3944,11.3054472 54.4688,11.8327806 C54.5224,12.1982274 54.5736,13.0132699 54.6016,13.4628657 C54.6128,13.6568089 54.6168,13.7818302 54.6168,13.7818302 L55.2184,14.6826245 C55.2184,14.6826245 55.2872,15.1666813 55.3552,15.9737097 C55.4256,16.7751281 55.496,17.9003196 55.5032,19.1705678 C55.4904,19.1817877 55.4728,19.1906033 55.464,19.2082345 C55.4456,19.2426955 55.4344,19.2811636 55.4344,19.3196316 C55.4344,19.3597026 55.4456,19.3973692 55.4664,19.4318302 C55.4664,19.4318302 55.48,19.4566742 55.5032,19.4959437 C55.5,20.0913976 55.4824,20.7173054 55.4432,21.3576387 C55.4304,21.5587948 55.4096,21.8681423 55.3816,22.2584331 C55.3384,22.3313621 55.3152,22.3698302 55.3128,22.3746387 L55.3128,22.3778444 L55.3104,22.3778444 C55.2912,22.4163125 55.28,22.4563834 55.28,22.4940501 C55.28,22.5285111 55.2888,22.5677806 55.3056,22.5974331 L55.3088,22.6014401 L55.3088,22.6062487 C55.3128,22.6110572 55.328,22.6455182 55.3512,22.6871919 C55.2928,23.5190643 55.2136,24.6450572 55.1176,25.9898373 C55.04,25.9898373 54.9704,26.0347167 54.9288,26.0988302 C54.908,26.1372983 54.8992,26.1709579 54.8992,26.2134331 C54.8992,26.253504 54.908,26.2911706 54.9272,26.3216245 C54.9272,26.3216245 54.9824,26.4210004 55.0752,26.5884969 C54.996,27.6888444 54.904,28.9294401 54.8072,30.2630004 C54.7168,30.2902487 54.6488,30.3663834 54.6464,30.4705678 L54.4912,34.5682203 C54.4792,34.7052628 54.4688,34.8423054 54.4576,34.9785465 C54.4576,34.9913692 54.4528,35.0009862 54.4528,35.0138089 C54.4528,35.0186175 54.4536,35.0266316 54.4536,35.0298373 C53.5832,46.7529862 52.4056,61.8605253 52.0728,63.5266742 L51.6232,65.6279933 L51.0256,65.6279933 L50.9488,66.2290572 L49.5264,66.8269153 L49.4432,67.0449011 L49.3,67.4303834 L50.0072,70.1768444 L50.0512,70.352355 L50.4992,70.5799579 C50.4992,70.5799579 50.572,70.9534189 50.3496,71.4807522 C50.1232,72.0048799 49.8992,71.5528799 49.8992,71.5528799 L49.5992,72.9778019 L50.1232,72.9778019 C50.1232,72.9778019 47.128,83.7071919 44.2832,87.0843692 L42.7112,87.0843692 C42.7112,87.0843692 43.2336,88.5076884 44.3576,89.3355536 L42.9352,89.3355536 L42.5608,89.7867522 L42.8584,90.2387522 L42.8584,92.8650004 C42.8584,92.8650004 34.0232,108.543951 32,113.494312 L43.9824,113.494312 C43.9824,113.494312 44.7272,99.427816 57.4656,99.3164189 C70.2032,99.427816 70.9464,113.494312 70.9464,113.494312 L82.9312,113.494312 C80.908,108.543951 72.068,92.8650004 72.068,92.8650004 L72.068,92.8650004 Z M62.0344,89.2217522 L61.3528,88.6335111 L62.0344,87.9547097 L62.0344,89.2217522 L62.0344,89.2217522 Z M59.6368,89.4822132 L59.6368,87.7463409 L60.6936,88.6591565 L59.8696,89.4822132 L59.6368,89.4822132 L59.6368,89.4822132 Z M58.5872,89.3491777 L57.7584,88.6335111 L58.5872,87.8056458 L58.5872,89.3491777 L58.5872,89.3491777 Z M56.1904,89.4822132 L56.1904,87.8737664 L57.0984,88.6591565 L56.2768,89.4822132 L56.1904,89.4822132 L56.1904,89.4822132 Z M56.484,87.533965 L58.2224,87.533965 L57.4176,88.3409933 L56.484,87.533965 L56.484,87.533965 Z M57.4656,86.093816 L53.1968,85.7371848 L55.1424,75.8316529 L59.7856,75.8316529 L61.7344,85.7371848 L57.4656,86.093816 L57.4656,86.093816 Z M52.748,89.4822132 L52.748,87.788816 L53.7536,88.6591565 L52.9296,89.4822132 L52.748,89.4822132 L52.748,89.4822132 Z M52.064,83.6615111 C51.7856,83.3217097 51.0344,82.4137026 50.2808,81.4992841 C50.2808,81.4896671 50.2824,81.4776458 50.2872,81.4680288 C51.2824,80.911043 52.2728,80.3524543 52.8816,80.0102487 C52.644,81.2364189 52.3704,82.4882345 52.064,83.6615111 L52.064,83.6615111 Z M47.0152,83.111738 C47.0328,83.1245607 47.916,84.0934756 48.8136,85.0712061 C48.808,85.0904401 48.8032,85.1072699 48.7992,85.1281068 C47.328,85.77966 45.8464,86.4360217 45.2696,86.693277 C45.5672,86.1042345 46.24,84.772277 47.0152,83.111738 L47.0152,83.111738 Z M48.4288,79.962965 C48.6744,80.267504 49.1408,80.8333054 49.5736,81.3526245 C48.6048,81.8975891 47.5848,82.4641919 47.2184,82.6741636 C47.6144,81.8198515 48.0256,80.9022274 48.4288,79.962965 L48.4288,79.962965 Z M49.74,76.6194472 C49.9872,76.833426 50.4048,77.1948657 50.8632,77.5931706 C50.8072,77.7959295 50.7536,78.0026955 50.6976,78.2078586 C49.9248,78.5941423 49.1952,78.9587877 48.7536,79.1823834 C49.1136,78.3152487 49.4504,77.4473125 49.74,76.6194472 L49.74,76.6194472 Z M51.5632,69.5212841 L53.7728,70.2882416 L51.0512,71.3132558 L51.5632,69.5212841 L51.5632,69.5212841 Z M56.0152,17.2295323 C56.1144,17.4274827 56.2448,17.6895465 56.3808,17.9644331 L55.9248,18.7321919 C55.964,18.0718231 55.996,17.5661281 56.0152,17.2295323 L56.0152,17.2295323 Z M60.184,40.363277 C60.1392,40.4402132 59.6976,41.2047664 59.1648,42.1223905 C58.788,41.4868657 58.3856,40.8144756 57.9824,40.1308657 L60.0624,40.1308657 C60.1264,40.2510784 60.1712,40.3424401 60.184,40.363277 L60.184,40.363277 Z M61.0472,51.5614969 C60.9992,51.6568657 60.3848,52.8878444 59.684,54.2943338 C59.1416,53.398348 58.5584,52.4366458 57.9744,51.4701352 L60.9872,51.4701352 C61.0152,51.5182203 61.0384,51.5478728 61.0472,51.5614969 L61.0472,51.5614969 Z M58.0424,63.0754756 L57.7672,63.0754756 L57.7672,59.1156671 L59.6368,60.9901848 C59.0552,61.7499295 58.4528,62.5401281 58.0424,63.0754756 L58.0424,63.0754756 Z M59.9568,61.3131565 L61.7152,63.0754756 L58.608,63.0754756 L59.9568,61.3131565 L59.9568,61.3131565 Z M63.64,69.5292983 L63.8208,70.8123692 L61.3576,70.2489721 L63.64,69.5292983 L63.64,69.5292983 Z M63.7352,71.2539508 C63.7864,71.2659721 63.8392,71.2539508 63.88,71.2331139 L63.9064,71.403816 L57.8096,71.403816 C57.8096,71.3958019 57.8096,71.3813763 57.808,71.3733621 L60.5096,70.5190501 C62.1648,70.8933125 63.7352,71.2539508 63.7352,71.2539508 L63.7352,71.2539508 Z M62.6,73.2013976 C62.6208,73.286348 62.72,73.6742345 62.8712,74.2600714 C62.0256,73.6902628 61.2592,73.1669366 61.2592,73.1669366 C61.2448,73.1637309 61.2312,73.158121 61.216,73.1549153 C61.2144,73.0940075 61.2088,73.054738 61.2088,73.054738 L62.6152,73.054738 C62.5952,73.1028231 62.5872,73.1549153 62.6,73.2013976 L62.6,73.2013976 Z M66.3072,79.1735678 C65.8656,78.9499721 65.1424,78.5885323 64.3768,78.2078586 C64.3216,78.0026955 64.2688,77.7959295 64.2144,77.5931706 C64.6832,77.1860501 65.1024,76.8222061 65.3496,76.6090288 C65.6408,77.4216671 65.9696,78.2928089 66.3072,79.1735678 L66.3072,79.1735678 Z M67.6296,82.546738 C67.1584,82.2830714 66.312,81.8086316 65.5056,81.3526245 C65.9168,80.8509366 66.3704,80.3051706 66.6248,79.9958231 C66.964,80.866965 67.3064,81.7340997 67.6296,82.546738 L67.6296,82.546738 Z M65.16,87.533965 L64.36,88.3409933 L63.428,87.533965 L65.16,87.533965 L65.16,87.533965 Z M63.8392,77.9241565 C63.8392,77.9297664 63.8392,77.9321706 63.8416,77.9425891 C63.8352,77.9377806 63.8304,77.9321706 63.828,77.9321706 C63.828,77.9297664 63.8328,77.9241565 63.8392,77.9241565 L63.8392,77.9241565 Z M63.1392,75.285887 C63.3064,75.9125962 63.4992,76.6458941 63.7088,77.4400997 C63.604,77.5250501 63.4992,77.6204189 63.3888,77.7093763 C62.6664,77.348738 61.952,76.9897026 61.8056,76.9159721 C61.9616,76.7284401 62.4792,76.0929153 63.1392,75.285887 L63.1392,75.285887 Z M61.5624,76.5056458 C61.4224,75.3155394 61.3232,74.3297948 61.268,73.7199153 C61.6168,73.9563338 62.272,74.3987167 62.9272,74.8354898 C62.4032,75.4798302 61.8752,76.1169579 61.5624,76.5056458 L61.5624,76.5056458 Z M61.6704,77.354348 C62.008,77.5250501 62.5592,77.8015394 63.0232,78.0331494 C62.6152,78.3873763 62.1888,78.7568302 61.9016,79.0060714 C61.8152,78.4394685 61.7392,77.8864898 61.6704,77.354348 L61.6704,77.354348 Z M63.4576,78.2487309 C63.64,78.3400926 63.8208,78.4306529 63.996,78.5172061 C64.1976,79.2801565 64.4112,80.070355 64.6256,80.8533409 C63.3432,80.1432841 62.3192,79.5678657 62.0872,79.4396387 C62.256,79.2937806 62.7864,78.8345678 63.4576,78.2487309 L63.4576,78.2487309 Z M64.5312,78.7864827 C65.42,79.2344756 66.1136,79.5814898 66.3048,79.6768586 C66.1928,79.8122983 65.6976,80.4085536 65.148,81.0737309 C64.9448,80.3276104 64.7408,79.5542416 64.5312,78.7864827 L64.5312,78.7864827 Z M65.7416,84.8876813 C64.6424,84.4028231 63.604,83.9396033 63.428,83.8618657 C63.5872,83.6695253 64.1816,82.9458444 64.9424,82.0306245 C65.2224,83.0556387 65.4976,84.0381777 65.7416,84.8876813 L65.7416,84.8876813 Z M64.692,86.7846387 C64.8952,86.5618444 65.3144,86.1042345 65.9056,85.4582912 C66.0592,85.971199 66.1952,86.4240004 66.312,86.7846387 L64.692,86.7846387 L64.692,86.7846387 Z M66.784,86.7846387 C66.688,86.4953267 66.5736,86.1250714 66.4464,85.6955111 C67.5816,86.1963976 68.2744,86.5049437 68.9056,86.7846387 L66.784,86.7846387 L66.784,86.7846387 Z M65.3384,81.7789792 C66.416,82.3840501 67.3704,82.9137877 67.5392,83.0091565 C67.3904,83.1726458 66.8344,83.780121 66.116,84.5671139 C65.8808,83.7384472 65.6144,82.7863621 65.3384,81.7789792 L65.3384,81.7789792 Z M64.0864,77.1099153 C63.9208,76.4880146 63.76,75.8813409 63.6072,75.2987097 C64.3336,75.7891777 64.8864,76.1610359 65.0488,76.2740359 C64.9208,76.3846316 64.5672,76.6923763 64.0864,77.1099153 L64.0864,77.1099153 Z M53.0856,78.9283338 C52.8024,78.6798941 52.4216,78.3497097 52.0544,78.0331494 C52.4952,77.8095536 53.0144,77.5506955 53.356,77.3791919 C53.2736,77.8728657 53.1848,78.3961919 53.0856,78.9283338 L53.0856,78.9283338 Z M51.2824,87.533965 L50.4768,88.3409933 L49.5464,87.533965 L51.2824,87.533965 L51.2824,87.533965 Z M48.9616,84.5671139 C48.2392,83.780121 47.6848,83.1726458 47.536,83.0091565 C47.7088,82.9137877 48.6568,82.3840501 49.7384,81.7789792 C49.4608,82.7863621 49.1952,83.7384472 48.9616,84.5671139 L48.9616,84.5671139 Z M46.1688,86.7846387 C46.7984,86.5049437 47.4952,86.1963976 48.632,85.6955111 C48.504,86.1250714 48.3888,86.4953267 48.2936,86.7846387 L46.1688,86.7846387 L46.1688,86.7846387 Z M48.7648,86.7846387 C48.88,86.4240004 49.0176,85.971199 49.1696,85.4582912 C49.7616,86.1042345 50.18,86.5618444 50.3832,86.7846387 L48.7648,86.7846387 L48.7648,86.7846387 Z M50.132,82.0306245 C50.8904,82.9458444 51.4904,83.6695253 51.6496,83.8618657 C51.4728,83.9396033 50.4344,84.4028231 49.3344,84.8876813 C49.5776,84.0381777 49.852,83.0556387 50.132,82.0306245 L50.132,82.0306245 Z M49.9272,81.0737309 C49.3784,80.4085536 48.8816,79.8122983 48.7712,79.6768586 C48.9632,79.5814898 49.6568,79.2344756 50.544,78.7864827 C50.3384,79.5542416 50.1312,80.3276104 49.9272,81.0737309 L49.9272,81.0737309 Z M51.0792,78.5172061 C51.2552,78.4306529 51.4344,78.3400926 51.6192,78.2487309 C52.2904,78.8345678 52.8208,79.2937806 52.9872,79.4396387 C52.7536,79.5678657 51.7344,80.1432841 50.452,80.8533409 C50.6656,80.070355 50.8752,79.2801565 51.0792,78.5172061 L51.0792,78.5172061 Z M53.544,73.3560714 C53.2464,73.5572274 52.7432,73.8962274 52.2008,74.2600714 C52.3096,73.8409295 52.3904,73.531582 52.4368,73.3560714 L53.544,73.3560714 L53.544,73.3560714 Z M51.936,75.285887 C52.5928,76.0929153 53.1136,76.7284401 53.2688,76.9159721 C53.1264,76.9897026 52.4088,77.348738 51.6856,77.7093763 C51.5752,77.6156104 51.472,77.5250501 51.368,77.4360926 C51.5792,76.6410855 51.7712,75.9125962 51.936,75.285887 L51.936,75.285887 Z M51.2512,77.9321706 C51.2464,77.9321706 51.2392,77.9377806 51.2328,77.9425891 C51.236,77.9321706 51.2376,77.9297664 51.2376,77.9209508 C51.2416,77.9241565 51.2464,77.9297664 51.2512,77.9321706 L51.2512,77.9321706 Z M53.4984,76.4880146 C53.1848,76.1009295 52.6632,75.4670075 52.1496,74.8354898 C52.8648,74.3538373 53.5904,73.8665749 53.9064,73.6517948 C53.8432,74.1326458 53.7048,75.1696813 53.4984,76.4880146 L53.4984,76.4880146 Z M52.0816,71.403816 C52.7664,71.1457593 53.6312,70.8203834 54.4416,70.5190501 L57.0024,71.403816 L52.0816,71.403816 L52.0816,71.403816 Z M57.7176,70.9317806 L57.4864,69.8250217 C58.0304,69.9492416 58.8128,70.1287593 59.6448,70.3178941 C58.8488,70.5703409 58.1328,70.7987451 57.7176,70.9317806 L57.7176,70.9317806 Z M57.2784,71.026348 C57.0424,70.9397948 56.1304,70.6264401 55.1024,70.2706104 C55.9976,69.9340146 56.696,69.6695465 56.736,69.6543196 C56.752,69.6567238 56.8472,69.679965 57.0048,69.7160288 L57.2784,71.026348 L57.2784,71.026348 Z M56.9512,63.0754756 C56.572,62.5826033 56.0296,61.8741494 55.4928,61.1664969 L57.2248,59.519582 L57.2248,63.0754756 L56.9512,63.0754756 L56.9512,63.0754756 Z M56.4056,17.006738 L56.9456,17.006738 L56.6512,17.5068231 C56.5488,17.2992558 56.46,17.1181352 56.4056,17.006738 L56.4056,17.006738 Z M58.8248,18.3194614 L58.4896,17.7584685 C58.5976,17.5661281 58.6888,17.3938231 58.7616,17.2591848 C58.7768,17.5573125 58.8008,17.9083338 58.8248,18.3194614 L58.8248,18.3194614 Z M57.7672,19.075199 C57.8928,18.8516033 58.0648,18.5342416 58.24,18.2168799 C58.4472,18.5638941 58.6344,18.8804543 58.76,19.0936316 L57.7672,19.0936316 L57.7672,19.075199 L57.7672,19.075199 Z M57.7672,18.1431494 L57.7672,17.4194685 C57.8376,17.5364756 57.908,17.650277 57.9744,17.7672841 L57.7672,18.1431494 L57.7672,18.1431494 Z M58.392,17.006738 L58.2248,17.3080714 L58.0448,17.006738 L58.392,17.006738 L58.392,17.006738 Z M57.2248,17.4194685 L57.2248,18.6536529 C57.1224,18.4492912 57.0064,18.2128728 56.8912,17.9852699 C57.0024,17.7969366 57.1136,17.6078019 57.2248,17.4194685 L57.2248,17.4194685 Z M56.9416,19.0936316 L56.2312,19.0936316 C56.3296,18.9309437 56.4672,18.6969295 56.6192,18.4444827 C56.7424,18.6937238 56.856,18.9205253 56.9416,19.0936316 L56.9416,19.0936316 Z M58.3256,24.317277 C58.1224,24.7676742 57.9208,25.2100572 57.7672,25.5490572 L57.7672,23.3651919 C57.964,23.7001848 58.1528,24.0215536 58.3256,24.317277 L58.3256,24.317277 Z M57.912,22.7224543 L59.0496,22.7224543 C58.94,22.9580714 58.7584,23.3651919 58.5536,23.8155891 C58.3464,23.4637664 58.1312,23.0935111 57.912,22.7224543 L57.912,22.7224543 Z M57.7672,29.5048586 L57.7672,26.8794118 C57.9424,27.2600855 58.18,27.7898231 58.428,28.3291777 C58.2224,28.6946245 57.9984,29.0929295 57.7672,29.5048586 L57.7672,29.5048586 Z M58.6592,28.8364756 C58.9208,29.4014756 59.1608,29.9296104 59.3088,30.252582 L57.8648,30.252582 C58.1392,29.7621139 58.4064,29.2812628 58.6592,28.8364756 L58.6592,28.8364756 Z M58.0624,26.4370288 L59.3728,26.4370288 C59.376,26.4979366 59.3816,26.5572416 59.3856,26.6181494 C59.2512,26.8577735 59.004,27.299355 58.7024,27.8403125 C58.4344,27.2560784 58.1928,26.7255394 58.0624,26.4370288 L58.0624,26.4370288 Z M58.0624,25.9874331 C58.18,25.7285749 58.3832,25.2837877 58.6016,24.7933196 C58.9552,25.393582 59.216,25.8463834 59.3,25.9874331 L58.0624,25.9874331 L58.0624,25.9874331 Z M57.2248,25.2797806 C57.0648,24.9736387 56.8776,24.6234189 56.696,24.2715962 C56.8608,23.9870926 57.0416,23.6825536 57.2248,23.3651919 L57.2248,25.2797806 L57.2248,25.2797806 Z M56.448,23.801965 C56.192,23.3179082 55.9696,22.8987664 55.876,22.7224543 L57.084,22.7224543 C56.8648,23.0911068 56.6512,23.4549508 56.448,23.801965 L56.448,23.801965 Z M56.1816,24.2627806 C55.9272,24.6955465 55.6976,25.0850359 55.5208,25.3911777 C55.5648,24.6402487 55.608,23.9285891 55.6512,23.2529933 C55.804,23.541504 55.9872,23.8925253 56.1816,24.2627806 L56.1816,24.2627806 Z M56.4264,24.7300075 C56.696,25.2413125 56.948,25.7165536 57.0896,25.9874331 L55.6912,25.9874331 C55.7792,25.8415749 56.056,25.3639295 56.4264,24.7300075 L56.4264,24.7300075 Z M57.2248,27.1030075 L57.2248,29.5048586 C56.9896,29.0833125 56.7624,28.680199 56.5504,28.3035323 C56.7904,27.8747735 57.0304,27.4500217 57.2248,27.1030075 L57.2248,27.1030075 Z M57.2248,33.9767735 C57.0344,33.5592345 56.8032,33.0567451 56.572,32.5606671 C56.7792,32.1904118 57,31.7953125 57.2248,31.3930004 L57.2248,33.9767735 L57.2248,33.9767735 Z M57.2248,38.8614189 C56.912,38.3388941 56.6056,37.8187735 56.3224,37.3483409 C56.6552,36.8033763 56.9776,36.2656245 57.2248,35.8593054 L57.2248,38.8614189 L57.2248,38.8614189 Z M57.2248,44.9578089 C56.9376,44.3759792 56.4992,43.4727806 56.0704,42.5936245 C56.4288,41.9941636 56.8208,41.3378019 57.2248,40.6517877 L57.2248,44.9578089 L57.2248,44.9578089 Z M57.2248,46.3610926 L57.2248,50.2351494 C56.8328,49.5868019 56.4416,48.9392558 56.0856,48.3534189 C56.5248,47.5792487 56.948,46.8411423 57.2248,46.3610926 L57.2248,46.3610926 Z M58.1072,58.8199437 L61.2984,58.8199437 C61.1136,59.0595678 60.5488,59.7976742 59.912,60.6327522 C59.1328,59.8529721 58.3944,59.1076529 58.1072,58.8199437 L58.1072,58.8199437 Z M57.7672,58.1299224 L57.7672,51.9982699 C58.3576,52.9719933 58.9296,53.9152628 59.4456,54.7703763 C58.8008,56.0614614 58.124,57.4174614 57.7672,58.1299224 L57.7672,58.1299224 Z M57.8168,51.0205394 C58.2784,50.2623976 58.7424,49.4954401 59.168,48.7933976 C59.752,49.6581281 60.3216,50.4964118 60.6816,51.0205394 L57.8168,51.0205394 L57.8168,51.0205394 Z M57.7672,50.2351494 L57.7672,46.7393621 C58.0768,47.1945678 58.4752,47.7780004 58.8888,48.3870784 C58.5376,48.9657026 58.1528,49.5996245 57.7672,50.2351494 L57.7672,50.2351494 Z M57.7712,45.9411494 L60.3664,45.9411494 C60.2824,46.0765891 59.7928,46.8892274 59.1432,47.9615253 C58.5584,47.099199 58.0288,46.3186175 57.7712,45.9411494 L57.7712,45.9411494 Z M57.7672,45.4907522 L57.7672,45.4210288 C58.0384,44.9513976 58.6056,43.9720643 59.168,43.006355 C59.9504,44.3246884 60.5264,45.2968089 60.6424,45.4907522 L57.7672,45.4907522 L57.7672,45.4907522 Z M57.7672,44.525043 L57.7672,40.6517877 C58.1672,41.3241777 58.5536,41.9733267 58.9032,42.5639721 C58.5128,43.2467806 58.096,43.9576387 57.7672,44.525043 L57.7672,44.525043 Z M57.8016,39.6860784 C58.1712,39.0633763 58.5376,38.4446813 58.88,37.8716671 C59.2336,38.5496671 59.5808,39.2092345 59.828,39.6860784 L57.8016,39.6860784 L57.8016,39.6860784 Z M57.7672,38.8614189 L57.7672,35.7479082 C57.9792,36.1502203 58.2976,36.7600997 58.6344,37.4028373 C58.3624,37.8628515 58.0688,38.3557238 57.7672,38.8614189 L57.7672,38.8614189 Z M58.0088,35.2382061 L59.9208,35.2382061 C59.8416,35.3728444 59.4392,36.0516458 58.9032,36.9484331 C58.4928,36.163043 58.1352,35.4818373 58.0088,35.2382061 L58.0088,35.2382061 Z M58.1152,34.7862061 C58.272,34.4255678 58.5224,33.8461423 58.792,33.2194331 C59.2456,34.0368799 59.5848,34.6355394 59.6704,34.7862061 L58.1152,34.7862061 L58.1152,34.7862061 Z M57.7672,34.4608302 L57.7672,31.3930004 C58.0304,31.8610288 58.2832,32.3106245 58.516,32.7265607 C58.24,33.3700997 57.9616,34.0088302 57.7672,34.4608302 L57.7672,34.4608302 Z M57.8944,30.7021777 L59.392,30.7021777 C59.2808,30.955426 59.028,31.5436671 58.7384,32.2072416 C58.4704,31.7328019 58.1864,31.2214969 57.8944,30.7021777 L57.8944,30.7021777 Z M58.9336,28.3460075 C59.1184,28.0166245 59.2928,27.7024685 59.4432,27.4363976 C59.4968,28.2129721 59.5544,29.0151919 59.6128,29.8398515 C59.4304,29.4351352 59.1824,28.8901706 58.9336,28.3460075 L58.9336,28.3460075 Z M59.276,25.054582 C59.1432,24.828582 58.9912,24.5673196 58.8304,24.2932345 C58.9488,24.0295678 59.064,23.7723125 59.1712,23.5358941 C59.2056,24.0255607 59.24,24.5280501 59.276,25.054582 L59.276,25.054582 Z M57.868,22.2672487 C58.0472,21.9635111 58.2224,21.6677877 58.3888,21.3800784 C58.6256,21.7302983 58.8376,22.0564756 58.9792,22.2672487 L57.868,22.2672487 L57.868,22.2672487 Z M57.7672,21.5459721 L57.7672,20.4384118 C57.8784,20.6067097 57.9952,20.7822203 58.1112,20.9593338 C58.0024,21.1516742 57.8864,21.344816 57.7672,21.5459721 L57.7672,21.5459721 Z M57.7672,19.6289792 L57.7672,19.5472345 L58.9032,19.5472345 C58.9032,19.5648657 58.9032,19.5808941 58.9056,19.6025323 C58.8184,19.7572061 58.6168,20.0970075 58.3664,20.5289721 C58.128,20.1691352 57.912,19.8421565 57.7672,19.6289792 L57.7672,19.6289792 Z M56.9872,19.5472345 C56.8848,19.7195394 56.7136,20.0096529 56.5184,20.3406387 C56.2872,19.9455394 56.1144,19.6466104 56.0544,19.5472345 L56.9872,19.5472345 L56.9872,19.5472345 Z M57.2248,20.023277 L57.2248,21.5459721 C57.072,21.2799011 56.9184,21.0234472 56.7768,20.7822203 L57.2248,20.023277 L57.2248,20.023277 Z M57.1264,22.2672487 L55.8992,22.2672487 L56.5136,21.2246033 C56.7088,21.5587948 56.9144,21.9074118 57.1264,22.2672487 L57.1264,22.2672487 Z M57.0816,26.4370288 C56.9168,26.734355 56.6144,27.2697026 56.2928,27.845121 C55.8872,27.1142274 55.5824,26.5740714 55.5056,26.4370288 L57.0816,26.4370288 L57.0816,26.4370288 Z M57.1264,30.252582 L55.512,30.252582 C55.5096,30.2469721 55.4888,30.1996884 55.4864,30.1996884 C55.5296,30.1227522 55.8824,29.4936387 56.2928,28.7635465 C56.5568,29.2291706 56.8392,29.7388728 57.1264,30.252582 L57.1264,30.252582 Z M57.0984,30.7021777 C56.8392,31.1613905 56.584,31.6190004 56.3424,32.0533692 C56.0792,31.4915749 55.848,30.9850784 55.7168,30.7021777 L57.0984,30.7021777 L57.0984,30.7021777 Z M57.1056,34.7862061 L55.3224,34.7862061 C55.4128,34.6275253 55.7944,33.9455182 56.3016,33.0447238 C56.6312,33.7595891 56.9456,34.4383905 57.1056,34.7862061 L57.1056,34.7862061 Z M57.0768,35.2382061 C56.8776,35.5667877 56.484,36.2151352 56.0664,36.9091636 C55.5424,36.0300075 55.152,35.3728444 55.0704,35.2382061 L57.0768,35.2382061 L57.0768,35.2382061 Z M57.1928,39.6860784 L54.908,39.6860784 C55.0528,39.4440501 55.54,38.6434331 56.0592,37.7819082 C56.4168,38.3813692 56.8032,39.0337238 57.1928,39.6860784 L57.1928,39.6860784 Z M57.0112,40.1308657 C56.608,40.8144756 56.2096,41.4828586 55.8352,42.1143763 C55.3768,41.1703054 54.9744,40.3512558 54.8696,40.1308657 L57.0112,40.1308657 L57.0112,40.1308657 Z M56.9832,45.4907522 L54.352,45.4907522 C54.4648,45.2968089 55.028,44.3495323 55.7944,43.0576458 C56.3,44.0874685 56.7792,45.074816 56.9832,45.4907522 L56.9832,45.4907522 Z M56.948,45.9411494 C56.732,46.3186175 56.2928,47.0831706 55.8176,47.9110359 C55.1864,46.8627806 54.7072,46.0741848 54.6248,45.9411494 L56.948,45.9411494 L56.948,45.9411494 Z M55.828,48.7933976 C56.252,49.497043 56.7144,50.2623976 57.1776,51.0205394 L54.5528,51.0205394 C54.7792,50.6254401 55.2912,49.73266 55.828,48.7933976 L55.828,48.7933976 Z M57.0184,51.4701352 C56.5032,52.3252487 55.9872,53.1739508 55.5032,53.9769721 C54.8408,52.6930997 54.2912,51.6296175 54.2504,51.5478728 C54.2528,51.5454685 54.2888,51.4797522 54.2952,51.4701352 L57.0184,51.4701352 L57.0184,51.4701352 Z M57.2248,51.9982699 L57.2248,57.3108728 C56.8104,56.5038444 56.2592,55.4395607 55.7456,54.4450004 C56.208,53.6804472 56.7112,52.852582 57.2248,51.9982699 L57.2248,51.9982699 Z M57.2248,58.8976813 C56.8544,59.2487026 56.056,60.0084472 55.2168,60.8058586 C54.5272,59.9058657 53.8904,59.0780004 53.6984,58.8199437 L57.2248,58.8199437 L57.2248,58.8976813 L57.2248,58.8976813 Z M56.3856,63.0754756 L53.488,63.0754756 L55.1648,61.4806529 L56.3856,63.0754756 L56.3856,63.0754756 Z M56.3912,69.3057026 L54.4352,70.038199 C53.6272,69.7609082 52.8344,69.4860217 52.3096,69.3057026 L56.3912,69.3057026 L56.3912,69.3057026 Z M51.9736,73.3560714 C51.8944,73.6598089 51.812,73.9827806 51.724,74.3161706 C51.4176,73.939504 51.1048,73.5572274 50.9376,73.3560714 L51.9736,73.3560714 L51.9736,73.3560714 Z M50.9888,77.1099153 C50.5072,76.6923763 50.1536,76.3846316 50.0256,76.2740359 C50.1904,76.1610359 50.7432,75.7891777 51.4672,75.2987097 C51.3152,75.8813409 51.1544,76.4880146 50.9888,77.1099153 L50.9888,77.1099153 Z M47.9336,87.533965 L47.1304,88.3409933 L46.1992,87.533965 L47.9336,87.533965 L47.9336,87.533965 Z M45.8568,89.4822132 L45.8568,87.8296884 L46.8136,88.6591565 L45.9888,89.4822132 L45.8568,89.4822132 L45.8568,89.4822132 Z M47.1568,88.9556813 L47.7712,89.4822132 L46.6232,89.4822132 L47.1568,88.9556813 L47.1568,88.9556813 Z M48.2552,89.3059011 L47.4728,88.6335111 L48.2552,87.8513267 L48.2552,89.3059011 L48.2552,89.3059011 Z M49.3,89.4822132 L49.3,87.917043 L50.1608,88.6591565 L49.3344,89.4822132 L49.3,89.4822132 L49.3,89.4822132 Z M50.5016,88.9556813 L51.116,89.4822132 L49.9704,89.4822132 L50.5016,88.9556813 L50.5016,88.9556813 Z M51.6616,89.3628019 L50.82,88.6335111 L51.6992,87.754355 L51.6992,89.430121 C51.6856,89.4100855 51.6832,89.3804331 51.6616,89.3628019 L51.6616,89.3628019 Z M51.028,86.8231068 C50.8736,86.6500004 50.2104,85.9303267 49.5992,85.2611423 C50.4968,84.866043 51.4992,84.4212558 51.908,84.2401352 C51.636,85.2098515 51.34,86.0978231 51.028,86.8231068 L51.028,86.8231068 Z M53.1424,87.533965 L54.8736,87.533965 L54.0712,88.3409933 L53.1424,87.533965 L53.1424,87.533965 Z M54.0944,88.9556813 L54.7104,89.4822132 L53.5656,89.4822132 L54.0944,88.9556813 L54.0944,88.9556813 Z M55.1424,89.2642274 L54.4128,88.6335111 L55.1424,87.9034189 L55.1424,89.2642274 L55.1424,89.2642274 Z M61.8152,87.533965 L61.0136,88.3409933 L60.0792,87.533965 L61.8152,87.533965 L61.8152,87.533965 Z M61.0352,88.9556813 L61.6496,89.4822132 L60.5056,89.4822132 L61.0352,88.9556813 L61.0352,88.9556813 Z M62.0424,79.928504 C62.6312,80.2586884 63.7088,80.8629579 64.788,81.4680288 C64.7896,81.4776458 64.7944,81.4896671 64.796,81.4992841 C63.848,82.6477167 62.8912,83.8025607 62.8912,83.8025607 C62.8632,83.8322132 62.8592,83.8754898 62.8504,83.9131565 C62.5352,82.6797735 62.2656,81.2869082 62.0424,79.928504 L62.0424,79.928504 Z M62.9736,84.1495749 C62.9736,84.1495749 64.316,84.7506387 65.4776,85.2611423 C64.7776,86.0240926 64.0144,86.8567664 64.0144,86.8567664 C63.9824,86.8960359 63.9736,86.9377097 63.9664,86.9809862 C63.56,86.2773409 63.2104,85.2611423 62.9016,84.0990855 C62.9208,84.1199224 62.9456,84.1415607 62.9736,84.1495749 L62.9736,84.1495749 Z M63.0816,89.4822132 L63.0816,87.8296884 L64.0424,88.6591565 L63.216,89.4822132 L63.0816,89.4822132 L63.0816,89.4822132 Z M64.3792,88.9556813 L64.9984,89.4822132 L63.8496,89.4822132 L64.3792,88.9556813 L64.3792,88.9556813 Z M65.4776,89.3059011 L64.7032,88.6335111 L65.4776,87.857738 L65.4776,89.3059011 L65.4776,89.3059011 Z M68.4952,87.533965 L67.6912,88.3409933 L66.96,87.7062699 C67.0152,87.6670004 67.0472,87.602887 67.0472,87.533965 L68.4952,87.533965 L68.4952,87.533965 Z M66.5272,89.4822132 L66.5272,87.9306671 L67.3752,88.6591565 L66.5488,89.4822132 L66.5272,89.4822132 L66.5272,89.4822132 Z M67.7128,88.9556813 L68.3296,89.4822132 L67.1848,89.4822132 L67.7128,88.9556813 L67.7128,88.9556813 Z M68.876,89.3628019 L68.0344,88.6335111 L68.9256,87.7407309 L68.9256,89.4581706 C68.912,89.4269153 68.9056,89.3868444 68.876,89.3628019 L68.876,89.3628019 Z M66.2776,85.1281068 C66.2696,85.1072699 66.268,85.0904401 66.2592,85.0688019 C66.9512,84.3218799 67.6296,83.5741565 67.9176,83.2648089 C68.4688,84.6288231 68.9368,85.7764543 69.2056,86.4240004 C68.4752,86.1018302 67.3752,85.6137664 66.2776,85.1281068 L66.2776,85.1281068 Z M65.028,75.7146458 C64.6512,75.4613976 64.1208,75.1023621 63.5872,74.740121 C63.8656,74.3931068 64.184,74.0076245 64.3904,73.7551777 C64.5456,74.2985394 64.7688,74.9685253 65.028,75.7146458 L65.028,75.7146458 Z M64.244,73.2222345 C64.2096,73.2655111 63.7712,73.7976529 63.3528,74.3161706 C63.24,73.8826033 63.1328,73.472277 63.0344,73.089199 C63.0328,73.0763763 63.0232,73.0683621 63.0152,73.054738 L64.2032,73.054738 C64.2192,73.1068302 64.2312,73.1669366 64.244,73.2222345 L64.244,73.2222345 Z M62.8592,69.3057026 C62.2744,69.4860217 61.3864,69.7673196 60.4928,70.0526245 L57.3832,69.3393621 L57.3752,69.3057026 L62.8592,69.3057026 L62.8592,69.3057026 Z M62.008,62.7332699 C61.6832,62.4062912 60.9728,61.6954331 60.2336,60.9517167 L61.7328,58.9906458 C61.8672,60.8274969 61.964,62.1458302 62.008,62.7332699 L62.008,62.7332699 Z M58.1504,58.370348 C58.4432,57.7813054 59.0792,56.5086529 59.7192,55.2247806 C60.7448,56.9181777 61.4976,58.1595749 61.6248,58.370348 L58.1504,58.370348 L58.1504,58.370348 Z M59.9592,54.748738 C60.4624,53.7365465 60.9424,52.7756458 61.2312,52.1962203 C61.3752,54.1556884 61.508,55.9524685 61.6208,57.4935962 C61.2144,56.8260146 60.6272,55.8554969 59.9592,54.748738 L59.9592,54.748738 Z M61.1352,50.8915111 C60.7408,50.3080784 60.0728,49.3271423 59.4224,48.3686458 C60.032,47.3652699 60.5384,46.5285891 60.7856,46.1174614 C60.9072,47.7691848 61.0256,49.3680146 61.1352,50.8915111 L61.1352,50.8915111 Z M59.4256,42.5639721 C59.82,41.8835678 60.1816,41.2592628 60.408,40.874582 C60.4992,42.1480359 60.5912,43.4270997 60.6832,44.6741068 C60.3624,44.1387593 59.9208,43.3974472 59.4256,42.5639721 L59.4256,42.5639721 Z M60.0472,35.9105962 C60.1352,37.145582 60.2272,38.398199 60.3176,39.650816 C60.0264,39.0954331 59.5808,38.241121 59.1504,37.41566 C59.4992,36.8274189 59.8112,36.3040926 60.0472,35.9105962 L60.0472,35.9105962 Z M59.0152,32.7017167 C59.2808,32.0886316 59.536,31.4995891 59.7024,31.1092983 C59.7792,32.163965 59.8568,33.2410714 59.936,34.339816 C59.7136,33.9455182 59.3896,33.3700997 59.0152,32.7017167 L59.0152,32.7017167 Z M58.644,20.9465111 C58.7544,20.7525678 58.8608,20.569043 58.9592,20.406355 C58.9824,20.760582 59.0088,21.1444614 59.0336,21.5427664 C58.912,21.3536316 58.7768,21.1516742 58.644,20.9465111 L58.644,20.9465111 Z M55.8424,20.0753692 C55.9568,20.2757238 56.1032,20.5201565 56.2552,20.7822203 C56.0792,21.0787451 55.904,21.3800784 55.7488,21.639738 C55.7816,21.084355 55.8136,20.5506104 55.8424,20.0753692 L55.8424,20.0753692 Z M55.412,27.1887593 C55.584,27.496504 55.7976,27.8787806 56.0368,28.3035323 C55.7368,28.8364756 55.448,29.3501848 55.2568,29.6891848 C55.3104,28.8308657 55.3616,27.9901777 55.412,27.1887593 L55.412,27.1887593 Z M55.192,30.7021777 L55.2224,30.7021777 C55.3536,30.9802699 55.7008,31.7360075 56.0688,32.537426 C55.5928,33.382121 55.192,34.104199 54.9616,34.5209366 C55.04,33.2170288 55.12,31.9363621 55.192,30.7021777 L55.192,30.7021777 Z M54.8904,35.8120217 C55.1224,36.2007097 55.4368,36.7336529 55.8016,37.3435323 C55.396,38.0071068 55.0048,38.6554543 54.7664,39.0497522 C54.788,38.5200146 54.8376,37.2273267 54.8904,35.8120217 L54.8904,35.8120217 Z M54.5832,40.5732487 C54.82,41.0629153 55.1824,41.8026245 55.5592,42.5783976 C55.0728,43.3974472 54.6424,44.117121 54.3248,44.6500643 C54.4112,43.3076884 54.4968,41.9436742 54.5832,40.5732487 L54.5832,40.5732487 Z M54.232,46.1559295 C54.4864,46.5758728 54.9712,47.3788941 55.5632,48.3558231 C54.8968,49.5194827 54.2224,50.6951636 54.0344,51.0205394 L53.9192,51.0205394 C54.0192,49.4713976 54.1248,47.8373054 54.232,46.1559295 L54.232,46.1559295 Z M53.8696,51.7890997 C54.0608,52.1609579 54.6128,53.2292487 55.2296,54.4265678 C54.5456,55.5557664 53.9416,56.5495253 53.504,57.278816 C53.6152,55.6759792 53.7352,53.8174898 53.8696,51.7890997 L53.8696,51.7890997 Z M53.4352,58.2581494 C53.6832,57.8502274 54.4624,56.5631494 55.4728,54.8953976 C56.16,56.2297593 56.8776,57.6186175 57.2248,58.2926104 L57.2248,58.370348 L53.4264,58.370348 C53.4304,58.3318799 53.4328,58.2966175 53.4352,58.2581494 L53.4352,58.2581494 Z M53.372,59.1373054 L54.8888,61.1200146 C54.192,61.7843905 53.5144,62.4287309 53.0768,62.8454685 C53.1392,62.3133267 53.2424,60.9998019 53.372,59.1373054 L53.372,59.1373054 Z M50.5976,73.6477877 C50.7856,73.8793976 51.1624,74.3386104 51.4904,74.740121 C50.9552,75.1023621 50.424,75.4613976 50.0488,75.7146458 C50.2912,74.9605111 50.48,74.2600714 50.5976,73.6477877 L50.5976,73.6477877 Z M56.9104,89.4822132 L57.4408,88.9556813 L58.056,89.4822132 L56.9104,89.4822132 L56.9104,89.4822132 Z" id="Imported-Layers" sketch:type="MSShapeGroup"></path>
        </g>
    </g>
</svg>