<?xml version="1.0" encoding="UTF-8" standalone="no"?>
<svg width="116px" height="116px" viewBox="0 0 116 116" version="1.1" xmlns="http://www.w3.org/2000/svg" xmlns:xlink="http://www.w3.org/1999/xlink" xmlns:sketch="http://www.bohemiancoding.com/sketch/ns">
    <!-- Generator: Sketch 3.0.4 (8054) - http://www.bohemiancoding.com/sketch -->
    <title>liberty</title>
    <desc>Created with Sketch.</desc>
    <defs></defs>
    <g id="Page-1" stroke="none" stroke-width="1" fill="none" fill-rule="evenodd" sketch:type="MSPage">
        <g id="liberty" sketch:type="MSArtboardGroup" fill="#000000">
            <path d="M43.2894118,2.2462449 L45.052549,1.76155102 L43.9215686,4.23853061 C43.9215686,4.62318367 43.9215686,5.00163265 43.7913725,5.36922449 L43.7913725,5.6135102 L43.7913725,5.74146939 L45.3019608,6.24710204 L45.8109804,7.23355102 C45.1788235,7.7337551 45.1788235,8.35028571 45.4282353,8.98155102 C45.8109804,9.59653061 45.6878431,9.96955102 45.052549,10.3425714 C44.9270588,10.6039184 44.8039216,10.7148163 44.425098,10.843551 C44.0501961,10.9722857 43.7913725,11.2173469 43.5419608,11.7183265 C43.5419608,11.7183265 43.5419608,11.7183265 43.4156863,11.7183265 C43.2894118,11.7183265 43.2894118,11.8447347 43.2894118,11.9579592 C43.0360784,11.9579592 42.9113725,12.0905714 43.0360784,12.3340816 C43.0360784,12.591551 43.0360784,12.8311837 42.7898039,13.0933061 C44.1741176,15.1972653 45.1788235,17.951102 45.8109804,21.1896327 C46.4415686,24.4235102 47.1960784,27.4061224 48.08,30.2708571 L52.2360784,30.2708571 C52.2360784,30.2708571 52.4862745,29.8924082 52.8635294,29.1533469 L48.9615686,25.5410204 L53.9968627,28.2793469 L55.2556863,27.5302041 L54.4996078,23.0485306 L56.5137255,27.2936735 C56.5137255,27.2936735 57.147451,27.4061224 58.3992157,27.7729388 L60.9207843,24.1660408 L59.7882353,28.2793469 L60.9207843,29.3968571 L65.3341176,27.2936735 L61.2980392,30.2708571 L61.8070588,31.3844898 L67.347451,31.3844898 L62.3090196,32.5151837 L62.3090196,34.5082449 C62.3090196,34.5082449 62.1811765,34.6191429 62.0580392,34.7517551 C61.934902,34.7517551 61.8070588,34.8797143 61.8070588,35.0123265 C62.0580392,35.7544898 62.1811765,36.8727755 62.3090196,38.62 L62.3090196,39.1077959 L62.3090196,40.7247347 L63.6964706,42.9768163 C63.6964706,43.105551 63.6964706,43.105551 63.8188235,43.105551 C63.945098,43.105551 64.0745098,43.105551 64.0745098,43.2203265 C64.1960784,43.2203265 64.3247059,43.2203265 64.3247059,43.3490612 L64.5733333,43.3490612 L65.9607843,44.095102 C66.8462745,46.5844898 67.5976471,48.2084082 68.4807843,49.3259184 C68.9843137,50.9405306 69.4854902,51.8145306 70.1207843,52.0588163 L70.2439216,52.0588163 L70.3670588,52.0588163 C70.6219608,52.5636735 70.7427451,52.9328163 70.9976471,52.9328163 C71.2494118,52.6885306 71.6282353,51.6857959 72.3819608,49.9556327 L72.6360784,49.9556327 L72.8847059,49.9556327 C72.8847059,49.6997143 72.8847059,49.5864898 73.014902,49.3259184 L76.6690196,51.8145306 L76.2901961,52.4473469 L75.1576471,54.925102 C75.5341176,55.8029796 75.6572549,56.9111837 75.6572549,58.0473061 C75.5341176,59.1663673 75.4070588,60.2838776 75.1576471,61.2866122 C74.7819608,61.8992653 74.6533333,62.5359592 74.6533333,63.2781224 C74.6533333,64.0233878 74.5223529,64.6399184 74.147451,65.3983673 C74.147451,67.7597959 73.6439216,69.2503265 72.3819608,70.1227755 C71.8815686,70.3678367 71.507451,70.6245306 71.2494118,71.113102 C71.1215686,71.5031837 70.7427451,71.6140816 70.3670588,71.5031837 C69.8690196,71.3752245 69.4854902,71.113102 69.107451,70.8680408 C68.8564706,70.6245306 68.4807843,70.500449 67.974902,70.3678367 C67.8454902,72.7323673 68.2345098,75.2256327 68.8564706,77.9748163 C69.6094118,80.7139184 69.6094118,83.2056327 68.8564706,85.5717143 C68.8564706,87.3181633 68.8564706,88.4325714 68.7317647,88.6807347 C68.6070588,90.2961224 68.6070588,91.9153878 68.6070588,93.6680408 C68.6070588,95.4152653 68.6070588,97.0306531 68.2345098,98.6545714 L67.974902,101.758939 C68.2345098,103.116857 68.4807843,104.364653 68.7317647,105.74351 C68.9843137,106.858694 69.3607843,107.970776 70.1207843,109.349633 L73.7694118,110.840163 L73.7694118,111.097633 C73.8956863,111.221714 74.0196078,111.341918 74.147451,111.341918 L74.147451,114.336939 C68.2345098,111.341918 62.3090196,109.980122 56.387451,109.980122 C50.5992157,109.980122 44.5482353,110.352367 38,111.341918 C38,109.723429 38.1247059,108.848653 38.5058824,108.605143 C40.014902,108.36551 41.6517647,108.103388 43.1647059,107.970776 C44.8039216,107.863755 45.9372549,107.113837 46.9403922,105.610898 C49.0870588,102.874122 49.5898039,99.8783265 48.2015686,96.5273469 C47.067451,93.4059184 46.5647059,90.1720408 46.6901961,87.0568163 C45.6878431,85.0645306 45.4282353,82.9450612 45.9372549,80.4556735 C46.4415686,78.0911429 46.1858824,75.9662449 45.052549,73.9832653 C44.6768627,72.861102 44.425098,71.7466939 44.5482353,70.6245306 C44.6768627,69.4938367 44.9270588,68.3747755 45.052549,67.1300816 C44.9270588,65.0253469 44.6768627,62.6484082 44.425098,60.1504898 C44.2996078,57.6750612 44.9270588,55.5524898 46.6901961,53.5617551 C46.6901961,53.438449 46.6901961,53.438449 46.814902,53.3050612 L46.9403922,53.1926122 C46.5647059,52.5636735 46.4415686,51.9471429 46.3113725,51.0739184 C46.3113725,50.1991429 46.1858824,49.4492245 46.0635294,48.5798776 C45.9372549,48.2084082 45.8109804,47.4577143 45.8109804,46.3471837 C44.8039216,45.7151429 44.425098,44.969102 44.6768627,43.8554694 C44.0501961,43.2203265 43.6643137,42.9768163 43.2894118,42.9768163 C43.0360784,41.9756327 43.0360784,40.7247347 43.5419608,38.9922449 C43.9215686,37.3784082 44.2996078,35.9987755 44.6768627,34.7517551 C44.0501961,32.7610204 43.4156863,30.7679592 42.7898039,28.6508163 C42.2823529,26.5274694 42.1529412,24.4235102 42.2823529,22.3032653 C42.2823529,22.1745306 42.2823529,22.0628571 42.1529412,22.0628571 C42.0266667,22.0628571 41.9035294,22.1745306 41.9035294,22.3032653 C41.5294118,22.1745306 41.2745098,21.8022857 41.0258824,21.4284898 L40.7741176,20.0550612 C40.7741176,19.8092245 40.6439216,19.6828163 40.2682353,19.5657143 C40.2682353,19.0693878 40.3890196,18.6909388 40.6439216,18.0627755 C40.8996078,17.5788571 40.8996078,17.0763265 40.5168627,16.4473878 C40.3890196,16.3302857 40.2682353,16.3302857 40.2682353,16.2038776 C40.2682353,16.2038776 40.1403922,16.2038776 40.014902,16.0697143 C40.014902,15.9588163 40.014902,15.8308571 39.8909804,15.7013469 C39.8909804,15.5857959 39.8909804,15.3283265 39.7631373,15.0848163 C39.7631373,15.0848163 39.6384314,14.9568571 39.6384314,14.455102 L40.014902,12.8311837 L40.5168627,12.3340816 C40.5168627,11.8447347 40.2682353,11.4732653 39.6384314,11.2173469 C39.6384314,11.2173469 39.6384314,11.2173469 39.6384314,10.9722857 L39.6384314,10.843551 C39.5152941,10.7148163 39.2603922,10.6039184 38.8792157,10.6039184 C38.5058824,10.4674286 38.2556863,10.230898 38,9.72604082 C38.6305882,8.71865306 38.6305882,7.97804082 38.2556863,7.23355102 C38.2556863,7.23355102 38.2556863,7.10404082 38.3788235,6.98926531 C38.3788235,6.8597551 38.3788235,6.8597551 38.5058824,6.98926531 L38.5058824,6.24710204 C38.6305882,5.98653061 39.1388235,5.85702041 40.014902,5.74146939 C40.1403922,5.36922449 40.1403922,4.7395102 40.1403922,3.8655102 C40.1403922,3.11946939 40.5168627,2.74722449 41.2745098,2.38040816 C41.9035294,1.76155102 42.5356863,1.38542857 43.2894118,1 L43.2894118,2.2462449 L43.2894118,2.2462449 Z M48.2015686,31.1456327 L48.08,31.1456327 L49.2101961,33.0045306 L52.2360784,32.2584898 C52.2360784,31.7737959 52.1105882,31.3844898 51.9780392,31.3844898 L48.3254902,31.1456327 C48.3254902,31.1456327 48.3254902,31.1456327 48.2015686,31.1456327 L48.2015686,31.1456327 Z M50.212549,34.1398776 L51.0964706,36.8727755 C51.3529412,37.0053878 51.4768627,37.3784082 51.4768627,37.7467755 L51.9780392,37.9910612 C52.4862745,37.7467755 52.8635294,37.0053878 53.3654902,35.7544898 C53.1105882,35.6257551 52.8635294,35.6257551 52.8635294,35.8692653 C52.734902,36.1306122 52.6117647,36.1306122 52.4862745,35.7544898 L52.4862745,33.8777551 L51.7254902,33.8777551 L50.212549,34.1398776 L50.212549,34.1398776 Z M61.2980392,36.4997551 L61.2980392,36.6277143 C61.2980392,38.2516327 61.4243137,39.3683673 61.8070588,39.9825714 C61.6831373,39.3683673 61.6831373,38.7402041 61.8070588,38.1190204 C61.934902,37.4900816 61.8070588,36.8727755 61.2980392,36.3717959 C61.2980392,36.3717959 61.2980392,36.3717959 61.2980392,36.4997551 L61.2980392,36.4997551 Z" id="Imported-Layers" sketch:type="MSShapeGroup"></path>
        </g>
    </g>
</svg>