<?xml version="1.0" encoding="UTF-8" standalone="no"?>
<svg width="60px" height="60px" viewBox="0 0 60 60" version="1.1" xmlns="http://www.w3.org/2000/svg" xmlns:xlink="http://www.w3.org/1999/xlink" xmlns:sketch="http://www.bohemiancoding.com/sketch/ns">
    <!-- Generator: Sketch 3.0.4 (8054) - http://www.bohemiancoding.com/sketch -->
    <title>object3</title>
    <desc>Created with Sketch.</desc>
    <defs></defs>
    <g id="Page-1" stroke="none" stroke-width="1" fill="none" fill-rule="evenodd" sketch:type="MSPage">
        <g id="object3" sketch:type="MSArtboardGroup" fill="#000000">
            <g id="11971143901626395792Steren_bike_rider_1" sketch:type="MSLayerGroup" transform="translate(4.000000, 5.000000)">
                <g id="layer1" transform="translate(-0.066958, 0.106229)" sketch:type="MSShapeGroup">
                    <path d="M33.3958169,-0.106228779 L32.5124277,-0.0842460207 L31.6290384,-0.0622632621 L30.7347431,0.37739191 L29.8295417,0.828038462 L29.2515216,1.58644363 L28.6735015,2.34484881 L28.4990048,3.02631432 L28.3136021,3.71877122 L28.3899444,4.38924536 L28.4662867,5.0597195 L27.2775283,5.0597195 L26.0887699,5.0597195 L25.4344075,5.51036605 C25.076124,5.7635195 24.4919197,6.20260488 24.1365887,6.47760743 L23.4931323,6.9722195 L22.4897766,6.9722195 L21.497327,6.9722195 L21.8572263,7.36790915 L22.2280317,7.76359881 L22.860582,7.95045226 L23.4931323,8.14829708 L24.5292062,8.14829708 L25.554374,8.14829708 L25.8706491,7.97243501 C26.4794505,7.64406888 26.1924628,7.92634157 25.3253471,8.5110126 C24.8468564,8.83365267 24.0960985,9.42618826 23.656723,9.81898674 L22.849676,10.5334264 L23.0459847,10.6433402 L23.2313874,10.7642454 L22.5115887,10.9730816 L21.8026961,11.1819178 L21.2573941,11.8523919 C20.9611895,12.2209109 20.7229946,12.58937 20.7229981,12.665754 L20.7229981,12.7976505 L21.3446424,12.8635988 L21.9662867,12.9295471 L21.1483337,12.9625212 L20.3412867,12.984504 L20.4394411,13.0944178 C20.4955801,13.1509891 20.7820583,13.2585604 21.0828974,13.3362281 L21.6391055,13.479116 L20.8102464,13.391185 L19.9813874,13.303254 L19.6760183,13.8528229 L19.3706491,14.3914005 L19.6651122,14.6112281 L19.9595753,14.8200643 L19.7959847,14.8200643 C19.7039831,14.8200608 19.336357,15.0921757 18.9780317,15.4135988 L18.3236693,15.9961419 L18.8471592,15.9961419 L19.3815552,15.9961419 L19.4906156,16.1829954 L19.610582,16.3698488 L19.3815552,16.5127367 L19.1525283,16.6556247 L18.4545417,16.6556247 L17.7674612,16.666616 L17.3748438,17.2051936 C17.1635772,17.5024216 16.8893103,17.9305121 16.7641055,18.1614436 L16.5350787,18.579116 L16.4587364,19.8101505 L16.3714881,21.0301936 L16.8077297,21.447866 C17.0481267,21.6725123 17.2439748,21.9294573 17.2439713,22.0194178 C17.2439748,22.1093783 17.4256188,22.4675636 17.6474948,22.8217885 L18.0510183,23.4702798 L18.803535,23.2944178 L19.5669579,23.1185557 L19.5669579,22.9317023 L19.5669579,22.7448488 L19.054374,22.4480816 C18.7746419,22.2815472 18.5848523,22.107908 18.6290384,22.0633833 C18.6732349,22.0188445 19.4032905,22.5000066 20.2540384,23.1405385 C21.8418671,24.335989 22.9620483,24.9783826 24.1256827,25.3498068 C24.4902515,25.4661712 24.877313,25.6247319 24.9872599,25.7125223 L25.1835686,25.877393 L25.3253471,25.7894619 L25.4671256,25.7015309 L26.1978303,25.9543326 C26.6011235,26.0943646 27.025105,26.2794559 27.1357498,26.372005 L27.3429646,26.5478671 L27.4956491,26.4379533 L27.6592397,26.3390309 L27.7683001,26.514893 L27.8664545,26.6797637 L27.6265216,26.6797637 L27.3865887,26.6797637 L26.8412867,27.3062723 L26.2959847,27.9327809 L24.4637699,28.0426947 C23.455462,28.1038806 21.7919506,28.1668814 20.7666223,28.1745912 L18.9016894,28.1855826 L18.9016894,28.0097206 L18.9016894,27.8228671 L18.5417901,27.877824 L18.1818907,27.9327809 L17.8656156,28.515324 C17.6904663,28.8368139 17.1995793,29.5889584 16.7750115,30.1860137 C16.2500872,30.9411161 15.7621388,31.6479023 15.269978,32.3623068 C13.7341807,31.3726289 11.9124881,30.7905395 9.95873638,30.7905395 C4.50546148,30.7905395 0.0669578523,35.2637847 0.0669578523,40.7597206 C0.0669473826,46.2556564 4.50547195,50.7289016 9.95873638,50.7289016 C15.4119903,50.7289016 19.8505149,46.2556564 19.8505149,40.7597206 C19.8505079,37.7208486 18.4957928,34.9948986 16.360582,33.1646774 C16.876258,32.4143479 17.4018419,31.6584927 17.9637699,30.8674792 C18.2203289,30.495151 18.4793482,30.1934772 18.5417901,30.197005 C18.6281694,30.2018905 21.0025034,36.0969207 21.6500115,37.9129533 L21.7590719,38.2097206 L21.5300451,38.2097206 L21.3010183,38.2097206 L21.1374277,38.5064878 C21.0474642,38.6715308 20.8060969,39.1416172 20.6030317,39.5506688 L20.2322263,40.2980826 L20.2322263,40.8696343 L20.2322263,41.4411861 L20.5703136,42.1666171 L20.9193068,42.8920481 L21.5300451,43.3426947 C21.8624996,43.5927987 22.2023144,43.8848141 22.2934679,43.9911861 L23.5040384,44.0131688 L24.5401122,43.8373068 L25.281723,43.177824 L26.0124277,42.5293326 L26.1869243,41.9138154 C26.2803987,41.5746548 26.3609184,41.0081328 26.3614209,40.6607981 L26.3614209,40.0342895 L26.6340719,39.9243757 L26.917629,39.8144619 L26.9830652,40.0123068 L27.0485015,40.2101516 L27.2884344,40.2101516 L27.5174612,40.2101516 L27.5392733,39.9133843 L27.5610854,39.6276085 L27.6374277,39.9133843 L27.7028639,40.2101516 L28.1172934,40.2101516 C28.3436749,40.2101516 28.8453179,40.1318402 29.2297095,40.0342895 L29.9276961,39.8584274 L30.1458169,39.2429102 C30.2642862,38.9041506 30.3937417,38.4335859 30.44028,38.1987292 L30.5275283,37.7700654 L30.2657834,37.5502378 L30.0040384,37.3304102 L29.7531995,37.5392464 L29.5023605,37.7480826 L29.5023605,37.4513154 L29.5023605,37.1655395 L29.098837,37.2424792 L28.6844075,37.3194188 L28.7716558,37.1765309 L28.8589042,37.033643 L28.4444746,36.8687723 C28.2111412,36.779364 28.0191426,36.6695944 28.0191391,36.6159706 L28.0191391,36.5170481 L28.1827297,36.6159706 L28.3463203,36.7258843 L28.6516894,36.5060568 C28.821164,36.3859183 30.0029774,35.2954997 31.2691391,34.0879533 C32.5353042,32.8804034 33.8075592,31.6871512 34.1047095,31.4390309 L34.6500115,30.9883843 L35.4897766,32.5161861 C33.4811493,34.3422604 32.2179646,36.9796955 32.2179646,39.9133843 C32.2179715,45.4093237 36.6564787,49.8825654 42.1097431,49.8825654 C47.5630145,49.8825689 52.0015216,45.4093202 52.0015216,39.9133843 C52.0015286,34.417452 47.5630075,29.9442033 42.1097431,29.9442033 C40.189575,29.9442033 38.3939173,30.5024282 36.8748438,31.4610137 L36.3731659,30.4168326 C36.1361785,29.8809317 35.7144201,28.8954956 35.4352464,28.2295481 L34.9335686,27.0204964 L34.7481659,27.0204964 C34.4764851,27.0283328 33.9847431,27.43851 33.9847431,27.6579964 L33.9847431,27.8558412 L32.076186,27.8558412 L30.178535,27.8558412 L29.9276961,28.3504533 L29.6659511,28.8450654 L32.1961525,28.8890309 L34.7263538,28.9329964 L34.769978,29.3506688 L34.8245082,29.7683412 L34.6609176,29.5265309 L34.4864209,29.2737292 L33.8538706,29.9002378 L33.2213203,30.5267464 L33.0250115,30.5267464 L32.8177968,30.5267464 L32.8068907,30.7355826 L32.7959847,30.9444188 L30.985582,32.5271774 C29.990316,33.3997945 28.7556056,34.5098359 28.2372599,35.0002378 L27.2884344,35.9015309 L27.5174612,36.253255 L27.735582,36.6159706 L27.452025,36.3741602 L27.1575619,36.1323499 L27.2557162,35.6707119 L27.3429646,35.1980826 L27.0375954,35.1980826 L26.7322263,35.1980826 L26.4704813,35.5717895 L26.2087364,35.9454964 L26.4595753,35.0332119 C26.5995251,34.5280165 26.885197,33.7377029 27.0921256,33.2745912 C27.5413149,32.2692933 29.9047044,27.9777699 30.3966558,27.2732981 L30.7456491,26.7786861 L30.7456491,26.1741602 L30.7456491,25.558643 L30.0803807,24.5914005 C29.7178883,24.057726 28.9387468,23.1198078 28.3463203,22.5030385 L27.2666223,21.3819178 L25.576186,20.2607971 L23.8748438,19.1396764 L23.8748438,18.9857971 L23.8748438,18.8209264 L24.3001793,19.1067023 L24.7364209,19.3924781 L25.0526961,18.9857971 C25.2255909,18.7621533 25.4771557,18.3747678 25.6089042,18.1174781 L25.848837,17.6448488 L25.4780317,17.5019609 L25.1181323,17.3480816 L25.554374,17.3370902 L25.9906156,17.3260988 L26.4704813,16.7655385 C26.7305651,16.4582195 27.0308738,16.0721319 27.1466558,15.8972195 L27.3538706,15.5784695 L27.201186,15.9192023 L27.0375954,16.2709264 L27.2884344,16.985366 C27.4223954,17.3772078 27.6851106,18.0104203 27.8773605,18.3922626 L28.2263538,19.0847195 L29.5787028,20.5026074 C30.3249133,21.2833647 31.1061732,22.150537 31.3127632,22.4260988 C31.5193638,22.7016571 31.7434209,22.9343929 31.803535,22.9426936 C31.8636421,22.9509978 32.1848521,23.07618 32.5233337,23.2284695 L33.144978,23.503254 L33.3085686,23.822004 C33.3997954,23.9937825 33.4412279,24.1606686 33.406723,24.1957109 C33.3722285,24.2307532 33.5664956,24.2753729 33.8320585,24.2946333 L34.3119243,24.3276074 L34.3119243,24.1957109 C34.3119278,24.1187994 34.197793,23.9583323 34.0610854,23.8439867 C33.9243812,23.7296342 33.810236,23.5610634 33.8102464,23.4702798 L33.8102464,23.3054092 L34.1047095,23.6681247 L34.3991726,24.0308402 L34.6827297,23.9209264 L34.9771928,23.8110126 L34.9771928,23.591185 L34.9771928,23.3713574 L34.6827297,23.2944178 L34.3991726,23.2174781 L34.7590719,23.1954954 L35.1189713,23.1735126 L35.2280317,23.3493747 L35.3370921,23.5142454 L34.8136021,24.0088574 L34.3010183,24.4924781 L33.9302129,24.5364436 L33.5703136,24.5914005 L33.5266894,25.3498068 L33.4830652,26.0972206 L33.6357498,26.3280395 L33.7775283,26.5588585 L34.0501793,26.4599361 L34.3119243,26.3610137 L34.3119243,25.877393 L34.3119243,25.4047637 L34.9990048,24.7562712 L35.6860854,24.1187712 L35.5334008,25.1079964 C35.4526577,25.6514243 35.4003366,26.5386906 35.4134344,27.0754533 L35.4352464,28.0536861 L35.6206491,28.2295481 L35.7951458,28.4164016 L36.2204813,28.0097206 C36.4543522,27.7882961 36.743898,27.4483583 36.8530317,27.2513154 C36.9621584,27.0542725 37.2055917,26.5965985 37.3983337,26.2401085 L37.747327,25.5916171 L37.8563874,24.9651074 L37.9763538,24.3385988 L37.7255149,24.3385988 L37.485582,24.3385988 L37.3765216,24.0088574 C37.3186725,23.8251449 37.2178658,23.6791125 37.1474948,23.679116 C37.0771272,23.6791125 36.9309095,23.4929625 36.8312196,23.272435 L36.656723,22.8767454 L36.9839042,22.7888143 L37.3110854,22.7008833 L37.1038706,22.953685 L36.8966558,23.2174781 L37.2565552,23.5142454 C37.4586711,23.6791794 37.6273675,23.8977724 37.6273605,23.997866 L37.6273605,24.1737281 L38.281723,24.1737281 L38.9251793,24.1737281 L39.0342397,23.8439867 L39.1433001,23.503254 L39.5468236,23.6131678 L39.9503471,23.7120902 L39.9503471,23.360366 L39.9503471,23.0086419 L39.7213203,23.0086419 L39.5031995,23.0086419 L38.9906156,22.3601505 L38.4671256,21.7116592 L37.9000115,21.6017454 C37.5836352,21.5419241 36.9511372,21.3870916 36.4931323,21.2500212 L35.6533672,20.9972195 L34.0283672,19.359504 C33.1348851,18.4610141 32.1622617,17.5400034 31.8580652,17.3151074 L31.3018572,16.9084264 L31.4763538,15.6004523 C31.5754854,14.8821929 31.6617635,13.9664123 31.6617565,13.5560557 L31.6617565,12.8086419 L32.0325619,12.1271764 C32.2376338,11.7509582 32.4980003,11.2772069 32.610582,11.0829954 L32.8177968,10.7312712 L32.8177968,10.1817023 L32.8177968,9.62114191 L32.6542062,9.30239191 L32.4797095,8.98364191 L32.1961525,8.97265053 L31.9125954,8.97265053 L32.1634344,8.80777984 L32.4033672,8.64290915 L32.0325619,8.54398674 L31.6617565,8.44506432 L31.7599109,8.28019363 L31.8580652,8.12631432 L32.0979981,8.32415915 L32.327025,8.52200398 L32.4142733,8.43407294 L32.5015216,8.34614191 L31.6072263,7.31295226 C31.1108113,6.73929722 30.610505,6.09095708 30.4948102,5.87308157 L30.2766894,5.47739191 L30.4075619,5.34549536 L30.5275283,5.22459019 L30.974676,5.73019363 C31.2177812,6.00957867 31.6839664,6.57375474 32.0216558,6.98321088 L32.6433001,7.73062467 L32.6433001,6.53256432 L32.6542062,5.34549536 L32.9050451,5.13665915 L33.155884,4.92782294 L33.155884,6.5985126 L33.155884,8.25821088 L33.7884344,8.4560557 C34.1407919,8.56244522 34.5556123,8.64290563 34.7045417,8.64290915 L34.9553807,8.5110126 L34.9771928,8.22523674 L34.9771928,7.80756432 L35.0971592,7.59872812 L35.326186,7.30196088 L35.1080652,7.11510743 L35.4570585,6.8623057 L35.8060518,6.62049536 L35.8060518,6.37868501 L35.8060518,6.13687467 L35.9914545,6.13687467 L36.1659511,6.13687467 L36.0459847,5.85109881 C35.9777146,5.69034681 35.8965597,5.33457081 35.8714881,5.0597195 L35.8278639,4.55411605 L36.0241726,4.43321088 C36.1305528,4.36500453 36.4586623,4.30272474 36.7548773,4.30131432 L37.3001793,4.30131432 L37.3001793,3.94959019 C37.3001828,3.75357081 37.2033267,3.28348094 37.0929646,2.90540915 L36.8966558,2.21295226 L35.9805485,1.28967639 L35.053535,0.355409152 L34.224676,0.124590186 L33.3958169,-0.106228779 L33.3958169,-0.106228779 Z M31.9125954,0.882995359 L33.0141055,0.882995359 L34.1156156,0.882995359 L34.8354142,1.38859881 L35.5552129,1.89420226 L35.9260183,2.4547626 C36.1324373,2.76345681 36.2968201,3.11264853 36.2968236,3.22415915 L36.2968236,3.42200398 L35.1953136,3.53191777 L34.0938035,3.65282294 L33.0795417,3.9935557 L32.076186,4.34527984 L30.9201458,4.4222195 L29.7531995,4.48816777 L29.5568907,4.34527984 L29.349676,4.20239191 L29.5241726,3.57588329 C29.618495,3.23161219 29.8495321,2.68664377 30.0367565,2.36683157 L30.3748438,1.78428846 L31.1382666,1.33364191 L31.9125954,0.882995359 L31.9125954,0.882995359 Z M32.8941391,0.926960876 L32.2179646,1.11381432 L31.5417901,1.30066777 L30.985582,1.67437467 L30.4184679,2.05907294 L30.3639377,2.34484881 C30.2939297,2.71120819 30.351011,2.71010377 31.1927968,2.26790915 L31.8907834,1.89420226 L32.8177968,1.82825398 L33.7448102,1.7623057 L34.3555485,1.93816777 L34.9771928,2.10303846 L35.053535,1.96015053 L35.1407834,1.82825398 L34.6718236,1.48752122 L34.1919579,1.13579708 L33.5375954,1.03687467 L32.8941391,0.926960876 L32.8941391,0.926960876 Z M33.679374,2.17997812 L32.7959847,2.31187467 C31.7258107,2.48049826 30.5950864,2.89273301 30.3312196,3.21316777 L30.1458169,3.45497812 L30.2439713,3.63084019 C30.3770424,3.84783288 30.2623632,3.86329819 31.4218236,3.44398674 L32.4033672,3.08127122 L33.69028,3.00433157 L34.9771928,2.92739191 L34.9771928,2.7185557 L34.9771928,2.5097195 L34.3337364,2.34484881 L33.679374,2.17997812 L33.679374,2.17997812 Z M30.5275283,7.06015053 C30.562323,7.02508012 30.8299589,7.25074632 31.1273605,7.56575398 C31.4247552,7.8807546 31.6124856,8.13696101 31.5417901,8.12631432 C31.4710945,8.11565708 31.2770542,8.06961639 31.1164545,8.02739191 L30.8328974,7.95045226 L30.9092397,7.80756432 L30.9964881,7.66467639 L30.7347431,7.40088329 C30.5863442,7.25131612 30.4927372,7.09521743 30.5275283,7.06015053 L30.5275283,7.06015053 Z M27.6810518,7.13709019 L27.6810518,7.2909695 L27.6810518,7.43385743 L27.3102464,7.52178846 C27.105185,7.56661219 26.783633,7.65824688 26.6013538,7.73062467 L26.2741726,7.86252122 L26.3614209,7.76359881 C26.4116795,7.70597584 26.7332209,7.54283212 27.0703136,7.40088329 L27.6810518,7.13709019 L27.6810518,7.13709019 Z M31.2255149,8.30217639 C31.3086381,8.29549715 31.3827329,8.2962217 31.4327297,8.30217639 C31.4993944,8.31011129 31.5174443,8.33270957 31.4763538,8.36812467 C31.4383834,8.40085963 31.1519017,8.47400067 30.8328974,8.53299536 L30.2548773,8.64290915 L30.5057162,8.47803846 C30.6320832,8.39455322 30.9761592,8.32220005 31.2255149,8.30217639 L31.2255149,8.30217639 Z M29.9822263,9.31338329 C30.0277979,9.31337977 29.8515667,9.54341791 29.5896089,9.81898674 C29.3276545,10.094545 29.0789758,10.3135988 29.0334008,10.3135988 C28.9878362,10.3135953 29.1640464,10.094545 29.4260183,9.81898674 C29.6879761,9.54341791 29.9366548,9.31338681 29.9822263,9.31338329 L29.9822263,9.31338329 Z M28.6735015,11.9842885 L28.8589042,11.9842885 L29.0443068,11.9842885 L28.9243404,12.2810557 C28.8585936,12.4418007 28.7531766,12.9849049 28.6844075,13.4901074 L28.553535,14.4023919 L28.531723,13.7758833 L28.5099109,13.1493747 L28.0954813,13.2482971 L27.6810518,13.3582109 L27.6810518,13.1933402 L27.6810518,13.0284695 L28.1827297,12.8196333 L28.6735015,12.6107971 L28.6735015,12.3030385 L28.6735015,11.9842885 L28.6735015,11.9842885 Z M28.7171256,16.2489436 L28.7934679,16.5347195 C28.8351482,16.6954645 28.8351482,16.9565141 28.7934679,17.1172626 L28.7171256,17.4140298 L28.7171256,16.8314867 L28.7171256,16.2489436 L28.7171256,16.2489436 Z M22.0862532,16.666616 C22.1772985,16.6666125 22.5457587,16.9538621 22.9042062,17.3151074 L23.5585686,17.9745902 L23.3404478,18.3153229 L23.133233,18.6670471 L22.7951458,18.6780385 L22.4679646,18.6890298 L22.7951458,18.8319178 L23.122327,18.9748057 L22.6751793,18.9857971 L22.2171256,18.9967885 L22.2171256,19.1726505 L22.2171256,19.3375212 L22.8823941,19.2276074 L23.5367565,19.128685 L23.5367565,19.4694178 L23.5367565,19.8211419 L24.0820585,20.1069178 C25.1313138,20.6496914 26.7938725,21.8097867 27.6047095,22.5689867 L28.4335686,23.3383833 L27.5174612,24.1737281 C26.6153589,24.9975058 26.361414,25.1561299 26.3614209,24.866185 L26.3614209,24.7123057 L24.2456491,23.2834264 C21.8657313,21.6744784 21.6553058,21.4981661 21.0065552,20.6235126 L20.5375954,20.0079954 L20.6466558,19.3814867 C20.8422107,18.1915477 21.6493903,16.666616 22.0862532,16.666616 L22.0862532,16.666616 Z M28.7062196,17.7437712 L28.7934679,17.9965729 C28.8413358,18.1343503 29.2206985,18.5659721 29.6441391,18.9528229 C30.6289911,19.8525896 30.5039922,19.8678227 29.4696424,18.9748057 L28.6735015,18.2933402 L28.6953136,18.0185557 L28.7062196,17.7437712 L28.7062196,17.7437712 Z M17.1240048,18.9198488 L17.1894411,19.4144609 C17.2235656,19.6900156 17.286531,20.0887758 17.3312196,20.2937712 L17.4184679,20.6674781 L17.9310518,21.2610126 C18.2152929,21.5872719 18.4157546,21.8826428 18.3781995,21.9204954 C18.2557133,22.04394 17.9679788,21.7625325 17.5166223,21.0851505 L17.0803807,20.4256678 L17.1021928,19.6672626 L17.1240048,18.9198488 L17.1240048,18.9198488 Z M30.4184679,19.6342885 L31.0073941,20.0629523 C31.3326838,20.2990893 32.0998408,20.7189635 32.7087364,20.9972195 C33.3176529,21.275472 33.810236,21.5457403 33.8102464,21.590754 C33.8102499,21.708054 33.1158126,21.6700256 32.8068907,21.5357971 C32.5075522,21.405733 31.7256816,20.7973874 30.9528639,20.1069178 L30.4184679,19.6342885 L30.4184679,19.6342885 Z M38.7834008,22.5909695 L38.7397766,23.0086419 L38.7070585,23.4263143 L38.1617565,23.4812712 L37.6273605,23.5252367 L37.6273605,23.3713574 L37.6273605,23.2174781 L38.0417901,23.3054092 L38.4562196,23.3823488 L38.6198102,22.9866592 L38.7834008,22.5909695 L38.7834008,22.5909695 Z M19.9486693,23.1515298 L18.5526961,23.5142454 L17.156723,23.8769609 L16.1642733,23.7780385 C15.6174287,23.7223007 15.0251557,23.671058 14.8446424,23.6681247 L14.5174612,23.6571333 L14.3102464,23.9539005 C14.0142164,24.3619216 14.0361262,24.4954396 14.462931,24.6683402 L14.8446424,24.8222195 L14.5065552,24.8442023 L14.179374,24.866185 L14.5065552,25.009074 L14.8446424,25.1519619 L14.6483337,25.1629533 L14.462931,25.1739447 L14.5392733,25.5146774 C14.5869458,25.698383 14.677862,25.8574467 14.735582,25.8664016 C14.7933125,25.875353 15.4293911,25.9058897 16.1424612,25.9323499 L17.429374,25.9763154 L18.3454813,25.4817033 L19.2615887,24.9870912 L19.1525283,25.1739447 L19.0434679,25.3607981 L19.5560518,25.9433412 C19.8395914,26.2687986 20.2584915,26.837832 20.4830652,27.1963585 L20.8865887,27.8448499 L21.3119243,27.6799792 C21.5459417,27.5903106 21.8255726,27.5137051 21.9335686,27.5151085 L22.1298773,27.5260999 L21.8790384,27.6799792 L21.6391055,27.8448499 L23.6021928,27.8448499 L25.56528,27.8558412 L25.4780317,27.6140309 C25.4292145,27.4858099 25.2959514,27.0798112 25.1835686,26.7017464 C24.9438311,25.8952992 24.8759136,25.8326185 23.7875954,25.4377378 C23.331894,25.2723923 22.5679372,24.9077729 22.0862532,24.635366 L21.2137699,24.140754 L20.9847431,24.228685 L20.7666223,24.316616 L20.7884344,24.0638143 L20.8102464,23.8110126 L20.3849109,23.4812712 L19.9486693,23.1515298 L19.9486693,23.1515298 Z M35.7188035,23.2834264 L36.0787028,23.4812712 C36.2774301,23.5879738 36.6104604,23.9031327 36.8094075,24.1847195 L37.1693068,24.7013143 L37.3983337,24.6133833 L37.6273605,24.5254523 L37.6273605,24.8222195 C37.627364,24.9893423 37.5364164,25.3892983 37.4310518,25.7015309 L37.2456491,26.2620912 L36.7548773,26.8885999 L36.2750115,27.5151085 L35.9587364,27.5151085 L35.6424612,27.5151085 L35.6424612,26.7347206 L35.6424612,25.9543326 L35.9042062,24.8881678 L36.1659511,23.8329954 L35.9478303,23.5582109 L35.7188035,23.2834264 L35.7188035,23.2834264 Z M32.2834008,23.3933402 C32.1479426,23.40819 32.2015793,23.5569658 32.4360854,23.8329954 L32.7305485,24.1737281 L32.8941391,24.1297626 C32.9815584,24.1003936 33.0763834,23.9854678 33.1122599,23.8769609 L33.1776961,23.679116 L32.7305485,23.503254 C32.5140958,23.4203104 32.3646779,23.3844275 32.2834008,23.3933402 L32.2834008,23.3933402 Z M20.417629,24.3825643 C20.452633,24.3757866 20.4844926,24.373015 20.4939713,24.3825643 C20.5299315,24.4187954 20.2992435,24.5705327 19.9813874,24.7232971 C19.6635417,24.8760544 19.4033742,24.9742217 19.4033672,24.9321333 C19.4033707,24.8321416 20.1726322,24.4299838 20.417629,24.3825643 L20.417629,24.3825643 Z M17.354815,26.192267 L18.0103291,27.663631 L18.5992553,27.4218207 L17.8547095,26.0092895 L17.354815,26.192267 L17.354815,26.192267 Z M34.7154478,26.3500223 C34.5621874,26.3500223 33.6466558,26.848141 33.6466558,26.9325654 C33.6466593,27.066829 33.9464446,27.0255331 34.3882666,26.8226516 C34.7592185,26.6523151 34.9674942,26.3500188 34.7154478,26.3500223 L34.7154478,26.3500223 Z M15.7498438,27.3502378 L15.7498438,27.7569188 L15.7498438,28.1635999 L16.098837,28.7571343 C16.4941208,29.4323357 16.6720097,29.5019383 16.7968236,29.0209274 L16.8840719,28.6801947 L17.1458169,28.7901085 L17.4075619,28.8890309 L17.4075619,28.6252378 L17.4075619,28.3504533 L17.0803807,28.1416171 L16.7422934,27.9327809 L16.7422934,27.647005 L16.7422934,27.3502378 L16.2515216,27.3502378 L15.7498438,27.3502378 L15.7498438,27.3502378 Z M25.5325619,29.0209274 L25.5216558,29.1418326 C25.5202634,29.2107283 25.445509,29.3777551 25.3471592,29.5155395 L25.1617565,29.7683412 L25.2599109,29.4935568 L25.3471592,29.2077809 L24.6491726,29.1418326 L23.951186,29.0758843 L24.747327,29.0539016 L25.5325619,29.0209274 L25.5325619,29.0209274 Z M19.4033672,29.1857981 L21.0938035,29.2077809 L22.7951458,29.2297637 L22.5006827,29.3067033 L22.2062196,29.383643 L22.31528,29.7463585 C22.3771495,29.9455645 22.4506894,30.1820919 22.4788706,30.2739447 L22.5334008,30.4388154 L21.5627632,31.065324 C21.1081925,31.4430863 20.5638991,31.8676912 20.4721592,31.8676947 L20.3412867,31.9446343 L19.8287028,30.6036861 C19.5911605,30.0056671 19.4033742,29.4415543 19.4033672,29.3506688 L19.4033672,29.1857981 L19.4033672,29.1857981 Z M42.1097431,31.1752378 C46.9021189,31.1752413 50.7800451,35.0835155 50.7800451,39.9133843 C50.7800521,44.7432567 46.9021119,48.6515309 42.1097431,48.6515309 C37.3173812,48.6515344 33.4394411,44.7432532 33.4394411,39.9133843 C33.4394446,37.4380976 34.4514274,35.2044629 36.0896089,33.615324 L37.3328974,35.8905395 L38.7397766,38.1107981 L39.3614209,38.9351516 L40.2775283,39.6605826 C40.7788048,40.0585022 41.3684325,40.4587643 41.5862532,40.5508843 L41.9788706,40.715755 L42.2842397,40.4409706 L42.6005149,40.1551947 L42.6005149,39.8584274 L42.6005149,39.5616602 L42.3387699,39.2978671 L42.077025,39.0450654 L41.6953136,39.0450654 L41.3026961,39.0450654 L40.462931,38.1107981 L39.6122599,37.1655395 L38.6198102,35.1431257 L37.3983337,32.571143 C38.7531431,31.6880868 40.3744507,31.1752378 42.1097431,31.1752378 L42.1097431,31.1752378 Z M24.8672934,32.0105826 L24.8672934,32.3073499 C24.8643095,32.7604761 24.4719224,34.1311661 23.94028,35.5717895 L23.4713203,36.8687723 L23.2641055,36.8687723 C23.1533979,36.8687723 23.0234921,36.9458245 22.9696424,37.033643 L22.8714881,37.1875223 L23.2750115,37.4513154 C23.4974668,37.5982094 23.8369501,37.7336127 24.0275283,37.7480826 L24.3656156,37.7700654 L24.3656156,37.989893 L24.3656156,38.2097206 L24.2347431,38.2097206 C24.1587952,38.2097206 24.0436518,38.1600254 23.9839042,38.0998068 C23.924153,38.0395846 23.6074486,37.9455687 23.2750115,37.8909706 L22.6642733,37.7920481 L22.1953136,36.5939878 L21.7154478,35.3959274 L22.1735015,34.9013154 C22.424124,34.6343919 22.9839232,33.9590499 23.4167901,33.3954964 L24.202025,32.3732981 L24.5401122,32.1974361 L24.8672934,32.0105826 L24.8672934,32.0105826 Z M9.95873638,32.021574 C11.6571192,32.021574 13.2461136,32.5137381 14.5828974,33.3625223 C13.906011,34.3454013 13.2264024,35.3285723 12.4889377,36.3851516 L11.6273605,37.6161861 L10.4604142,38.1767464 L9.30437396,38.7373068 L8.75907195,39.2758843 C8.45850148,39.5707347 8.12592832,39.962879 8.01746121,40.1551947 L7.82115248,40.5069188 L8.00655517,41.1114447 L8.18105181,41.7159706 L8.32283034,41.7159706 L8.46460886,41.7159706 L8.46460886,41.9577809 L8.46460886,42.2105826 L8.62819946,42.2105826 C8.71934255,42.2105826 8.79178658,42.2836006 8.79179007,42.3754533 L8.79179007,42.5513154 L8.37736054,42.5513154 L7.97383705,42.5513154 L7.71209208,42.1556257 L7.46125315,41.7599361 L7.6357498,41.2982981 L7.81024644,40.8256688 L7.72299812,40.7487292 L7.6357498,40.6607981 L7.53759544,40.9795481 C7.48113879,41.1534406 7.40838765,41.3912272 7.37400483,41.5071343 L7.30856859,41.7159706 L7.49397128,42.133643 L7.67937396,42.540324 L8.00655517,42.6392464 C8.18437423,42.6961237 8.5848545,42.7491567 8.90085047,42.7491602 L9.4788706,42.7491602 L9.56611893,42.9689878 L9.65336725,43.1998068 L9.86058201,43.1118757 L10.0787028,43.0239447 L9.9914545,43.4855826 L9.90420617,43.9362292 L9.66427329,43.6174792 L9.4243404,43.2987292 L9.53340081,43.6724361 L9.64246121,44.0571343 L9.38071624,44.1560568 L9.11897128,44.2549792 L9.11897128,44.7276085 L9.11897128,45.2112292 L9.50068268,45.3870912 L9.87148805,45.5739447 L9.57702497,45.3321343 L9.29346792,45.1013154 L9.29346792,44.8375223 L9.29346792,44.5627378 L9.87148805,44.2879533 C10.1919581,44.1346966 10.4988209,43.9499148 10.5476626,43.8702809 L10.6349109,43.7164016 L10.3840719,43.815324 L10.1441391,43.9142464 L10.2313874,43.5625223 L10.3295417,43.2107981 L10.5803807,43.4196343 L10.8312196,43.6284706 L10.6349109,43.2547637 C10.5256481,43.048087 10.3629439,42.8810568 10.2750115,42.8810568 L10.122327,42.8810568 L10.122327,42.6942033 L10.122327,42.5073499 L10.3622599,42.6062723 L10.6130988,42.7051947 L10.6130988,42.540324 L10.6130988,42.3754533 L10.8639377,42.3754533 L11.1147766,42.3754533 L11.1147766,42.2105826 L11.1147766,42.0457119 L11.3765216,42.0457119 L11.6491726,42.0457119 L11.5510183,41.7929102 L11.4528639,41.5401085 L11.6055485,41.5401085 L11.747327,41.5401085 L11.6927968,40.5508843 L11.6273605,39.5506688 L11.7691391,39.4627378 C11.8432513,39.4165775 12.6641603,38.2938917 13.6013538,36.9676947 C14.3509111,36.0326185 15.0112134,35.1087588 15.6625954,34.1758843 C17.4807283,35.7770452 18.6290384,38.132285 18.6290384,40.7597206 C18.6290279,45.5895894 14.7511052,49.4978671 9.95873638,49.4978671 C5.16635705,49.4978671 1.28843436,45.5895894 1.28843436,40.7597206 C1.28842389,35.9298517 5.16636752,32.021574 9.95873638,32.021574 L9.95873638,32.021574 Z M44.3345753,32.5601516 L44.0837364,32.659074 L43.8328974,32.7579964 L43.8328974,33.3075654 L43.8328974,33.8681257 L44.4545417,34.0879533 C44.7963109,34.2116547 45.3352193,34.4954187 45.6542062,34.7144619 L46.2322263,35.1101516 L46.6139377,34.6814878 C46.8190062,34.4439298 46.9847396,34.1939348 46.9847431,34.1209274 C46.9847431,33.9591343 45.6061568,33.0847587 44.8689713,32.7799792 L44.3345753,32.5601516 L44.3345753,32.5601516 Z M19.4142733,32.8459274 L19.1634344,33.2526085 L18.9780317,33.5713585 C18.9142462,33.8698843 18.7540129,34.3140134 18.6290384,34.5605826 L18.4109176,35.0112292 L18.8471592,35.9015309 C19.0868827,36.3898014 19.3548258,36.8828307 19.4469914,37.0006688 L19.610582,37.209505 L20.0795417,36.6709274 L20.5485015,36.1213585 L20.4939713,35.9454964 C20.4667079,35.8536437 20.2344354,35.1645035 19.9704813,34.4067033 L19.5560518,33.2526085 L19.4142733,32.8459274 L19.4142733,32.8459274 Z M24.202025,36.6489447 L24.202025,36.8467895 L24.202025,37.0446343 L24.5728303,37.1985137 L24.9545417,37.352393 L24.6818907,37.3633843 L24.4092397,37.3743757 L24.202025,37.1105826 L23.9948102,36.8577809 L24.0929646,36.7588585 L24.202025,36.6489447 L24.202025,36.6489447 Z M26.3614209,37.0666171 L27.2229981,37.3963585 C27.7015168,37.5793535 28.1256309,37.7679163 28.1609176,37.8030395 C28.1962113,37.8381557 27.9886021,37.845271 27.7028639,37.8250223 L27.19028,37.7920481 L27.19028,37.6491602 L27.19028,37.5172637 L27.0157834,37.6161861 L26.8521928,37.7260999 L26.8521928,37.5502378 L26.8521928,37.3743757 L26.5141055,37.3743757 L26.1760183,37.3743757 L26.2632666,37.2204964 L26.3614209,37.0666171 L26.3614209,37.0666171 Z M27.201186,37.9569188 L27.0266894,38.3196343 C26.7346832,38.9288346 26.842243,38.9799788 27.2884344,38.4515309 L27.7137699,37.9569188 L27.5283672,38.3196343 C27.4291345,38.5202648 27.3538671,38.7388086 27.3538706,38.803255 L27.3538706,38.9241602 L28.0736693,38.8142464 C28.4732456,38.7590539 29.1113764,38.6054841 29.4914545,38.4735137 L30.1894411,38.2426947 L30.1349109,38.5174792 L30.0803807,38.7922637 L29.5023605,38.9131688 C29.1843369,38.9825253 27.9914604,39.2029051 26.8521928,39.3967895 C25.7129286,39.5906704 24.5934663,39.7703628 24.3656156,39.8034706 L23.951186,39.8694188 L23.5367565,39.671574 L23.122327,39.4847206 L24.1147766,39.3638154 L25.1072263,39.2429102 L25.1617565,39.0780395 L25.2162867,38.9131688 L25.5216558,38.9901085 L25.827025,39.0670481 L26.1869243,38.6823499 L26.5468236,38.2866602 L26.4377632,38.5834274 L26.3177968,38.8692033 L26.5031995,38.8692033 C26.6040969,38.8692033 26.6885987,38.811605 26.6886021,38.7373068 C26.6886056,38.6630086 26.8086105,38.4539719 26.9503471,38.2756688 L27.201186,37.9569188 L27.201186,37.9569188 Z M11.3001793,38.0118757 L11.0820585,38.3526085 L10.8639377,38.7043326 L10.6130988,38.715324 C10.4755256,38.722151 10.1756741,38.7640272 9.94783034,38.803255 L9.53340081,38.8692033 L10.0350787,38.5614447 C10.3085079,38.3875874 10.7076446,38.1857189 10.9184679,38.1217895 L11.3001793,38.0118757 L11.3001793,38.0118757 Z M28.3463203,39.3748068 L28.5971592,39.3748068 L28.8479981,39.3748068 L28.8479981,39.5396774 L28.8479981,39.7045481 L28.5971592,39.7045481 L28.3463203,39.7045481 L28.3463203,39.5396774 L28.3463203,39.3748068 L28.3463203,39.3748068 Z M22.9805485,40.0123068 L23.3731659,40.0672637 L23.7657834,40.1222206 L23.8312196,40.3310568 L23.8966558,40.539893 L23.4167901,40.4409706 L22.9260183,40.3420481 L22.8169579,40.627824 L22.7078974,40.9245912 L22.8933001,41.1444188 C23.1418846,41.4462861 23.3641514,41.4369267 23.7330652,41.1004533 L24.0384344,40.8256688 L24.0384344,41.0015309 C24.0384379,41.1010618 23.9199093,41.3078369 23.7766894,41.4521774 C23.4623616,41.7689719 23.2237514,41.7796748 22.8387699,41.4851516 L22.5443068,41.2543326 L22.5443068,40.9355826 L22.5443068,40.6058412 L22.7624277,40.309074 L22.9805485,40.0123068 L22.9805485,40.0123068 Z M21.0392733,41.0235137 C21.0692972,41.0203728 21.1032054,41.0439805 21.1483337,41.0894619 C21.2012725,41.142815 21.2239675,41.3585203 21.1919579,41.5730826 L21.1265216,41.9577809 L21.0174612,41.5510999 C20.93156,41.2428312 20.9492156,41.0329363 21.0392733,41.0235137 L21.0392733,41.0235137 Z M21.7263538,42.3204964 L22.0099109,42.5952809 L22.2825619,42.8810568 L22.1298773,42.8810568 C22.0419973,42.8796499 21.8604336,42.801641 21.7263538,42.7161861 L21.4755149,42.5623068 L21.6063874,42.4414016 L21.7263538,42.3204964 L21.7263538,42.3204964 Z M3.74229342,42.5732981 L3.5459847,42.5842895 C3.44075973,42.5855452 3.19485557,42.6278224 2.98977664,42.6832119 L2.60806523,42.7821343 L2.60806523,43.0459274 C2.60806523,43.4480114 3.20378282,44.5915088 3.77501154,45.2881688 C4.05744832,45.6326228 4.35102497,45.9146774 4.41846792,45.9146774 C4.48592134,45.9146774 4.73879839,45.7016592 4.98558201,45.4420481 L5.43272966,44.9694188 L5.08373638,44.6506688 C4.88842228,44.4739661 4.50404805,43.9348469 4.23306523,43.4526085 L3.74229342,42.5732981 L3.74229342,42.5732981 Z M10.1441391,44.364893 L9.79514577,44.540755 C9.60612054,44.6427093 9.45705503,44.8038588 9.45705852,44.8924792 C9.45706201,45.1552171 9.76050121,45.0754144 9.95873638,44.7605826 L10.133233,44.4638154 L10.0787028,44.8924792 L10.0132666,45.3101516 L10.5585686,45.2442033 L11.0384344,45.1892464 C11.0548231,45.1720154 11.080003,45.1506166 11.0929646,45.1342895 C11.0964056,45.1299598 11.1109412,45.1062466 11.1147766,45.1013154 L11.1147766,45.0133843 L11.1147766,44.8485137 L10.7112532,44.9254533 L10.3077297,45.002393 L10.2313874,44.683643 L10.1441391,44.364893 L10.1441391,44.364893 Z" id="path7375"></path>
                </g>
            </g>
        </g>
    </g>
</svg>