<?xml version="1.0" encoding="UTF-8" standalone="no"?>
<svg width="60px" height="60px" viewBox="0 0 60 60" version="1.1" xmlns="http://www.w3.org/2000/svg" xmlns:xlink="http://www.w3.org/1999/xlink" xmlns:sketch="http://www.bohemiancoding.com/sketch/ns">
    <!-- Generator: Sketch 3.0.4 (8054) - http://www.bohemiancoding.com/sketch -->
    <title>object4</title>
    <desc>Created with Sketch.</desc>
    <defs></defs>
    <g id="Page-1" stroke="none" stroke-width="1" fill="none" fill-rule="evenodd" sketch:type="MSPage">
        <g id="object4" sketch:type="MSArtboardGroup" fill="#323232">
            <g id="car" sketch:type="MSLayerGroup" transform="translate(0.000000, 21.000000)">
                <g id="Shape_1" sketch:type="MSShapeGroup">
                    <path d="M14.2420339,16.5670898 C13.9901017,16.5670898 13.7858983,16.7722415 13.7858983,17.0253437 C13.7858983,17.2784458 13.9901017,17.4835975 14.2420339,17.4835975 C14.4938983,17.4835975 14.6981695,17.2784458 14.6981695,17.0253437 C14.6981695,16.7722415 14.4938983,16.5670898 14.2420339,16.5670898 L14.2420339,16.5670898 Z M15.6735593,17.5400619 C15.656678,17.587195 15.6377627,17.6334427 15.6165424,17.6783282 L16.7237966,18.7907245 C16.9819661,18.4251703 17.1618983,18.0001548 17.239661,17.5400619 L15.6735593,17.5400619 L15.6735593,17.5400619 Z M14.7543729,18.4636533 L14.7543729,20.0368235 C15.2122712,19.9587678 15.6352542,19.7777276 15.9991186,19.5184954 L14.8918644,18.4060991 C14.8471186,18.4273498 14.8013559,18.4467616 14.7543729,18.4636533 L14.7543729,18.4636533 Z M51.3637288,16.5106254 L52.9296949,16.5106254 C52.852,16.0505325 52.6718644,15.6255851 52.4138305,15.260031 L51.3065763,16.3724272 C51.3277288,16.4173127 51.3469153,16.4634241 51.3637288,16.5106254 L51.3637288,16.5106254 Z M14.2420339,17.8674056 C14.1352542,17.8674056 14.048678,17.9543839 14.048678,18.0616594 C14.048678,18.168935 14.1351864,18.2559133 14.2420339,18.2559133 C14.3488136,18.2559133 14.4353898,18.1690031 14.4353898,18.0616594 C14.435322,17.954452 14.3488136,17.8674056 14.2420339,17.8674056 L14.2420339,17.8674056 Z M15.9991186,14.5321238 C15.6352542,14.2728235 15.2122712,14.0919195 14.7543729,14.0138638 L14.7543729,15.5870341 C14.8013559,15.6039257 14.8471864,15.6232012 14.8919322,15.6445201 L15.9991186,14.5321238 L15.9991186,14.5321238 Z M14.2420339,12.0231703 C11.4922034,12.0231703 9.26298305,14.262743 9.26298305,17.0252755 C9.26298305,19.7879443 11.4922034,22.0273808 14.2420339,22.0273808 C16.9918644,22.0273808 19.2210847,19.7878762 19.2210847,17.0252755 C19.2210847,14.262743 16.9918644,12.0231703 14.2420339,12.0231703 L14.2420339,12.0231703 Z M14.2420339,20.5983344 C12.2778305,20.5983344 10.6855593,18.9986687 10.6855593,17.0253437 C10.6855593,15.0520186 12.2778305,13.4523529 14.2420339,13.4523529 C16.2062373,13.4523529 17.7985085,15.0520186 17.7985085,17.0253437 C17.7985085,18.9986687 16.2062373,20.5983344 14.2420339,20.5983344 L14.2420339,20.5983344 Z M51.6892203,14.5321238 C51.3254237,14.2728235 50.9024407,14.0919195 50.4444746,14.0138638 L50.4444746,15.5870341 C50.4914576,15.6039257 50.5372881,15.6232012 50.5820339,15.6445201 L51.6892203,14.5321238 L51.6892203,14.5321238 Z M13.5922034,15.6445882 C13.6369492,15.6232693 13.6827119,15.6038576 13.7296949,15.5869659 L13.7296949,14.0137957 C13.2717966,14.0918514 12.8488136,14.2728916 12.4849492,14.5321238 L13.5922034,15.6445882 L13.5922034,15.6445882 Z M12.8675254,16.372291 L11.7602712,15.2599628 C11.5021017,15.625517 11.3221017,16.0505325 11.2444068,16.5106254 L12.8105085,16.5106254 C12.827322,16.4634241 12.8463051,16.4172446 12.8675254,16.372291 L12.8675254,16.372291 Z M14.2420339,16.1831455 C14.3488136,16.1831455 14.4353898,16.0961672 14.4353898,15.9888916 C14.4353898,15.8816161 14.3488136,15.7946378 14.2420339,15.7946378 C14.1352542,15.7946378 14.048678,15.881548 14.048678,15.9888916 C14.048678,16.0960991 14.1352542,16.1831455 14.2420339,16.1831455 L14.2420339,16.1831455 Z M15.0802712,17.0252755 C15.0802712,17.1325511 15.1668475,17.2195294 15.2736271,17.2195294 C15.3804068,17.2195294 15.4669831,17.1326192 15.4669831,17.0252755 C15.4669831,16.9179319 15.3804068,16.8310217 15.2736271,16.8310217 C15.1668475,16.8310217 15.0802712,16.918 15.0802712,17.0252755 L15.0802712,17.0252755 Z M12.8103729,17.5400619 L11.2444068,17.5400619 C11.3221017,18.0001548 11.5022373,18.4251022 11.760339,18.7906563 L12.8675932,17.6782601 C12.8463729,17.6333065 12.8271864,17.5872632 12.8103729,17.5400619 L12.8103729,17.5400619 Z M15.6736271,16.5106254 L17.2395932,16.5106254 C17.1618983,16.0505325 16.9817627,15.6255851 16.723661,15.260031 L15.6164068,16.3724272 C15.6376271,16.4173127 15.6568136,16.4634241 15.6736271,16.5106254 L15.6736271,16.5106254 Z M12.4848814,19.5184954 C12.8487458,19.7777957 13.2717966,19.9587678 13.7296949,20.0367554 L13.7296949,18.4636533 C13.6827119,18.4467616 13.6368136,18.4274861 13.5920678,18.4061672 L12.4848814,19.5184954 L12.4848814,19.5184954 Z M13.4037288,17.0252755 C13.4037288,16.918 13.3172203,16.8310217 13.2103729,16.8310217 C13.1035932,16.8310217 13.0170169,16.9179319 13.0170169,17.0252755 C13.0170169,17.1326192 13.1035932,17.2195294 13.2103729,17.2195294 C13.3172203,17.2194613 13.4037288,17.1325511 13.4037288,17.0252755 L13.4037288,17.0252755 Z M27.7994576,0.029628483 C27.7737627,0.0290154799 27.7471186,0.0285386997 27.7204068,0.0281981424 C27.7341017,0.0286749226 27.7481356,0.0291517028 27.7619661,0.029628483 L27.7994576,0.029628483 L27.7994576,0.029628483 Z M51.363661,17.5400619 C51.3467797,17.587195 51.3278644,17.6334427 51.3066441,17.6783282 L52.4138305,18.7907245 C52.672,18.4251703 52.852,18.0001548 52.9296949,17.5400619 L51.363661,17.5400619 L51.363661,17.5400619 Z M49.9321356,12.0231703 C47.1822373,12.0231703 44.9530847,14.262743 44.9530847,17.0252755 C44.9530847,19.7879443 47.1823051,22.0273808 49.9321356,22.0273808 C52.6819661,22.0273808 54.9111186,19.7878762 54.9111186,17.0252755 C54.9111186,14.262743 52.6819661,12.0231703 49.9321356,12.0231703 L49.9321356,12.0231703 Z M49.9321356,20.5983344 C47.9679322,20.5983344 46.375661,18.9986687 46.375661,17.0253437 C46.375661,15.0520186 47.9679322,13.4523529 49.9321356,13.4523529 C51.896339,13.4523529 53.4885424,15.0520186 53.4885424,17.0253437 C53.4885424,18.9986687 51.896339,20.5983344 49.9321356,20.5983344 L49.9321356,20.5983344 Z M20.7292881,0.518736842 C20.7405424,0.515603715 20.7519322,0.512743034 20.7631864,0.509541796 C20.7302373,0.515126935 20.7199322,0.518055728 20.7292881,0.518736842 L20.7292881,0.518736842 Z M50.7703729,17.0252755 C50.7703729,17.1325511 50.8568814,17.2195294 50.9637288,17.2195294 C51.0705763,17.2195294 51.1570847,17.1326192 51.1570847,17.0252755 C51.1570847,16.9179319 51.0705763,16.8310217 50.9637288,16.8310217 C50.8568814,16.8310217 50.7703729,16.918 50.7703729,17.0252755 L50.7703729,17.0252755 Z M50.4444746,18.4636533 L50.4444746,20.0368235 C50.9024407,19.9587678 51.3253559,19.7777276 51.6892203,19.5184954 L50.5819661,18.4060991 C50.5372203,18.4273498 50.4914576,18.4467616 50.4444746,18.4636533 L50.4444746,18.4636533 Z M27.7204068,0.028130031 C25.9271864,-0.033374613 25.1848136,0.0211145511 27.2981017,0.0287430341 C27.4491525,0.0264272446 27.5906441,0.0260866873 27.7204068,0.028130031 L27.7204068,0.028130031 Z M59.9129492,15.1797276 C59.7332203,15.0698638 59.139661,14.9576161 58.8074576,14.9499195 C58.635661,13.3200805 56.3804746,10.5724644 56.6187797,10.794644 C54.1022373,8.2315418 46.5210169,6.44634056 41.5012203,6.44634056 C41.0183729,6.49742415 40.5354576,6.32040248 40.052678,6.37141796 C39.8190508,5.88878019 39.4890847,5.43713313 39.2140339,4.99277399 C38.7040678,4.16889783 38.2495593,3.33139938 37.7273898,2.54185139 C37.4903729,2.18344892 36.7292881,1.55525697 36.3959322,1.37162848 C34.6740339,0.423585139 30.2432542,0.116266254 27.7619661,0.0295603715 C27.5941017,0.0294922601 27.439661,0.0292198142 27.2980339,0.0286749226 C25.1008136,0.0626625387 20.8627119,0.527795666 20.7292203,0.518668731 C19.8424407,0.764346749 18.9227119,0.83320743 18.056678,1.12308978 C16.3004746,1.71089164 14.4989153,2.28670588 13.1020339,3.26941796 C11.696339,4.25832817 10.4962034,5.45634056 9.13755932,6.48632198 C8.67335593,6.83818576 8.30535593,7.35937461 7.84149153,7.71178328 C7.12386441,8.25701548 6.44,8.90475542 5.89735593,9.62660062 C5.69837288,9.89134985 5.37172881,10.0898266 5.17308475,10.3542353 C4.95179661,10.6488854 4.38583051,11.3974303 4.10576271,11.5796966 C3.90244068,11.6435851 3.69911864,11.7074056 3.49586441,11.771226 C3.12176271,11.9343529 2.1339661,12.5168421 2.08542373,12.9584768 C2.47925424,13.1499381 2.87328814,13.3414675 3.26711864,13.5329288 C3.10189831,14.1200495 2.93667797,14.7074427 2.77152542,15.2945635 L2.39030508,15.2945635 C2.23098305,15.3944149 1.89030508,15.2989907 1.6660339,15.3329102 C1.30549153,15.3873313 0.836338983,15.4106254 0.446169492,15.4094675 C0.341491525,15.5635356 0.170237288,15.7229164 0.103118644,15.9073622 C-0.357220339,17.1720557 1.40535593,16.8857833 2.35213559,16.864805 L2.35213559,16.9414303 C2.18149153,17.1730093 2.21322034,17.5430588 2.08528814,17.8222477 C2.04250847,17.9154923 1.41023729,18.5110588 1.32284746,18.5498824 L0.636677966,18.5498824 L0.636677966,19.2392384 C3.64325424,19.2266378 9.32277966,19.2014365 9.32277966,19.2014365 L9.47518644,19.2008235 C9.17118644,18.532582 9.00155932,17.7897585 9.00155932,17.0070217 C9.00155932,14.0893313 11.3558644,11.7240929 14.2600678,11.7240929 C17.1642034,11.7240929 19.5185085,14.0893313 19.5185085,17.0070217 C19.5185085,17.7749783 19.3552542,18.5045882 19.0619661,19.1629536 L19.1541695,19.1625449 L45.1481356,19.1625449 C44.8549153,18.5043158 44.691661,17.7748421 44.691661,17.0070217 C44.691661,14.0893313 47.0460339,11.7240929 49.9501695,11.7240929 C52.8543051,11.7240929 55.208678,14.0893313 55.208678,17.0070217 C55.208678,17.7748421 55.0454237,18.5043158 54.7522712,19.1625449 L56.4057627,19.1625449 C56.4538983,19.0898019 57.0751864,18.4978452 57.1300339,18.473257 C57.3964068,18.3535851 57.7475932,18.5113994 57.968678,18.3966316 C58.067661,18.3452755 58.7213559,17.5540248 58.7692203,17.4391889 C58.8200678,17.2221858 58.8708475,17.0051827 58.9216949,16.7881796 C59.048339,16.6891455 59.5607458,16.7767368 59.7222373,16.6732074 C60.0658305,16.3448421 60.0462373,15.6748297 59.9129492,15.1797276 L59.9129492,15.1797276 Z M25.8721356,7.00049536 C25.6640678,7.15252012 25.3424407,7.09551084 25.3424407,7.09551084 L17.3585763,7.11451393 C17.3585763,7.11451393 16.516339,7.01922601 16.4882712,6.18315789 C16.4755932,5.80704644 16.452678,5.50333746 16.6812881,5.25098452 C18.7101017,3.0122291 25.0586441,2.53374613 25.0586441,2.53374613 C25.0586441,2.53374613 25.6261695,2.57182043 25.8153898,2.64783282 C26.0045424,2.7238452 25.9477966,4.90967802 25.9477966,4.90967802 C25.9477966,4.90967802 26.0802712,6.84840248 25.8721356,7.00049536 L25.8721356,7.00049536 Z M27.8208136,7.01949845 C27.8208136,7.01949845 27.6505085,7.07657585 27.5369492,6.94348607 C27.4234576,6.8104644 27.4423051,6.63936842 27.4423051,6.63936842 L27.4423051,2.93301548 C27.4423051,2.93301548 27.4202712,2.61656966 27.5558644,2.51487926 C28.3253559,1.93743034 34.6694237,2.8189969 34.6694237,2.8189969 L35.3505085,6.94348607 L27.8208136,7.01949845 L27.8208136,7.01949845 Z M37.980339,6.94341796 L35.8425085,6.90541176 L35.1614237,2.89494118 C35.1614237,2.89494118 36.2776271,3.2369969 36.5425085,3.42709598 C36.807322,3.61712693 38.4155254,6.0309969 38.4722712,6.54421672 C38.5289492,7.05750464 37.980339,6.94341796 37.980339,6.94341796 L37.980339,6.94341796 Z M56.6187797,10.794644 C56.6500339,10.8265201 56.6811525,10.8583963 56.7108475,10.8904768 C56.6657627,10.8418452 56.636,10.8107864 56.6187797,10.794644 L56.6187797,10.794644 Z M49.9321356,16.5670898 C49.6802034,16.5670898 49.476,16.7722415 49.476,17.0253437 C49.476,17.2784458 49.6802034,17.4835975 49.9321356,17.4835975 C50.1840678,17.4835975 50.3882712,17.2784458 50.3882712,17.0253437 C50.3882712,16.7722415 50.1840678,16.5670898 49.9321356,16.5670898 L49.9321356,16.5670898 Z M48.5576271,16.372291 L47.4504407,15.2599628 C47.1922712,15.625517 47.0122712,16.0505325 46.9345763,16.5106254 L48.500678,16.5106254 C48.5174237,16.4634241 48.5364068,16.4172446 48.5576271,16.372291 L48.5576271,16.372291 Z M49.9321356,16.1831455 C50.0388475,16.1831455 50.1254915,16.0961672 50.1254915,15.9888916 C50.1254915,15.8816161 50.0389153,15.7946378 49.9321356,15.7946378 C49.8253559,15.7946378 49.7387797,15.881548 49.7387797,15.9888916 C49.7387797,16.0960991 49.8253559,16.1831455 49.9321356,16.1831455 L49.9321356,16.1831455 Z M48.5004746,17.5400619 L46.9345085,17.5400619 C47.0122034,18.0001548 47.192339,18.4251022 47.4503729,18.7906563 L48.5576271,17.6782601 C48.5364746,17.6333065 48.5172881,17.5872632 48.5004746,17.5400619 L48.5004746,17.5400619 Z M49.2823051,15.6445882 C49.3270508,15.6232693 49.3728136,15.6038576 49.4197966,15.5869659 L49.4197966,14.0137957 C48.9618305,14.0918514 48.5389153,14.2728916 48.1750508,14.5321238 L49.2823051,15.6445882 L49.2823051,15.6445882 Z M49.9321356,17.8674056 C49.8253559,17.8674056 49.7387797,17.9543839 49.7387797,18.0616594 C49.7387797,18.168935 49.8252881,18.2559133 49.9321356,18.2559133 C50.0388475,18.2559133 50.1254915,18.1690031 50.1254915,18.0616594 C50.1254915,17.954452 50.0388475,17.8674056 49.9321356,17.8674056 L49.9321356,17.8674056 Z M48.1749831,19.5184954 C48.5387797,19.7777957 48.9618305,19.9587678 49.4197966,20.0367554 L49.4197966,18.4636533 C49.3728136,18.4467616 49.3269153,18.4274861 49.2821695,18.4061672 L48.1749831,19.5184954 L48.1749831,19.5184954 Z M49.0938305,17.0252755 C49.0938305,16.918 49.007322,16.8310217 48.9004746,16.8310217 C48.7937627,16.8310217 48.7071186,16.9179319 48.7071186,17.0252755 C48.7071186,17.1326192 48.7936949,17.2195294 48.9004746,17.2195294 C49.0072542,17.2194613 49.0938305,17.1325511 49.0938305,17.0252755 L49.0938305,17.0252755 Z" id="Shape"></path>
                </g>
            </g>
        </g>
    </g>
</svg>