<?xml version="1.0" encoding="UTF-8" standalone="no"?>
<svg width="241px" height="241px" viewBox="0 0 241 241" version="1.1" xmlns="http://www.w3.org/2000/svg" xmlns:xlink="http://www.w3.org/1999/xlink" xmlns:sketch="http://www.bohemiancoding.com/sketch/ns">
    <!-- Generator: Sketch 3.0.4 (8054) - http://www.bohemiancoding.com/sketch -->
    <title>paris0</title>
    <desc>Created with Sketch.</desc>
    <defs></defs>
    <g id="Page-1" stroke="none" stroke-width="1" fill="none" fill-rule="evenodd" sketch:type="MSPage">
        <g id="paris0" sketch:type="MSArtboardGroup" fill="#000000">
            <g id="Imported-Layers-2" sketch:type="MSLayerGroup" transform="translate(-263.000000, 78.000000)">
                <path d="M624.664179,136.4473 L624.479944,117.203986 L622.040578,111.347629 L622.035914,110.968071 L621.597481,109.391629 L621.459888,109.955143 L620.363806,107.330843 L620.359142,106.508857 L616.382929,106.483243 L616.359608,103.542257 L612.994403,103.518971 L612.989739,102.866971 L611.644123,102.855329 L610.587687,103.139414 L610.648321,112.411786 L609.73181,114.824186 L609.067164,114.824186 L608.456157,113.271029 L608.446828,112.057843 L608.173974,110.800414 L607.940765,111.971686 L606.935634,109.4219 L606.916978,105.6729 L603.729011,105.654271 L603.472481,105.717143 L603.491138,108.741957 L602.817164,108.7373 L601.865672,108.914271 L601.338619,109.0144 L601.319963,105.903429 L600.249534,105.896443 L599.584888,106.071086 L599.619869,113.652914 L599.193097,114.810214 L596.198694,114.805557 L591.98694,114.798571 L591.982276,113.1709 L591.312966,110.500029 L591.275653,96.9966429 L591.604478,96.8010429 L591.599813,94.6913571 L590.018657,94.6750571 L589.172108,95.2595286 L589.176772,97.311 L589.454291,97.3179857 L589.472948,105.041857 L589.186101,105.039529 L586.725746,97.9001286 L586.721082,92.7283714 L581.336287,92.6538571 L581.340951,97.8442429 L578.472481,107.377414 L578.472481,96.9617143 L578.787313,96.659 L578.787313,94.5376714 L577.182836,94.5167143 L576.66278,95.1105 L576.66278,97.1782714 L576.933302,97.1829286 L576.928638,112.497943 L576.651119,113.429371 L576.651119,114.218757 L575.78125,108.194743 L575.783582,102.929843 L567.490672,102.864643 L567.495336,102.140457 L567.476679,102.138129 L567.486007,94.6890286 L567.34375,93.4409143 L566.688433,92.3208714 L565.9375,91.7294143 L566.588153,91.6595571 L566.683769,91.4057429 L566.683769,91.0331714 L566.201026,90.9586571 L566.20569,85.2839286 L566.592817,85.2303714 L566.693097,84.9136857 L566.693097,84.6272714 L566.347948,84.5620714 L566.191698,83.6492714 L565.464086,82.6945571 L564.547575,82.4943 L564.633862,82.4640286 L564.790112,82.3499286 L564.904384,82.2009 L564.981343,82.0285857 L565.002332,81.8423 L564.981343,81.6536857 L564.906716,81.4790429 L564.790112,81.3253571 L564.638526,81.2066 L564.512593,81.1553714 L564.279384,73.0612571 L564.025187,81.1460571 L563.896922,81.1949571 L563.745336,81.3090571 L563.628731,81.4557571 L563.554104,81.6280714 L563.528451,81.8143571 L563.554104,82.0029714 L563.628731,82.1776143 L563.740672,82.3313 L563.896922,82.4500571 L563.983209,82.4849857 L563.099347,82.6526429 L562.383396,83.5840714 L562.229478,84.5061857 L561.942631,84.5504286 L561.893657,84.8717714 L561.893657,85.1535286 L562.369403,85.2396857 L562.357743,90.9190714 L561.928638,90.9703 L561.879664,91.2264429 L561.879664,91.5966857 L562.630597,91.7061286 L561.923974,92.2626571 L561.277985,93.3687286 L561.222015,93.6691143 L561.08209,94.9102429 L561.068097,102.1032 L561.021455,102.280171 L561.019123,103.481714 L560.795243,103.463086 L560.776586,107.705743 L560.862873,107.708071 L560.734608,107.708071 L560.753265,102.815743 L552.304104,102.750543 L552.276119,108.082971 L551.252332,116.209686 L551.128731,117.206314 L550.746269,117.206314 L550.750933,116.246943 L550.778918,116.246943 L550.883862,96.9035 L551.13806,96.9058286 L551.152052,94.8077857 L550.984142,94.2023571 L549.335354,94.1790714 L549.321362,96.3353286 L549.535914,96.8895286 L549.622201,96.8895286 L549.552239,108.860714 L546.492537,97.4833143 L546.529851,92.1974571 L540.911847,92.1229429 L540.872201,97.4227714 L538.49347,104.706543 L537.870802,104.701886 L537.765858,105.116371 L537.833489,96.7614571 L538.111007,96.7661143 L538.125,94.6564286 L537.60028,94.0370286 L535.930504,94.0184 L535.911847,96.1863 L536.236007,96.5076429 L536.161381,105.486614 L535.865205,105.484286 L535.802239,112.903114 L535.764925,113.047486 L535.753265,115.098957 L535.711287,115.220043 L535.715951,114.726386 L530.687966,114.721729 L525.627332,114.714743 L523.812966,114.712414 L523.607743,114.127943 L523.698694,105.5914 L523.185634,105.400457 L522.014925,105.393471 L521.977612,108.693057 L521.312966,108.532386 L520.506063,108.339114 L515.988806,108.318157 L515.979478,109.002757 L514.493937,112.693543 L514.493937,112.691214 L514.626866,102.475771 L513.729011,102.170729 L512.238806,102.159086 L512.185168,106.364486 L511.392257,106.175871 L510.081623,105.859186 L504.26306,105.826586 L504.251399,106.704457 L502.866138,109.9272 L502.632929,109.924871 L502.437034,109.016729 L502.028918,110.590843 L502.010261,111.927443 L499.741138,117.203986 L499.440299,136.4473 L498.575093,136.4473 L498.465485,117.546286 L497.838153,117.443829 L497.381063,117.443829 L497.313433,105.195543 L496.676772,105.195543 L496.625466,95.9138571 L496.19403,95.9138571 L496.084422,75.0638286 L495.942164,75.0638286 L495.942164,74.6609857 L495.720616,74.6586571 L495.713619,74.3349857 L495.431437,74.3349857 L495.431437,74.1766429 L494.881063,74.1766429 L494.876399,73.5013571 L494.848414,73.4128714 L493.519123,72.1251714 L492.238806,73.4804 L492.180504,73.5712143 L492.185168,74.3303286 L480.557369,74.3140286 L480.557369,74.1533571 L479.125466,74.1510286 L479.085821,74.3256714 L479.048507,74.4770286 L478.948228,74.4770286 L478.899254,74.6982429 L478.852612,74.8822 L478.833955,74.8822 L478.780317,75.1290286 L478.656716,75.6459714 L478.661381,77.6811429 L478.302239,77.6788143 L478.232276,77.9792 L478.13666,77.9792 L478.055037,78.3494429 L478.036381,78.3494429 L477.933769,78.8058429 L477.954757,95.7159286 L472.061567,95.7112714 L471.865672,92.9845143 L471.273321,85.6751286 L470.541045,65.5749 L469.801772,85.6704714 L469.209422,92.9821857 L469.013526,95.7089429 L463.411847,95.7066143 L463.435168,78.7872143 L463.348881,78.3308143 L463.311567,78.3308143 L463.239272,77.9605714 L463.143657,77.9605714 L463.078358,77.6578571 L462.819496,77.6578571 L462.82416,75.6226857 L462.719216,75.1010857 L462.674907,74.8565857 L462.632929,74.8565857 L462.595616,74.6679714 L462.55597,74.4537429 L462.446362,74.4537429 L462.413713,74.2977286 L462.383396,74.1230857 L461.599813,74.1230857 L461.599813,74.2837571 L449.381996,74.2651286 L449.391325,73.2894571 L449.381996,73.2033 L448.115672,71.7968429 L446.905317,73.0426286 L446.828358,73.1218 L446.81903,74.1021286 L446.026119,74.1021286 L446.026119,74.2604714 L445.615672,74.2604714 L445.611007,74.5888 L445.401119,74.5888 L445.401119,74.9893143 L445.25653,74.9893143 L445.142257,95.8789286 L444.736474,95.8789286 L444.6875,105.179243 L444.134795,105.179243 L444.067164,117.455471 L443.565765,117.455471 L442.978078,117.5556 L442.863806,136.4473 L434.829757,136.4473 L434.839086,134.684571 L434.720149,134.5891 L434.260728,134.237486 L434.260728,118.391557 L434.498601,118.391557 L434.498601,118.3869 L434.503265,117.476429 L434.566231,117.406571 L434.633862,117.346029 L434.710821,117.285486 L434.794776,117.231929 L434.881063,117.185357 L434.967351,117.145771 L435.062966,117.110843 L435.163246,117.085229 L435.263526,117.061943 L435.363806,117.047971 L435.450093,117.043314 L435.56903,117.043314 L435.56903,117.040986 L435.571362,116.763886 L435.750933,116.763886 L435.750933,116.645129 L434.21875,116.640471 L434.284049,107.642871 L434.498601,107.5637 L434.538246,107.5474 L434.54291,106.925671 L434.752799,106.837186 L434.794776,106.820886 L434.797108,106.150257 L435.226213,105.961643 L435.307836,105.926714 L435.3125,105.568114 L434.302705,105.563457 L434.328358,101.623514 L436.902985,99.9609143 L436.907649,99.3135714 L437.553638,98.8804571 L437.553638,98.6708857 L437.672575,98.5917143 L437.681903,97.7580857 L438.227612,97.3692143 L438.346549,97.2853857 L438.351213,96.8173429 L438.351213,96.7288571 L434.892724,96.6985857 L434.920709,92.9449286 L435.66931,92.1997857 L435.66931,92.1951286 L436.210354,91.6572286 L436.319963,91.5501143 L436.324627,90.9982429 L434.402985,90.9772857 L434.409981,89.4474143 L434.398321,89.3729 L434.379664,89.3170143 L434.361007,89.2751 L434.342351,89.2564714 L434.31903,89.2564714 L434.200093,89.2564714 L434.165112,89.2331857 L434.127799,89.2122286 L434.015858,89.1633286 L433.892257,89.1330571 L433.768657,89.1237429 L433.645056,89.1307286 L433.528451,89.1586714 L433.409515,89.2005857 L433.304571,89.2634571 L433.204291,89.3426286 L433.122668,89.4311143 L432.798507,89.4287857 L432.479011,89.1074429 L432.161847,89.1027857 L431.837687,89.4171429 L431.595149,89.4124857 L431.277985,89.0934714 L430.953825,89.0888143 L430.634328,89.4008429 L430.3125,89.3961857 L430.223881,89.3053714 L430.130597,89.2238714 L430.025653,89.161 L429.911381,89.1144286 L429.78778,89.0841571 L429.664179,89.0725143 L429.540578,89.0795 L429.41931,89.1074429 L429.305037,89.1516857 L429.195429,89.2145571 L429.099813,89.2890714 L429.013526,89.3798857 L428.689366,89.3775571 L428.372201,89.0585429 L428.048041,89.0538857 L427.723881,89.3659143 L427.483675,89.3635857 L427.164179,89.0445714 L426.840019,89.0399143 L426.51819,89.3519429 L426.19403,89.3472857 L426.107743,89.2541429 L426.012127,89.1726429 L425.902519,89.1097714 L425.788246,89.0632 L425.664646,89.0329286 L425.543377,89.0236143 L425.419776,89.0306 L425.30084,89.0585429 L425.181903,89.1004571 L425.074627,89.161 L424.976679,89.2401714 L424.890392,89.3309857 L424.568563,89.3263286 L424.244403,89.0073143 L423.920243,89.0026571 L423.598414,89.3146857 L423.355877,89.3123571 L423.034049,88.9910143 L422.709888,88.9886857 L422.385728,89.3007143 L422.063899,89.2983857 L422.012593,89.2448286 L421.97528,89.2029143 L421.879664,89.1237429 L421.840019,89.0981286 L421.772388,89.0608714 L421.653451,89.0119714 L421.534515,88.9817 L421.40625,88.9700571 L421.284981,88.9793714 L421.161381,89.0049857 L421.047108,89.0515571 L420.9375,89.1121 L420.83722,89.1889429 L420.755597,89.2797571 L420.426772,89.2751 L420.104944,88.9584143 L419.780784,88.9537571 L419.456623,89.2657857 L419.211754,89.2634571 L418.887593,88.9421143 L418.565765,88.9374571 L418.23694,89.2518143 L417.91278,89.2471571 L417.826493,89.1540143 L417.730877,89.0725143 L417.621269,89.0073143 L417.502332,88.9607429 L417.381063,88.9328 L417.257463,88.9211571 L417.133862,88.9281429 L417.012593,88.9560857 L416.893657,89.0003286 L416.784049,89.0632 L416.688433,89.1400429 L416.602146,89.2308571 L416.277985,89.2262 L415.94916,88.9025286 L415.622668,88.9002 L415.403451,89.1144286 L414.902052,89.0608714 L414.729478,88.8885571 L414.400653,88.8862286 L414.288713,88.9956714 L414.151119,88.9793714 L413.444496,88.9537571 L413.339552,88.9095143 L413.218284,88.8792429 L413.090019,88.8699286 L412.966418,88.8792429 L412.842817,88.9025286 L412.826493,88.9118429 L412.301772,88.9025286 L411.809701,88.8839 L411.777052,88.8536286 L411.455224,88.8489714 L411.403918,88.8932143 L410.599347,88.8839 L410.552705,88.8373286 L410.223881,88.835 L410.193563,88.8676 L409.713153,88.8722571 L409.176772,88.8676 L409.158116,88.8606143 L409.036847,88.8303429 L408.908582,88.8163714 L408.784981,88.8256857 L408.661381,88.8536286 L408.554104,88.8932143 L407.85681,88.9025286 L407.709888,88.9165 L407.590951,88.8024 L407.264459,88.7977429 L407.089552,88.9654 L406.585821,89.0073143 L406.36194,88.7861 L406.033116,88.7814429 L405.706623,89.0981286 L405.377799,89.0934714 L405.291511,89.0003286 L405.191231,88.9211571 L405.081623,88.8559571 L404.962687,88.8070571 L404.841418,88.7791143 L404.713153,88.7674714 L404.584888,88.7744571 L404.463619,88.8000714 L404.344683,88.8466429 L404.235075,88.9071857 L404.134795,88.9840286 L404.048507,89.0771714 L403.719683,89.0748429 L403.39319,88.7511714 L403.059701,88.7465143 L402.730877,89.0632 L402.486007,89.0608714 L402.152519,88.7348714 L401.826026,88.7302143 L401.497201,89.0469 L401.166045,89.0445714 L401.077425,88.9491 L400.979478,88.8699286 L400.869869,88.8024 L400.750933,88.7558286 L400.627332,88.7255571 L400.499067,88.7162429 L400.373134,88.7232286 L400.249534,88.7511714 L400.130597,88.7954143 L400.076959,88.8233571 L400.020989,88.8582857 L399.920709,88.9351286 L399.895056,88.9630714 L399.834422,89.0259429 L399.507929,89.0236143 L399.169776,88.6976143 L398.840951,88.6929571 L398.514459,89.0096429 L398.262593,89.0073143 L397.931437,88.6836429 L397.597948,88.6813143 L397.271455,88.9956714 L396.942631,88.9910143 L396.851679,88.8978714 L396.751399,88.8163714 L396.641791,88.7511714 L396.522854,88.7022714 L396.396922,88.6743286 L396.268657,88.6650143 L396.140392,88.672 L396.019123,88.6976143 L395.900187,88.7441857 L395.790578,88.8047286 L395.690299,88.8839 L395.604011,88.9747143 L395.270522,88.9700571 L394.939366,88.6463857 L394.605877,88.6417286 L394.277052,88.9607429 L394.027519,88.9584143 L393.69403,88.6324143 L393.362873,88.6277571 L393.029384,88.9444429 L392.702892,88.9397857 L392.61194,88.8466429 L392.51166,88.7651429 L392.397388,88.6999429 L392.278451,88.6533714 L392.154851,88.6207714 L392.024254,88.6114571 L391.895989,88.6184429 L391.772388,88.6463857 L391.653451,88.6906286 L391.546175,88.7535 L391.445896,88.8303429 L391.359608,88.9234857 L391.026119,88.9211571 L390.687966,88.5928286 L390.35681,88.5881714 L390.027985,88.9071857 L389.778451,88.9025286 L389.440299,88.5788571 L389.104478,88.5765286 L388.775653,88.8932143 L388.444496,88.8885571 L388.351213,88.7930857 L388.250933,88.7115857 L388.138993,88.6487143 L388.020056,88.5998143 L387.891791,88.5695429 L387.763526,88.5602286 L387.637593,88.5672143 L387.513993,88.5928286 L387.390392,88.6394 L387.360075,88.6603571 L387.318097,88.6813143 L387.173507,88.6813143 L387.150187,88.7022714 L387.13153,88.7418571 L387.112873,88.7977429 L387.094216,88.8722571 L387.117537,90.4324 L385.104944,90.4114429 L385.114272,90.9749571 L385.802239,91.6455857 L385.802239,91.6549 L386.590485,92.4279857 L386.639459,96.2678 L383.017724,96.2375286 L383.017724,96.3283429 L383.022388,96.8057 L383.150653,96.8965143 L383.724347,97.2970286 L383.73834,98.1562714 L383.76166,98.1725714 L383.866604,98.2401 L383.866604,98.4566571 L384.549907,98.9037429 L384.556903,99.5720429 L387.264459,101.297514 L387.273787,101.935543 L387.318097,105.332929 L386.256996,105.325943 L386.266325,105.691529 L386.352612,105.731114 L386.798041,105.924386 L386.807369,106.613643 L386.849347,106.632271 L387.073228,106.720757 L387.082556,107.356457 L387.122201,107.372757 L387.346082,107.456586 L387.469683,116.640471 L385.869869,116.647457 L385.874534,116.768543 L386.061101,116.768543 L386.065765,117.052629 L386.065765,117.054957 L386.189366,117.054957 L386.280317,117.059614 L386.389925,117.073586 L386.494869,117.094543 L386.595149,117.122486 L386.695429,117.157414 L386.784049,117.199329 L386.877332,117.248229 L386.963619,117.301786 L387.040578,117.362329 L387.112873,117.4252 L387.180504,117.495057 L387.194496,118.428814 L387.194496,118.431143 L387.495336,118.431143 L387.709888,134.481986 L386.935634,135.071114 L386.954291,136.4473 L379.734142,136.4473 L379.293377,135.643943 L379.337687,135.620657 L378.959888,134.887157 L378.892257,134.922086 L378.815299,134.780043 L378.859608,134.740457 L378.668377,134.514586 L378.271922,133.711229 L377.861474,132.749529 L377.807836,132.772814 L377.784515,132.726243 L377.835821,132.700629 L377.462687,131.974114 L377.416045,131.9974 L377.397388,131.960143 L377.44403,131.934529 L377.07556,131.308143 L369.563899,116.244614 C369.946362,115.736986 370.177239,115.105943 370.177239,114.421343 C370.177239,113.026529 369.225746,111.848271 367.929104,111.480357 L363.542444,95.5669 L363.064366,93.7762286 L363.064366,93.7087 L363.045709,93.7087 L361.970616,89.6965714 C362.54431,89.2075714 362.917444,88.4368143 362.917444,87.5636 C362.917444,86.7975 362.625933,86.1059143 362.166511,85.6169143 L362.17584,85.6076 L361.833022,85.2932429 L361.816698,85.3118714 C361.588153,85.1488714 361.333955,85.0254571 361.058769,84.9579286 L360.380131,79.1039 L360.370802,78.9991143 L358.85028,65.8776143 L358.840951,65.6587286 L358.826959,65.6610571 L358.817631,65.5935286 L358.822295,65.5935286 L358.817631,65.5562714 L358.831623,65.5516143 L358.782649,65.2815 L357.28778,52.3672429 L357.283116,52.2624571 L357.28778,52.1623286 L357.283116,52.1623286 L357.278451,52.0645286 L357.278451,52.0622 L357.273787,52.0202857 L357.000933,45.8309429 L357.010261,45.5724714 L356.991604,45.5724714 L356.98694,45.4583714 L357.000933,45.4560429 L356.977612,45.2534571 L355.902519,20.9175571 L355.911847,20.0024286 L355.911847,20.0001 L355.916511,19.6904 L355.916511,19.4179571 L355.921175,19.4133 L355.916511,19.4086429 L355.916511,19.3807 L355.888526,19.3807 L355.888526,19.3783714 L355.916511,19.3783714 L355.921175,19.0896286 L355.853545,19.0896286 L355.853545,19.0873 L355.921175,19.0896286 L355.853545,19.0873 L355.876866,19.0663429 L355.921175,19.0663429 L355.921175,19.0244286 L355.958489,18.9918286 L355.939832,18.9732 L356.159049,18.9895 L356.168377,18.9056714 L355.921175,18.8870429 L355.921175,18.8614286 L356.163713,18.8637571 L356.168377,18.5470714 L356.173041,18.5470714 L356.173041,18.5074857 L356.245336,18.5843286 L356.445896,18.3980429 L356.480877,18.4003714 L356.555504,18.2955857 L356.51819,18.2513429 L356.560168,18.2164143 L356.490205,18.1465571 L356.490205,18.1116286 L356.576493,18.1954571 L356.581157,18.1908 L356.490205,18.0999857 L356.490205,17.9463 L356.436567,17.9463 L356.431903,17.9369857 L356.599813,17.7809714 L356.595149,17.7739857 L356.800373,17.7902857 L356.805037,17.7064571 L356.522854,17.6831714 L356.522854,17.6785143 L356.532183,17.6761857 L356.527519,17.6529 L356.805037,17.6529 L356.809701,17.5993429 L356.805037,17.5993429 L356.805037,17.5597571 L357.105877,17.5877 L357.115205,17.5085286 L357.392724,17.5085286 L357.392724,14.6886286 L356.756063,14.6886286 L356.81903,14.6304143 L356.837687,14.6211 L356.833022,14.6141143 L357.010261,14.4418 C357.98041,13.9900571 358.572761,13.3846286 358.572761,12.7186571 C358.572761,11.899 357.670243,11.1678286 356.277985,10.7091 L356.277985,7.86358571 C356.277985,7.85427143 356.280317,7.8403 356.280317,7.82632857 L356.317631,7.82632857 L356.317631,7.81701429 L356.280317,7.81934286 L356.280317,7.81701429 L356.29431,7.81701429 L356.29431,7.73318571 L356.284981,7.73318571 C356.284981,7.71455714 356.289646,7.69592857 356.289646,7.67497143 L356.29431,7.67497143 L356.289646,7.6284 C356.29431,7.58648571 356.29431,7.5469 356.29431,7.50265714 C356.29431,6.2103 355.662313,5.07395714 354.710821,4.41962857 L354.710821,4.29854286 L354.524254,4.29854286 L354.710821,4.29621429 L354.514925,4.29621429 C354.510261,4.29155714 354.500933,4.28457143 354.491604,4.27991429 L354.491604,4.26361429 L354.496269,4.26361429 L354.477612,4.22868571 L354.48694,4.2217 L354.38666,4.22402857 C354.344683,4.20074286 354.305037,4.17978571 354.258396,4.16115714 L354.26306,4.09595714 L354.26306,3.83515714 L354.281716,3.77461429 L354.314366,3.77461429 L354.314366,3.72105714 L354.31903,3.7164 L354.314366,3.7164 L354.314366,3.70242857 L354.249067,3.70242857 L354.249067,3.65352857 L354.253731,3.64421429 L354.472948,3.64654286 L354.472948,3.64421429 L354.505597,3.64654286 L354.505597,3.1948 L354.500933,3.1948 L354.500933,3.18781429 L354.358675,3.18781429 L354.358675,3.03645714 L354.354011,3.03645714 L354.354011,3.02947143 L354.349347,3.02947143 L354.272388,3.0318 L354.272388,3.02947143 L354.244403,3.02947143 L354.277052,3.00152857 L354.228078,2.9503 L354.228078,2.934 L354.277052,2.88742857 L354.223414,2.82921429 L354.281716,2.77565714 L354.228078,2.7221 L354.239739,2.71278571 L354.295709,2.66155714 L354.291045,2.6569 L354.281716,2.66388571 L354.277052,2.65457143 L354.281716,2.64758571 L354.232743,2.59402857 L354.244403,2.26104286 L354.228078,2.26104286 L354.228078,2.1027 L354.237407,2.1027 L354.228078,2.1027 L354.237407,2.10037143 L354.228078,2.10037143 C354.232743,2.06311429 354.237407,2.02585714 354.237407,1.98394286 C354.237407,1.95134286 354.232743,1.9234 354.228078,1.8908 L354.228078,1.87217143 C354.200093,1.69985714 354.123134,1.53918571 353.999534,1.39947143 L353.999534,1.3855 L354.004198,1.3855 L354.004198,1.37851429 L353.999534,1.37851429 L354.004198,1.19688571 L354.008862,1.19688571 L354.008862,1.1899 L354.004198,1.1899 L354.004198,1.141 L353.999534,1.141 L354.004198,1.12237143 L354.004198,1.10607143 L354.013526,1.10607143 L354.013526,1.10374286 L354.004198,1.10374286 L354.004198,1.0106 L354.008862,1.0106 L354.008862,1.00361429 L354.004198,1.00361429 L354.004198,0.9943 L354.008862,0.6683 L354.004198,0.6683 C354.004198,0.188614286 353.770989,-0.251485714 353.430504,-0.489 L353.430504,-0.491328571 L353.42584,-0.495985714 L353.421175,-0.495985714 C353.362873,-0.5379 353.297575,-0.572828571 353.234608,-0.600771429 L353.234608,-0.610085714 L353.220616,-0.614742857 L353.215951,-0.605428571 C353.187966,-0.6194 353.152985,-0.631042857 353.120336,-0.640357143 L353.120336,-0.647342857 L353.106343,-0.652 L353.106343,-0.647342857 C353.078358,-0.652 353.057369,-0.658985714 353.029384,-0.663642857 L353.029384,-0.6683 L353.006063,-0.670628571 L353.006063,-0.6683 C352.992071,-0.670628571 352.978078,-0.675285714 352.961754,-0.675285714 L352.961754,-0.675285714 L352.943097,-0.679942857 L352.943097,-0.675285714 C352.919776,-0.679942857 352.891791,-0.679942857 352.86847,-0.682271429 L352.852146,-0.682271429 C352.82416,-0.682271429 352.796175,-0.679942857 352.770522,-0.675285714 L352.770522,-0.679942857 L352.751866,-0.675285714 C352.733209,-0.675285714 352.714552,-0.670628571 352.691231,-0.6683 L352.677239,-0.665971429 L352.677239,-0.663642857 C352.637593,-0.656657143 352.60028,-0.647342857 352.565299,-0.633371429 L352.565299,-0.6357 L352.551306,-0.631042857 C352.068563,-0.465714286 351.725746,0.0838285714 351.725746,0.682271429 L351.725746,1.03621429 L351.73041,1.03621429 L351.73041,1.06182857 L351.714086,1.06182857 L351.714086,1.08045714 L351.73041,1.08045714 L351.73041,1.09675714 L351.725746,1.09675714 L351.721082,1.2062 L351.721082,1.37851429 L351.716418,1.37618571 L351.721082,1.3855 C351.590485,1.52754286 351.504198,1.69287143 351.480877,1.87217143 L351.476213,1.87217143 L351.476213,1.90477143 C351.476213,1.93271429 351.466884,1.95832857 351.466884,1.98394286 C351.466884,2.01654286 351.471549,2.04448571 351.476213,2.07475714 L351.471549,2.07475714 L351.466884,2.12132857 L351.476213,2.12365714 L351.476213,2.1842 L351.466884,2.1842 L351.46222,2.22611429 L351.476213,2.22611429 L351.476213,2.24241429 L351.46222,2.24241429 L351.46222,2.29597143 L351.476213,2.29597143 L351.476213,2.30062857 L351.46222,2.30062857 L351.457556,2.68018571 L351.480877,2.68018571 L351.480877,2.68251429 L351.466884,2.90372857 L351.513526,2.90605714 L351.515858,2.9177 L351.466884,2.91537143 L351.466884,2.94797143 L351.375933,2.94564286 L351.375933,2.95495714 L351.371269,2.95495714 L351.371269,3.08768571 L351.184701,3.08535714 L351.180037,3.5371 L351.180037,3.53942857 L351.212687,3.53942857 L351.266325,3.54175714 L351.243004,3.54408571 L351.212687,3.54408571 L351.229011,3.54408571 L351.212687,3.54641429 L351.23834,3.54641429 L351.222015,3.54641429 L351.389925,3.54641429 L351.389925,3.62325714 L351.329291,3.62325714 L351.329291,3.7001 L351.389925,3.7001 L351.389925,3.70242857 L351.329291,3.70242857 L351.329291,3.77461429 L351.389925,3.77461429 L351.389925,4.11924286 L351.256996,4.12622857 L351.252332,4.15882857 L351.229011,4.1565 L351.226679,4.1565 L351.021455,4.14252857 L351.021455,4.15417143 L351.016791,4.17512857 L351.012127,4.1891 L351.012127,4.23567143 L351.007463,4.23567143 L351.007463,4.27991429 L351.002799,4.27991429 L351.002799,4.33347143 L350.998134,4.33347143 L350.998134,4.34045714 L350.99347,4.34045714 L350.99347,4.36141429 L350.988806,4.36141429 L350.988806,4.38935714 C350.013993,5.04135714 349.36334,6.19167143 349.36334,7.50265714 L349.36334,8.35724286 L349.335354,8.66927143 L349.36334,8.6716 L349.36334,8.72515714 L349.335354,8.72515714 L349.335354,8.80898571 L349.36334,8.80898571 L349.36334,10.4552857 L349.33069,10.7230714 C349.158116,10.7789571 348.990205,10.8441571 348.833955,10.9093571 L348.701026,10.9373 L348.70569,10.9652429 C347.695896,11.4169857 347.070896,12.0363857 347.070896,12.7186571 C347.070896,13.4172286 347.723881,14.0482714 348.775653,14.5046714 L348.789646,14.5256286 L348.743004,14.6117857 L348.847948,14.67 L348.852612,14.6723286 L348.843284,14.6886286 L348.332556,14.6886286 L348.318563,15.9344143 L348.332556,15.9344143 L348.332556,15.9437286 L348.318563,15.9437286 L348.318563,16.2045286 L348.332556,16.2045286 L348.332556,16.2068571 L348.318563,16.2068571 L348.318563,16.6446286 L348.332556,16.6446286 L348.332556,16.6469571 L348.318563,16.6469571 L348.318563,16.9915857 L348.332556,16.9915857 L348.318563,16.9915857 L348.313899,17.1639 L348.332556,17.1639 L348.332556,17.1662286 L348.313899,17.1662286 L348.313899,17.2523857 L348.332556,17.2523857 L348.332556,17.5085286 L348.857276,17.5085286 L348.852612,17.5085286 L348.976213,17.6319429 L348.948228,17.7134429 L348.943563,17.7134429 L348.943563,17.7274143 L348.889925,17.9043857 L348.852612,17.9416429 L348.871269,17.9602714 L348.86194,17.9882143 L348.885261,17.9952 L348.852612,18.0278 L349.167444,18.3444857 L349.258396,18.256 L349.253731,18.4236571 L349.253731,18.7310286 L349.517257,18.7333571 L349.479944,18.7706143 L349.568563,18.8591 L349.563899,18.9638857 L349.568563,18.9638857 L349.568563,19.0430571 L349.563899,19.0430571 L349.563899,19.1082571 L349.472948,19.1967429 L349.517257,19.2363286 L349.472948,19.2805714 L349.563899,19.3713857 L349.559235,19.6671143 L349.559235,19.9675 L349.554571,20.2818571 L349.549907,20.5892286 L349.554571,20.5892286 L349.554571,20.6474429 L349.549907,20.8104429 L349.549907,20.8826286 L348.087687,44.8971857 L348.041045,45.2767429 L348.064366,45.2790714 L348.059701,45.3652286 L348.031716,45.3652286 L348.031716,45.8309429 L347.672575,51.7175714 L347.649254,51.8898857 L347.663246,51.8898857 L347.658582,51.9760429 L347.64459,51.9760429 L347.64459,52.1879429 L345.965485,64.9182429 L345.879198,65.3746429 L345.886194,65.3769714 L345.883862,65.4119 L345.895522,65.4142286 L345.890858,65.4584714 L345.869869,65.4561429 L345.846549,65.8100857 L344.160448,78.5753143 L344.151119,78.6405143 L344.07416,78.6358571 L343.992537,79.8397286 L343.323228,84.9276571 C343.057369,84.9765571 342.807836,85.0697 342.579291,85.2024286 L342.553638,85.1698286 L342.206157,85.4818571 C341.665112,85.9708571 341.317631,86.7253143 341.317631,87.5636 C341.317631,88.4438 341.697761,89.2215429 342.280784,89.7105429 L341.301306,93.2616143 L341.277985,93.3314714 L341.282649,93.3314714 L341.201026,93.6318571 L341.182369,93.6318571 L341.182369,93.6970571 L340.914179,94.6680714 L336.485541,109.889943 L336.599813,109.922543 L336.599813,109.924871 L336.485541,109.892271 L336.25,110.7096 L336.035448,111.289414 L335.99347,111.329 L335.988806,111.326671 L335.916511,111.401186 C335.862873,111.4105 335.806903,111.419814 335.753265,111.431457 L335.68097,111.3942 L335.652985,111.457071 C334.305037,111.794714 333.306903,112.9916 333.306903,114.421343 C333.306903,115.166486 333.575093,115.848757 334.025187,116.379671 L334.085821,116.617186 L333.927239,117.047971 L333.922575,117.057286 L333.551772,117.758186 L333.547108,117.765171 L332.805504,119.183271 L332.80084,119.190257 L332.432369,119.891157 L332.427705,119.9028 L331.065765,122.492171 L331.005131,122.613257 L331.002799,122.615586 L330.615672,123.353743 L330.615672,123.3584 L330.578358,123.421271 L330.559701,123.414286 L330.531716,123.514414 L329.958022,124.608843 L329.932369,124.664729 L329.909049,124.655414 L329.116138,126.138714 L329.144123,126.152686 L329.097481,126.2435 L329.07416,126.234186 L329.00653,126.418143 L327.339086,129.594314 L325.564366,132.658714 L325.645989,132.705286 L325.627332,132.728571 L325.550373,132.686657 L325.153918,133.441114 L325.188899,133.459743 L325.177239,133.492343 L325.135261,133.476043 L324.958022,133.857929 C324.958022,133.857929 324.580224,134.405143 324.055504,135.1759 L324.279384,85.7263571 L323.731343,85.9615429 L322.539646,86.8068143 L320.722948,88.2505286 L319.433302,89.3356429 L318.166978,91.7806429 L318.171642,90.4021286 L315.550373,92.6864571 L314.990672,94.0463429 L311.145056,98.0328571 L311.145056,121.404729 L313.957556,124.315443 L313.957556,124.485429 L311.851679,124.322429 L311.681437,124.278186 L311.352612,124.201343 L310.564366,124.043 L309.764459,123.940543 L309.496269,123.905614 L309.146455,123.882329 L308.731343,123.866029 L308.421175,123.854386 L308.187966,123.849729 L307.945429,123.849729 L307.716884,123.856714 L307.362407,123.870686 L306.961287,123.891643 L306.623134,123.919586 L305.921175,124.012729 L305.552705,124.066286 L304.74347,124.231614 L304.456623,124.310786 L304.36334,124.3364 L302.098881,124.529671 L305.018657,121.4187 L304.962687,98.0025857 L301.161381,93.9671714 L300.739272,92.5956429 L298.066698,90.2624143 L298.076026,92.2230714 L296.770056,89.1703143 L295.443097,88.0595857 L293.551772,86.5762857 L292.292444,85.7054 L291.688433,85.4585714 L292.054571,136.4473 L289.493937,136.4473 L289.489272,136.268 L289.528918,72.5676 L287.80084,72.5443143 L287.663246,68.1433143 L287.534981,67.7567714 L283.453825,59.6254 L283.339552,55.5527286 L283.299907,55.4339714 L281.942631,53.0239 L281.909981,53.0960857 L281.905317,53.0891 L280.676306,55.7157286 L280.664646,55.8368143 L280.76959,59.8442857 L277.138526,68.5135571 L277.133862,68.6695714 L277.122201,68.6998429 L277.126866,68.8954429 L277.126866,68.9024286 L277.252799,74.4001857 L275.638993,76.0977143 L275.811567,116.188729 L269.839086,113.450329 L261.296642,108.751271 L258.274254,108.518414 L244.846082,108.495129 L244.846082,103.530614 L244.472948,103.493357 L244.447295,102.841357 L244.351679,101.916914 L244.200093,101.004114 L243.997201,100.100629 L243.736007,99.2134429 L243.421175,98.3425571 L243.055037,97.4949571 L242.639925,96.6706429 L242.173507,95.8742714 L241.660448,95.1081714 L241.098414,94.377 L241.035448,94.3024857 L240.499067,93.6784286 L240.510728,89.3915286 L240.508396,89.0445714 L240.485075,88.6999429 L240.440765,88.3576429 L240.377799,88.0176714 L240.293843,87.6846857 L240.188899,87.3540286 L240.062966,87.0326857 L239.918377,86.716 L239.757463,86.4109571 L239.577892,86.1152286 L239.381996,85.8311429 L239.372668,85.8195 L239.253731,85.6681429 L239.309701,85.6681429 L239.312034,85.1954429 L239.314366,85.1954429 L239.314366,84.7646571 L239.312034,84.7227429 L239.134795,84.7204143 L239.134795,84.8997143 L239.132463,84.8997143 L239.132463,85.0627143 L239.134795,85.1069571 L239.130131,85.6029429 L238.957556,85.8171714 L238.763993,86.0919429 L238.752332,86.1105714 L238.568097,86.4063 L238.402519,86.7113429 L238.260261,87.0233714 L238.129664,87.3447143 L238.022388,87.6730429 L237.936101,88.0060286 L237.86847,88.346 L237.821828,88.6883 L237.793843,89.0329286 L237.789179,89.3775571 L237.76819,93.6621286 L237.709888,93.7226714 L237.737873,88.9863571 L237.714552,88.9607429 L237.635261,87.9850714 L237.614272,87.7405714 L237.614272,87.7382429 L237.595616,87.5240143 L237.390392,86.1850857 L237.089552,84.8694429 L236.697761,83.5770857 L236.212687,82.3196571 L235.641325,81.1041429 L234.986007,79.9305429 L234.249067,78.8081714 L234.085821,78.5916143 L234.081157,78.5869571 L233.435168,77.7440143 L233.428172,77.7347 L233.285914,77.5484143 L232.418377,76.5774 L231.485541,75.6739143 L231.478545,75.6669286 L231.354944,75.5458429 L230.394123,74.7424857 L230.027985,74.5631857 L229.633862,74.4490857 L229.694496,69.3751286 L229.694496,68.8977714 L229.664179,68.4227429 L229.608209,67.9523714 L229.51959,67.4866571 L229.51959,67.4773429 L229.514925,67.4563857 L229.400653,66.9953286 L229.256063,66.5435857 L229.085821,66.0988286 L228.889925,65.6657143 L228.666045,65.2442429 L228.418843,64.8367429 L228.388526,64.7925 L228.131996,64.4222571 L227.922108,64.1591286 L227.926772,63.6887571 L227.952425,63.6887571 L227.954757,63.4675429 L227.940765,63.4046714 L227.931437,63.3627571 L227.936101,63.0553857 L227.922108,62.9925143 L227.915112,62.9622429 L227.901119,62.8993714 L227.653918,62.8970429 L227.651586,63.0996286 L227.625933,63.0996286 L227.621269,63.3255 L227.637593,63.3860429 L227.646922,63.4302857 L227.637593,64.1405 L227.651586,64.2033714 L227.65625,64.2313143 L227.66791,64.2825429 L227.551306,64.4176 L227.271455,64.7831857 L227.014925,65.1650714 L226.786381,65.5655857 L226.578825,65.9777429 L226.401586,66.4062 L226.247668,66.8463 L226.121735,67.2980429 L226.023787,67.7567714 L226.000466,67.8964857 L225.928172,68.3668571 L225.888526,68.8418857 L225.876866,69.3169143 L225.804571,74.3489571 L225.410448,74.4397714 L225.034981,74.6004429 L224.048507,75.3549 L223.115672,76.1908571 L222.999067,76.3072857 L222.898787,76.3934429 L222.810168,76.4865857 L222.805504,76.4912429 L222.747201,76.5517857 L221.989272,77.3365143 L221.954291,77.3784286 L221.879664,77.4552714 L221.028451,78.4868286 L220.251866,79.5812571 L219.554571,80.7315714 L218.941231,81.9331143 L218.416511,83.1812286 L217.98041,84.4689286 L217.637593,85.7892286 L217.390392,87.1351429 L217.262127,88.3203857 L217.117537,88.4088714 L217.101213,89.1540143 L217.056903,89.1540143 L217.054571,89.3146857 L217.026586,89.3146857 L217.021922,89.4590571 L217.049907,89.4939857 L217.040578,89.9503857 L217.066231,89.9806571 L217.082556,89.9806571 L217.082556,89.9853143 L216.982276,90.1064 L216.800373,90.3485714 L216.637127,90.6000571 L216.487873,90.8631857 L216.354944,91.1333 L216.236007,91.4104 L216.135728,91.6944857 L216.056437,91.9878857 L215.991138,92.2836143 L215.944496,92.584 L215.916511,92.8867143 L215.907183,93.1917571 L215.874534,94.6191714 L215.625,94.2838571 L215.034981,93.5876143 L215.130597,89.3426286 L215.135261,88.9933429 L215.118937,88.6487143 L215.114272,88.5881714 L215.074627,88.2412143 L215.018657,87.9012429 L214.939366,87.5659286 L214.839086,87.2352714 L214.722481,86.9116 L214.582556,86.5972429 L214.426306,86.2875429 L214.251399,85.9918143 L214.057836,85.7054 L213.889925,85.4911714 L213.901586,85.0720286 L213.936567,85.0720286 L213.941231,84.9067 L213.90625,84.8601286 L213.910914,84.6365857 L213.880597,84.5946714 L213.701026,84.5946714 L213.696362,84.7716429 L213.661381,84.7716429 L213.656716,84.9346429 L213.691698,84.9835429 L213.680037,85.5004857 L213.710354,85.5424 L213.752332,85.5447286 L213.621735,85.6937571 L213.414179,85.9662 L213.222948,86.2526143 L213.050373,86.5506714 L212.898787,86.8580429 L212.763526,87.1747286 L212.646922,87.5007286 L212.551306,87.8313857 L212.476679,88.1713571 L212.420709,88.5113286 L212.38806,88.8582857 L212.376399,89.2029143 L212.271455,93.5177571 L211.639459,94.1930429 L211.047108,94.9032571 L210.499067,95.6553857 L210,96.4377857 L209.549907,97.2504571 L209.151119,98.0910714 L208.80597,98.9596286 L208.512127,99.8468143 L208.274254,100.752629 L208.094683,101.674743 L207.971082,102.606171 L207.919776,103.360629 L207.215485,103.437471 L207.108209,107.179486 L206.888993,107.491514 L206.688433,107.8245 L206.513526,108.171457 L206.40625,108.429929 L196.357276,108.4113 L196.396922,107.233043 L196.476213,107.233043 L196.487873,106.848829 L196.413246,106.823214 L195.760261,104.948714 L193.91791,104.946386 L193.922575,104.869543 L193.880597,104.713529 L193.901586,104.713529 L193.908582,104.680929 L193.915578,104.659971 L193.943563,103.947429 L193.931903,103.919486 L193.880597,103.919486 L193.908582,103.856614 L193.910914,103.854286 L193.901586,103.819357 L193.89459,103.819357 L193.663713,103.7332 L193.659049,103.730871 L193.439832,103.728543 L193.428172,103.756486 L193.430504,103.761143 L193.442164,103.807714 L193.400187,103.805386 L193.388526,103.824014 L193.362873,104.541214 L193.365205,104.566829 L193.372201,104.604086 L193.397854,104.604086 L193.339552,104.7438 L193.330224,104.978986 L192.525653,106.331886 L192.423041,106.331886 L192.406716,106.727743 L192.495336,106.753357 L192.75653,106.755686 L192.635261,109.873643 L192.602612,110.670014 L192.38806,111.049571 L192.056903,110.9867 L192.010261,110.984371 L192.040578,110.723571 L192.052239,110.404557 L192.038246,110.083214 L191.993937,109.768857 L191.921642,109.456829 L191.823694,109.156443 L191.700093,108.860714 L191.548507,108.576629 L191.375933,108.308843 L191.177705,108.055029 L190.958489,107.817514 L190.718284,107.600957 L190.459422,107.805871 L190.223881,108.0364 L190.004664,108.283229 L189.806437,108.546357 L189.633862,108.823457 L189.48694,109.114529 L189.36334,109.414914 L189.265392,109.724614 L189.195429,110.038971 L189.153451,110.357986 L189.139459,110.679329 L189.151119,110.947114 L188.710354,110.982043 L188.696362,111.308043 L188.885261,111.342971 L188.612407,117.944471 L188.118004,117.944471 L188.094683,118.501 L188.197295,118.505657 L188.472481,118.5173 L188.360541,121.218443 L188.330224,120.878471 L188.010728,120.878471 L187.852146,121.202143 L187.877799,121.556086 L187.929104,121.816886 L187.940765,121.935643 L188.008396,122.031114 L188.320896,122.117271 L188.309235,122.485186 L188.052705,122.345471 L187.915112,122.247671 L187.901119,122.131243 L187.817164,122.042757 L187.670243,122.026457 L187.569963,122.031114 L187.29944,122.147543 L187.105877,122.303557 L186.847015,122.883371 L186.812034,123.020757 L186.86334,123.132529 L186.961287,123.127871 L187.159515,123.0487 L187.409049,122.946243 L187.597948,122.955557 L187.693563,123.1628 L187.814832,123.267586 L187.702892,123.372371 L187.681903,123.500443 L187.693563,123.735629 L187.775187,123.947529 L188.001399,124.040671 L188.141325,124.168743 L188.229944,124.350371 L188.171642,125.726557 L185.655317,125.728886 L185.05597,125.728886 L185.032649,125.519314 L185.030317,125.025657 L185.002332,124.701986 L184.962687,124.538986 L184.820429,124.448171 L185.214552,124.306129 L185.492071,124.199014 L185.499067,124.063957 L185.520056,123.533043 L185.067631,123.209371 L184.706157,123.020757 L184.370336,122.874057 L183.955224,122.797214 L183.596082,121.8914 L183.526119,121.628271 L183.44916,121.5165 L183.283582,121.455957 L183.257929,121.1905 L183.071362,121.088043 L183.083022,120.883129 L182.758862,120.883129 L182.637593,120.885457 L182.418377,121.081057 L182.427705,121.765657 L182.269123,121.903043 L182.007929,121.928657 L181.665112,121.882086 L181.585821,120.883129 L181.331623,120.883129 L181.208022,120.885457 L181.030784,121.251043 L181.054104,121.649229 L181.110075,121.944957 L181.126399,122.077686 L181.201026,122.189457 L181.76306,122.343143 L182.173507,122.406014 L182.294776,122.403686 L182.413713,122.275614 L182.504664,122.289586 L182.541978,122.631886 L182.513993,122.783243 L182.432369,122.818171 L182.257463,122.974186 L182.161847,123.002129 L182.061567,122.971857 L181.795709,122.832143 L181.263993,122.5434 L181.107743,122.436286 L181.091418,122.301229 L180.995802,122.2011 L180.832556,122.182471 L180.706623,122.187129 L180.396455,122.317529 L180.174907,122.496829 L179.881063,123.151157 L179.841418,123.304843 L179.895056,123.432914 L180.025653,123.428257 L180.247201,123.337443 L180.527052,123.223343 L180.729944,123.232657 L180.839552,123.465514 L180.972481,123.584271 L180.844216,123.7007 L180.823228,123.849729 L180.834888,124.115186 L180.92584,124.355029 L181.180037,124.462143 L181.338619,124.604186 L181.739739,125.440143 L181.772388,125.759157 L181.648787,125.7708 L181.639459,125.7708 L181.648787,125.7708 L181.154384,136.4473 L180.149254,136.4473 L180.198228,124.799786 L178.092351,124.785814 L177.329757,124.788143 L177.336754,123.484143 L175.557369,123.484143 L175.58069,117.944471 L174.57556,118.081857 L174.552239,123.481814 L173.777985,123.481814 L172.772854,123.5051 L172.772854,123.803157 L170.608675,123.803157 L170.081623,123.661114 L170.081623,123.628514 L169.962687,123.628514 L169.458955,123.493457 L168.519123,123.493457 L168.535448,119.1693 L167.64459,119.276414 L167.630597,123.491129 L160.032649,123.4888 L151.023787,120.252086 L140.853545,120.242771 L140.855877,117.520671 L140.855877,115.709043 L140.508396,115.529743 L140.04431,115.480843 L138.873601,114.586671 L138.565765,114.423671 L135.764925,113.531829 L133.600746,113.224457 L133.600746,110.812057 L133.456157,110.732886 L131.29431,110.199643 L131.135728,110.160057 L130.708955,110.1391 L130.214552,110.143757 L129.885728,110.174029 L127.719216,110.711929 L127.530317,110.795757 L127.530317,113.212814 L125.440765,113.506214 L122.66791,114.386414 L122.229478,114.547086 L121.401586,115.168814 L121.401586,114.174514 L121.399254,111.6224 L121.338619,111.4757 L121.343284,114.058086 L120.872201,106.981557 L120.023321,106.9769 L120.013993,100.466214 L119.876399,99.9679 L119.88806,106.9769 L119.039179,106.972243 L118.948228,107.626571 L100.834888,107.554386 L100.641325,106.8954 L98.7919776,106.886086 L97.2947761,109.792143 L96.8959888,107.198114 L96.1847015,111.836629 L95.7322761,111.836629 L95.7346082,111.9647 L95.5783582,112.185914 L93.6077425,111.226543 L93.7663246,110.998343 L93.7476679,110.979714 L93.4538246,110.788771 L93.2672575,111.061214 L91.3129664,110.108829 L91.4528918,109.901586 L91.4412313,109.882957 L91.119403,109.673386 L90.9444963,109.929529 L89.0065299,108.986457 L89.1464552,108.776886 L89.1347948,108.762914 L88.8176306,108.555671 L88.6403918,108.809486 L86.7024254,107.866414 L86.8470149,107.656843 L86.8353545,107.642871 L86.5181903,107.4333 L86.3456157,107.691771 L84.4869403,106.785957 L84.4776119,106.639257 L84.5475746,106.5368 L84.5429104,106.527486 L84.4682836,106.476257 L84.3540112,104.652986 L84.3959888,104.650657 L84.4706157,104.632029 L85.0583022,104.480671 L85.1259328,104.4504 L85.1795709,104.408486 L85.2145522,104.361914 L85.2238806,104.308357 L85.2168843,104.257129 L85.1842351,104.208229 L85.0419776,104.061529 L84.9953358,104.019614 L84.9300373,103.989343 L84.8857276,103.980029 L84.792444,103.877571 L77.9127799,99.1086571 L78.3115672,98.6429429 L78.568097,98.8106 L78.5727612,98.8082714 L78.7826493,98.4892571 L78.5634328,98.3495429 L79.9813433,96.6916 L80.2425373,96.8592571 L80.4524254,96.5402429 L80.4524254,96.5355857 L80.235541,96.3958714 L81.6604478,94.7286143 L81.9193097,94.8962714 L82.1338619,94.5749286 L82.1338619,94.5702714 L81.9193097,94.4282286 L83.3512127,92.7539857 L83.6100746,92.9239714 L83.8246269,92.5979714 L83.829291,92.5909857 L83.6100746,92.4489429 L85.0489739,90.7653857 L85.3125,90.9353714 L85.3194963,90.9237286 L85.5340485,90.6000571 L85.3171642,90.4556857 L86.7630597,88.7674714 L87.0242537,88.9374571 L87.0335821,88.9234857 L87.2504664,88.5928286 L87.0289179,88.4507857 L88.4818097,86.7532571 L88.7453358,86.9255714 L88.7593284,86.9069429 L88.9692164,86.5902571 L88.7453358,86.4458857 L90.2145522,84.7274 L90.4780784,84.8997143 L90.494403,84.8810857 L90.6040112,84.7134286 L84.4426306,80.7292429 L84.3446828,80.8829286 L84.3376866,80.9085429 L84.5755597,81.0622286 L83.5797575,83.1043857 L83.3372201,82.9483714 L83.1389925,83.2510857 L83.1366604,83.2720429 L83.4095149,83.4490143 L82.4277052,85.4678857 L82.2061567,85.3235143 L81.9916045,85.6541714 L81.9892724,85.6704714 L82.2458022,85.8381286 L81.2733209,87.8313857 L81.0517724,87.6893429 L80.8395522,88.0153429 L80.8395522,88.0316429 L81.0960821,88.1993 L80.1282649,90.1832429 L79.9067164,90.0412 L79.6944963,90.3672 L79.6944963,90.3765143 L79.9533582,90.5418429 L78.9878731,92.5211286 L78.7686567,92.3767571 L78.5564366,92.7004286 L78.5611007,92.7074143 L78.8152985,92.8750714 L77.8544776,94.8427143 L77.6375933,94.7006714 L77.4277052,95.0220143 L77.4323694,95.0266714 L77.6842351,95.192 L76.7304104,97.1503286 L76.5158582,97.0129429 L76.511194,97.0106143 L76.301306,97.3296286 L76.5601679,97.4996143 L76.3152985,97.9979286 L74.9393657,97.0455429 L74.7854478,97.0455429 L71.5391791,99.2809714 L70.8722015,98.7128 L71.0377799,98.4566571 L70.7252799,98.2494143 L70.7112873,98.2494143 L70.5760261,98.4589857 L68.9552239,97.0758143 L69.1208022,96.8173429 L68.8059701,96.6124286 L68.7919776,96.6101 L68.6543843,96.8196714 L67.0382463,95.4388286 L67.2038246,95.1780286 L66.8889925,94.9754429 L66.8703358,94.9707857 L66.7374067,95.1780286 L65.1212687,93.8041714 L65.2891791,93.5433714 L64.974347,93.3407857 L64.9510261,93.3314714 L64.818097,93.5410429 L63.2066231,92.1671857 L63.3698694,91.9087143 L63.0597015,91.7038 L63.0340485,91.6944857 L62.8987873,91.9040571 L61.2943097,90.5348571 L61.457556,90.2740571 L61.1427239,90.0691429 L61.1170709,90.0575 L60.9841418,90.2694 L59.3796642,88.9025286 L59.5429104,88.6417286 L59.244403,88.4461286 L59.2117537,88.4321571 L59.0811567,88.6463857 L57.4696828,87.2702 L57.630597,87.0094 L57.474347,86.9069429 L57.4393657,86.8906429 L53.7080224,92.9332857 L53.8502799,93.0264286 L53.8875933,93.0334143 L54.0298507,92.8052143 L55.9211754,93.725 L55.7742537,93.9625143 L56.0587687,94.1488 L56.09375,94.1557857 L56.2593284,93.8903286 L58.1436567,94.8077857 L58.0083955,95.0243429 L58.3185634,95.2292571 L58.3512127,95.2339143 L58.5051306,94.9847571 L60.3824627,95.8998857 L60.2472015,96.1187714 L60.5573694,96.3213571 L60.5876866,96.3236857 L60.7439366,96.0745286 L62.6282649,96.9943143 L62.4906716,97.2132 L62.8031716,97.4157857 L62.8288246,97.4157857 L62.9850746,97.1689571 L64.8787313,98.0887429 L64.738806,98.3076286 L65.0536381,98.5125429 L65.0746269,98.5102143 L65.233209,98.2657143 L67.1338619,99.1901571 L66.9939366,99.4067143 L67.3064366,99.6116286 L67.3274254,99.6093 L67.4860075,99.3601429 L69.3913246,100.291571 L69.2513993,100.508129 L69.5102612,100.675786 L64.792444,103.921814 L64.8577425,103.947429 L64.6478545,104.035914 L64.582556,104.068514 L64.5289179,104.1081 L64.4986007,104.154671 L64.4892724,104.208229 L64.5009328,104.259457 L64.53125,104.306029 L64.582556,104.347943 L64.6501866,104.378214 L65.0163246,104.529571 L65.0932836,104.5482 L65.3358209,104.583129 L64.7807836,112.327957 L65.1445896,112.658614 L65.2472015,112.688886 L65.2448694,112.7634 L64.5335821,113.5947 L64.2863806,113.429371 L64.2630597,113.452657 L64.0648321,113.7577 L64.2770522,113.899743 L62.9594216,115.441257 L62.7122201,115.275929 L62.6865672,115.301543 L62.4883396,115.604257 L62.6982276,115.743971 L61.3922575,117.276171 L61.145056,117.110843 L61.1170709,117.138786 L60.9305037,117.427529 L61.1427239,117.567243 L59.8367537,119.099443 L59.5895522,118.936443 L59.5615672,118.964386 L59.4636194,119.115743 L65.0303172,122.808857 L64.8740672,130.3022 L57.8334888,130.3022 L57.7565299,130.418629 L57.4533582,131.766871 L57.4580224,127.105071 L57.4510261,127.102743 L57.4510261,126.248157 L57.3903918,126.248157 L57.3997201,117.993371 L55.8698694,117.993371 L55.8652052,118.2891 L55.8652052,122.5271 L55.7089552,122.329171 L55.3544776,121.958929 L54.9673507,121.632929 L54.5499067,121.348843 L54.2164179,121.167214 L54.2164179,120.727114 L54.1091418,119.725829 L48.9039179,119.725829 L48.9085821,121.106671 L48.4375,121.348843 L47.994403,121.632929 L47.579291,121.958929 L47.3857276,122.149871 L47.369403,118.2891 L47.2108209,117.993371 L45.6809701,117.993371 L45.7276119,126.248157 L45.3824627,126.248157 L45.3847948,127.093429 L45.3498134,127.105071 L45.3708022,130.830786 L45.1212687,130.411643 L44.7341418,130.290557 L38.4375,130.290557 L38.6940299,107.896686 L34.0694963,107.784914 L31.4155784,107.787243 L29.6641791,107.826829 L29.766791,89.6872571 L26.3432836,89.0585429 L26.3432836,89.0399143 L26.2523321,89.0422429 L25.417444,88.8862286 L25.4151119,88.7558286 L24.7341418,88.7604857 L23.6380597,88.5602286 L20.9701493,88.5765286 L15.1632463,89.7734143 L15.1982276,99.0667429 L13.1646455,98.8851143 L10.5317164,98.8944286 L6.18936567,99.4206857 L6.48554104,130.013457 L3.60541045,130.893657 L2.48367537,130.893657 L2.64458955,136.4473 L0.36613806,136.4473 L0.36613806,159.001843 L624.776119,159.001843 L624.776119,136.4473 L624.664179,136.4473 L624.664179,136.4473 Z M354.249067,3.64421429 L354.249067,3.64887143 L354.249067,3.64421429 L354.249067,3.64421429 Z M404.603545,116.638143 L405.606343,116.638143 L405.46875,116.640471 L405.149254,116.645129 L404.603545,116.645129 L404.603545,116.638143 L404.603545,116.638143 Z M403.948228,116.645129 L404.225746,116.640471 L404.307369,116.640471 L404.307369,116.645129 L404.0625,116.645129 L404.001866,116.647457 L403.948228,116.647457 L403.948228,116.645129 L403.948228,116.645129 Z M406.023787,134.456371 L405.841884,134.456371 L405.841884,134.332957 L405.830224,131.452514 L405.277519,131.457171 L405.277519,131.354714 L405.20056,118.1261 L405.415112,118.070214 L405.410448,117.313429 L405.454757,117.257543 L405.506063,117.203986 L405.559701,117.155086 L405.620336,117.110843 L405.683302,117.071257 L405.746269,117.036329 L405.816231,117.008386 L405.883862,116.9851 L405.951493,116.9688 L406.180037,116.950171 L406.180037,116.726629 L406.308302,116.721971 L406.308302,116.6265 L406.061101,116.628829 L405.960821,116.631157 L405.429104,116.631157 L405.429104,116.6265 L405.195896,116.6265 L405.338153,115.019786 L405.897854,113.541143 L406.826026,112.265086 L408.066698,111.282429 L409.521922,110.665357 L410.963153,110.474414 L411.089086,110.476743 L411.217351,110.476743 L412.65625,110.674671 L414.109142,111.294071 L415.349813,112.279057 L416.277985,113.555114 L416.837687,115.0291 L416.993937,116.6265 L415.895522,116.6265 L415.895522,116.719643 L416.023787,116.726629 L416.023787,116.947843 L416.263993,116.971129 L416.315299,116.982771 L416.382929,117.008386 L416.45056,117.034 L416.515858,117.068929 L416.578825,117.106186 L416.632463,117.150429 L416.688433,117.199329 L416.737407,117.252886 L416.784049,117.308771 L416.784049,118.063229 L416.993937,118.123771 L417.003265,131.277871 L417.003265,131.378 L416.455224,131.382657 L416.459888,134.251457 L416.459888,134.372543 L416.277985,134.374871 L416.277985,135.662571 L416.487873,136.4473 L405.846549,136.4473 L406.033116,135.748729 L406.023787,134.456371 L406.023787,134.456371 Z M355.88153,19.3783714 L355.88153,19.3807 L355.876866,19.3783714 L355.88153,19.3783714 L355.88153,19.3783714 Z M350.233209,83.9170571 L350.715951,78.6312 L351.161381,75.8671857 L351.161381,75.8625286 L351.166045,75.8532143 L351.203358,75.6226857 L351.175373,75.6180286 L351.175373,75.6110429 L351.203358,75.6157 L351.203358,75.6087143 L351.175373,75.6040571 L351.180037,75.5784429 L351.208022,75.5831 L351.520522,71.7176714 L351.567164,71.1937429 L351.567164,71.1914143 L351.877332,67.3283143 L351.905317,67.0302571 L351.926306,67.0325857 L351.949627,66.6460429 L351.93097,66.6437143 L351.93097,66.6018 L351.954291,66.6018 L351.954291,66.3922286 L351.968284,66.3922286 L351.993937,65.9917143 L351.972948,65.9893857 L351.977612,65.9474714 L351.993937,65.9474714 L351.993937,65.8915857 L352.213153,63.2090714 L352.222481,63.081 L352.847481,70.8235 L352.861474,71.2007286 L352.880131,71.2007286 L352.880131,71.2263429 L352.866138,71.2286714 L353.029384,73.2498714 L353.138993,75.5924143 L353.229944,75.5854286 L353.234608,75.6389857 L353.152985,75.6529571 L353.262593,76.3468714 L353.29291,76.3422143 L353.29291,76.3445429 L353.262593,76.3468714 L353.32556,76.7543714 L353.320896,76.7543714 L353.516791,79.1900571 L353.498134,79.1877286 L353.435168,79.4508571 L353.540112,79.4741429 L353.544776,79.4974286 L353.54944,79.4974286 L353.54944,79.5067429 L353.558769,79.5044143 L353.558769,79.5137286 L353.640392,79.5067429 L353.661381,79.8164429 L353.584422,79.8234286 L353.584422,79.8490429 L353.666045,79.8443857 L353.666045,79.8467143 L353.570429,79.8537 L353.780317,82.4966286 L353.784981,82.5385429 L354.046175,85.8055286 L354.057836,85.9871571 L352.278451,85.9871571 L352.278451,86.0011286 L352.063899,85.9988 L351.83069,85.9988 L351.83069,85.9871571 L350.046642,85.9871571 L350.233209,83.9170571 L350.233209,83.9170571 Z M348.633396,95.3782857 L355.307836,95.3782857 L355.466418,96.1653429 L355.506063,96.4121714 L358.577425,112.260429 L344.976679,112.260429 L348.633396,95.3782857 L348.633396,95.3782857 Z M335.275187,133.564529 L335.377799,133.455086 L335.347481,133.424814 L335.461754,133.205929 L335.52472,133.231543 L335.811567,132.581871 L335.79291,132.572557 L335.834888,132.493386 L335.888526,132.521329 L337.150187,130.004143 L337.091884,129.973871 L337.192164,129.810871 C337.411381,127.2215 344.321362,122.000843 352.159515,122.000843 C358.062034,122.000843 362.831157,124.958129 364.909049,127.524214 L364.920709,127.507914 L364.927705,127.510243 L364.909049,127.524214 C365.63666,128.425371 366.03778,129.2753 366.03778,129.934286 L366.480877,130.842429 L366.366604,130.898314 L366.644123,131.466486 L366.688433,131.445529 L366.721082,131.499086 L366.676772,131.527029 L367.026586,132.104514 L367.080224,132.069586 L367.5,132.9265 C367.481343,132.949786 367.462687,132.970743 367.446362,132.998686 L367.318097,132.998686 L367.318097,133.210586 C367.070896,133.657671 366.916978,134.2305 366.916978,134.863871 C366.916978,135.080429 366.940299,135.285343 366.970616,135.483271 L366.970616,135.629971 L366.998601,135.629971 C367.026586,135.751057 367.054571,135.869814 367.089552,135.983914 L367.063899,135.997886 L367.154851,136.165543 C367.189832,136.265671 367.236474,136.356486 367.280784,136.4473 L335.506063,136.4473 C335.576026,136.163214 335.615672,135.8605 335.615672,135.541486 C335.615672,134.859214 335.443097,134.242143 335.160914,133.783414 L335.275187,133.564529 L335.275187,133.564529 Z M84.2630597,112.879829 L84.84375,112.5515 L84.7877799,111.6061 L86.016791,112.653957 L85.8512127,112.900786 L85.858209,112.921743 L86.1753731,113.126657 L86.3199627,112.914757 L87.943097,114.297929 L87.7751866,114.542429 L87.786847,114.568043 L88.1040112,114.775286 L88.2486007,114.563386 L89.869403,115.944229 L89.7014925,116.1864 L89.7154851,116.214343 L90.0186567,116.4146 L90.1679104,116.200371 L91.798041,117.590529 L91.6301306,117.8327 L91.6441231,117.862971 L91.8050373,117.967757 L95.7346082,112.320971 L95.78125,124.753214 L94.7294776,124.764857 L94.7294776,124.788143 L91.744403,124.788143 L89.6152052,124.806771 L89.6222015,126.5043 L89.1184701,127.549829 L84.4239739,127.603386 L84.2583955,112.879829 L84.2630597,112.879829 L84.2630597,112.879829 Z" id="Fill-1" sketch:type="MSShapeGroup"></path>
            </g>
        </g>
    </g>
</svg>