<?xml version="1.0" encoding="UTF-8" standalone="no"?>
<svg width="116px" height="116px" viewBox="0 0 116 116" version="1.1" xmlns="http://www.w3.org/2000/svg" xmlns:xlink="http://www.w3.org/1999/xlink" xmlns:sketch="http://www.bohemiancoding.com/sketch/ns">
    <!-- Generator: Sketch 3.0.4 (8054) - http://www.bohemiancoding.com/sketch -->
    <title>piramids</title>
    <desc>Created with Sketch.</desc>
    <defs></defs>
    <g id="Page-1" stroke="none" stroke-width="1" fill="none" fill-rule="evenodd" sketch:type="MSPage">
        <g id="piramids" sketch:type="MSArtboardGroup" fill="#000000">
            <path d="M115.025562,67.3814 C113.797308,67.7384 111.74568,67.39772 112.829675,67.8302 C113.269941,68.00564 110.972663,68.10084 110.348669,68.17972 C108.552899,68.41432 109.999586,67.89548 105.653402,68.24772 C104.534704,68.4898 103.569112,68.68292 103.165592,68.72304 C99.2657988,69.09092 97.0746746,69.7716 95.2476036,70.10752 L95.3952663,70.14968 L95.5381657,70.26596 L95.5810355,70.48356 L95.7967456,70.76644 C95.7967456,70.76644 96.5092012,70.9616 97.5312722,71.0636 C98.5513018,71.16424 96.3935207,71.98772 93.5130769,71.94692 C90.6360355,71.90612 90.5400888,72.93496 87.5269527,72.76292 C84.9098521,72.61604 80.8120414,75.02324 73.0498817,75.30816 C67.5380473,75.5142 64.2221006,76.32 61.5614497,76.59132 C60.7448817,76.67292 59.1444083,76.67972 57.8739645,76.57432 C57.1928107,76.51584 52.9337278,75.4394 52.1253254,75.3272 C51.318284,75.2116 48.6270118,74.20248 47.6491716,74.15896 C46.6706509,74.11136 44.8544675,73.4708 44.1052663,73.31508 C42.0427515,72.88396 39.6556509,72.14684 39.6556509,71.87416 C39.6556509,71.36076 39.8400592,71.53688 40.1435503,71.30432 L40.1435503,71.17036 L40.3715089,71.14928 L40.4606509,70.88544 L40.598787,70.863 L40.6205621,70.71952 L40.9839349,70.6726 L41.0547041,70.31424 L41.300355,70.31424 L41.2799408,70.0062 L41.4623077,70.0062 L41.467071,69.97016 C36.2478402,70.33804 28.0181953,70.81404 27.1737278,70.81404 C26.8471006,70.81404 21.750355,70.16736 17.7920414,69.62336 L17.8349112,69.98104 L18.0356509,70.0028 L18.0819231,70.32784 L19.5163609,70.35096 L19.7136982,70.50056 C19.7136982,70.50056 19.7613314,71.19144 19.7865089,71.339 C19.8123669,71.48724 20.2573964,71.53688 20.2573964,71.53688 L20.2832544,72.10536 L20.5792604,72.27808 C20.5792604,72.27808 20.6051183,72.74932 20.652071,72.8962 C20.703787,73.04512 21.1222781,73.3178 21.1222781,73.3178 L21.1467751,74.08416 L21.495858,74.28136 C21.495858,74.28136 21.9769527,74.68936 22.3845562,74.72676 C22.7921598,74.76212 23.3113609,74.94912 23.3113609,74.94912 C23.3113609,74.94912 22.3471302,74.98584 21.9034615,75.096 C21.4563905,75.20752 18.3214497,74.8546 18.4337278,75.00624 C18.5500888,75.16264 19.296568,75.34216 19.1107988,75.34216 C18.9257101,75.34216 17.3368047,75.55432 17.1530769,75.55432 C16.9659467,75.55432 14.787071,75.53052 14.787071,75.53052 L15.0538166,74.98584 C15.0538166,74.98584 15.2776923,74.76212 15.4614201,74.68936 C15.6478698,74.61524 16.3521598,74.46564 16.3521598,74.46564 C16.3521598,74.46564 16.6406805,74.3004 16.7876627,74.18956 C16.9366864,74.07804 17.0122189,73.9672 17.0122189,73.9672 C17.0122189,73.9672 17.8117751,73.76592 17.9601183,73.76592 C18.1098225,73.76592 19.0590828,73.5388 19.0590828,73.5388 L18.1703846,73.6136 L17.6872485,73.6136 L17.2428994,73.838 L16.7230178,73.9094 L16.5011834,74.05832 L16.0547929,74.09504 L16.0547929,74.35684 L15.8343195,74.3922 L15.6573964,74.5622 L15.284497,74.5622 L14.9810059,74.46564 L14.775503,74.9464 L14.4400296,74.9464 L14.3502071,74.79068 L14.0528402,74.89404 L14.0827811,75.113 L13.7745266,75.29184 C12.4401183,75.33128 11.8242899,75.73656 10.3102367,75.79844 C7.75914201,75.90112 7.24198225,75.2286 6.25257396,75.17556 C5.26452663,75.12252 3.44357988,74.65332 2.84816568,74.68936 L1,74.60368 L1.57227811,74.34256 L1.8485503,73.58776 L2.07923077,73.14576 L2.42763314,72.99548 L2.45076923,72.64936 L2.32692308,72.55008 L2.32692308,71.90816 C2.32692308,71.90816 2.50044379,71.68648 2.5997929,71.58924 C2.69778107,71.48724 2.79304734,71.29072 2.79304734,71.29072 C3.06251479,71.29072 3.31837278,71.02008 3.31837278,71.02008 L3.36940828,70.64948 L3.29523669,70.30268 L3.31837278,69.83144 L3.76612426,69.53632 L3.84029586,69.33776 L4.08662722,69.24052 L4.26014793,69.04196 L4.16011834,68.79376 L4.18529586,68.6224 L4.70381657,68.49932 L5.12502959,68.17768 L5.17470414,67.88188 L5.57073964,67.88188 L6.11511834,67.68468 C6.11511834,67.68468 5.96677515,67.68468 5.96677515,67.58336 C5.96677515,67.48612 5.98991124,67.25968 5.98991124,67.25968 L6.36008876,67.21344 L6.38594675,67.0652 L6.68467456,66.96524 L6.73162722,66.4464 L6.90446746,66.3478 L6.93236686,65.95204 L7.10452663,65.77796 L7.64618343,65.77796 L7.69721893,65.60592 L7.99526627,65.50664 L8.09325444,65.13604 L9.10920118,65.1238 L9.28204142,65.34548 L9.57872781,65.049 L11.0594379,65.0898 C11.0594379,65.0898 12.0474852,65.01228 12.2720414,65.01228 C12.4945562,65.01228 12.5932249,65.01228 12.7660651,65.06464 C12.9389053,65.1136 13.3607988,65.50664 13.3607988,65.50664 C13.3607988,65.50664 13.8058284,65.70588 13.9541716,65.75348 C14.0991124,65.80312 14.3495266,65.90308 14.3495266,65.90308 L14.4985503,66.22472 L14.6448521,66.3478 L14.696568,66.57084 L14.6448521,66.7184 L14.7455621,66.7932 L14.7564497,66.95368 L14.8653254,66.93464 L14.8816568,66.68984 L15.1007692,66.65108 L15.1912722,66.426 L15.3913314,66.35188 L15.3913314,66.12476 L15.5907101,66.06968 L15.6662426,65.73172 L15.9186982,65.71336 L15.9377515,65.46992 L16.0888166,65.45156 L16.1242012,65.14828 L16.3705325,65.11156 L16.3868639,64.86608 L16.6148225,64.82868 L16.7094083,64.60428 L16.9155917,64.52812 L16.9155917,64.30508 L17.1210947,64.24728 L17.1993491,63.91 L17.4613314,63.8896 L17.5525148,63.68492 L17.7995266,63.64548 L17.8553254,63.41972 L18.0057101,63.41972 L18.0438166,63.15588 L18.3806509,63.11916 L18.4378107,62.87572 L18.5330769,62.85736 L18.5875148,62.6486 L18.7576331,62.6486 L18.7576331,62.49968 L18.9651775,62.44324 L18.9828698,62.25556 L19.0774556,62.23856 L19.0774556,62.06856 L19.3401183,62.01212 L19.3401183,61.84348 L19.4537574,61.84348 L19.4537574,61.63676 L19.6395266,61.61704 L19.7157396,61.40964 L19.8286982,61.3906 L19.848432,61.2784 L20.1478402,61.24168 L20.2043195,60.96084 L20.4125444,60.96084 L20.3928107,60.71672 L20.5431953,60.71672 L20.561568,60.50864 L20.8242308,60.45288 L20.8439645,60.22576 L21.0134024,60.20944 L21.0331361,60.05712 L21.2209467,60.01904 L21.2583728,59.77492 L21.4638757,59.72052 L21.5210355,59.43832 L21.7081657,59.4186 L21.7462722,59.1942 L21.9905621,59.1568 L21.9905621,59.00788 L22.2368935,58.94872 L22.3097041,58.72432 L22.4600888,58.66788 L22.5172485,58.44212 L22.6492604,58.38636 L22.6676331,58.25376 L22.837071,58.23744 L22.874497,58.1402 L23.0065089,58.12252 L23.0065089,57.93348 L23.2133728,57.87704 L23.232426,57.65128 L23.3630769,57.61592 L23.4372485,57.46428 L23.6250592,57.46428 L23.6250592,57.297 L23.8142308,57.25892 L23.9074556,56.99576 L24.1170414,56.92096 L24.1347337,56.71288 L24.2851183,56.67548 L24.3232249,56.48848 L24.5083136,56.43204 L24.5852071,56.26612 L24.7539645,56.24504 L24.7539645,56.09408 L24.9621893,56.03696 L24.9621893,55.83024 L25.2241716,55.7738 L25.2820118,55.5868 L25.2615976,55.47596 L25.5644083,55.47596 L25.5991124,55.21212 L25.7685503,55.15568 L25.8080178,54.92992 L26.031213,54.87416 L26.1094675,54.55524 L26.2584911,54.5362 L26.3537574,54.40428 L26.4469822,54.38456 L26.5408876,54.1962 L26.7103254,54.12276 L26.747071,53.87796 L26.9723077,53.85688 L27.0471598,53.61412 L27.2560651,53.57672 L27.309142,53.2748 L27.4983136,53.24012 L27.667071,52.97764 L27.8950296,52.84368 L27.9324556,52.71244 L28.0835207,52.69204 L28.1189053,52.46696 L28.382929,52.42956 L28.4407692,52.22352 L28.6836982,52.16708 L28.753787,51.9828 L28.9851479,51.942 L29.0327811,51.69312 L29.1729586,51.59452 L29.3423964,51.58092 L29.4260947,51.25656 L29.7234615,51.20148 L29.7792604,50.80572 C29.7792604,50.80572 30.0167456,50.83156 30.0745858,50.76492 C30.1303846,50.69352 30.2562722,50.56636 30.2562722,50.56636 L30.567929,50.49632 L30.6386982,50.2828 L30.7394083,50.25628 L30.7516568,50.1298 L31.0878107,50.1298 L31.1606213,50.29912 L31.2613314,50.35692 L31.3164497,50.2828 L31.7247337,50.29912 L31.8376923,50.45348 L31.9363609,50.43852 L31.9928402,50.56636 L32.0908284,50.60784 L32.2044675,50.77648 L32.3589349,50.86148 L32.4848225,51.04576 L32.5004734,51.14368 L32.74,51.21372 L32.8522781,51.36944 L33.0067456,51.38372 L33.0366864,51.55168 L33.1489645,51.55168 L33.1748225,51.65096 L33.3463018,51.67816 L33.4177515,51.81892 L33.5865089,51.84816 L33.6423077,52.15688 L33.8246746,52.1732 L33.865503,52.35408 L34.0363018,52.39692 L34.2193491,52.53904 L34.4037574,52.59412 L34.5718343,52.77772 L34.6861538,52.9042 L34.7977515,53.05992 L34.9093491,53.10072 L34.9528994,53.2578 L35.2073964,53.285 L35.2495858,53.59372 L35.5605621,53.66716 L35.6435799,53.82152 L35.8552071,53.84872 L35.9259763,54.00376 L36.0824852,54.07584 L36.2083728,54.22952 L36.4751183,54.35804 L36.4900888,54.46888 L36.7302959,54.54028 L36.8003846,54.73476 L36.9698225,54.79528 L37.0242604,54.9748 L37.2372485,55.07544 L37.3440828,55.2876 L37.5305325,55.35356 L37.5189645,55.53036 L37.7462426,55.60652 L37.8013609,55.81256 L37.9891716,55.86832 L38.0640237,56.14848 L38.4015385,56.31712 L38.4212722,56.5082 L38.6839349,56.63944 L38.7438166,56.84616 L39.0057988,57.03316 L39.0241716,57.25892 L39.269142,57.39016 L39.2861538,57.59552 L39.4943787,57.61592 L39.550858,57.9158 L39.7196154,58.01168 L39.6998817,58.12252 L40.0373964,58.2728 L40.0203846,58.5176 L40.3197929,58.59172 L40.3953254,58.92968 L40.7165089,59.04256 L40.6967751,59.1942 L40.8655325,59.1942 L41.0928107,59.28804 L41.2411538,59.40092 L41.4493787,59.36216 L41.5616568,59.64436 L41.9372781,59.70012 L41.9930769,60.00204 L42.2196746,60.01904 L42.2577811,60.22576 L42.5762426,60.24684 L42.6905621,60.34 L42.6701479,60.56576 L42.8389053,60.79152 L43.2546746,60.90304 L43.3091124,61.16824 L43.4969231,61.16824 L43.7214793,61.3362 L43.7214793,61.52184 L44.0433432,61.65376 L44.0807692,61.91692 L44.2488462,61.91692 L44.4373373,62.12364 L44.6163018,62.12364 L44.8143195,62.33104 L45.020503,62.36164 L45.0871893,62.51396 L45.2355325,62.58536 L45.3600592,62.73904 L45.6193195,62.86688 L45.6091124,62.93556 L45.8404734,63.00356 L45.8751775,63.1994 L46.130355,63.29596 L46.1426036,63.485 L46.3657988,63.54892 L46.3855325,63.6584 L46.6577219,63.7332 L46.7271302,63.91612 L46.8033432,63.93652 L46.8033432,63.82228 L47.1197633,63.74952 L47.1898521,63.51288 L47.166716,63.37008 L47.5321302,63.37008 L47.5770414,63.03552 L47.7811834,62.96548 L47.8254142,62.68124 L48.0976036,62.60712 L48.1193787,62.29772 L48.2969822,62.27392 L48.3391716,61.89584 L48.6270118,61.84756 L48.6467456,61.53816 L48.9128107,61.49192 L49.0216864,61.20428 L49.2605325,61.11044 L49.2605325,60.82484 L49.505503,60.75072 L49.5905621,60.32504 L49.900858,60.30056 L50.0110947,60.03808 L50.2968935,59.99116 L50.3601775,59.70692 L50.5364201,59.70692 L50.5820118,59.37168 L50.9766864,59.3234 L51.0420118,59.0174 L51.1522485,58.99156 L51.2189349,58.7284 L51.4155917,58.7284 L51.4155917,58.5414 L51.6564793,58.46864 L51.6789349,58.23064 L51.7884911,58.2082 L51.7884911,57.99264 L52.0967456,57.92328 L52.0967456,57.7084 L52.2294379,57.7084 L52.2294379,57.4466 L52.4471893,57.42348 L52.5356509,57.16032 L52.6669822,57.1338 L52.6901183,56.99372 L53.0385207,56.9468 L53.106568,56.59048 L53.349497,56.59048 L53.3270414,56.27972 L53.5026036,56.27972 L53.5257396,56.01724 L53.8326331,55.94584 L53.8544083,55.65956 L54.0510651,55.63644 L54.0735207,55.44876 L54.295355,55.39912 L54.3361834,55.0904 L54.5777515,55.01968 L54.6444379,54.66336 L54.8649112,54.6382 L54.9071006,54.35328 L55.1942604,54.30704 L55.1942604,54.11392 L55.4793787,54.04524 L55.5664793,53.75896 L55.7420414,53.68552 L55.8094083,53.40196 L55.9625148,53.3326 L55.9870118,53.16328 L56.1823077,53.13948 L56.225858,53.02048 L56.3789645,52.99736 L56.3789645,52.76004 L56.6205325,52.68796 L56.6429882,52.40236 L56.7981361,52.35408 L56.8845562,52.16436 L57.1043491,52.16436 L57.1043491,51.95084 L57.3248225,51.90256 L57.4350592,51.57004 L57.6773077,51.47212 L57.6977219,51.21236 L57.8739645,51.16476 L57.9188757,50.9288 L58.1386686,50.85536 L58.2264497,50.6432 L58.422426,50.61804 L58.422426,50.42832 L58.665355,50.35692 L58.665355,50.0958 L58.9722485,50.02304 L59.0382544,49.78572 L59.0151183,49.6436 L59.368284,49.6436 L59.4111538,49.30836 L59.6098521,49.239 L59.6520414,48.95204 L59.917426,48.882 L60.0031657,48.47536 L60.1807692,48.45224 L60.2903254,48.28496 L60.3998817,48.26184 L60.5087574,48.02656 L60.7067751,47.93136 L60.8483136,47.62264 L61.017071,47.59476 L61.1803846,47.29624 L61.3450592,47.24048 L61.5083728,46.87192 L61.6301775,46.81208 L61.8281953,46.47888 L62.0901775,46.31296 L62.1344083,46.145 L62.1745562,46.12188 L62.2875148,45.97908 L62.3344675,45.97908 L62.3501183,45.8696 L62.4596746,45.86008 L62.5923669,45.63024 L62.8080769,45.56632 L62.960503,45.23448 L63.1626036,45.17056 L63.2837278,44.88564 L63.3823964,44.72992 L63.5783728,44.7136 L63.7273964,44.29336 L63.8852663,44.22944 L63.9961834,43.95336 C63.9961834,43.95336 64.1669822,43.90644 64.2295858,43.82076 C64.2955917,43.73304 64.5140237,43.42908 64.5140237,43.42908 L64.7392604,43.33932 L64.8712722,43.09112 L65.0726923,43.03672 L65.0883432,43.01836 L65.3823077,43 L65.6810355,43.1598 L65.8511538,43.15232 L65.9477811,43.28424 L66.0627811,43.2924 L66.1308284,43.42908 L66.2451479,43.48144 L66.3764793,43.69564 L66.5581657,43.80444 L66.7044675,44.0336 L66.7221598,44.15872 L67.0038757,44.24984 L67.1358876,44.44636 L67.3168935,44.46132 L67.3488757,44.6762 L67.481568,44.6762 L67.5135503,44.802 L67.7122485,44.83804 L67.7939053,45.01688 L67.9926036,45.05156 L68.057929,45.44256 L68.2709172,45.46092 L68.3219527,45.69416 L68.517929,45.74788 L68.7336391,45.92604 L68.9473077,45.99744 L69.1460059,46.23068 L69.2786982,46.38844 L69.4079882,46.5836 L69.6257396,46.64004 L69.7434615,46.8352 L70.0231361,46.8896 L70.0721302,47.28128 L70.2987278,47.35336 L70.396716,47.5492 L70.6437278,47.58592 L70.7260651,47.78312 L70.9077515,47.87084 L71.0560947,48.06668 L71.3704734,48.22716 L71.3854438,48.37064 L71.6637574,48.45904 L71.6936982,49.06016 L72.0019527,49.1846 L72.0448225,49.409 L72.3156509,49.49128 L72.3006805,49.715 L72.6259467,49.80952 L72.708284,50.06996 L72.9825148,50.1434 L73.092071,50.49972 L73.5840533,50.71256 L73.6126331,50.94988 L74.1325148,51.1192 L74.2134911,51.37964 L74.5945562,51.61696 L74.6217751,51.90256 L74.9797041,52.07052 L75.0069231,52.33028 L75.3097337,52.35408 L75.3913905,52.73488 L75.6370414,52.85456 L75.6084615,52.99736 L76.2378994,53.11636 L76.2113609,53.42576 L76.694497,53.47268 L76.8428402,53.73312 L77.0354142,53.87796 L77.0075148,54.06768 L77.2538462,54.06768 L77.5831953,54.18532 L77.6478402,54.42332 L77.8608284,54.42332 L78.0044083,54.78236 L78.4834615,54.85172 L78.5562722,55.2332 L78.843432,55.25632 L78.8910651,55.51812 L79.2993491,55.54192 L79.4449704,55.65956 L79.4204734,55.94584 L79.6348225,56.23076 L80.1621893,56.37424 L80.2322781,56.70608 L80.4745266,56.70608 L80.7610059,56.92096 L80.7610059,57.16032 L81.1692899,57.3276 L81.218284,57.6608 L81.4319527,57.6608 L81.6728402,57.92328 L81.9198521,57.95728 L82.0021893,58.15448 L82.1825148,58.24288 L82.3322189,58.4394 L82.6445562,58.5992 L82.6343491,58.6842 L82.9119822,58.77328 L82.956213,59.0174 L83.2631065,59.14252 L83.2773964,59.38256 L83.5468639,59.46416 L83.5713609,59.60084 L83.9013905,59.6974 L83.9837278,59.92928 L84.2579586,60.00068 L84.3960947,60.31416 L84.8860355,60.527 L84.8860355,60.68136 L85.4181657,60.96356 L85.4270118,60.87856 L85.5712722,60.83368 L85.652929,60.65416 L85.8591124,60.65416 L85.8591124,60.44948 L86.0673373,60.40392 L86.1694083,60.08908 L86.394645,59.99932 L86.4157396,59.74908 L86.5810947,59.70488 L86.6205621,59.4764 L86.8281065,59.41112 L86.9104438,59.20712 L87.0941716,59.184 L87.0941716,59.00312 L87.3228107,58.9358 L87.3228107,58.6876 L87.6106509,58.62028 L87.6718935,58.39384 L87.6535207,58.25784 L87.9821893,58.25784 L88.0216568,57.943 L88.2094675,57.87432 L88.2489349,57.603 L88.4973077,57.53568 L88.5803254,57.15216 L88.7429586,57.12904 L88.8463905,56.96924 L88.9511834,56.9468 L89.052574,56.72308 L89.2397041,56.63264 L89.3710355,56.33888 L89.5268639,56.31644 L89.6820118,56.03152 L89.8378402,55.97576 L89.9909467,55.6242 L90.1045858,55.56844 L90.2889941,55.2536 L90.5360059,55.09652 L90.5795562,54.93808 L90.6135799,54.917 L90.7190533,54.7776 L90.763284,54.7776 L90.7782544,54.67288 L90.8810059,54.6654 L90.993284,54.35124 L91.1463905,54.31928 L91.286568,54.00376 L91.4750592,53.94324 L91.5907396,53.67192 L91.6826036,53.5264 L91.8670118,53.5094 L91.9935799,53.17552 L92.220858,53.11976 L92.3249704,52.85456 C92.3249704,52.85456 92.4814793,52.81036 92.5434024,52.72944 C92.604645,52.6424 92.807426,52.28744 92.807426,52.28744 L93.0197337,52.27248 L93.1428994,52.03652 L93.3327515,51.9828 L93.3490828,51.96716 L93.6239941,51.95084 L93.9063905,52.10044 L94.0635799,52.09296 L94.1847041,52.17524 L94.3881657,52.20516 L94.4902367,52.33776 L94.6821302,52.36564 L94.7338462,52.56896 L94.9522781,52.62404 L95.0795266,52.77364 L95.2067751,52.85456 L95.3217751,52.97764 L95.4789645,53.00212 L95.5395266,53.13472 L95.6504438,53.18436 L95.7736095,53.25372 L95.9430473,53.3564 L96.0818639,53.5094 L96.0947929,53.62432 L96.3581361,53.70932 L96.4840237,53.89904 L96.6527811,53.91468 L96.6834024,54.118 L96.8072485,54.118 L96.8378698,54.23564 L97.0243195,54.271 L97.1046154,54.43828 L97.2876627,54.47228 L97.3495858,54.57564 L97.5510059,54.59196 L97.5959172,54.8116 L97.7830473,54.8626 L97.982426,55.0326 L98.0572781,55.09992 L98.2416864,55.32024 L98.3648521,55.47596 L98.4886982,55.65956 L98.6921598,55.71192 L98.8023964,55.89688 L99.0650592,55.94924 L99.1120118,56.11788 L99.3236391,56.18588 L99.4148225,56.36948 L99.645503,56.40552 L99.7237574,56.59116 L99.8938757,56.67548 L100.033373,56.86452 L100.326657,57.0148 L100.31713,57.09572 L100.579793,57.1814 L100.617899,57.4126 L100.907101,57.5316 L100.921391,57.75872 L101.175888,57.83488 L101.199024,57.9668 L101.506598,58.0552 L101.585533,58.27756 L101.841391,58.34624 L101.968639,58.64816 L102.432041,58.8474 L102.432041,58.99156 L102.931509,59.26084 L103.021331,59.5206 L103.380621,59.74704 L103.380621,59.89528 L103.714053,60.05372 L103.739231,60.30396 L104.022308,60.32572 L104.099201,60.68544 L104.523136,60.799 L104.497278,60.93568 L104.894675,61.04788 L104.998107,61.34164 L105.193402,61.38788 L105.334941,61.63744 L105.577189,61.77072 L105.643195,61.93936 L105.681982,61.93936 L105.900414,62.06448 L105.962337,62.29432 L106.162396,62.29432 L106.29645,62.63228 L106.747604,62.69756 L106.813609,63.06068 L107.083077,63.08176 L107.127988,63.3286 L107.444408,63.41972 L107.581183,63.53532 L107.622012,63.7366 L107.826834,64.00792 L108.256213,64.16024 L108.386183,64.46012 L108.612781,64.46012 L108.881568,64.66412 L108.881568,64.8892 L109.266036,65.04628 L109.309586,65.3652 L109.513047,65.3652 L109.736243,65.61476 L109.715148,65.88404 L109.907722,66.15672 L110.376568,66.28932 L110.439172,66.6062 L110.653521,66.6062 L110.909379,66.81156 L110.909379,66.90268 C111.523166,66.92512 111.962071,66.94484 112.164852,66.96048 C113.058994,67.02508 115.682899,67.19236 115.025562,67.3814" id="Imported-Layers" sketch:type="MSShapeGroup"></path>
        </g>
    </g>
</svg>