<?xml version="1.0" encoding="UTF-8" standalone="no"?>
<svg width="60px" height="60px" viewBox="0 0 60 60" version="1.1" xmlns="http://www.w3.org/2000/svg" xmlns:xlink="http://www.w3.org/1999/xlink" xmlns:sketch="http://www.bohemiancoding.com/sketch/ns">
    <!-- Generator: Sketch 3.0.4 (8054) - http://www.bohemiancoding.com/sketch -->
    <title>sballoon5</title>
    <desc>Created with Sketch.</desc>
    <defs></defs>
    <g id="Page-1" stroke="none" stroke-width="1" fill="none" fill-rule="evenodd" sketch:type="MSPage">
        <g id="sballoon5" sketch:type="MSArtboardGroup" stroke="#181818" fill="#F0F0F0">
            <ellipse id="Oval-2" sketch:type="MSShapeGroup" cx="35" cy="20" rx="22" ry="17"></ellipse>
            <path d="M17.5,44 C19.9852814,44 22,41.9852814 22,39.5 C22,37.0147186 19.9852814,35 17.5,35 C15.0147186,35 13,37.0147186 13,39.5 C13,41.9852814 15.0147186,44 17.5,44 Z" id="Oval-3" sketch:type="MSShapeGroup"></path>
            <path d="M11,51 C12.6568542,51 14,49.6568542 14,48 C14,46.3431458 12.6568542,45 11,45 C9.34314575,45 8,46.3431458 8,48 C8,49.6568542 9.34314575,51 11,51 Z" id="Oval-5" sketch:type="MSShapeGroup"></path>
            <path d="M6,57 C7.1045695,57 8,56.1045695 8,55 C8,53.8954305 7.1045695,53 6,53 C4.8954305,53 4,53.8954305 4,55 C4,56.1045695 4.8954305,57 6,57 Z" id="Oval-4" sketch:type="MSShapeGroup"></path>
        </g>
    </g>
</svg>