<?xml version="1.0" encoding="UTF-8" standalone="no"?>
<svg width="241px" height="241px" viewBox="0 0 241 241" version="1.1" xmlns="http://www.w3.org/2000/svg" xmlns:xlink="http://www.w3.org/1999/xlink" xmlns:sketch="http://www.bohemiancoding.com/sketch/ns">
    <!-- Generator: Sketch 3.0.4 (8054) - http://www.bohemiancoding.com/sketch -->
    <title>taipei0</title>
    <desc>Created with Sketch.</desc>
    <defs></defs>
    <g id="Page-1" stroke="none" stroke-width="1" fill="none" fill-rule="evenodd" sketch:type="MSPage">
        <g id="taipei0" sketch:type="MSArtboardGroup" fill="#000000">
            <path d="M238.665665,224.314063 L238.66341,224.314063 L238.665665,223.820838 L238.690475,215.003875 L238.656644,214.911112 L238.566428,214.81835 L238.419827,214.725587 L238.214586,214.635088 L237.959727,214.54685 L237.655248,214.460875 L237.303406,214.3749 L236.906457,214.295713 L236.471165,214.218787 L227.154126,214.241412 L227.190212,189.344862 L225.464835,189.340338 L225.476112,180.625187 L219.183558,180.604825 L219.057255,181.018863 L216.984547,181.012075 L216.691345,182.4465 L216.691345,183.74065 L207.759978,183.7135 L207.755468,183.697663 L207.617888,183.2248 L207.617888,181.394438 L207.223194,179.8763 L205.141464,179.869512 L205.03546,179.57765 L205.17755,179.426063 L205.488795,178.7722 L205.441432,178.6274 L205.391813,178.47355 L205.166273,178.32875 L204.940734,178.177163 L204.548295,178.041413 L204.151345,177.9034 L203.614561,177.790275 L203.073266,177.674888 L202.430478,177.591175 L201.780924,177.507462 L201.074986,177.45995 L200.366791,177.416963 L199.656342,177.412437 L198.943637,177.410175 L198.282806,177.448637 L197.62423,177.489362 L197.062637,177.56855 L196.505554,177.645475 L196.088306,177.7586 L195.675568,177.871725 L195.427475,178.005212 L195.183892,178.1387 L195.118486,178.288025 L195.055335,178.435088 L195.377856,179.113838 L195.587608,179.385337 L195.910129,179.543713 L196.302568,180.602562 L198.659457,186.957925 L198.663968,189.286037 L196.961144,189.281513 L197.015273,214.307025 L192.533802,214.316075 L192.969094,180.226987 L191.424147,180.22925 L191.424147,180.134225 L187.055446,180.13875 L187.026126,180.1297 L186.647219,180.086712 L186.074349,180.050512 L185.343601,180.025625 L184.509104,180.009788 L183.6295,180.009788 L182.770194,180.023362 L181.994338,180.04825 L181.356061,180.082188 L180.902727,180.127437 L180.803489,180.143275 L176.705435,180.152325 L176.707691,180.251875 L175.038698,180.254138 L175.142446,213.313787 L170.315899,213.291162 L170.293345,198.931075 L168.513838,198.931075 L168.486773,190.901463 L158.452518,190.8087 L158.457029,189.7227 L158.087144,189.56885 L157.090259,189.435362 L155.588165,189.3426 L153.801892,189.3064 L149.818863,189.299612 L149.818863,188.876525 L149.744435,188.433075 L142.935396,188.417237 L142.944417,189.2883 L140.73864,189.283775 L140.628126,189.184225 L139.362849,189.181962 L139.362849,189.281513 L138.668187,189.27925 L138.681719,185.996362 L137.966759,185.989575 L137.966759,185.89455 L137.028514,185.87645 L137.028514,185.770112 L136.160187,185.765587 L136.160187,185.645675 L127.231076,185.593637 L127.22882,183.690875 L127.188223,183.589063 L126.892766,183.489512 L126.360493,183.399012 L125.733493,183.335663 L125.731237,182.007575 L125.697406,181.937437 L125.516975,181.871825 L125.194453,181.810737 L124.756906,181.760963 L124.502047,181.745125 L124.499791,180.143275 L124.484004,180.113862 L124.409576,180.082188 L124.281018,180.0573 L124.109608,180.034675 L123.899856,180.018838 L123.676572,180.009788 L123.446522,180.01205 L123.230004,180.0211 L123.04055,180.036937 L122.89395,180.059562 L122.794712,180.086712 L122.756371,180.118387 L122.760881,181.720237 L122.515043,181.73155 L122.036899,181.765488 L121.662504,181.819788 L121.423432,181.880875 L121.328705,181.94875 L121.335471,183.313038 L120.997162,183.335663 L120.372417,183.412587 L119.979978,183.503087 L119.833378,183.6049 L119.844655,185.901338 L119.501835,185.933013 L119.373277,185.955637 L119.373277,185.935275 L119.276295,185.933013 L119.269529,185.935275 L119.269529,185.976 L119.007903,186.023512 L118.836493,186.1208 L118.850025,188.939875 L116.903619,188.933087 L116.910385,190.010038 L117.014133,209.082912 L114.758737,209.727725 L114.758737,209.845375 L114.438471,209.951713 L114.388853,209.951713 L114.388853,209.96755 L114.140759,210.051262 L114.138504,210.372537 L113.353626,210.372537 L113.353626,209.89515 L113.00855,209.793337 L113.00855,209.463013 L111.743273,209.024088 L105.459741,209.030875 L105.466507,209.8318 L101.194788,209.836325 L101.203809,210.6644 L97.8748453,210.6644 L97.8432698,207.444862 L97.6966691,207.39735 L97.6650935,204.245688 L97.3425719,204.191387 L97.3132518,201.195837 L96.6276115,201.175475 L92.8047158,201.175475 L92.5453453,162.459575 L92.4370863,162.457313 L92.4258094,160.450475 L92.3175504,160.450475 L92.304018,158.38255 L91.6567194,158.375763 L91.654464,157.819187 L91.352241,157.814662 L91.3432194,156.430012 L90.736518,156.420963 L90.7320072,155.5499 L89.9629173,155.538588 L89.9606619,155.2422 L89.7463993,155.239937 L89.8681906,154.832687 L89.8659353,154.411862 L88.8261978,154.396025 L88.8194317,153.1607 L87.5338561,153.140337 L87.5203237,149.67645 L86.5843345,149.660612 L85.3596547,148.140213 L85.3551439,145.8664 L85.3551439,145.789475 L85.3528885,145.782688 L85.3506331,145.778163 L85.3461223,145.7759 L85.3371007,145.771375 L85.3303345,145.769113 L85.3190576,145.764588 L85.3077806,145.764588 L85.2965036,145.762325 L85.2626727,145.762325 L85.2513957,145.764588 L85.2423741,145.76685 L85.2333525,145.769113 L85.2243309,145.773638 L85.2175647,145.778163 L85.2107986,145.780425 L85.2085432,145.78495 L85.2062878,145.791738 L85.2107986,148.151525 L84.153018,149.619888 L83.332054,149.608575 L83.2395827,150.25565 L83.2395827,150.470587 L83.2102626,150.470587 L83.1223022,151.0973 L83.1223022,153.074725 L82.2043561,153.058887 L82.0757986,154.063438 L82.0757986,154.262538 L82.0509892,154.262538 L82.0464784,154.296475 L81.2841547,154.285163 L81.2052158,154.975225 L81.2052158,155.393788 L81.2841547,155.393788 L81.2818993,155.41415 L80.4158273,155.400575 L80.3323777,156.2739 L79.4347302,156.260325 L79.3670683,157.185688 L79.3648129,158.208337 L78.595723,158.197025 L78.5122734,159.611087 L78.5077626,161.871325 L78.4919748,162.115675 L78.487464,164.278625 L78.4716763,164.504875 L78.3724388,203.999075 L75.568982,204.0036 L75.5667266,204.026225 L74.6826115,204.026225 L74.6713345,204.04885 L73.7804532,204.04885 L73.6293417,204.2751 L73.6112986,207.45165 L73.5955108,207.4969 L73.5707014,211.784337 L73.5526583,211.859 L73.4872518,223.861562 L73.3541835,223.829887 L69.8944065,187.609525 L69.8921511,186.770138 L70.6409424,186.7724 L70.6567302,186.752038 L70.6747734,186.589137 L70.6905612,186.288225 L70.6973273,185.87645 L70.7063489,185.371913 L70.7086043,184.819862 L70.7040935,184.251975 L70.6973273,183.711238 L70.6860504,183.23385 L70.672518,182.851487 L70.6544748,182.593563 L70.6364317,182.471387 L70.1763309,182.471387 L71.1461511,174.122763 L70.5056187,173.00735 L70.0049209,173.00735 L71.1371295,163.219775 L70.5011079,162.746913 L69.9304928,162.746913 L71.1303633,152.3281 L69.8718525,152.3281 L71.1213417,141.443213 L69.8695971,141.443213 L71.1145755,130.569637 L69.8673417,130.5719 L71.1078094,119.707375 L69.8650863,119.709637 L71.0987878,108.854163 L69.8628309,108.858688 L71.0920216,98.0122625 L67.8600396,98.0213125 L67.8577842,95.8628875 L67.4698561,95.86515 L67.4698561,94.7044875 L64.7543597,94.7135375 L65.8031187,86.1002 L65.970018,83.9938125 L65.559536,83.9938125 L65.7399676,82.4621 L65.9023561,80.272 L63.6131295,80.28105 L63.3199281,76.75155 L63.2928633,76.75155 L63.4214209,76.6406875 L63.6334281,76.2176 L63.6875576,74.9257125 L62.0817158,74.9325 L61.655446,60.493225 L61.3239029,60 L60.7735863,60.0022625 L60.4442986,60.49775 L60.0270504,74.94155 L58.4279748,74.9483375 L58.4595504,76.240225 L58.6715576,76.6587875 L58.8023705,76.7719125 L58.7956043,76.7719125 L58.5069137,80.3014125 L56.228964,80.3104625 L56.3485,82.4960375 L56.5289317,84.02775 L56.1635576,84.02775 L56.2876043,86.1364 L57.3431295,94.7361625 L54.6795072,94.7452125 L54.6795072,95.9036125 L54.2960899,95.9036125 L54.2960899,98.0620375 L51.0821511,98.0710875 L52.3090863,108.899412 L51.0821511,108.901675 L52.3113417,119.741312 L51.0798957,119.743575 L52.3158525,130.594525 L51.0776403,130.596788 L52.3203633,141.456788 L51.0753849,141.456788 L52.3226187,152.330362 L51.0753849,152.330362 L52.2707446,162.737863 L51.6144245,162.737863 L51.0731295,163.210725 L52.2030827,172.98925 L51.6121691,172.98925 L51.0708741,174.104662 L52.0294173,182.385413 L51.5422518,182.385413 L51.5287194,182.503062 L51.5129317,182.76325 L51.5016547,183.145612 L51.4903777,183.623 L51.4858669,184.161475 L51.4836115,184.7271 L51.4858669,185.27915 L51.4903777,185.781425 L51.5016547,186.195463 L51.5129317,186.494112 L51.526464,186.659275 L51.5422518,186.677375 L52.3203633,186.679637 L52.3203633,187.582375 L49.4221799,218.270925 L48.9801223,218.16685 L48.910205,218.16685 L47.7599532,217.879513 L46.5600827,217.580862 L45.6714568,217.5786 L43.7927122,207.711838 L43.4138058,207.711838 L43.4138058,207.573825 L43.7949676,207.422237 L44.1625971,206.028538 L42.6943345,206.0308 L42.543223,206.11225 L42.543223,206.4652 L41.5373165,206.4652 L41.5418273,205.286438 L41.3095216,205.286438 L41.311777,205.064713 L40.7952914,205.064713 L42.0560576,204.4199 L42.4755612,204.046587 L43.1860108,203.6416 L43.1882662,203.286388 L40.7659712,203.091813 L39.6157194,202.947012 L38.5466619,202.47415 L37.8542554,201.935675 L40.5494532,200.349662 L40.8697194,199.874538 L41.4177806,199.363213 L41.420036,199.005737 L41.420036,198.987638 L38.0843058,198.630162 L37.7053993,198.58265 L37.0129928,198.322463 L36.0341511,197.80435 L35.1139496,197.195738 L34.2433669,196.526038 L33.4088705,195.81335 L32.6059496,195.068987 L31.8278381,194.304262 L31.0655144,193.528225 L30.4655791,192.89925 L30.738482,192.797437 L30.7926115,192.770287 L30.8332086,192.720512 L30.8512518,192.659425 L30.835464,192.598338 L30.7768237,192.568925 L30.652777,192.51915 L30.5084317,192.145837 L30.5242194,192.10285 L30.5039209,192.059863 L30.4813669,192.046288 L30.4565576,192.034975 L30.2603381,191.83135 L30.2603381,191.682025 L30.3911511,191.63225 L30.4452806,191.584738 L30.4678345,191.52365 L30.4588129,191.45125 L30.4204712,191.401475 L30.3550647,191.374325 L30.5400072,191.032688 L30.6685647,190.659375 L30.7091619,190.270225 L30.5896259,189.899175 L30.2580827,189.697812 L30.0393094,189.598263 L29.7641511,189.562062 L29.4935036,189.5417 L29.2228561,189.564325 L28.9499532,189.60505 L28.7266691,189.7046 L28.3973813,189.910487 L28.2733345,190.281537 L28.3161871,190.670688 L28.4402338,191.041737 L28.6274317,191.383375 L28.5620252,191.410525 L28.5214281,191.458037 L28.5124065,191.5327 L28.5349604,191.593787 L28.5890899,191.639038 L28.7199029,191.691075 L28.7199029,191.835875 L28.5236835,192.044025 L28.4966187,192.055338 L28.4763201,192.068913 L28.4560216,192.1119 L28.4718094,192.154888 L28.327464,192.530462 L28.2011619,192.580238 L28.144777,192.60965 L28.1267338,192.670738 L28.144777,192.731825 L28.1853741,192.7816 L28.241759,192.80875 L28.5124065,192.9083 L27.9147266,193.539537 L27.1546583,194.322362 L26.3788022,195.093875 L25.5758813,195.8405 L24.7436403,196.557713 L23.8775683,197.231937 L22.9618777,197.845075 L21.9920576,198.36545 L21.2996511,198.630162 L20.9478094,198.679937 L17.7406367,199.060037 L17.6233561,199.055512 L17.6256115,199.428825 L18.1466079,199.935625 L18.4420647,200.406225 L21.1350072,201.983188 L20.4606439,202.51035 L19.4006079,202.987738 L18.2368237,203.141588 L18.2323129,203.14385 L15.8686583,203.340688 L15.8686583,203.6959 L16.5475324,204.096362 L16.9399712,204.46515 L18.1894604,205.103175 L17.7496583,205.103175 L17.7496583,205.3249 L17.5218633,205.3249 L17.5241187,206.499137 L16.5317446,206.5014 L16.5317446,206.150712 L16.3896547,206.069263 L14.9371799,206.069263 L15.2980432,207.456175 L15.6701835,207.612287 L15.6724388,207.743513 L15.2980432,207.743513 L13.4328309,217.553712 L12.4111367,217.55145 L11.2608849,217.847837 L10.1579964,218.13065 L10.0903345,218.128388 L8.15069424,218.578625 L7.91613309,218.578625 L7.15380935,218.770938 L5.70584532,219.132938 L4.92547842,219.327513 L4.07970504,219.52435 L3.78199281,219.52435 L3.34895683,219.630688 L1.77469065,220.019837 L-0.00256115108,220.4565 L-0.949827338,220.689538 L-2.09556835,220.958775 L-7.12510072,222.123963 L-14.4190504,223.818575 L-14.4190504,223.83215 L-14.7415719,223.906813 L-15.1497986,223.8955 L-22.4347266,223.906813 L-56.8520647,204.723075 L-56.9783669,199.630188 L-58.3225827,199.61435 L-58.6022518,199.725212 L-58.6451043,204.704975 L-94.6930935,224.008625 L-95.0178705,224.008625 L-132.096576,203.983238 L-132.098831,203.983238 L-132.101086,203.9855 L-132.103342,203.987763 L-132.107853,203.992288 L-132.110108,203.99455 L-132.112363,204.0036 L-132.116874,204.008125 L-132.119129,204.014912 L-132.121385,204.0217 L-132.12364,204.026225 L-132.12364,204.028488 L-132.12364,204.03075 L-95.1328957,224.008625 L-99.039241,224.015412 L-132.101086,204.84525 L-132.105597,204.847512 L-132.107853,204.852037 L-132.110108,204.858825 L-132.116874,204.86335 L-132.119129,204.870138 L-132.12364,204.876925 L-132.125896,204.883713 L-132.128151,204.888238 L-132.130406,204.892762 L-132.130406,204.897288 L-99.1542662,224.015412 L-103.078655,224.019937 L-132.101086,205.709525 L-132.103342,205.711788 L-132.107853,205.71405 L-132.110108,205.718575 L-132.114619,205.7231 L-132.119129,205.729887 L-132.12364,205.736675 L-132.128151,205.743462 L-132.130406,205.75025 L-132.132662,205.757037 L-132.134917,205.761562 L-132.134917,205.763825 L-103.195935,224.019937 L-107.136112,224.026725 L-132.103342,206.576063 L-132.105597,206.576063 L-132.107853,206.580588 L-132.112363,206.585113 L-132.116874,206.5919 L-132.12364,206.598688 L-132.128151,206.605475 L-132.132662,206.612262 L-132.137173,206.61905 L-132.139428,206.623575 L-132.141683,206.6281 L-132.141683,206.630362 L-107.251137,224.026725 L-111.209356,224.033513 L-132.103342,207.440337 L-132.105597,207.4426 L-132.107853,207.444862 L-132.112363,207.449388 L-132.116874,207.453913 L-132.12364,207.4607 L-132.128151,207.46975 L-132.134917,207.476538 L-132.141683,207.483325 L-132.146194,207.490113 L-132.14845,207.492375 L-132.14845,207.4969 L-111.326637,224.033513 L-115.298388,224.038038 L-132.103342,208.309137 L-132.107853,208.3114 L-132.112363,208.315925 L-132.116874,208.322712 L-132.125896,208.3295 L-132.132662,208.33855 L-132.139428,208.343075 L-132.146194,208.349863 L-132.15296,208.35665 L-132.155216,208.361175 L-132.157471,208.363438 L-132.157471,208.3657 L-115.415669,224.038038 L-119.407719,224.044825 L-132.101086,209.177938 L-132.103342,209.177938 L-132.107853,209.182462 L-132.114619,209.186988 L-132.121385,209.191512 L-132.130406,209.200563 L-132.139428,209.20735 L-132.14845,209.214137 L-132.155216,209.220925 L-132.161982,209.227712 L-132.166493,209.229975 L-132.168748,209.232237 L-119.522745,224.044825 L-123.528327,224.051612 L-132.09432,210.046738 L-132.096576,210.046738 L-132.098831,210.049 L-132.105597,210.053525 L-132.112363,210.05805 L-132.12364,210.064837 L-132.134917,210.071625 L-132.146194,210.078413 L-132.157471,210.0852 L-132.166493,210.089725 L-132.173259,210.09425 L-132.180025,210.098775 L-132.180025,210.101038 L-123.647863,224.051612 L-127.666978,224.056137 L-132.09432,211.79565 L-132.098831,211.79565 L-132.105597,211.797912 L-132.116874,211.800175 L-132.128151,211.8047 L-132.141683,211.809225 L-132.155216,211.816012 L-132.166493,211.818275 L-132.180025,211.8228 L-132.189047,211.829588 L-132.195813,211.829588 L-132.198068,211.83185 L-127.786514,224.056137 L-132.358201,224.062925 L-132.096576,198.822475 L-132.200324,198.702562 L-133.66182,198.684462 L-134.764709,224.06745 L-139.176263,224.074238 L-134.257245,211.820538 L-134.257245,211.818275 L-134.261755,211.818275 L-134.268522,211.81375 L-134.279799,211.809225 L-134.291076,211.8047 L-134.304608,211.797912 L-134.31814,211.793388 L-134.331673,211.788862 L-134.34295,211.7866 L-134.351971,211.784337 L-134.358737,211.782075 L-134.363248,211.782075 L-139.298054,224.074238 L-143.387086,224.0765 L-134.180561,210.087462 L-134.180561,210.0852 L-134.185072,210.080675 L-134.191838,210.07615 L-134.20086,210.069363 L-134.209881,210.062575 L-134.223414,210.055788 L-134.232435,210.049 L-134.243712,210.042213 L-134.252734,210.037688 L-134.261755,210.035425 L-134.264011,210.035425 L-134.266266,210.035425 L-143.508878,224.0765 L-147.620464,224.083287 L-134.14673,209.220925 L-134.14673,209.218662 L-134.148986,209.214137 L-134.153496,209.209612 L-134.160263,209.202825 L-134.169284,209.196037 L-134.17605,209.186988 L-134.185072,209.182462 L-134.194094,209.175675 L-134.203115,209.168887 L-134.207626,209.166625 L-134.212137,209.164363 L-134.214392,209.164363 L-147.74,224.083287 L-151.871885,224.090075 L-134.110644,208.352125 L-134.110644,208.3476 L-134.115155,208.343075 L-134.119665,208.33855 L-134.124176,208.331763 L-134.130942,208.324975 L-134.137709,208.315925 L-134.14673,208.309137 L-134.153496,208.30235 L-134.158007,208.297825 L-134.162518,208.2933 L-134.164773,208.2933 L-149.469888,221.852463 L-151.993676,224.090075 L-156.148115,224.0946 L-134.072302,207.485587 L-134.072302,207.481063 L-134.074558,207.476538 L-134.079068,207.46975 L-134.083579,207.462963 L-134.08809,207.456175 L-134.094856,207.447125 L-134.101622,207.440337 L-134.106133,207.435812 L-134.110644,207.429025 L-134.115155,207.426762 L-134.119665,207.426762 L-156.269906,224.096862 L-160.442388,224.101388 L-134.03396,206.614525 L-134.03396,206.61 L-134.036216,206.605475 L-134.038471,206.598688 L-134.042982,206.5919 L-134.047493,206.585113 L-134.054259,206.578325 L-134.05877,206.571538 L-134.063281,206.56475 L-134.067791,206.560225 L-134.070047,206.557963 L-134.072302,206.557963 L-160.566435,224.101388 L-164.761471,224.108175 L-133.993363,205.745725 L-133.993363,205.743462 L-133.995619,205.738938 L-133.997874,205.73215 L-134.000129,205.725362 L-134.00464,205.718575 L-134.009151,205.711788 L-134.013662,205.705 L-134.018173,205.700475 L-134.022683,205.69595 L-134.024939,205.693687 L-134.027194,205.693687 L-164.885518,224.108175 L-169.098597,224.114963 L-133.952766,204.879188 L-133.952766,204.8724 L-133.955022,204.867875 L-133.957277,204.861087 L-133.961788,204.8543 L-133.966299,204.847512 L-133.970809,204.842987 L-133.97532,204.8362 L-133.977576,204.831675 L-133.979831,204.829413 L-133.982086,204.829413 L-169.224899,224.114963 L-173.458277,224.12175 L-133.909914,204.01265 L-133.909914,204.008125 L-133.912169,204.0036 L-133.914424,203.996813 L-133.918935,203.992288 L-133.921191,203.9855 L-133.925701,203.980975 L-133.930212,203.974187 L-133.932468,203.969662 L-133.934723,203.9674 L-133.936978,203.965137 L-133.939234,203.965137 L-173.586835,224.12175 L-183.62109,224.135325 L-185.161525,224.19415 L-186.792176,224.19415 L-186.744813,202.824838 L-187.371813,202.809 L-187.365047,198.915238 L-187.484583,198.912975 L-187.46654,190.5372 L-187.628928,190.478375 L-198.43904,190.523625 L-199.038975,190.539463 L-199.052507,202.51035 L-199.607335,202.526188 L-200.268165,202.802212 L-200.272676,206.035325 L-200.455363,206.001387 L-201.993543,205.924462 L-206.768216,206.74575 L-206.759194,192.559875 L-208.365036,192.532725 L-208.365036,188.856163 L-209.58746,188.779237 L-209.585205,178.116075 L-210.55277,177.9215 L-211.450417,177.892088 L-220.514853,178.344587 L-220.505831,192.544038 L-221.263644,192.544038 L-221.579399,192.550825 L-221.565867,208.478825 L-223.994928,208.478825 L-223.994928,208.2933 L-225.124881,207.662062 L-228.726748,207.662062 L-228.726748,206.451625 L-228.893647,206.290987 L-229.908576,206.290987 L-229.908576,205.417663 L-229.996536,204.741175 L-230.158924,204.082787 L-230.39123,203.45155 L-230.686687,202.865562 L-231.04755,202.331613 L-231.460288,201.85875 L-231.922644,201.453763 L-232.423342,201.1257 L-232.955615,200.88135 L-233.512698,200.71845 L-233.562317,200.634738 L-233.625468,200.553288 L-233.695385,200.478625 L-233.776579,200.41075 L-233.866795,200.342875 L-233.963777,200.286313 L-234.06527,200.234275 L-234.173529,200.191287 L-234.288554,200.152825 L-234.405835,200.127938 L-234.417112,200.125675 L-234.532137,200.105312 L-234.649417,200.094 L-234.771209,200.105312 L-234.886234,200.125675 L-235.001259,200.150562 L-235.010281,200.152825 L-235.012536,200.152825 L-235.010281,200.152825 L-235.012536,200.152825 L-235.125306,200.189025 L-235.23582,200.234275 L-235.337313,200.286313 L-235.434295,200.342875 L-235.524511,200.408488 L-235.60345,200.478625 L-235.675622,200.553288 L-235.736518,200.632475 L-235.790647,200.716187 L-236.345475,200.879087 L-236.880004,201.123437 L-237.380701,201.4515 L-237.843058,201.856487 L-238.25805,202.32935 L-238.616658,202.865562 L-238.914371,203.45155 L-239.146676,204.080525 L-239.31132,204.741175 L-239.399281,205.417663 L-239.399281,206.29325 L-240.107475,206.295513 L-240.926183,206.45615 L-240.926183,207.66885 L-243.605594,207.671113 L-246.163212,208.306875 L-246.163212,208.4924 L-261.400665,208.50145 L-261.400665,208.261625 L-261.887831,208.261625 L-261.885576,206.8453 L-267.469935,205.938038 L-269.450173,206.017225 L-275.839709,207.155262 L-275.841964,208.725437 L-276.441899,208.784262 L-276.441899,210.368012 L-277.15686,210.0128 L-282.229245,209.9947 L-283.212597,210.612363 L-284.223014,210.7006 L-284.274888,211.187038 L-284.507194,211.263962 L-284.439532,211.653112 L-283.253194,211.7323 L-282.328482,212.270775 L-282.323971,212.270775 L-282.342014,212.2934 L-282.342014,212.467613 L-285.080065,212.460825 L-285.080065,210.757162 L-284.234291,210.270725 L-283.036676,210.1938 L-282.856245,209.8861 L-282.761518,209.177938 L-283.94109,209.103275 L-285.089086,208.499188 L-292.024428,208.469775 L-293.149871,209.069337 L-294.309144,209.13495 L-294.243737,209.847637 L-294.11518,210.155338 L-292.908543,210.241312 L-292.028939,210.752637 L-292.028939,212.440462 L-294.83014,212.433675 L-294.83014,212.259462 L-294.843673,212.236838 L-294.834651,212.236838 L-293.900917,211.700625 L-292.710068,211.630488 L-292.667216,211.236812 L-292.809306,211.1893 L-292.845392,210.67345 L-293.88964,210.578425 L-294.906824,209.94945 L-300.04236,209.933613 L-301.289594,210.553538 L-302.570658,210.641775 L-302.453378,211.082962 L-302.615766,210.969838 L-304.665921,210.96305 L-303.705122,210.45625 L-305.829705,210.345387 L-307.848284,210.119137 L-309.763115,209.779762 L-311.569687,209.338575 L-313.270255,208.8001 L-314.862565,208.168863 L-316.348871,207.453913 L-317.726917,206.657512 L-319.001216,205.790975 L-320.169511,204.852037 L-321.234058,203.84975 L-322.194856,202.786375 L-340.215468,202.894975 L-341.108604,203.965137 L-342.094212,204.969687 L-343.172291,205.91315 L-344.349608,206.786475 L-345.619396,207.5874 L-346.988421,208.306875 L-348.174759,208.820462 L-348.262719,203.7502 L-346.751604,202.589537 L-346.609514,202.469625 L-346.465169,202.322563 L-346.316313,202.152875 L-346.167457,201.960563 L-346.018601,201.743362 L-345.867489,201.501275 L-345.716378,201.2343 L-345.567522,200.940175 L-345.414155,200.623425 L-345.263043,200.281788 L-345.109676,199.913 L-344.992396,199.6053 L-344.097004,199.431087 L-344.160155,198.707088 L-344.410504,198.648263 L-345.400622,198.847363 L-345.504371,198.865463 L-346.347888,199.008 L-346.350144,199.008 L-346.526065,199.03515 L-347.272601,199.118863 L-347.283878,199.121125 L-347.55227,199.146013 L-348.177014,199.195787 L-348.20859,199.19805 L-348.46796,199.213888 L-348.504047,199.21615 L-349.054363,199.231988 L-349.446802,199.231988 L-349.915924,199.229725 L-349.983586,199.229725 L-350.222658,199.220675 L-350.312874,199.21615 L-350.748165,199.189 L-350.82936,199.182212 L-351.158647,199.1528 L-351.562363,199.112075 L-351.650324,199.103025 L-351.814968,199.082662 L-351.925482,199.066825 L-352.096892,199.037412 L-352.121701,199.032887 L-352.360773,198.9899 L-352.791554,198.903925 L-352.861471,198.888087 L-352.947176,198.867725 L-353.032881,198.8451 L-353.533579,198.713875 L-353.574176,198.7003 L-353.668903,198.67315 L-354.24854,198.494412 L-354.571061,198.440112 L-354.695108,198.759125 L-355.13491,199.1528 L-355.198061,198.994425 L-355.24768,198.842838 L-355.139421,197.0713 L-355.125888,196.849575 L-354.954478,196.13915 L-355.574712,196.13915 L-355.662673,196.433275 L-355.667183,196.421962 L-355.716802,196.21155 L-355.76191,195.969462 L-355.804763,195.697963 L-355.852126,195.440037 L-355.894978,195.16175 L-355.904,195.084825 L-355.784464,195.0622 L-353.962104,194.661738 L-353.896698,194.523725 L-353.91023,193.31555 L-351.918716,192.514625 L-351.837522,192.3653 L-353.971126,192.996537 L-355.955874,193.471663 L-356.147583,193.519175 L-357.658698,193.797462 L-357.663209,193.747688 L-357.566227,193.720537 L-356.113752,193.256725 L-356.059622,193.111925 L-356.073155,191.702387 L-354.483101,190.779287 L-354.41995,190.61865 L-356.120518,191.349437 L-357.706061,191.896963 L-357.859428,191.949 L-359.627658,192.4196 L-361.416187,192.761237 L-363.222759,192.964863 L-365.033842,193.035 L-366.844924,192.967125 L-368.646986,192.765762 L-370.435514,192.430913 L-372.203745,191.964837 L-372.357112,191.9128 L-373.938144,191.367537 L-375.638712,190.641275 L-375.568795,190.801912 L-373.987763,191.720487 L-374.001295,193.130025 L-373.942655,193.274825 L-372.49018,193.736375 L-372.499201,193.826875 L-374.107299,193.537275 L-374.299007,193.489763 L-376.2815,193.019163 L-378.410594,192.39245 L-378.324888,192.539513 L-376.342396,193.335913 L-376.355928,194.544087 L-376.283755,194.679838 L-374.465906,195.078037 L-374.465906,195.0803 L-374.479439,195.17985 L-374.526802,195.455875 L-374.576421,195.711538 L-374.623784,195.9853 L-374.675658,196.227387 L-374.732043,196.4378 L-374.770385,196.553188 L-374.903453,196.154988 L-375.521432,196.15725 L-375.331978,196.867675 L-375.316191,197.0894 L-375.210187,198.630162 L-375.503388,198.677675 L-375.602626,198.424275 L-375.918381,198.478575 L-376.493507,198.657312 L-376.588234,198.684462 L-376.631086,198.698037 L-377.129529,198.827 L-377.215234,198.849625 L-377.296428,198.869988 L-377.368601,198.883563 L-377.799381,198.969538 L-378.006878,199.008 L-378.234673,199.046462 L-378.345187,199.0623 L-378.509831,199.084925 L-378.597791,199.091712 L-378.999252,199.132438 L-379.326284,199.164112 L-379.405223,199.1709 L-379.838259,199.195787 L-379.928475,199.200312 L-380.165291,199.209362 L-380.232953,199.209362 L-380.69982,199.213888 L-381.038129,199.213888 L-381.087748,199.211625 L-381.633554,199.19805 L-381.671896,199.195787 L-381.929011,199.184475 L-381.958331,199.182212 L-382.578565,199.130175 L-382.844701,199.105288 L-382.855978,199.103025 L-383.595748,199.021575 L-383.771669,198.996688 L-384.610676,198.856413 L-384.712169,198.838313 L-385.695522,198.641475 L-385.936849,198.7003 L-386,199.41525 L-385.282784,199.555525 L-385.276018,199.573625 L-385.424874,199.548737 L-385.266996,199.94015 L-385.106863,200.308937 L-384.948986,200.650575 L-384.788853,200.967325 L-384.628719,201.259187 L-384.470842,201.5239 L-384.312964,201.765987 L-384.155086,201.983188 L-383.999464,202.177763 L-383.846097,202.345188 L-383.69273,202.49225 L-383.541619,202.612162 L-382.100421,203.661962 L-382.470306,224.19415 L-386,224.19415 L-386,237.31665 L-182.19568,237.31665 L-182.19568,225.368388 L-134.79854,225.268837 L-134.812072,225.7417 L-134.922586,225.746225 L-135.114295,225.753012 L-135.204511,225.757538 L-135.366899,237.67865 L-135.348856,237.694488 L-135.220299,237.708063 L-134.990248,237.719375 L-134.679004,237.728425 L-134.302353,237.73295 L-133.889615,237.73295 L-133.467856,237.728425 L-133.066396,237.719375 L-132.712299,237.7058 L-132.432629,237.692225 L-132.245432,237.676388 L-132.159727,237.66055 L-132.004104,225.75075 L-132.026658,225.743963 L-132.159727,225.739437 L-132.389777,225.73265 L-132.398799,225.73265 L-132.389777,225.264312 L-58.8007266,225.110463 L-58.7962158,225.562962 L-58.8390683,225.562962 L-59.008223,225.56975 L-59.0803957,225.574275 L-59.0397986,236.857362 L-59.008223,236.8732 L-58.8774101,236.886775 L-58.6541259,236.898088 L-58.3541583,236.907138 L-57.9978058,236.913925 L-57.6076223,236.91845 L-57.2106727,236.91845 L-56.8407878,236.913925 L-56.5137554,236.907138 L-56.2611511,236.898088 L-56.0942518,236.884512 L-56.0243345,236.870937 L-56.0739532,225.581063 L-56.1077842,225.574275 L-56.2431079,225.567487 L-56.3513669,225.565225 L-56.3558777,225.1082 L-15.7880755,225.024488 L-15.7880755,237.31665 L238.690475,237.31665 L238.690475,224.947563 L238.66341,224.947563 L238.665665,224.314063 L238.665665,224.314063 Z M-282.48636,220.26645 L-282.274353,219.571862 L-281.908978,218.947412 L-281.412791,218.422512 L-280.808345,218.028838 L-280.3505,217.85915 L-279.655838,217.779962 L-278.956665,217.861412 L-278.295835,218.1035 L-277.707176,218.49265 L-277.222266,219.001712 L-277.150094,219.128412 L-277.154604,222.413562 L-277.335036,222.4837 L-277.337291,224.19415 L-282.024004,224.19415 L-282.024004,221.293625 L-282.380356,221.286838 L-282.48636,221.286838 L-282.48636,220.26645 L-282.48636,220.26645 Z M-292.48904,220.234775 L-292.083068,219.257375 L-291.440281,218.415725 L-290.599018,217.76865 L-289.622432,217.365925 L-288.575928,217.227912 L-287.527169,217.368188 L-286.552838,217.773175 L-285.716086,218.417988 L-285.073299,219.2619 L-284.669583,220.237038 L-284.532004,221.286837 L-284.906399,221.286837 L-284.906399,224.19415 L-292.245457,224.19415 L-292.243201,221.286837 L-292.626619,221.286837 L-292.48904,220.234775 L-292.48904,220.234775 Z M-306.093586,218.911212 L-305.665061,218.6103 L-305.17564,218.427037 L-304.656899,218.361425 L-304.411061,218.3931 L-303.993813,218.553738 L-303.558522,218.859175 L-303.20668,219.264162 L-302.963097,219.74155 L-302.845817,220.259662 L-302.845817,221.2891 L-303.287874,221.293625 L-303.287874,222.47465 L-304.126881,221.983688 L-304.241906,221.528925 L-304.902737,221.528925 L-304.918525,221.519875 L-306.226655,221.51535 L-306.226655,221.286838 L-306.790504,221.286838 L-306.790504,220.282287 L-306.673223,219.770962 L-306.434151,219.30715 L-306.093586,218.911212 L-306.093586,218.911212 Z M-307.846029,212.641825 L-307.234817,212.671237 L-306.641647,213.015137 L-306.549176,213.058125 L-306.648414,213.058125 L-306.648414,213.209712 L-307.142345,213.209712 L-307.503209,212.942737 L-307.85505,212.64635 L-307.846029,212.641825 L-307.846029,212.641825 Z M-300.579144,221.286838 L-300.576888,220.282288 L-300.367137,219.601275 L-300.006273,218.988138 L-299.516853,218.472288 L-298.919173,218.083138 L-298.251576,217.843312 L-297.543381,217.761863 L-296.837442,217.845575 L-296.278104,218.0492 L-295.721022,218.4112 L-295.220324,218.938363 L-294.852694,219.567338 L-294.638432,220.264188 L-294.638432,221.286838 L-294.785032,221.286838 L-295.048914,221.293625 L-295.048914,224.19415 L-300.080701,224.19415 L-300.078446,221.286838 L-300.579144,221.286838 L-300.579144,221.286838 Z M-58.8097482,223.95885 L-63.0792122,223.965638 L-58.7105108,212.413313 L-58.8097482,223.95885 L-58.8097482,223.95885 Z M-58.7082554,212.187062 L-58.7105108,212.187062 L-58.7195324,212.1848 L-58.7262986,212.180275 L-58.7330647,212.180275 L-63.191982,223.965638 L-66.9494712,223.970163 L-58.694723,210.671188 L-58.7082554,212.187062 L-58.7082554,212.187062 Z M-58.694723,210.503762 L-58.694723,210.503762 L-58.7014892,210.5015 L-67.062241,223.970162 L-70.8400288,223.97695 L-58.6879568,209.800125 L-58.694723,210.503762 L-58.694723,210.503762 Z M-58.6857014,209.6689 L-70.9527986,223.97695 L-74.7486295,223.979212 L-58.6811906,208.949425 L-58.6857014,209.6689 L-58.6857014,209.6689 Z M-58.6789353,208.843088 L-74.8613993,223.979213 L-78.6775288,223.988262 L-58.6744245,208.105513 L-58.6789353,208.843088 L-58.6789353,208.843088 Z M-58.6744245,208.017275 L-78.7902986,223.988262 L-82.6222158,223.990525 L-58.6676583,207.268388 L-58.6744245,208.017275 L-58.6744245,208.017275 Z M-58.6654029,207.1892 L-82.737241,223.990525 L-86.5894568,223.997312 L-58.6586367,206.431263 L-58.6654029,207.1892 L-58.6654029,207.1892 Z M-58.6586367,206.358862 L-86.7022266,223.997312 L-90.5724856,224.0041 L-58.6518705,205.5964 L-58.6586367,206.358862 L-58.6586367,206.358862 Z M-58.6518705,205.530788 L-90.6875108,224.0041 L-94.5780683,224.008625 L-63.191982,207.200513 L-58.6451043,204.761538 L-58.6518705,205.530788 L-58.6518705,205.530788 Z M-56.3694101,223.956587 L-56.6558453,212.4744 L-52.6051547,223.9498 L-56.3694101,223.956587 L-56.3694101,223.956587 Z M-52.4923849,223.9498 L-56.6445683,212.191587 L-56.6626115,212.191587 L-56.7009532,210.702863 L-48.7957914,223.945275 L-52.4923849,223.9498 L-52.4923849,223.9498 Z M-48.685277,223.945275 L-56.7009532,210.512813 L-56.705464,210.512813 L-56.7235072,209.829538 L-45.0022158,223.938488 L-48.685277,223.945275 L-48.685277,223.945275 Z M-44.8917014,223.938488 L-56.7257626,209.689263 L-56.7438058,208.974312 L-41.2244281,223.933963 L-44.8917014,223.938488 L-44.8917014,223.938488 Z M-41.1116583,223.933963 L-56.7483165,208.86345 L-56.7663597,208.1304 L-37.4579173,223.927175 L-41.1116583,223.933963 L-41.1116583,223.933963 Z M-37.3474029,223.927175 L-56.7686151,208.035375 L-56.7866583,207.291012 L-33.7094496,223.92265 L-37.3474029,223.927175 L-37.3474029,223.927175 Z M-33.5989353,223.92265 L-56.7889137,207.2073 L-56.8069568,206.453887 L-29.972259,223.915862 L-33.5989353,223.92265 L-33.5989353,223.92265 Z M-29.8617446,223.915863 L-56.8092122,206.379225 L-56.8272554,205.619025 L-26.2508561,223.911338 L-29.8617446,223.915863 L-29.8617446,223.915863 Z M-26.1403417,223.911338 L-56.8295108,205.55115 L-56.8498094,204.786425 L-22.545241,223.906813 L-26.1403417,223.911338 L-26.1403417,223.911338 Z M186.708115,182.242875 L187.765896,182.242875 L187.743342,185.055162 L186.690072,185.057425 L186.708115,182.242875 L186.708115,182.242875 Z M179.493104,182.249662 L181.049327,182.249662 L181.042561,185.057425 L179.490849,185.057425 L179.493104,182.249662 L179.493104,182.249662 Z" id="taipei-2" sketch:type="MSShapeGroup"></path>
        </g>
    </g>
</svg>