<?xml version="1.0" encoding="UTF-8" standalone="no"?>
<svg width="628px" height="241px" viewBox="0 0 628 241" version="1.1" xmlns="http://www.w3.org/2000/svg" xmlns:xlink="http://www.w3.org/1999/xlink" xmlns:sketch="http://www.bohemiancoding.com/sketch/ns">
    <!-- Generator: Sketch 3.0.4 (8054) - http://www.bohemiancoding.com/sketch -->
    <title>taipei</title>
    <desc>Created with Sketch.</desc>
    <defs></defs>
    <g id="Page-1" stroke="none" stroke-width="1" fill="none" fill-rule="evenodd" sketch:type="MSPage">
        <g id="taipei" sketch:type="MSArtboardGroup" fill="#000000">
            <path d="M625.665665,224.314063 L625.66341,224.314063 L625.665665,223.820838 L625.690475,215.003875 L625.656644,214.911112 L625.566428,214.81835 L625.419827,214.725587 L625.214586,214.635088 L624.959727,214.54685 L624.655248,214.460875 L624.303406,214.3749 L623.906457,214.295713 L623.471165,214.218787 L614.154126,214.241412 L614.190212,189.344862 L612.464835,189.340338 L612.476112,180.625187 L606.183558,180.604825 L606.057255,181.018863 L603.984547,181.012075 L603.691345,182.4465 L603.691345,183.74065 L594.759978,183.7135 L594.755468,183.697663 L594.617888,183.2248 L594.617888,181.394438 L594.223194,179.8763 L592.141464,179.869512 L592.03546,179.57765 L592.17755,179.426063 L592.488795,178.7722 L592.441432,178.6274 L592.391813,178.47355 L592.166273,178.32875 L591.940734,178.177163 L591.548295,178.041413 L591.151345,177.9034 L590.614561,177.790275 L590.073266,177.674888 L589.430478,177.591175 L588.780924,177.507462 L588.074986,177.45995 L587.366791,177.416963 L586.656342,177.412437 L585.943637,177.410175 L585.282806,177.448637 L584.62423,177.489362 L584.062637,177.56855 L583.505554,177.645475 L583.088306,177.7586 L582.675568,177.871725 L582.427475,178.005212 L582.183892,178.1387 L582.118486,178.288025 L582.055335,178.435088 L582.377856,179.113838 L582.587608,179.385337 L582.910129,179.543713 L583.302568,180.602562 L585.659457,186.957925 L585.663968,189.286037 L583.961144,189.281513 L584.015273,214.307025 L579.533802,214.316075 L579.969094,180.226987 L578.424147,180.22925 L578.424147,180.134225 L574.055446,180.13875 L574.026126,180.1297 L573.647219,180.086712 L573.074349,180.050512 L572.343601,180.025625 L571.509104,180.009788 L570.6295,180.009788 L569.770194,180.023362 L568.994338,180.04825 L568.356061,180.082188 L567.902727,180.127437 L567.803489,180.143275 L563.705435,180.152325 L563.707691,180.251875 L562.038698,180.254138 L562.142446,213.313787 L557.315899,213.291162 L557.293345,198.931075 L555.513838,198.931075 L555.486773,190.901463 L545.452518,190.8087 L545.457029,189.7227 L545.087144,189.56885 L544.090259,189.435362 L542.588165,189.3426 L540.801892,189.3064 L536.818863,189.299612 L536.818863,188.876525 L536.744435,188.433075 L529.935396,188.417237 L529.944417,189.2883 L527.73864,189.283775 L527.628126,189.184225 L526.362849,189.181962 L526.362849,189.281513 L525.668187,189.27925 L525.681719,185.996362 L524.966759,185.989575 L524.966759,185.89455 L524.028514,185.87645 L524.028514,185.770112 L523.160187,185.765587 L523.160187,185.645675 L514.231076,185.593637 L514.22882,183.690875 L514.188223,183.589063 L513.892766,183.489512 L513.360493,183.399012 L512.733493,183.335663 L512.731237,182.007575 L512.697406,181.937437 L512.516975,181.871825 L512.194453,181.810737 L511.756906,181.760963 L511.502047,181.745125 L511.499791,180.143275 L511.484004,180.113862 L511.409576,180.082188 L511.281018,180.0573 L511.109608,180.034675 L510.899856,180.018838 L510.676572,180.009788 L510.446522,180.01205 L510.230004,180.0211 L510.04055,180.036937 L509.89395,180.059562 L509.794712,180.086712 L509.756371,180.118387 L509.760881,181.720237 L509.515043,181.73155 L509.036899,181.765488 L508.662504,181.819788 L508.423432,181.880875 L508.328705,181.94875 L508.335471,183.313038 L507.997162,183.335663 L507.372417,183.412587 L506.979978,183.503087 L506.833378,183.6049 L506.844655,185.901338 L506.501835,185.933013 L506.373277,185.955637 L506.373277,185.935275 L506.276295,185.933013 L506.269529,185.935275 L506.269529,185.976 L506.007903,186.023512 L505.836493,186.1208 L505.850025,188.939875 L503.903619,188.933087 L503.910385,190.010038 L504.014133,209.082912 L501.758737,209.727725 L501.758737,209.845375 L501.438471,209.951713 L501.388853,209.951713 L501.388853,209.96755 L501.140759,210.051262 L501.138504,210.372537 L500.353626,210.372537 L500.353626,209.89515 L500.00855,209.793337 L500.00855,209.463013 L498.743273,209.024088 L492.459741,209.030875 L492.466507,209.8318 L488.194788,209.836325 L488.203809,210.6644 L484.874845,210.6644 L484.84327,207.444862 L484.696669,207.39735 L484.665094,204.245688 L484.342572,204.191387 L484.313252,201.195837 L483.627612,201.175475 L479.804716,201.175475 L479.545345,162.459575 L479.437086,162.457313 L479.425809,160.450475 L479.31755,160.450475 L479.304018,158.38255 L478.656719,158.375763 L478.654464,157.819187 L478.352241,157.814662 L478.343219,156.430012 L477.736518,156.420963 L477.732007,155.5499 L476.962917,155.538588 L476.960662,155.2422 L476.746399,155.239937 L476.868191,154.832687 L476.865935,154.411862 L475.826198,154.396025 L475.819432,153.1607 L474.533856,153.140337 L474.520324,149.67645 L473.584335,149.660612 L472.359655,148.140213 L472.355144,145.8664 L472.355144,145.789475 L472.352888,145.782688 L472.350633,145.778163 L472.346122,145.7759 L472.337101,145.771375 L472.330335,145.769113 L472.319058,145.764588 L472.307781,145.764588 L472.296504,145.762325 L472.262673,145.762325 L472.251396,145.764588 L472.242374,145.76685 L472.233353,145.769113 L472.224331,145.773638 L472.217565,145.778163 L472.210799,145.780425 L472.208543,145.78495 L472.206288,145.791738 L472.210799,148.151525 L471.153018,149.619888 L470.332054,149.608575 L470.239583,150.25565 L470.239583,150.470587 L470.210263,150.470587 L470.122302,151.0973 L470.122302,153.074725 L469.204356,153.058887 L469.075799,154.063438 L469.075799,154.262538 L469.050989,154.262538 L469.046478,154.296475 L468.284155,154.285163 L468.205216,154.975225 L468.205216,155.393788 L468.284155,155.393788 L468.281899,155.41415 L467.415827,155.400575 L467.332378,156.2739 L466.43473,156.260325 L466.367068,157.185688 L466.364813,158.208337 L465.595723,158.197025 L465.512273,159.611087 L465.507763,161.871325 L465.491975,162.115675 L465.487464,164.278625 L465.471676,164.504875 L465.372439,203.999075 L462.568982,204.0036 L462.566727,204.026225 L461.682612,204.026225 L461.671335,204.04885 L460.780453,204.04885 L460.629342,204.2751 L460.611299,207.45165 L460.595511,207.4969 L460.570701,211.784337 L460.552658,211.859 L460.487252,223.861562 L460.354183,223.829887 L456.894406,187.609525 L456.892151,186.770138 L457.640942,186.7724 L457.65673,186.752038 L457.674773,186.589137 L457.690561,186.288225 L457.697327,185.87645 L457.706349,185.371913 L457.708604,184.819862 L457.704094,184.251975 L457.697327,183.711238 L457.68605,183.23385 L457.672518,182.851487 L457.654475,182.593563 L457.636432,182.471387 L457.176331,182.471387 L458.146151,174.122763 L457.505619,173.00735 L457.004921,173.00735 L458.137129,163.219775 L457.501108,162.746913 L456.930493,162.746913 L458.130363,152.3281 L456.871853,152.3281 L458.121342,141.443213 L456.869597,141.443213 L458.114576,130.569637 L456.867342,130.5719 L458.107809,119.707375 L456.865086,119.709637 L458.098788,108.854163 L456.862831,108.858688 L458.092022,98.0122625 L454.86004,98.0213125 L454.857784,95.8628875 L454.469856,95.86515 L454.469856,94.7044875 L451.75436,94.7135375 L452.803119,86.1002 L452.970018,83.9938125 L452.559536,83.9938125 L452.739968,82.4621 L452.902356,80.272 L450.613129,80.28105 L450.319928,76.75155 L450.292863,76.75155 L450.421421,76.6406875 L450.633428,76.2176 L450.687558,74.9257125 L449.081716,74.9325 L448.655446,60.493225 L448.323903,60 L447.773586,60.0022625 L447.444299,60.49775 L447.02705,74.94155 L445.427975,74.9483375 L445.45955,76.240225 L445.671558,76.6587875 L445.802371,76.7719125 L445.795604,76.7719125 L445.506914,80.3014125 L443.228964,80.3104625 L443.3485,82.4960375 L443.528932,84.02775 L443.163558,84.02775 L443.287604,86.1364 L444.343129,94.7361625 L441.679507,94.7452125 L441.679507,95.9036125 L441.29609,95.9036125 L441.29609,98.0620375 L438.082151,98.0710875 L439.309086,108.899412 L438.082151,108.901675 L439.311342,119.741312 L438.079896,119.743575 L439.315853,130.594525 L438.07764,130.596788 L439.320363,141.456788 L438.075385,141.456788 L439.322619,152.330362 L438.075385,152.330362 L439.270745,162.737863 L438.614424,162.737863 L438.073129,163.210725 L439.203083,172.98925 L438.612169,172.98925 L438.070874,174.104662 L439.029417,182.385413 L438.542252,182.385413 L438.528719,182.503062 L438.512932,182.76325 L438.501655,183.145612 L438.490378,183.623 L438.485867,184.161475 L438.483612,184.7271 L438.485867,185.27915 L438.490378,185.781425 L438.501655,186.195463 L438.512932,186.494112 L438.526464,186.659275 L438.542252,186.677375 L439.320363,186.679637 L439.320363,187.582375 L436.42218,218.270925 L435.980122,218.16685 L435.910205,218.16685 L434.759953,217.879513 L433.560083,217.580862 L432.671457,217.5786 L430.792712,207.711838 L430.413806,207.711838 L430.413806,207.573825 L430.794968,207.422237 L431.162597,206.028538 L429.694335,206.0308 L429.543223,206.11225 L429.543223,206.4652 L428.537317,206.4652 L428.541827,205.286438 L428.309522,205.286438 L428.311777,205.064713 L427.795291,205.064713 L429.056058,204.4199 L429.475561,204.046587 L430.186011,203.6416 L430.188266,203.286388 L427.765971,203.091813 L426.615719,202.947012 L425.546662,202.47415 L424.854255,201.935675 L427.549453,200.349662 L427.869719,199.874538 L428.417781,199.363213 L428.420036,199.005737 L428.420036,198.987638 L425.084306,198.630162 L424.705399,198.58265 L424.012993,198.322463 L423.034151,197.80435 L422.11395,197.195738 L421.243367,196.526038 L420.408871,195.81335 L419.60595,195.068987 L418.827838,194.304262 L418.065514,193.528225 L417.465579,192.89925 L417.738482,192.797437 L417.792612,192.770287 L417.833209,192.720512 L417.851252,192.659425 L417.835464,192.598338 L417.776824,192.568925 L417.652777,192.51915 L417.508432,192.145837 L417.524219,192.10285 L417.503921,192.059863 L417.481367,192.046288 L417.456558,192.034975 L417.260338,191.83135 L417.260338,191.682025 L417.391151,191.63225 L417.445281,191.584738 L417.467835,191.52365 L417.458813,191.45125 L417.420471,191.401475 L417.355065,191.374325 L417.540007,191.032688 L417.668565,190.659375 L417.709162,190.270225 L417.589626,189.899175 L417.258083,189.697812 L417.039309,189.598263 L416.764151,189.562062 L416.493504,189.5417 L416.222856,189.564325 L415.949953,189.60505 L415.726669,189.7046 L415.397381,189.910487 L415.273335,190.281537 L415.316187,190.670688 L415.440234,191.041737 L415.627432,191.383375 L415.562025,191.410525 L415.521428,191.458037 L415.512406,191.5327 L415.53496,191.593787 L415.58909,191.639038 L415.719903,191.691075 L415.719903,191.835875 L415.523683,192.044025 L415.496619,192.055338 L415.47632,192.068913 L415.456022,192.1119 L415.471809,192.154888 L415.327464,192.530462 L415.201162,192.580238 L415.144777,192.60965 L415.126734,192.670738 L415.144777,192.731825 L415.185374,192.7816 L415.241759,192.80875 L415.512406,192.9083 L414.914727,193.539537 L414.154658,194.322362 L413.378802,195.093875 L412.575881,195.8405 L411.74364,196.557713 L410.877568,197.231937 L409.961878,197.845075 L408.992058,198.36545 L408.299651,198.630162 L407.947809,198.679937 L404.740637,199.060037 L404.623356,199.055512 L404.625612,199.428825 L405.146608,199.935625 L405.442065,200.406225 L408.135007,201.983188 L407.460644,202.51035 L406.400608,202.987738 L405.236824,203.141588 L405.232313,203.14385 L402.868658,203.340688 L402.868658,203.6959 L403.547532,204.096362 L403.939971,204.46515 L405.18946,205.103175 L404.749658,205.103175 L404.749658,205.3249 L404.521863,205.3249 L404.524119,206.499137 L403.531745,206.5014 L403.531745,206.150712 L403.389655,206.069263 L401.93718,206.069263 L402.298043,207.456175 L402.670183,207.612287 L402.672439,207.743513 L402.298043,207.743513 L400.432831,217.553712 L399.411137,217.55145 L398.260885,217.847837 L397.157996,218.13065 L397.090335,218.128388 L395.150694,218.578625 L394.916133,218.578625 L394.153809,218.770938 L392.705845,219.132938 L391.925478,219.327513 L391.079705,219.52435 L390.781993,219.52435 L390.348957,219.630688 L388.774691,220.019837 L386.997439,220.4565 L386.050173,220.689538 L384.904432,220.958775 L379.874899,222.123963 L372.58095,223.818575 L372.58095,223.83215 L372.258428,223.906813 L371.850201,223.8955 L364.565273,223.906813 L330.147935,204.723075 L330.021633,199.630188 L328.677417,199.61435 L328.397748,199.725212 L328.354896,204.704975 L292.306906,224.008625 L291.982129,224.008625 L254.903424,203.983238 L254.901169,203.983238 L254.898914,203.9855 L254.896658,203.987763 L254.892147,203.992288 L254.889892,203.99455 L254.887637,204.0036 L254.883126,204.008125 L254.880871,204.014912 L254.878615,204.0217 L254.87636,204.026225 L254.87636,204.028488 L254.87636,204.03075 L291.867104,224.008625 L287.960759,224.015412 L254.898914,204.84525 L254.894403,204.847512 L254.892147,204.852037 L254.889892,204.858825 L254.883126,204.86335 L254.880871,204.870138 L254.87636,204.876925 L254.874104,204.883713 L254.871849,204.888238 L254.869594,204.892762 L254.869594,204.897288 L287.845734,224.015412 L283.921345,224.019937 L254.898914,205.709525 L254.896658,205.711788 L254.892147,205.71405 L254.889892,205.718575 L254.885381,205.7231 L254.880871,205.729887 L254.87636,205.736675 L254.871849,205.743462 L254.869594,205.75025 L254.867338,205.757037 L254.865083,205.761562 L254.865083,205.763825 L283.804065,224.019937 L279.863888,224.026725 L254.896658,206.576063 L254.894403,206.576063 L254.892147,206.580588 L254.887637,206.585113 L254.883126,206.5919 L254.87636,206.598688 L254.871849,206.605475 L254.867338,206.612262 L254.862827,206.61905 L254.860572,206.623575 L254.858317,206.6281 L254.858317,206.630362 L279.748863,224.026725 L275.790644,224.033513 L254.896658,207.440337 L254.894403,207.4426 L254.892147,207.444862 L254.887637,207.449388 L254.883126,207.453913 L254.87636,207.4607 L254.871849,207.46975 L254.865083,207.476538 L254.858317,207.483325 L254.853806,207.490113 L254.85155,207.492375 L254.85155,207.4969 L275.673363,224.033513 L271.701612,224.038038 L254.896658,208.309137 L254.892147,208.3114 L254.887637,208.315925 L254.883126,208.322712 L254.874104,208.3295 L254.867338,208.33855 L254.860572,208.343075 L254.853806,208.349863 L254.84704,208.35665 L254.844784,208.361175 L254.842529,208.363438 L254.842529,208.3657 L271.584331,224.038038 L267.592281,224.044825 L254.898914,209.177938 L254.896658,209.177938 L254.892147,209.182462 L254.885381,209.186988 L254.878615,209.191512 L254.869594,209.200563 L254.860572,209.20735 L254.85155,209.214137 L254.844784,209.220925 L254.838018,209.227712 L254.833507,209.229975 L254.831252,209.232237 L267.477255,224.044825 L263.471673,224.051612 L254.90568,210.046738 L254.903424,210.046738 L254.901169,210.049 L254.894403,210.053525 L254.887637,210.05805 L254.87636,210.064837 L254.865083,210.071625 L254.853806,210.078413 L254.842529,210.0852 L254.833507,210.089725 L254.826741,210.09425 L254.819975,210.098775 L254.819975,210.101038 L263.352137,224.051612 L259.333022,224.056137 L254.90568,211.79565 L254.901169,211.79565 L254.894403,211.797912 L254.883126,211.800175 L254.871849,211.8047 L254.858317,211.809225 L254.844784,211.816012 L254.833507,211.818275 L254.819975,211.8228 L254.810953,211.829588 L254.804187,211.829588 L254.801932,211.83185 L259.213486,224.056137 L254.641799,224.062925 L254.903424,198.822475 L254.799676,198.702562 L253.33818,198.684462 L252.235291,224.06745 L247.823737,224.074238 L252.742755,211.820538 L252.742755,211.818275 L252.738245,211.818275 L252.731478,211.81375 L252.720201,211.809225 L252.708924,211.8047 L252.695392,211.797912 L252.68186,211.793388 L252.668327,211.788862 L252.65705,211.7866 L252.648029,211.784337 L252.641263,211.782075 L252.636752,211.782075 L247.701946,224.074238 L243.612914,224.0765 L252.819439,210.087462 L252.819439,210.0852 L252.814928,210.080675 L252.808162,210.07615 L252.79914,210.069363 L252.790119,210.062575 L252.776586,210.055788 L252.767565,210.049 L252.756288,210.042213 L252.747266,210.037688 L252.738245,210.035425 L252.735989,210.035425 L252.733734,210.035425 L243.491122,224.0765 L239.379536,224.083287 L252.85327,209.220925 L252.85327,209.218662 L252.851014,209.214137 L252.846504,209.209612 L252.839737,209.202825 L252.830716,209.196037 L252.82395,209.186988 L252.814928,209.182462 L252.805906,209.175675 L252.796885,209.168887 L252.792374,209.166625 L252.787863,209.164363 L252.785608,209.164363 L239.26,224.083287 L235.128115,224.090075 L252.889356,208.352125 L252.889356,208.3476 L252.884845,208.343075 L252.880335,208.33855 L252.875824,208.331763 L252.869058,208.324975 L252.862291,208.315925 L252.85327,208.309137 L252.846504,208.30235 L252.841993,208.297825 L252.837482,208.2933 L252.835227,208.2933 L237.530112,221.852463 L235.006324,224.090075 L230.851885,224.0946 L252.927698,207.485587 L252.927698,207.481063 L252.925442,207.476538 L252.920932,207.46975 L252.916421,207.462963 L252.91191,207.456175 L252.905144,207.447125 L252.898378,207.440337 L252.893867,207.435812 L252.889356,207.429025 L252.884845,207.426762 L252.880335,207.426762 L230.730094,224.096862 L226.557612,224.101388 L252.96604,206.614525 L252.96604,206.61 L252.963784,206.605475 L252.961529,206.598688 L252.957018,206.5919 L252.952507,206.585113 L252.945741,206.578325 L252.94123,206.571538 L252.936719,206.56475 L252.932209,206.560225 L252.929953,206.557963 L252.927698,206.557963 L226.433565,224.101388 L222.238529,224.108175 L253.006637,205.745725 L253.006637,205.743462 L253.004381,205.738938 L253.002126,205.73215 L252.999871,205.725362 L252.99536,205.718575 L252.990849,205.711788 L252.986338,205.705 L252.981827,205.700475 L252.977317,205.69595 L252.975061,205.693687 L252.972806,205.693687 L222.114482,224.108175 L217.901403,224.114963 L253.047234,204.879188 L253.047234,204.8724 L253.044978,204.867875 L253.042723,204.861087 L253.038212,204.8543 L253.033701,204.847512 L253.029191,204.842987 L253.02468,204.8362 L253.022424,204.831675 L253.020169,204.829413 L253.017914,204.829413 L217.775101,224.114963 L213.541723,224.12175 L253.090086,204.01265 L253.090086,204.008125 L253.087831,204.0036 L253.085576,203.996813 L253.081065,203.992288 L253.078809,203.9855 L253.074299,203.980975 L253.069788,203.974187 L253.067532,203.969662 L253.065277,203.9674 L253.063022,203.965137 L253.060766,203.965137 L213.413165,224.12175 L203.37891,224.135325 L201.838475,224.19415 L200.207824,224.19415 L200.255187,202.824838 L199.628187,202.809 L199.634953,198.915238 L199.515417,198.912975 L199.53346,190.5372 L199.371072,190.478375 L188.56096,190.523625 L187.961025,190.539463 L187.947493,202.51035 L187.392665,202.526188 L186.731835,202.802212 L186.727324,206.035325 L186.544637,206.001387 L185.006457,205.924462 L180.231784,206.74575 L180.240806,192.559875 L178.634964,192.532725 L178.634964,188.856163 L177.41254,188.779237 L177.414795,178.116075 L176.44723,177.9215 L175.549583,177.892088 L166.485147,178.344587 L166.494169,192.544038 L165.736356,192.544038 L165.420601,192.550825 L165.434133,208.478825 L163.005072,208.478825 L163.005072,208.2933 L161.875119,207.662062 L158.273252,207.662062 L158.273252,206.451625 L158.106353,206.290987 L157.091424,206.290987 L157.091424,205.417663 L157.003464,204.741175 L156.841076,204.082787 L156.60877,203.45155 L156.313313,202.865562 L155.95245,202.331613 L155.539712,201.85875 L155.077356,201.453763 L154.576658,201.1257 L154.044385,200.88135 L153.487302,200.71845 L153.437683,200.634738 L153.374532,200.553288 L153.304615,200.478625 L153.223421,200.41075 L153.133205,200.342875 L153.036223,200.286313 L152.93473,200.234275 L152.826471,200.191287 L152.711446,200.152825 L152.594165,200.127938 L152.582888,200.125675 L152.467863,200.105312 L152.350583,200.094 L152.228791,200.105312 L152.113766,200.125675 L151.998741,200.150562 L151.989719,200.152825 L151.987464,200.152825 L151.989719,200.152825 L151.987464,200.152825 L151.874694,200.189025 L151.76418,200.234275 L151.662687,200.286313 L151.565705,200.342875 L151.475489,200.408488 L151.39655,200.478625 L151.324378,200.553288 L151.263482,200.632475 L151.209353,200.716187 L150.654525,200.879087 L150.119996,201.123437 L149.619299,201.4515 L149.156942,201.856487 L148.74195,202.32935 L148.383342,202.865562 L148.085629,203.45155 L147.853324,204.080525 L147.68868,204.741175 L147.600719,205.417663 L147.600719,206.29325 L146.892525,206.295513 L146.073817,206.45615 L146.073817,207.66885 L143.394406,207.671113 L140.836788,208.306875 L140.836788,208.4924 L125.599335,208.50145 L125.599335,208.261625 L125.112169,208.261625 L125.114424,206.8453 L119.530065,205.938038 L117.549827,206.017225 L111.160291,207.155262 L111.158036,208.725437 L110.558101,208.784262 L110.558101,210.368012 L109.84314,210.0128 L104.770755,209.9947 L103.787403,210.612363 L102.776986,210.7006 L102.725112,211.187038 L102.492806,211.263962 L102.560468,211.653112 L103.746806,211.7323 L104.671518,212.270775 L104.676029,212.270775 L104.657986,212.2934 L104.657986,212.467613 L101.919935,212.460825 L101.919935,210.757162 L102.765709,210.270725 L103.963324,210.1938 L104.143755,209.8861 L104.238482,209.177938 L103.05891,209.103275 L101.910914,208.499188 L94.9755719,208.469775 L93.8501295,209.069337 L92.6908561,209.13495 L92.7562626,209.847637 L92.8848201,210.155338 L94.0914568,210.241312 L94.9710612,210.752637 L94.9710612,212.440462 L92.1698597,212.433675 L92.1698597,212.259462 L92.1563273,212.236838 L92.1653489,212.236838 L93.0990827,211.700625 L94.2899317,211.630488 L94.3327842,211.236812 L94.1906942,211.1893 L94.1546079,210.67345 L93.1103597,210.578425 L92.0931763,209.94945 L86.9576403,209.933613 L85.7104065,210.553538 L84.4293417,210.641775 L84.5466223,211.082962 L84.3842338,210.969838 L82.3340791,210.96305 L83.2948777,210.45625 L81.170295,210.345387 L79.1517158,210.119137 L77.2368849,209.779762 L75.4303129,209.338575 L73.7297446,208.8001 L72.1374353,208.168863 L70.6511295,207.453913 L69.2730827,206.657512 L67.9987842,205.790975 L66.8304892,204.852037 L65.7659424,203.84975 L64.8051439,202.786375 L46.7845324,202.894975 L45.8913957,203.965137 L44.9057878,204.969687 L43.8277086,205.91315 L42.6503921,206.786475 L41.3806043,207.5874 L40.0115791,208.306875 L38.825241,208.820462 L38.7372806,203.7502 L40.2483957,202.589537 L40.3904856,202.469625 L40.5348309,202.322563 L40.6836871,202.152875 L40.8325432,201.960563 L40.9813993,201.743362 L41.1325108,201.501275 L41.2836223,201.2343 L41.4324784,200.940175 L41.5858453,200.623425 L41.7369568,200.281788 L41.8903237,199.913 L42.0076043,199.6053 L42.9029964,199.431087 L42.8398453,198.707088 L42.5894964,198.648263 L41.5993777,198.847363 L41.4956295,198.865463 L40.6521115,199.008 L40.6498561,199.008 L40.4739353,199.03515 L39.7273993,199.118863 L39.7161223,199.121125 L39.4477302,199.146013 L38.8229856,199.195787 L38.7914101,199.19805 L38.5320396,199.213888 L38.4959532,199.21615 L37.9456367,199.231988 L37.5531978,199.231988 L37.0840755,199.229725 L37.0164137,199.229725 L36.7773417,199.220675 L36.6871259,199.21615 L36.2518345,199.189 L36.1706403,199.182212 L35.8413525,199.1528 L35.4376367,199.112075 L35.3496763,199.103025 L35.1850324,199.082662 L35.074518,199.066825 L34.9031079,199.037412 L34.8782986,199.032887 L34.6392266,198.9899 L34.208446,198.903925 L34.1385288,198.888087 L34.0528237,198.867725 L33.9671187,198.8451 L33.4664209,198.713875 L33.4258237,198.7003 L33.3310971,198.67315 L32.7514604,198.494412 L32.4289388,198.440112 L32.3048921,198.759125 L31.8650899,199.1528 L31.8019388,198.994425 L31.7523201,198.842838 L31.8605791,197.0713 L31.8741115,196.849575 L32.0455216,196.13915 L31.4252878,196.13915 L31.3373273,196.433275 L31.3328165,196.421962 L31.2831978,196.21155 L31.2380899,195.969462 L31.1952374,195.697963 L31.1478741,195.440037 L31.1050216,195.16175 L31.096,195.084825 L31.215536,195.0622 L33.0378957,194.661738 L33.1033022,194.523725 L33.0897698,193.31555 L35.0812842,192.514625 L35.1624784,192.3653 L33.0288741,192.996537 L31.0441259,193.471663 L30.8524173,193.519175 L29.3413022,193.797462 L29.3367914,193.747688 L29.4337734,193.720537 L30.8862482,193.256725 L30.9403777,193.111925 L30.9268453,191.702387 L32.5168993,190.779287 L32.5800504,190.61865 L30.879482,191.349437 L29.2939388,191.896963 L29.1405719,191.949 L27.3723417,192.4196 L25.5838129,192.761237 L23.777241,192.964863 L21.9661583,193.035 L20.1550755,192.967125 L18.3530144,192.765762 L16.5644856,192.430913 L14.7962554,191.964837 L14.6428885,191.9128 L13.0618561,191.367537 L11.3612878,190.641275 L11.431205,190.801912 L13.0122374,191.720487 L12.998705,193.130025 L13.0573453,193.274825 L14.5098201,193.736375 L14.5007986,193.826875 L12.8927014,193.537275 L12.7009928,193.489763 L10.7185,193.019163 L8.58940647,192.39245 L8.67511151,192.539513 L10.6576043,193.335913 L10.6440719,194.544087 L10.7162446,194.679838 L12.5340935,195.078037 L12.5340935,195.0803 L12.5205612,195.17985 L12.4731978,195.455875 L12.4235791,195.711538 L12.3762158,195.9853 L12.3243417,196.227387 L12.2679568,196.4378 L12.2296151,196.553188 L12.0965468,196.154988 L11.4785683,196.15725 L11.6680216,196.867675 L11.6838094,197.0894 L11.7898129,198.630162 L11.4966115,198.677675 L11.3973741,198.424275 L11.0816187,198.478575 L10.5064928,198.657312 L10.4117662,198.684462 L10.3689137,198.698037 L9.87047122,198.827 L9.78476619,198.849625 L9.70357194,198.869988 L9.63139928,198.883563 L9.20061871,198.969538 L8.9931223,199.008 L8.76532734,199.046462 L8.65481295,199.0623 L8.49016906,199.084925 L8.40220863,199.091712 L8.0007482,199.132438 L7.67371583,199.164112 L7.59477698,199.1709 L7.16174101,199.195787 L7.07152518,199.200312 L6.83470863,199.209362 L6.76704676,199.209362 L6.30017986,199.213888 L5.9618705,199.213888 L5.9122518,199.211625 L5.36644604,199.19805 L5.32810432,199.195787 L5.07098921,199.184475 L5.04166906,199.182212 L4.42143525,199.130175 L4.15529856,199.105288 L4.14402158,199.103025 L3.4042518,199.021575 L3.22833094,198.996688 L2.38932374,198.856413 L2.28783094,198.838313 L1.30447842,198.641475 L1.06315108,198.7003 L1,199.41525 L1.71721583,199.555525 L1.72398201,199.573625 L1.5751259,199.548737 L1.7330036,199.94015 L1.89313669,200.308937 L2.05101439,200.650575 L2.21114748,200.967325 L2.37128058,201.259187 L2.52915827,201.5239 L2.68703597,201.765987 L2.84491367,201.983188 L3.00053597,202.177763 L3.15390288,202.345188 L3.30726978,202.49225 L3.45838129,202.612162 L4.89957914,203.661962 L4.52969424,224.19415 L1,224.19415 L1,237.31665 L204.80432,237.31665 L204.80432,225.368388 L252.20146,225.268837 L252.187928,225.7417 L252.077414,225.746225 L251.885705,225.753012 L251.795489,225.757538 L251.633101,237.67865 L251.651144,237.694488 L251.779701,237.708063 L252.009752,237.719375 L252.320996,237.728425 L252.697647,237.73295 L253.110385,237.73295 L253.532144,237.728425 L253.933604,237.719375 L254.287701,237.7058 L254.567371,237.692225 L254.754568,237.676388 L254.840273,237.66055 L254.995896,225.75075 L254.973342,225.743963 L254.840273,225.739437 L254.610223,225.73265 L254.601201,225.73265 L254.610223,225.264312 L328.199273,225.110463 L328.203784,225.562962 L328.160932,225.562962 L327.991777,225.56975 L327.919604,225.574275 L327.960201,236.857362 L327.991777,236.8732 L328.12259,236.886775 L328.345874,236.898088 L328.645842,236.907138 L329.002194,236.913925 L329.392378,236.91845 L329.789327,236.91845 L330.159212,236.913925 L330.486245,236.907138 L330.738849,236.898088 L330.905748,236.884512 L330.975665,236.870937 L330.926047,225.581063 L330.892216,225.574275 L330.756892,225.567487 L330.648633,225.565225 L330.644122,225.1082 L371.211924,225.024488 L371.211924,237.31665 L625.690475,237.31665 L625.690475,224.947563 L625.66341,224.947563 L625.665665,224.314063 L625.665665,224.314063 Z M104.51364,220.26645 L104.725647,219.571862 L105.091022,218.947412 L105.587209,218.422512 L106.191655,218.028838 L106.6495,217.85915 L107.344162,217.779962 L108.043335,217.861412 L108.704165,218.1035 L109.292824,218.49265 L109.777734,219.001712 L109.849906,219.128412 L109.845396,222.413562 L109.664964,222.4837 L109.662709,224.19415 L104.975996,224.19415 L104.975996,221.293625 L104.619644,221.286838 L104.51364,221.286838 L104.51364,220.26645 L104.51364,220.26645 Z M94.5109604,220.234775 L94.9169317,219.257375 L95.5597194,218.415725 L96.400982,217.76865 L97.3775683,217.365925 L98.4240719,217.227912 L99.4728309,217.368188 L100.447162,217.773175 L101.283914,218.417988 L101.926701,219.2619 L102.330417,220.237038 L102.467996,221.286837 L102.093601,221.286837 L102.093601,224.19415 L94.7545432,224.19415 L94.7567986,221.286837 L94.3733813,221.286837 L94.5109604,220.234775 L94.5109604,220.234775 Z M80.9064137,218.911212 L81.3349388,218.6103 L81.8243597,218.427037 L82.3431007,218.361425 L82.5889388,218.3931 L83.0061871,218.553738 L83.4414784,218.859175 L83.7933201,219.264162 L84.0369029,219.74155 L84.1541835,220.259662 L84.1541835,221.2891 L83.7121259,221.293625 L83.7121259,222.47465 L82.8731187,221.983688 L82.7580935,221.528925 L82.0972626,221.528925 L82.0814748,221.519875 L80.7733453,221.51535 L80.7733453,221.286838 L80.2094964,221.286838 L80.2094964,220.282287 L80.326777,219.770962 L80.5658489,219.30715 L80.9064137,218.911212 L80.9064137,218.911212 Z M79.1539712,212.641825 L79.7651835,212.671237 L80.3583525,213.015137 L80.4508237,213.058125 L80.3515863,213.058125 L80.3515863,213.209712 L79.8576547,213.209712 L79.4967914,212.942737 L79.1449496,212.64635 L79.1539712,212.641825 L79.1539712,212.641825 Z M86.4208561,221.286838 L86.4231115,220.282288 L86.6328633,219.601275 L86.9937266,218.988138 L87.4831475,218.472288 L88.0808273,218.083138 L88.7484245,217.843312 L89.4566187,217.761863 L90.1625576,217.845575 L90.7218957,218.0492 L91.2789784,218.4112 L91.7796763,218.938363 L92.1473058,219.567338 L92.3615683,220.264188 L92.3615683,221.286838 L92.2149676,221.286838 L91.9510863,221.293625 L91.9510863,224.19415 L86.9192986,224.19415 L86.921554,221.286838 L86.4208561,221.286838 L86.4208561,221.286838 Z M328.190252,223.95885 L323.920788,223.965638 L328.289489,212.413313 L328.190252,223.95885 L328.190252,223.95885 Z M328.291745,212.187062 L328.289489,212.187062 L328.280468,212.1848 L328.273701,212.180275 L328.266935,212.180275 L323.808018,223.965638 L320.050529,223.970163 L328.305277,210.671188 L328.291745,212.187062 L328.291745,212.187062 Z M328.305277,210.503762 L328.305277,210.503762 L328.298511,210.5015 L319.937759,223.970162 L316.159971,223.97695 L328.312043,209.800125 L328.305277,210.503762 L328.305277,210.503762 Z M328.314299,209.6689 L316.047201,223.97695 L312.251371,223.979212 L328.318809,208.949425 L328.314299,209.6689 L328.314299,209.6689 Z M328.321065,208.843088 L312.138601,223.979213 L308.322471,223.988262 L328.325576,208.105513 L328.321065,208.843088 L328.321065,208.843088 Z M328.325576,208.017275 L308.209701,223.988262 L304.377784,223.990525 L328.332342,207.268388 L328.325576,208.017275 L328.325576,208.017275 Z M328.334597,207.1892 L304.262759,223.990525 L300.410543,223.997312 L328.341363,206.431263 L328.334597,207.1892 L328.334597,207.1892 Z M328.341363,206.358862 L300.297773,223.997312 L296.427514,224.0041 L328.348129,205.5964 L328.341363,206.358862 L328.341363,206.358862 Z M328.348129,205.530788 L296.312489,224.0041 L292.421932,224.008625 L323.808018,207.200513 L328.354896,204.761538 L328.348129,205.530788 L328.348129,205.530788 Z M330.63059,223.956587 L330.344155,212.4744 L334.394845,223.9498 L330.63059,223.956587 L330.63059,223.956587 Z M334.507615,223.9498 L330.355432,212.191587 L330.337388,212.191587 L330.299047,210.702863 L338.204209,223.945275 L334.507615,223.9498 L334.507615,223.9498 Z M338.314723,223.945275 L330.299047,210.512813 L330.294536,210.512813 L330.276493,209.829538 L341.997784,223.938488 L338.314723,223.945275 L338.314723,223.945275 Z M342.108299,223.938488 L330.274237,209.689263 L330.256194,208.974312 L345.775572,223.933963 L342.108299,223.938488 L342.108299,223.938488 Z M345.888342,223.933963 L330.251683,208.86345 L330.23364,208.1304 L349.542083,223.927175 L345.888342,223.933963 L345.888342,223.933963 Z M349.652597,223.927175 L330.231385,208.035375 L330.213342,207.291012 L353.29055,223.92265 L349.652597,223.927175 L349.652597,223.927175 Z M353.401065,223.92265 L330.211086,207.2073 L330.193043,206.453887 L357.027741,223.915862 L353.401065,223.92265 L353.401065,223.92265 Z M357.138255,223.915863 L330.190788,206.379225 L330.172745,205.619025 L360.749144,223.911338 L357.138255,223.915863 L357.138255,223.915863 Z M360.859658,223.911338 L330.170489,205.55115 L330.150191,204.786425 L364.454759,223.906813 L360.859658,223.911338 L360.859658,223.911338 Z M573.708115,182.242875 L574.765896,182.242875 L574.743342,185.055162 L573.690072,185.057425 L573.708115,182.242875 L573.708115,182.242875 Z M566.493104,182.249662 L568.049327,182.249662 L568.042561,185.057425 L566.490849,185.057425 L566.493104,182.249662 L566.493104,182.249662 Z" sketch:type="MSShapeGroup"></path>
        </g>
    </g>
</svg>