<?xml version="1.0" encoding="UTF-8" standalone="no"?>
<svg width="116px" height="116px" viewBox="0 0 116 116" version="1.1" xmlns="http://www.w3.org/2000/svg" xmlns:xlink="http://www.w3.org/1999/xlink" xmlns:sketch="http://www.bohemiancoding.com/sketch/ns">
    <!-- Generator: Sketch 3.0.4 (8054) - http://www.bohemiancoding.com/sketch -->
    <title>tajmahal</title>
    <desc>Created with Sketch.</desc>
    <defs></defs>
    <g id="Page-1" stroke="none" stroke-width="1" fill="none" fill-rule="evenodd" sketch:type="MSPage">
        <g id="tajmahal" sketch:type="MSArtboardGroup" fill="#000000">
            <path d="M0,96.5011429 L0,89.0474286 L114.80477,89.0474286 L114.80477,96.5011429 L0,96.5011429 L0,96.5011429 Z M110.39763,88.4594286 L102.553452,88.4594286 C102.640237,86.0371429 102.803496,81.6091429 102.991674,76.4508571 L109.965422,76.4508571 C110.148444,81.6091429 110.309985,86.0371429 110.39763,88.4594286 L110.39763,88.4594286 Z M102.275052,74.8582857 L110.682044,74.8582857 L110.682044,75.8637143 L102.275052,75.8637143 L102.275052,74.8582857 L102.275052,74.8582857 Z M108.808,44.632 C108.869007,46.2682857 109.070933,51.8611429 109.314104,58.6162857 L103.636119,58.6162857 C103.884444,51.8611429 104.085511,46.2682857 104.146519,44.632 L108.808,44.632 L108.808,44.632 Z M109.882933,74.2685714 L103.069007,74.2685714 C103.231407,69.9057143 103.400681,65.1854286 103.557926,60.7977143 L109.394874,60.7977143 C109.553837,65.1854286 109.725689,69.9057143 109.882933,74.2685714 L109.882933,74.2685714 Z M102.665156,59.2034286 L110.285926,59.2034286 L110.285926,60.2088571 L102.665156,60.2088571 L102.665156,59.2034286 L102.665156,59.2034286 Z M102.275052,43.0377143 L103.887022,43.0377143 L103.887022,39.4102857 L104.672385,39.4102857 L104.672385,43.0377143 L105.3512,43.0377143 L105.3512,39.4102857 L106.14,39.4102857 L106.14,43.0377143 L106.817956,43.0377143 L106.817956,39.4102857 L107.605896,39.4102857 L107.605896,43.0377143 L108.282133,43.0377143 L108.282133,39.4102857 L109.070933,39.4102857 L109.070933,43.0377143 L110.682044,43.0377143 L110.682044,44.044 L102.275052,44.044 L102.275052,43.0377143 L102.275052,43.0377143 Z M102.275052,37.7285714 L110.682044,37.7285714 L110.682044,38.8231429 L102.275052,38.8231429 L102.275052,37.7285714 L102.275052,37.7285714 Z M108.930874,37.1414286 L104.024504,37.1414286 L104.024504,36.3357143 C104.021926,36.3271429 104.021926,36.3005714 104.021926,36.262 C104.021926,36.0391429 104.080356,35.4031429 104.73597,34.7525714 C105.1656,34.324 105.633037,33.916 105.997363,33.6108571 L105.997363,31.5905714 C105.997363,31.3728571 106.17437,31.1962857 106.389185,31.1962857 C106.609156,31.1962857 106.782726,31.3728571 106.782726,31.5905714 L106.782726,33.4685714 C107.167674,33.7831429 107.7176,34.2528571 108.21683,34.7525714 C108.879319,35.4091429 108.93517,36.0494286 108.93517,36.2465714 C108.93517,36.2808571 108.932593,36.3048571 108.930874,36.3065714 L108.930874,37.1414286 L108.930874,37.1414286 Z M90.2316741,84.1702857 C90.2316741,83.3671429 89.8682074,80.9868571 87.2423111,80.4622857 C84.6181333,80.9868571 84.2546667,83.3671429 84.2546667,84.1702857 L84.2546667,88.4594286 L82.2775111,88.4594286 L82.2775111,77.2085714 L92.2088296,77.2085714 L92.2088296,88.4594286 L90.2316741,88.4594286 L90.2316741,84.1702857 L90.2316741,84.1702857 Z M90.2316741,72.0082857 C90.2316741,71.2 89.8682074,68.8222857 87.2423111,68.3011429 C84.6181333,68.8222857 84.2546667,71.2 84.2546667,72.0082857 L84.2546667,76.6214286 L82.2775111,76.6214286 L82.2775111,64.9625714 L92.2088296,64.9625714 L92.2088296,76.6214286 L90.2316741,76.6214286 L90.2316741,72.0082857 L90.2316741,72.0082857 Z M71.7515852,64.9625714 L81.6846222,64.9625714 L81.6846222,76.6214286 L79.7074667,76.6214286 L79.7074667,72.0082857 C79.7074667,71.2 79.344,68.8222857 76.7181037,68.3011429 C74.0939259,68.8222857 73.7304593,71.2 73.7304593,72.0082857 L73.7304593,76.6214286 L71.7515852,76.6214286 L71.7515852,64.9625714 L71.7515852,64.9625714 Z M71.7515852,88.4594286 L71.7515852,77.2085714 L81.6846222,77.2085714 L81.6846222,88.4594286 L79.7074667,88.4594286 L79.7074667,84.1702857 C79.7074667,83.3671429 79.344,80.9868571 76.7181037,80.4622857 C74.0939259,80.9868571 73.7304593,83.3671429 73.7304593,84.1702857 L73.7304593,88.4594286 L71.7515852,88.4594286 L71.7515852,88.4594286 Z M81.6846222,64.3711429 L71.7335407,64.3711429 L71.7335407,62.1134286 L92.1993778,62.1134286 L92.1993778,64.3711429 L81.6846222,64.3711429 L81.6846222,64.3711429 Z M88.1694519,55.0822857 C88.1694519,54.8662857 88.342163,54.688 88.5595556,54.688 C88.7778074,54.688 88.9556741,54.8662857 88.9556741,55.0822857 L88.9556741,57.6862857 L91.411437,57.6862857 L91.411437,50.764 C91.411437,50.5471429 91.5858667,50.3714286 91.805837,50.3714286 C92.0206519,50.3714286 92.1993778,50.5471429 92.1993778,50.764 L92.1993778,61.5571429 L88.1479704,61.5571429 L88.1694519,55.0822857 L88.1694519,55.0822857 Z M72.566163,61.5254286 L71.7515852,61.5254286 L71.7515852,57.2628571 L82.0463704,57.2628571 L82.0463704,61.5254286 L80.8348148,61.5254286 L80.8348148,59.2668571 C80.8348148,58.7817143 80.4361185,58.3848571 79.9480593,58.3848571 C79.4625778,58.3848571 79.0681778,58.7817143 79.0681778,59.2668571 L79.0681778,61.5254286 L77.7810074,61.5254286 L77.7810074,59.2668571 C77.7810074,58.7817143 77.3874667,58.3848571 76.8959704,58.3848571 C76.4104889,58.3848571 76.0117926,58.7817143 76.0117926,59.2668571 L76.0117926,61.5254286 L74.730637,61.5254286 L74.730637,59.2668571 C74.730637,58.7817143 74.3302222,58.3848571 73.8438815,58.3848571 C73.3558222,58.3848571 72.9597037,58.7817143 72.9597037,59.2668571 L72.9597037,61.5254286 L72.566163,61.5254286 L72.566163,61.5254286 Z M82.0515259,56.6722857 L71.7404148,56.6722857 L71.7404148,54.3725714 C71.7653333,53.8437143 72.009363,52.63 73.5517333,51.4574286 C75.2831407,50.1468571 76.4955556,49.3471429 76.8959704,49.09 C77.298963,49.3497143 78.5096593,50.1468571 80.2436444,51.4574286 C81.9123259,52.7285714 82.0584,54.0494286 82.0584,54.4737143 C82.0584,54.55 82.0541037,54.6005714 82.0541037,54.6117143 C82.0541037,54.6117143 82.0515259,56.2214286 82.0515259,56.6722857 L82.0515259,56.6722857 Z M71.1492444,55.2442857 L43.6443556,55.2442857 L43.6443556,52.0882857 L71.1492444,52.0882857 L71.1492444,55.2442857 L71.1492444,55.2442857 Z M43.6443556,47.9285714 L44.9237926,47.9285714 L44.9237926,49.7191429 L43.6443556,49.7191429 L43.6443556,47.9285714 L43.6443556,47.9285714 Z M45.5166815,47.9285714 L46.7995556,47.9285714 L46.7995556,49.7191429 L45.5166815,49.7191429 L45.5166815,47.9285714 L45.5166815,47.9285714 Z M47.3872889,47.9285714 L48.6718815,47.9285714 L48.6718815,49.7191429 L47.3872889,49.7191429 L47.3872889,47.9285714 L47.3872889,47.9285714 Z M49.2630519,47.9285714 L50.5450667,47.9285714 L50.5450667,49.7191429 L49.2630519,49.7191429 L49.2630519,47.9285714 L49.2630519,47.9285714 Z M51.1345185,47.9285714 L52.4173926,47.9285714 L52.4173926,49.7191429 L51.1345185,49.7191429 L51.1345185,47.9285714 L51.1345185,47.9285714 Z M53.0094222,47.9285714 L54.291437,47.9285714 L54.291437,49.7191429 L53.0094222,49.7191429 L53.0094222,47.9285714 L53.0094222,47.9285714 Z M54.8800296,47.9285714 L56.1654815,47.9285714 L56.1654815,49.7191429 L54.8800296,49.7191429 L54.8800296,47.9285714 L54.8800296,47.9285714 Z M56.7540741,47.9285714 L58.0369481,47.9285714 L58.0369481,49.7191429 L56.7540741,49.7191429 L56.7540741,47.9285714 L56.7540741,47.9285714 Z M58.6264,47.9285714 L59.9109926,47.9285714 L59.9109926,49.7191429 L58.6264,49.7191429 L58.6264,47.9285714 L58.6264,47.9285714 Z M60.4995852,47.9285714 L61.785037,47.9285714 L61.785037,49.7191429 L60.4995852,49.7191429 L60.4995852,47.9285714 L60.4995852,47.9285714 Z M62.3762074,47.9285714 L63.6556444,47.9285714 L63.6556444,49.7191429 L62.3762074,49.7191429 L62.3762074,47.9285714 L62.3762074,47.9285714 Z M64.2485333,47.9285714 L65.5331259,47.9285714 L65.5331259,49.7191429 L64.2485333,49.7191429 L64.2485333,47.9285714 L64.2485333,47.9285714 Z M66.1217185,47.9285714 L67.4037333,47.9285714 L67.4037333,49.7191429 L66.1217185,49.7191429 L66.1217185,47.9285714 L66.1217185,47.9285714 Z M67.9897481,47.9285714 L69.2752,47.9285714 L69.2752,49.7191429 L67.9897481,49.7191429 L67.9897481,47.9285714 L67.9897481,47.9285714 Z M69.8672296,47.9285714 L71.1492444,47.9285714 L71.1492444,49.7191429 L69.8672296,49.7191429 L69.8672296,47.9285714 L69.8672296,47.9285714 Z M71.1492444,51.5011429 L43.6443556,51.5011429 L43.6443556,50.3062857 L71.1492444,50.3062857 L71.1492444,51.5011429 L71.1492444,51.5011429 Z M47.3993185,88.4594286 L47.3993185,59.5102857 L67.3856889,59.5102857 L67.3856889,88.4594286 L64.9771852,88.4594286 L64.9771852,73.9822857 C64.9771852,69.6357143 61.7506667,68.2882857 61.7506667,68.2882857 L57.3916444,65.9388571 L53.0352,68.2882857 C53.0352,68.2882857 49.8078222,69.6357143 49.8078222,73.9822857 L49.8078222,88.4594286 L47.3993185,88.4594286 L47.3993185,88.4594286 Z M43.6495111,88.4594286 L43.6495111,61.5254286 L43.6417778,61.5254286 L43.6417778,55.8314286 L71.1440889,55.8314286 L71.1440889,61.5254286 L71.1440889,88.4594286 L67.9751407,88.4594286 L67.9751407,58.9197143 L46.8107259,58.9197143 L46.8107259,88.4594286 L43.6495111,88.4594286 L43.6495111,88.4594286 Z M69.8672296,47.3405714 L43.5549926,47.3405714 C43.268,46.9214286 42.2523556,45.1977143 42.2523556,41.962 C42.2523556,41.542 42.2721185,41.0937143 42.3116444,40.6205714 C42.6751111,36.1394286 46.2590815,31.8605714 51.9155852,29.0825714 L62.7774815,29.0825714 C68.436563,31.864 72.0170963,36.1428571 72.384,40.6205714 C72.4209481,41.0937143 72.4389926,41.542 72.4389926,41.962 C72.4389926,45.1977143 71.4250667,46.9214286 71.1380741,47.3405714 L69.8672296,47.3405714 L69.8672296,47.3405714 Z M53.3196148,27.5628571 L53.4596741,27.4411429 C54.4289185,26.5934286 55.3423111,25.792 56.5555852,25.792 L56.7566519,25.792 L56.7566519,19.5871429 C56.7566519,19.2622857 57.0195852,19 57.3461037,19 C57.671763,19 57.9364148,19.2622857 57.9364148,19.5871429 L57.9364148,25.792 L58.1374815,25.792 C59.3507556,25.792 60.2658667,26.5934286 61.2359704,27.4411429 L61.3700148,27.5628571 C61.808237,27.9425714 62.2387259,28.2545714 62.6021926,28.4928571 L52.0882963,28.4928571 C52.4543407,28.2545714 52.8839704,27.9425714 53.3196148,27.5628571 L53.3196148,27.5628571 Z M43.0497481,56.6722857 L32.7420741,56.6722857 L32.7420741,54.646 C32.7377778,54.6305714 32.731763,54.574 32.731763,54.4865714 C32.731763,54.0365714 32.8864296,52.7242857 34.5473778,51.4574286 C36.2805037,50.1468571 37.494637,49.3471429 37.8950519,49.09 C38.2963259,49.3497143 39.5070222,50.1468571 41.2358519,51.4574286 C42.7928296,52.636 43.0274074,53.86 43.0523259,54.3674286 C43.0523259,54.3674286 43.0497481,56.2214286 43.0497481,56.6722857 L43.0497481,56.6722857 Z M22.623437,50.764 C22.623437,50.5471429 22.802163,50.3714286 23.0161185,50.3714286 C23.2335111,50.3714286 23.4088,50.5471429 23.4088,50.764 L23.4088,57.6862857 L25.868,57.6862857 L25.868,55.0822857 C25.868,54.8662857 26.0450074,54.688 26.2641185,54.688 C26.4780741,54.688 26.653363,54.8662857 26.653363,55.0822857 L26.6748444,61.5571429 L22.623437,61.5571429 L22.623437,50.764 L22.623437,50.764 Z M33.5626667,61.5254286 L32.7446519,61.5254286 L32.7446519,57.2628571 L43.0420148,57.2628571 L43.0420148,61.5254286 L41.8321778,61.5254286 L41.8321778,59.2668571 C41.8321778,58.7817143 41.4360593,58.3848571 40.948,58.3848571 C40.4590815,58.3848571 40.062963,58.7817143 40.062963,59.2668571 L40.062963,61.5254286 L38.7757926,61.5254286 L38.7757926,59.2668571 C38.7757926,58.7817143 38.3796741,58.3848571 37.8950519,58.3848571 C37.4069926,58.3848571 37.0108741,58.7817143 37.0108741,59.2668571 L37.0108741,61.5254286 L35.7237037,61.5254286 L35.7237037,59.2668571 C35.7237037,58.7817143 35.3284444,58.3848571 34.8395259,58.3848571 C34.3540444,58.3848571 33.9587852,58.7817143 33.9587852,59.2668571 L33.9587852,61.5254286 L33.5626667,61.5254286 L33.5626667,61.5254286 Z M33.1253037,64.9625714 L43.0583407,64.9625714 L43.0583407,76.6214286 L41.0811852,76.6214286 L41.0811852,72.0082857 C41.0811852,71.2 40.716,68.8222857 38.0901037,68.3011429 C35.4659259,68.8222857 35.1024593,71.2 35.1024593,72.0082857 L35.1024593,76.6214286 L33.1253037,76.6214286 L33.1253037,64.9625714 L33.1253037,64.9625714 Z M33.1253037,88.4594286 L33.1253037,77.2085714 L43.0583407,77.2085714 L43.0583407,88.4594286 L41.0811852,88.4594286 L41.0811852,84.1702857 C41.0811852,83.3671429 40.716,80.9868571 38.0901037,80.4622857 C35.4659259,80.9868571 35.1024593,83.3671429 35.1024593,84.1702857 L35.1024593,88.4594286 L33.1253037,88.4594286 L33.1253037,88.4594286 Z M22.5942222,62.1134286 L43.0609185,62.1134286 L43.0609185,64.3711429 L22.5942222,64.3711429 L22.5942222,62.1134286 L22.5942222,62.1134286 Z M22.5968,64.9625714 L32.5324148,64.9625714 L32.5324148,76.6214286 L30.5552593,76.6214286 L30.5552593,72.0082857 C30.5552593,71.2 30.1892148,68.8222857 27.5633185,68.3011429 C24.9391407,68.8222857 24.5756741,71.2 24.5756741,72.0082857 L24.5756741,76.6214286 L22.5968,76.6214286 L22.5968,64.9625714 L22.5968,64.9625714 Z M22.5968,88.4594286 L22.5968,77.2085714 L32.5324148,77.2085714 L32.5324148,88.4594286 L30.5552593,88.4594286 L30.5552593,84.1702857 C30.5552593,83.3671429 30.1892148,80.9868571 27.5633185,80.4622857 C24.9391407,80.9868571 24.5756741,83.3671429 24.5756741,84.1702857 L24.5756741,88.4594286 L22.5968,88.4594286 L22.5968,88.4594286 Z M12.2478815,88.4594286 L4.40714074,88.4594286 C4.49392593,86.0371429 4.65546667,81.6091429 4.84106667,76.4508571 L11.8096593,76.4508571 C12.0004148,81.6091429 12.160237,86.0371429 12.2478815,88.4594286 L12.2478815,88.4594286 Z M4.1253037,74.8582857 L12.5297185,74.8582857 L12.5297185,75.8637143 L4.1253037,75.8637143 L4.1253037,74.8582857 L4.1253037,74.8582857 Z M10.6608296,44.632 C10.7158222,46.2682857 10.9203259,51.8611429 11.1643556,58.6162857 L5.48722963,58.6162857 C5.73383704,51.8611429 5.9349037,46.2682857 5.99677037,44.632 L10.6608296,44.632 L10.6608296,44.632 Z M11.7349037,74.2685714 L4.92183704,74.2685714 C5.07736296,69.9057143 5.25093333,65.1854286 5.41247407,60.7977143 L11.2442667,60.7977143 C11.4032296,65.1854286 11.573363,69.9057143 11.7349037,74.2685714 L11.7349037,74.2685714 Z M4.51540741,59.2034286 L12.1387556,59.2034286 L12.1387556,60.2088571 L4.51540741,60.2088571 L4.51540741,59.2034286 L4.51540741,59.2034286 Z M4.1253037,43.0377143 L5.73641481,43.0377143 L5.73641481,39.4102857 L6.52263704,39.4102857 L6.52263704,43.0377143 L7.19887407,43.0377143 L7.19887407,39.4102857 L7.98939259,39.4102857 L7.98939259,43.0377143 L8.66391111,43.0377143 L8.66391111,39.4102857 L9.45185185,39.4102857 L9.45185185,43.0377143 L10.1323852,43.0377143 L10.1323852,39.4102857 L10.9177481,39.4102857 L10.9177481,43.0377143 L12.5297185,43.0377143 L12.5297185,44.044 L4.1253037,44.044 L4.1253037,43.0377143 L4.1253037,43.0377143 Z M4.1253037,37.7285714 L12.5297185,37.7285714 L12.5297185,38.8231429 L4.1253037,38.8231429 L4.1253037,37.7285714 L4.1253037,37.7285714 Z M10.7828444,37.1414286 L5.87475556,37.1414286 L5.87475556,36.3357143 C5.87475556,36.3271429 5.87217778,36.3005714 5.87217778,36.262 C5.87217778,36.0391429 5.93404444,35.4031429 6.58536296,34.7525714 C7.01499259,34.324 7.48328889,33.916 7.84933333,33.6108571 L7.84933333,31.5905714 C7.84933333,31.3728571 8.02462222,31.1962857 8.24201481,31.1962857 C8.46026667,31.1962857 8.63555556,31.3728571 8.63555556,31.5905714 L8.63555556,33.4685714 C9.01620741,33.7831429 9.56957037,34.2528571 10.065363,34.7525714 C10.7304296,35.4091429 10.7828444,36.0494286 10.7828444,36.2465714 L10.7828444,36.3065714 L10.7828444,37.1414286 L10.7828444,37.1414286 Z" id="Imported-Layers" sketch:type="MSShapeGroup"></path>
        </g>
    </g>
</svg>