<?xml version="1.0" encoding="utf-8"?>
<!-- Generator: Adobe Illustrator 14.0.0, SVG Export Plug-In . SVG Version: 6.00 Build 43363)  -->
<!DOCTYPE svg PUBLIC "-//W3C//DTD SVG 1.1//EN" "http://www.w3.org/Graphics/SVG/1.1/DTD/svg11.dtd">
<svg version="1.1" id="Layer_1" xmlns="http://www.w3.org/2000/svg" xmlns:xlink="http://www.w3.org/1999/xlink" x="0px" y="0px"
	 width="40px" height="40px" viewBox="8.455 8.453 40 40" enable-background="new 8.455 8.453 40 40" xml:space="preserve">
<g>
	<path opacity="0.5" fill="#5ACBF5" enable-background="new    " d="M45.771,18.455c-0.942-1.544-2.013-2.919-3.221-4.128
		c-3.76-3.792-8.928-5.871-14.095-5.871v3.723c4.228,0,8.39,1.679,11.477,4.765c1.007,0.974,1.88,2.115,2.618,3.389
		c1.475,2.55,2.146,5.336,2.146,8.087v0.035c0,4.26-1.679,8.421-4.765,11.508l2.618,2.618c3.826-3.792,5.838-8.892,5.838-14.126
		l0.067-0.035C48.455,25.03,47.583,21.607,45.771,18.455z"/>
	<path fill="#5ACBF5" d="M39.932,39.962c-1.008,0.975-2.083,1.846-3.356,2.585c-2.55,1.476-5.368,2.181-8.121,2.181l0,0
		c-4.294,0-8.455-1.678-11.542-4.765c-0.94-0.976-1.88-2.114-2.551-3.39c-1.476-2.55-2.215-5.335-2.215-8.119l0,0
		c0-4.263,1.679-8.423,4.766-11.51c1.006-0.974,2.147-1.846,3.355-2.585c2.618-1.475,5.367-2.181,8.12-2.181h0.067V8.455h-0.067
		c-3.355,0-6.779,0.871-9.932,2.683c-1.543,0.906-2.953,1.979-4.161,3.188c-3.757,3.792-5.839,8.894-5.839,14.129l0,0
		c0,3.422,0.874,6.845,2.687,9.998c0.871,1.543,1.946,2.92,3.153,4.128c3.758,3.792,8.924,5.872,14.16,5.872l0,0
		c3.356,0,6.845-0.872,9.933-2.685c1.609-0.905,2.952-1.979,4.162-3.187L39.932,39.962z"/>
</g>
</svg>
